<?xml version="1.0" encoding="utf-8"?>
<!-- Generator: Adobe Illustrator 21.0.2, SVG Export Plug-In . SVG Version: 6.00 Build 0)  -->
<svg version="1.1" id="Layer_1" xmlns="http://www.w3.org/2000/svg" xmlns:xlink="http://www.w3.org/1999/xlink" x="0px" y="0px"
	 viewBox="0 0 200 200" style="enable-background:new 0 0 200 200;" xml:space="preserve">
<style type="text/css">
	.st0{fill:#FFFFFF;}
	.st1{fill:#575656;}
	.st2{fill:#F7F7F7;}
	.st3{fill:#A5A5A5;}
	.st4{fill:#F9B51B;}
</style>
<g>
	<g>
		<circle class="st0" cx="100" cy="100" r="100"/>
	</g>
	<g>
		<g>
			<g>
				<path class="st0" d="M169.9,144h-110c-2.9,0-5.3-2.4-5.3-5.3V53.8c0-2.9,2.4-5.3,5.3-5.3H170c2.9,0,5.3,2.4,5.3,5.3v84.9
					C175.2,141.6,172.9,144,169.9,144z"/>
				<path class="st1" d="M169.9,145h-110c-3.5,0-6.3-2.8-6.3-6.3V53.8c0-3.5,2.8-6.3,6.3-6.3H170c3.5,0,6.3,2.8,6.3,6.3v84.9
					C176.2,142.2,173.4,145,169.9,145z M59.9,49.5c-2.3,0-4.3,2-4.3,4.3v84.9c0,2.3,2,4.3,4.3,4.3h110c2.4,0,4.3-1.9,4.4-4.3l0-84.9
					c0-2.3-2-4.3-4.3-4.3H59.9z"/>
			</g>
			<g>
				<path class="st2" d="M54.6,59.8v-6c0-2.9,2.4-5.3,5.3-5.3H170c2.9,0,5.3,2.4,5.3,5.3v6"/>
				<path class="st1" d="M175.3,60.8c-0.6,0-1-0.4-1-1v-6c0-2.3-2-4.3-4.3-4.3H59.9c-2.3,0-4.3,2-4.3,4.3v6c0,0.6-0.4,1-1,1
					s-1-0.4-1-1v-6c0-3.5,2.8-6.3,6.3-6.3H170c3.5,0,6.3,2.8,6.3,6.3v6C176.3,60.4,175.9,60.8,175.3,60.8z"/>
			</g>
			<g>
				<path class="st1" d="M175.2,61.7H54.6c-0.6,0-1-0.4-1-1s0.4-1,1-1h120.6c0.6,0,1,0.4,1,1S175.8,61.7,175.2,61.7z"/>
			</g>
			<g>
				<circle class="st3" cx="62.7" cy="55.1" r="1.9"/>
			</g>
			<g>
				<circle class="st3" cx="69.4" cy="55.1" r="1.9"/>
			</g>
			<g>
				<circle class="st3" cx="76.1" cy="55.1" r="1.9"/>
			</g>
		</g>
		<g>
			<g>
				<path class="st3" d="M140.3,81.2h-58c-0.6,0-1-0.4-1-1s0.4-1,1-1h58c0.6,0,1,0.4,1,1S140.9,81.2,140.3,81.2z"/>
			</g>
			<g>
				<g>
					<path class="st1" d="M154.5,83.5c-0.3,0-0.5-0.1-0.7-0.3l-4.4-4.5c-0.4-0.4-0.4-1,0-1.4c0.4-0.4,1-0.4,1.4,0l4.4,4.5
						c0.4,0.4,0.4,1,0,1.4C155,83.4,154.8,83.5,154.5,83.5z"/>
				</g>
				<g>
					<path class="st1" d="M150.1,83.5c-0.3,0-0.5-0.1-0.7-0.3c-0.4-0.4-0.4-1,0-1.4l4.4-4.5c0.4-0.4,1-0.4,1.4,0s0.4,1,0,1.4
						l-4.4,4.5C150.6,83.4,150.4,83.5,150.1,83.5z"/>
				</g>
			</g>
			<g>
				<path class="st3" d="M140.3,109.7h-58c-0.6,0-1-0.4-1-1s0.4-1,1-1h58c0.6,0,1,0.4,1,1S140.9,109.7,140.3,109.7z"/>
			</g>
			<g>
				<g>
					<path class="st1" d="M154.5,111.9c-0.3,0-0.5-0.1-0.7-0.3l-4.4-4.5c-0.4-0.4-0.4-1,0-1.4c0.4-0.4,1-0.4,1.4,0l4.4,4.5
						c0.4,0.4,0.4,1,0,1.4C155,111.8,154.8,111.9,154.5,111.9z"/>
				</g>
				<g>
					<path class="st1" d="M150.1,111.9c-0.3,0-0.5-0.1-0.7-0.3c-0.4-0.4-0.4-1,0-1.4l4.4-4.5c0.4-0.4,1-0.4,1.4,0
						c0.4,0.4,0.4,1,0,1.4l-4.4,4.5C150.6,111.8,150.4,111.9,150.1,111.9z"/>
				</g>
			</g>
			<g>
				<g>
					<path class="st3" d="M140.3,95.6h-58c-0.6,0-1-0.4-1-1s0.4-1,1-1h58c0.6,0,1,0.4,1,1S140.9,95.6,140.3,95.6z"/>
				</g>
				<g>
					<path class="st4" d="M152.3,96.5c-0.3,0-0.6-0.1-0.8-0.3l-2.2-2.5c-0.4-0.4-0.3-1,0.1-1.4c0.4-0.4,1-0.3,1.4,0.1l1.4,1.6
						l3.3-3.8c0.4-0.4,1-0.5,1.4-0.1c0.4,0.4,0.5,1,0.1,1.4l-4.1,4.7C152.9,96.4,152.6,96.5,152.3,96.5
						C152.3,96.5,152.3,96.5,152.3,96.5z"/>
				</g>
			</g>
			<g>
				<g>
					<path class="st3" d="M140.3,124h-58c-0.6,0-1-0.4-1-1s0.4-1,1-1h58c0.6,0,1,0.4,1,1S140.9,124,140.3,124z"/>
				</g>
				<g>
					<path class="st4" d="M152.3,124.9c-0.3,0-0.5-0.1-0.7-0.3l-2.2-2.4c-0.4-0.4-0.3-1,0.1-1.4s1-0.3,1.4,0.1l1.5,1.6l3.4-3.8
						c0.4-0.4,1-0.4,1.4-0.1c0.4,0.4,0.4,1,0.1,1.4l-4.1,4.6C152.9,124.8,152.6,124.9,152.3,124.9
						C152.3,124.9,152.3,124.9,152.3,124.9z"/>
				</g>
			</g>
		</g>
		<g>
			<g>
				<path class="st2" d="M77.8,112.9c-13.6-0.7-14-5.1-14-5.1l-7.5,2.1l-7.5-2.1c0,0-0.4,4.4-14,5.1c-10.1,0.5-10.1,31-10.1,31h31.2
					h0.7h31.2C87.9,144,87.9,113.5,77.8,112.9z"/>
				<path class="st1" d="M87.8,144.9H24.7c-0.6,0-1-0.4-1-1c0-3.2,0.3-31.5,11.1-32c12.2-0.6,13.1-4.2,13.1-4.2
					c0-0.3,0.2-0.5,0.4-0.7c0.2-0.2,0.5-0.2,0.8-0.1l7.2,2l7.2-2c0.3-0.1,0.6,0,0.8,0.1c0.2,0.2,0.4,0.4,0.4,0.7l0,0
					c0,0,0.9,3.6,13.1,4.2c0,0,0,0,0,0c4.1,0.2,7.1,4.5,9,12.8c1,4.6,1.5,9.6,1.7,12.9c0.4,6.8,0.2,6.9-0.3,7.2
					C88.1,144.9,88,144.9,87.8,144.9z M25.7,142.9h61.1c0-4.3-0.8-21.5-5.8-27.2c-1-1.1-2.1-1.7-3.2-1.8
					c-10.4-0.5-13.6-3.3-14.5-4.9l-6.6,1.9c-0.2,0-0.4,0-0.5,0l-6.6-1.9c-0.9,1.6-4.1,4.4-14.5,4.9
					C27.6,114.3,25.8,134.1,25.7,142.9z"/>
			</g>
			<g>
				<ellipse class="st0" cx="56.9" cy="106.4" rx="8.3" ry="9.9"/>
				<path class="st1" d="M56.9,117.3c-5.1,0-9.3-4.9-9.3-10.9c0-6,4.2-10.9,9.3-10.9c5.1,0,9.3,4.9,9.3,10.9
					C66.2,112.4,62,117.3,56.9,117.3z M56.9,97.5c-4,0-7.3,4-7.3,8.9s3.3,8.9,7.3,8.9c4,0,7.3-4,7.3-8.9S60.9,97.5,56.9,97.5z"/>
			</g>
			<g>
				<path class="st1" d="M58.9,99.4h-5.2c-7.9,0-14.3-6.4-14.3-14.3v-5.2c0-7.9,6.4-14.3,14.3-14.3h5.2c7.9,0,14.3,6.4,14.3,14.3
					v5.2C73.2,93,66.8,99.4,58.9,99.4z"/>
			</g>
			<g>
				<polygon class="st0" points="64.1,144.3 56.9,151.5 49.6,144.3 56.9,120.3 				"/>
				<path class="st4" d="M56.9,152.5c-0.3,0-0.5-0.1-0.7-0.3l-7.3-7.2c-0.3-0.3-0.4-0.6-0.3-1l7.3-24c0.1-0.4,0.5-0.7,1-0.7
					c0,0,0,0,0,0c0.4,0,0.8,0.3,1,0.7l7.2,24c0.1,0.4,0,0.7-0.3,1l-7.2,7.2C57.4,152.4,57.2,152.5,56.9,152.5z M50.7,144l6.2,6.1
					L63,144l-6.1-20.3L50.7,144z"/>
			</g>
			<g>
				<path class="st0" d="M72.3,88.6L72.3,88.6c0-0.3,0-0.6,0-0.9c0-11.6-6.7-13.9-16-13.9s-16,2.4-16,13.9c0,0.3,0,0.6,0,1
					c-0.8,0.2-1.4,0.9-1.4,1.7v2.8c0,1,0.8,1.7,1.7,1.7c0.2,0,0.3,0,0.5-0.1c2.1,8.4,7.8,15,15.2,15s13.1-6.7,15.2-15.2
					c0.3,0.1,0.5,0.2,0.8,0.2c1,0,1.7-0.8,1.7-1.7v-2.8C74.1,89.4,73.3,88.6,72.3,88.6z"/>
				<path class="st1" d="M56.3,110.8c-7.2,0-13.4-5.8-15.9-14.9c-1.4-0.1-2.5-1.3-2.5-2.7v-2.8c0-1,0.5-1.9,1.4-2.4v-0.3
					c0-13.1,8.6-14.9,17-14.9s17,1.8,17,14.9v0.1c0.4,0.2,0.8,0.4,1.1,0.7c0.5,0.5,0.7,1.2,0.6,1.8v2.8c0,1.5-1.2,2.7-2.7,2.7
					c0,0-0.1,0-0.1,0C69.7,104.9,63.5,110.8,56.3,110.8z M41.1,93.8c0.1,0,0.3,0,0.4,0.1c0.3,0.1,0.5,0.4,0.5,0.7
					c2.2,8.7,7.7,14.2,14.2,14.2c6.5,0,12.1-5.7,14.2-14.4c0.1-0.3,0.2-0.5,0.5-0.6c0.2-0.1,0.5-0.2,0.8-0.1l0.2,0.1
					c0.2,0.1,0.2,0.1,0.3,0.1c0.5,0,0.7-0.4,0.7-0.7v-2.8c0,0,0-0.1,0-0.1c0-0.1-0.1-0.3-0.1-0.3c-0.1-0.2-0.4-0.2-0.6-0.2
					c-0.6,0-1-0.4-1-1v-0.9c0-10.7-5.7-12.9-15-12.9c-9,0-15,2.2-15,12.9v1c0,0.5-0.3,0.9-0.8,1c-0.4,0.1-0.6,0.4-0.6,0.7v2.8
					c0,0.5,0.4,0.7,0.7,0.7l0.1,0C40.8,93.8,41,93.8,41.1,93.8z"/>
			</g>
			<g>
				<path class="st1" d="M40.4,81.3c0,0,7.7-12.2,19.2,0c10.8,11.4,13.6,6.1,13.6,6.1L71.5,76l-11.2-6.7c0,0-12.9-0.4-14.7,0
					s-6.1,10.6-6.1,10.6L40.4,81.3z"/>
			</g>
		</g>
	</g>
</g>
</svg>
