<?xml version="1.0" encoding="utf-8"?>
<!-- Generator: Adobe Illustrator 21.0.2, SVG Export Plug-In . SVG Version: 6.00 Build 0)  -->
<svg version="1.1" id="Warstwa_1" xmlns="http://www.w3.org/2000/svg" xmlns:xlink="http://www.w3.org/1999/xlink" x="0px" y="0px"
	 viewBox="0 0 100 100" style="enable-background:new 0 0 100 100;" xml:space="preserve">
<style type="text/css">
	.st0{fill:#F9F9F9;}
	.st1{fill:#FFFFFF;}
	.st2{fill:#575656;}
	.st3{fill:#F7F7F7;}
	.st4{fill:#A5A5A5;}
	.st5{fill:#F9B51B;}
</style>
<g>
	<circle class="st0" cx="49.7" cy="50" r="50"/>
</g>
<g>
	<g>
		<g>
			<path class="st1" d="M82.3,70.9H28.2c-1.4,0-2.6-1.2-2.6-2.6V26.4c0-1.4,1.2-2.6,2.6-2.6h54.1c1.4,0,2.6,1.2,2.6,2.6v41.9
				C84.9,69.7,83.7,70.9,82.3,70.9z"/>
			<path class="st2" d="M82.3,71.4H28.2c-1.7,0-3.1-1.4-3.1-3.1V26.4c0-1.7,1.4-3.1,3.1-3.1h54.1c1.7,0,3.1,1.4,3.1,3.1v41.9
				C85.4,70,84,71.4,82.3,71.4z M28.2,24.3c-1.1,0-2.1,1-2.1,2.1v41.9c0,1.1,1,2.1,2.1,2.1h54.1c1.1,0,2.1-1,2.1-2.1V26.4
				c0-1.1-1-2.1-2.1-2.1H28.2z"/>
		</g>
		<g>
			<path class="st3" d="M25.6,29.4v-3c0-1.4,1.2-2.6,2.6-2.6h54.1c1.4,0,2.6,1.2,2.6,2.6v3"/>
			<path class="st2" d="M84.9,29.9c-0.3,0-0.5-0.2-0.5-0.5v-3c0-1.1-1-2.1-2.1-2.1H28.2c-1.1,0-2.1,1-2.1,2.1v3
				c0,0.3-0.2,0.5-0.5,0.5s-0.5-0.2-0.5-0.5v-3c0-1.7,1.4-3.1,3.1-3.1h54.1c1.7,0,3.1,1.4,3.1,3.1v3C85.4,29.7,85.2,29.9,84.9,29.9z
				"/>
		</g>
		<g>
			<path class="st2" d="M84.9,30.3H25.6c-0.3,0-0.5-0.2-0.5-0.5s0.2-0.5,0.5-0.5h59.3c0.3,0,0.5,0.2,0.5,0.5S85.2,30.3,84.9,30.3z"
				/>
		</g>
		<g>
			<circle class="st4" cx="29.6" cy="27.1" r="0.9"/>
		</g>
		<g>
			<circle class="st4" cx="32.9" cy="27.1" r="0.9"/>
		</g>
		<g>
			<circle class="st4" cx="36.2" cy="27.1" r="0.9"/>
		</g>
	</g>
	<g>
		<g>
			<path class="st5" d="M37.8,59.1c-0.1,0-0.3-0.1-0.4-0.2c-0.2-0.2-0.2-0.5,0.1-0.7L49,48.3c0.2-0.2,0.4-0.2,0.6,0l4.9,3.6l9.1-8.9
				c0.2-0.2,0.5-0.2,0.7,0l6.3,5.4l6.7-9.4c0.2-0.2,0.5-0.3,0.7-0.1c0.2,0.2,0.3,0.5,0.1,0.7l-7,9.9c-0.1,0.1-0.2,0.2-0.3,0.2
				c-0.1,0-0.3,0-0.4-0.1L63.9,44l-9.1,8.9c-0.2,0.2-0.4,0.2-0.6,0l-4.9-3.6L38.1,59C38,59.1,37.9,59.1,37.8,59.1z"/>
		</g>
		<g>
			<circle class="st1" cx="64" cy="43.3" r="1.5"/>
			<path class="st5" d="M64,45.3c-1.1,0-2-0.9-2-2s0.9-2,2-2s2,0.9,2,2S65.1,45.3,64,45.3z M64,42.3c-0.6,0-1,0.4-1,1s0.4,1,1,1
				s1-0.4,1-1S64.6,42.3,64,42.3z"/>
		</g>
		<g>
			<circle class="st1" cx="49.3" cy="48.8" r="1.5"/>
			<path class="st5" d="M49.3,50.8c-1.1,0-2-0.9-2-2s0.9-2,2-2c1.1,0,2,0.9,2,2S50.4,50.8,49.3,50.8z M49.3,47.8c-0.6,0-1,0.4-1,1
				s0.4,1,1,1s1-0.4,1-1S49.9,47.8,49.3,47.8z"/>
		</g>
		<g>
			<polygon class="st1" points="76,38.2 79.1,40.1 79.2,36.5 			"/>
			<path class="st5" d="M79.1,40.6c-0.1,0-0.2,0-0.3-0.1l-3.1-1.9c-0.2-0.1-0.2-0.3-0.2-0.4c0-0.2,0.1-0.3,0.3-0.4l3.2-1.7
				c0.2-0.1,0.3-0.1,0.5,0c0.2,0.1,0.2,0.3,0.2,0.4l-0.1,3.6c0,0.2-0.1,0.3-0.3,0.4C79.3,40.6,79.2,40.6,79.1,40.6z M77,38.2l1.6,1
				l0.1-1.9L77,38.2z"/>
		</g>
	</g>
	<g>
		<g>
			<g>
				<path class="st3" d="M45.8,55.6c-6.7-0.3-6.9-2.5-6.9-2.5l-3.7,1.1l-3.7-1.1c0,0-0.2,2.2-6.9,2.5c-5,0.2-5,15.3-5,15.3h31.2
					C50.8,70.9,50.8,55.8,45.8,55.6z"/>
				<path class="st2" d="M50.8,71.4H19.6c-0.3,0-0.5-0.2-0.5-0.5c0-1.6,0.2-15.6,5.5-15.8c6-0.3,6.4-2.1,6.4-2.1
					c0-0.1,0.1-0.3,0.2-0.4c0.1-0.1,0.3-0.1,0.4-0.1l3.6,1.1l3.6-1.1c0.1,0,0.3,0,0.4,0.1s0.2,0.2,0.2,0.4l0,0c0,0,0.4,1.8,6.4,2
					c5.3,0.2,5.5,14.2,5.5,15.8C51.3,71.2,51.1,71.4,50.8,71.4z M20.1,70.4h30.2c-0.1-4.4-1-14.2-4.5-14.3c0,0,0,0,0,0
					c-5.1-0.2-6.7-1.6-7.2-2.4l-3.3,1c-0.1,0-0.2,0-0.3,0l-3.3-1c-0.5,0.8-2,2.2-7.2,2.4C21.1,56.2,20.2,66,20.1,70.4z"/>
			</g>
			<g>
				<ellipse class="st1" cx="35.5" cy="52.4" rx="4.1" ry="4.9"/>
				<path class="st2" d="M35.5,57.8c-2.5,0-4.6-2.4-4.6-5.4c0-3,2.1-5.4,4.6-5.4s4.6,2.4,4.6,5.4C40.1,55.4,38,57.8,35.5,57.8z
					 M35.5,48c-2,0-3.6,2-3.6,4.4c0,2.4,1.6,4.4,3.6,4.4s3.6-2,3.6-4.4C39.1,50,37.5,48,35.5,48z"/>
			</g>
			<g>
				<path class="st2" d="M36.6,48.9H34c-3.9,0-7-3.2-7-7v-2.6c0-3.9,3.2-7,7-7h2.6c3.9,0,7,3.2,7,7v2.6
					C43.6,45.8,40.4,48.9,36.6,48.9z"/>
			</g>
			<g>
				<polygon class="st1" points="39.1,72.9 35.5,76 32,72.9 35.5,59.2 				"/>
				<path class="st2" d="M35.5,76.5c-0.1,0-0.2,0-0.3-0.1l-3.5-3.1c-0.1-0.1-0.2-0.3-0.2-0.5L35,59.1c0.1-0.2,0.3-0.4,0.5-0.4
					c0,0,0,0,0,0c0.2,0,0.4,0.2,0.5,0.4l3.6,13.7c0,0.2,0,0.4-0.2,0.5l-3.6,3.1C35.7,76.5,35.6,76.5,35.5,76.5z M32.6,72.7l2.9,2.6
					l3-2.6l-3-11.5L32.6,72.7z"/>
			</g>
			<g>
				<path class="st1" d="M43.2,43.6L43.2,43.6c0-0.2,0-0.3,0-0.5c0-5.7-3.3-6.9-7.9-6.9s-7.9,1.2-7.9,6.9c0,0.2,0,0.3,0,0.5
					c-0.4,0.1-0.7,0.4-0.7,0.8v1.4c0,0.5,0.4,0.9,0.9,0.9c0.1,0,0.2,0,0.2,0c1,4.2,3.9,7.4,7.5,7.4s6.5-3.3,7.5-7.5
					c0.1,0.1,0.3,0.1,0.4,0.1c0.5,0,0.9-0.4,0.9-0.9v-1.4C44,44,43.7,43.6,43.2,43.6z"/>
				<path class="st2" d="M35.3,54.6c-3.6,0-6.7-3-7.9-7.4c-0.7-0.1-1.2-0.7-1.2-1.4v-1.4c0-0.5,0.3-0.9,0.7-1.1v-0.2
					c0-6.5,4.2-7.4,8.4-7.4s8.4,0.9,8.4,7.4v0.1c0.4,0.2,0.8,0.6,0.9,1.1c0,0,0,0.1,0,0.1v1.4c0,0.8-0.6,1.4-1.4,1.4c0,0,0,0,0,0
					C41.9,51.6,38.8,54.6,35.3,54.6z M35.3,36.7c-4.4,0-7.4,1.1-7.4,6.4v0.5c0,0.2-0.2,0.4-0.4,0.5c-0.1,0-0.3,0.1-0.3,0.3v1.4
					c0,0.2,0.2,0.4,0.4,0.4h0.2c0.2,0,0.4,0.2,0.5,0.4c1,4.2,3.8,7,7,7c3.2,0,6-2.9,7-7.1c0-0.2,0.2-0.3,0.4-0.4
					c0.2,0,0.4,0,0.5,0.1c0,0,0,0,0.1,0c0.2,0,0.4-0.2,0.4-0.4v-1.3c0-0.1-0.2-0.4-0.4-0.4c-0.3,0-0.5-0.2-0.5-0.5v-0.5
					C42.7,37.8,39.7,36.7,35.3,36.7z"/>
			</g>
			<g>
				<path class="st2" d="M27.4,40c0,0,3.8-6,9.5,0c5.3,5.6,6.7,3,6.7,3l-0.9-5.6l-5.5-3.3c0,0-6.4-0.2-7.3,0s-3,5.2-3,5.2L27.4,40z"
					/>
			</g>
		</g>
		<g>
			<path class="st3" d="M50.7,66.9l0.2,5L60.4,54l2.3,0.9l-9.5,19.7c0,0-5.3,7.4-7.3-9.6"/>
			<path class="st2" d="M50.6,76.7c-0.2,0-0.4,0-0.6-0.1c-2.3-0.6-3.8-4.4-4.6-11.6c0-0.3,0.2-0.5,0.4-0.6c0.3,0,0.5,0.2,0.6,0.4
				c1,8.7,2.9,10.5,3.9,10.7c1.3,0.3,2.5-1.3,2.5-1.4L62,55.2l-1.4-0.5l-9.3,17.5c-0.1,0.2-0.3,0.3-0.6,0.3c-0.2,0-0.4-0.2-0.4-0.5
				l-0.2-5c0-0.3,0.2-0.5,0.5-0.5c0.2,0,0.5,0.2,0.5,0.5l0.1,3.2L60,53.8c0.1-0.2,0.4-0.3,0.6-0.2l2.3,0.9c0.1,0.1,0.2,0.2,0.3,0.3
				c0.1,0.1,0,0.3,0,0.4l-9.5,19.7C53.6,75,52.3,76.7,50.6,76.7z"/>
		</g>
		<g>
			<path class="st1" d="M65.1,49.6l-2.5-0.9c-0.4-0.2-1,0.1-1.1,0.5l-1,2.3l-0.4-1.2C60,50,59.7,49.9,59.5,50L59,50.1
				c-0.3,0.1-0.4,0.4-0.4,0.7l1,3.2c0.1,0.2,3.3,1.3,3.3,1.3c0.4,0.2,1-0.1,1.1-0.5l1.6-4C65.8,50.3,65.5,49.8,65.1,49.6z"/>
			<path class="st2" d="M63.2,55.9c-0.2,0-0.4,0-0.5-0.1c-3.3-1.1-3.4-1.3-3.5-1.5l-1-3.3c0,0,0-0.1,0-0.1c0-0.6,0.3-1,0.7-1.2
				l0.5-0.1c0.2-0.1,0.5-0.1,0.7,0c0.2,0.1,0.4,0.3,0.5,0.6L61,49c0.1-0.3,0.3-0.6,0.7-0.7c0.4-0.2,0.8-0.2,1.1,0l2.4,0.9
				c0,0,0,0,0.1,0c0.6,0.3,1,1.1,0.7,1.8l-1.6,4c-0.1,0.3-0.3,0.6-0.7,0.7C63.6,55.8,63.4,55.9,63.2,55.9z M60,53.7
				c0.4,0.2,1.8,0.7,3,1.1c0.1,0,0.2,0,0.3,0c0.1,0,0.2-0.1,0.2-0.1l1.6-4.1c0.1-0.2-0.1-0.5-0.2-0.6l-2.5-0.9c-0.1,0-0.2,0-0.3,0
				c-0.1,0-0.2,0.1-0.2,0.1l-1,2.4c-0.1,0.2-0.2,0.3-0.5,0.3c-0.2,0-0.4-0.1-0.5-0.3l-0.4-1.2c0,0,0,0,0,0l-0.5,0.1c0,0,0,0.1,0,0.1
				L60,53.7z M59.7,50.4C59.7,50.4,59.7,50.4,59.7,50.4S59.7,50.4,59.7,50.4z"/>
		</g>
	</g>
	<g>
		<g>
			<circle class="st1" cx="19.4" cy="67.4" r="8.8"/>
			<path class="st2" d="M19.4,76.7c-5.1,0-9.3-4.2-9.3-9.3c0-5.1,4.2-9.3,9.3-9.3c5.1,0,9.3,4.2,9.3,9.3
				C28.7,72.5,24.5,76.7,19.4,76.7z M19.4,59.1c-4.6,0-8.3,3.7-8.3,8.3c0,4.6,3.7,8.3,8.3,8.3s8.3-3.7,8.3-8.3
				C27.7,62.8,24,59.1,19.4,59.1z"/>
		</g>
		<g>
			<path class="st5" d="M19.5,74c-1.7,0-3.3-0.7-4.6-1.8c-0.2-0.2-0.2-0.5,0-0.7c0.2-0.2,0.5-0.2,0.7,0c1.1,1,2.5,1.6,4,1.6
				c3.1,0,5.6-2.5,5.6-5.6c0-3.1-2.5-5.6-5.6-5.6c-0.3,0-0.5-0.2-0.5-0.5s0.2-0.5,0.5-0.5c3.7,0,6.6,2.9,6.6,6.6S23.2,74,19.5,74z"
				/>
		</g>
		<g>
			<path class="st1" d="M20.8,57.2H18c-0.6,0-1-0.5-1-1l0,0c0-0.6,0.5-1,1-1h2.8c0.6,0,1,0.5,1,1l0,0C21.8,56.7,21.4,57.2,20.8,57.2
				z"/>
			<path class="st2" d="M20.8,57.7H18c-0.8,0-1.5-0.7-1.5-1.5s0.7-1.5,1.5-1.5h2.8c0.8,0,1.5,0.7,1.5,1.5S21.6,57.7,20.8,57.7z
				 M18,55.7c-0.2,0-0.5,0.2-0.5,0.5c0,0.2,0.2,0.5,0.5,0.5h2.8c0.3,0,0.5-0.3,0.5-0.5s-0.2-0.5-0.5-0.5H18z"/>
		</g>
		<g>
			<path class="st2" d="M28.1,61.8c-0.1,0-0.3,0-0.4-0.1l-1.9-1.9c-0.2-0.2-0.2-0.5,0-0.7s0.5-0.2,0.7,0l1.9,1.9
				c0.2,0.2,0.2,0.5,0,0.7C28.4,61.8,28.2,61.8,28.1,61.8z"/>
		</g>
		<g>
			<path class="st2" d="M14.1,71.4c-0.2,0-0.3-0.1-0.4-0.2c-0.2-0.2-0.1-0.5,0.1-0.7l5.3-3.5c0.2-0.2,0.5-0.1,0.7,0.1
				c0.2,0.2,0.1,0.5-0.1,0.7l-5.3,3.5C14.3,71.4,14.2,71.4,14.1,71.4z"/>
		</g>
		<g>
			<circle class="st1" cx="19.4" cy="67.4" r="1.2"/>
			<path class="st2" d="M19.4,69.1c-0.9,0-1.7-0.8-1.7-1.7c0-0.9,0.8-1.7,1.7-1.7c0.9,0,1.7,0.8,1.7,1.7
				C21.1,68.3,20.3,69.1,19.4,69.1z M19.4,66.7c-0.4,0-0.7,0.3-0.7,0.7s0.3,0.7,0.7,0.7c0.4,0,0.7-0.3,0.7-0.7S19.8,66.7,19.4,66.7z
				"/>
		</g>
	</g>
</g>
</svg>
