<?xml version="1.0" encoding="utf-8"?>
<!-- Generator: Adobe Illustrator 21.0.2, SVG Export Plug-In . SVG Version: 6.00 Build 0)  -->
<svg version="1.1" id="Warstwa_1" xmlns="http://www.w3.org/2000/svg" xmlns:xlink="http://www.w3.org/1999/xlink" x="0px" y="0px"
	 viewBox="0 0 100 100" style="enable-background:new 0 0 100 100;" xml:space="preserve">
<style type="text/css">
	.st0{fill:#F9F9F9;}
	.st1{fill:#FFFFFF;}
	.st2{fill:#575656;}
	.st3{fill:#F9B51B;}
</style>
<g>
	<circle class="st0" cx="50" cy="50" r="50"/>
</g>
<g>
	<g>
		<circle class="st1" cx="50" cy="50" r="34.1"/>
		<path class="st2" d="M50,84.6c-19.1,0-34.6-15.5-34.6-34.6c0-19.1,15.5-34.6,34.6-34.6c19.1,0,34.6,15.5,34.6,34.6
			C84.6,69.1,69.1,84.6,50,84.6z M50,16.4c-18.5,0-33.6,15.1-33.6,33.6S31.5,83.6,50,83.6S83.6,68.5,83.6,50S68.5,16.4,50,16.4z"/>
	</g>
	<g>
		<path class="st3" d="M51.1,73.2c-0.4,0-0.6-0.3-0.6-0.6c0-0.4,0.3-0.7,0.6-0.7c0.3,0,0.6,0,0.8,0c0.4,0,0.7,0.2,0.7,0.6
			c0,0.4-0.2,0.7-0.6,0.7C51.7,73.2,51.4,73.2,51.1,73.2C51.1,73.2,51.1,73.2,51.1,73.2z M48.4,73.2C48.4,73.2,48.4,73.2,48.4,73.2
			c-0.4,0-0.7-0.1-1-0.1c-0.4,0-0.6-0.4-0.6-0.7c0-0.4,0.4-0.6,0.7-0.6c0.3,0,0.6,0.1,0.8,0.1c0.4,0,0.6,0.3,0.6,0.7
			C49.1,72.9,48.8,73.2,48.4,73.2z M54.6,72.9c-0.3,0-0.6-0.2-0.6-0.5c-0.1-0.4,0.2-0.7,0.5-0.8c0.3-0.1,0.6-0.1,0.8-0.2
			c0.3-0.1,0.7,0.1,0.8,0.5s-0.1,0.7-0.5,0.8c-0.3,0.1-0.6,0.1-0.9,0.2C54.6,72.9,54.6,72.9,54.6,72.9z M45,72.6c-0.1,0-0.1,0-0.2,0
			c-0.3-0.1-0.6-0.1-0.9-0.2c-0.3-0.1-0.5-0.5-0.5-0.8c0.1-0.3,0.5-0.5,0.8-0.5c0.3,0.1,0.5,0.1,0.8,0.2c0.3,0.1,0.6,0.4,0.5,0.8
			C45.5,72.4,45.3,72.6,45,72.6z M58,72c-0.3,0-0.5-0.2-0.6-0.4c-0.1-0.3,0.1-0.7,0.4-0.8c0.3-0.1,0.5-0.2,0.8-0.3
			c0.3-0.1,0.7,0,0.8,0.4c0.1,0.3,0,0.7-0.4,0.8c-0.3,0.1-0.6,0.2-0.8,0.3C58.1,71.9,58,72,58,72z M41.6,71.6c-0.1,0-0.2,0-0.2,0
			c-0.3-0.1-0.6-0.2-0.8-0.4c-0.3-0.1-0.5-0.5-0.3-0.9c0.1-0.3,0.5-0.5,0.9-0.3c0.3,0.1,0.5,0.2,0.8,0.3c0.3,0.1,0.5,0.5,0.4,0.8
			C42.1,71.4,41.9,71.6,41.6,71.6z M61.2,70.5c-0.2,0-0.5-0.1-0.6-0.3c-0.2-0.3-0.1-0.7,0.3-0.9c0.3-0.1,0.5-0.3,0.7-0.4
			c0.3-0.2,0.7-0.1,0.9,0.2c0.2,0.3,0.1,0.7-0.2,0.9c-0.3,0.2-0.5,0.3-0.8,0.4C61.4,70.5,61.3,70.5,61.2,70.5z M38.5,70
			c-0.1,0-0.2,0-0.3-0.1c-0.3-0.2-0.5-0.3-0.8-0.5c-0.3-0.2-0.4-0.6-0.2-0.9c0.2-0.3,0.6-0.4,0.9-0.2c0.2,0.2,0.5,0.3,0.7,0.5
			c0.3,0.2,0.4,0.6,0.2,0.9C38.9,69.9,38.7,70,38.5,70z M64.1,68.7c-0.2,0-0.4-0.1-0.5-0.3c-0.2-0.3-0.2-0.7,0.1-0.9
			c0.2-0.2,0.5-0.3,0.7-0.5c0.3-0.2,0.7-0.2,0.9,0.1c0.2,0.3,0.2,0.7-0.1,0.9c-0.2,0.2-0.5,0.4-0.7,0.6
			C64.4,68.6,64.3,68.7,64.1,68.7z M35.6,67.9c-0.1,0-0.3,0-0.4-0.2c-0.2-0.2-0.5-0.4-0.7-0.6c-0.3-0.2-0.3-0.7,0-0.9
			c0.2-0.3,0.7-0.3,0.9,0c0.2,0.2,0.4,0.4,0.6,0.6c0.3,0.2,0.3,0.6,0.1,0.9C36,67.9,35.8,67.9,35.6,67.9z M66.8,66.3
			c-0.2,0-0.3-0.1-0.5-0.2c-0.3-0.3-0.3-0.7,0-0.9c0.2-0.2,0.4-0.4,0.6-0.6c0.2-0.3,0.7-0.3,0.9,0c0.3,0.2,0.3,0.7,0,0.9
			c-0.2,0.2-0.4,0.4-0.6,0.7C67.1,66.3,66.9,66.3,66.8,66.3z M33.1,65.5c-0.2,0-0.4-0.1-0.5-0.2c-0.2-0.2-0.4-0.5-0.6-0.7
			c-0.2-0.3-0.2-0.7,0.1-0.9s0.7-0.2,0.9,0.1c0.2,0.2,0.4,0.4,0.6,0.6c0.2,0.3,0.2,0.7-0.1,0.9C33.4,65.4,33.3,65.5,33.1,65.5z
			 M69,63.6c-0.1,0-0.3,0-0.4-0.1c-0.3-0.2-0.4-0.6-0.2-0.9c0.2-0.2,0.3-0.5,0.5-0.7c0.2-0.3,0.6-0.4,0.9-0.2
			c0.3,0.2,0.4,0.6,0.2,0.9c-0.2,0.3-0.3,0.5-0.5,0.7C69.4,63.5,69.2,63.6,69,63.6z M31,62.7c-0.2,0-0.4-0.1-0.5-0.3
			c-0.2-0.3-0.3-0.5-0.5-0.8c-0.2-0.3-0.1-0.7,0.2-0.9c0.3-0.2,0.7-0.1,0.9,0.2c0.1,0.2,0.3,0.5,0.4,0.7c0.2,0.3,0.1,0.7-0.2,0.9
			C31.3,62.7,31.1,62.7,31,62.7z M70.8,60.6c-0.1,0-0.2,0-0.3-0.1c-0.3-0.2-0.5-0.6-0.3-0.9c0.1-0.3,0.2-0.5,0.4-0.8
			c0.1-0.3,0.5-0.5,0.9-0.3c0.3,0.1,0.5,0.5,0.3,0.9c-0.1,0.3-0.3,0.5-0.4,0.8C71.3,60.5,71,60.6,70.8,60.6z M29.3,59.6
			c-0.3,0-0.5-0.1-0.6-0.4c-0.1-0.3-0.2-0.5-0.3-0.8c-0.1-0.3,0-0.7,0.4-0.8c0.3-0.1,0.7,0,0.8,0.4c0.1,0.3,0.2,0.5,0.3,0.8
			c0.1,0.3,0,0.7-0.3,0.9C29.5,59.6,29.4,59.6,29.3,59.6z M72.1,57.4c-0.1,0-0.1,0-0.2,0c-0.3-0.1-0.5-0.5-0.4-0.8
			c0.1-0.3,0.2-0.5,0.2-0.8c0.1-0.3,0.5-0.6,0.8-0.5c0.3,0.1,0.5,0.5,0.5,0.8c-0.1,0.3-0.2,0.6-0.3,0.9
			C72.7,57.2,72.4,57.4,72.1,57.4z M28.2,56.3c-0.3,0-0.5-0.2-0.6-0.5c-0.1-0.3-0.1-0.6-0.2-0.9c-0.1-0.3,0.1-0.7,0.5-0.8
			c0.4-0.1,0.7,0.1,0.8,0.5c0.1,0.3,0.1,0.6,0.2,0.8c0.1,0.3-0.1,0.7-0.5,0.8C28.3,56.3,28.2,56.3,28.2,56.3z M72.9,54
			c0,0-0.1,0-0.1,0c-0.4-0.1-0.6-0.4-0.5-0.7c0-0.3,0.1-0.6,0.1-0.8c0-0.4,0.4-0.6,0.7-0.6c0.4,0,0.6,0.4,0.6,0.7
			c0,0.3-0.1,0.6-0.1,0.9C73.5,53.7,73.2,54,72.9,54z M27.5,52.9c-0.3,0-0.6-0.2-0.6-0.6c0-0.3-0.1-0.6-0.1-0.9
			c0-0.4,0.2-0.7,0.6-0.7c0.4,0,0.7,0.2,0.7,0.6c0,0.3,0,0.6,0.1,0.8C28.2,52.5,28,52.8,27.5,52.9C27.6,52.9,27.6,52.9,27.5,52.9z
			 M73.2,50.5c-0.4,0-0.7-0.3-0.7-0.6c0-0.3,0-0.6,0-0.9c0-0.4,0.3-0.7,0.6-0.7c0.3,0,0.7,0.3,0.7,0.6c0,0.3,0,0.6,0,0.9
			C73.9,50.2,73.6,50.5,73.2,50.5z M27.4,49.4C27.4,49.4,27.4,49.4,27.4,49.4c-0.4,0-0.7-0.3-0.6-0.7c0-0.3,0-0.6,0.1-0.9
			c0-0.4,0.3-0.6,0.7-0.6c0.4,0,0.6,0.3,0.6,0.7c0,0.3,0,0.6-0.1,0.9C28.1,49.1,27.8,49.4,27.4,49.4z M72.9,47
			c-0.3,0-0.6-0.2-0.6-0.6c0-0.3-0.1-0.6-0.1-0.8c-0.1-0.4,0.2-0.7,0.5-0.8c0.3-0.1,0.7,0.2,0.8,0.5c0.1,0.3,0.1,0.6,0.2,0.9
			c0.1,0.4-0.2,0.7-0.5,0.7C73,47,73,47,72.9,47z M27.8,45.9c0,0-0.1,0-0.1,0c-0.4-0.1-0.6-0.4-0.5-0.8c0.1-0.3,0.1-0.6,0.2-0.9
			c0.1-0.3,0.4-0.6,0.8-0.5c0.3,0.1,0.6,0.4,0.5,0.8c-0.1,0.3-0.1,0.6-0.2,0.8C28.4,45.7,28.1,45.9,27.8,45.9z M72.1,43.6
			c-0.3,0-0.5-0.2-0.6-0.5c-0.1-0.3-0.2-0.5-0.3-0.8c-0.1-0.3,0.1-0.7,0.4-0.8c0.3-0.1,0.7,0.1,0.8,0.4c0.1,0.3,0.2,0.6,0.3,0.9
			c0.1,0.3-0.1,0.7-0.4,0.8C72.3,43.5,72.2,43.6,72.1,43.6z M28.8,42.5c-0.1,0-0.1,0-0.2,0c-0.3-0.1-0.5-0.5-0.4-0.8
			c0.1-0.3,0.2-0.6,0.3-0.8c0.1-0.3,0.5-0.5,0.8-0.4c0.3,0.1,0.5,0.5,0.4,0.8c-0.1,0.3-0.2,0.5-0.3,0.8
			C29.3,42.3,29.1,42.5,28.8,42.5z M70.8,40.3c-0.2,0-0.5-0.1-0.6-0.4c-0.1-0.3-0.3-0.5-0.4-0.8c-0.2-0.3-0.1-0.7,0.3-0.9
			c0.3-0.2,0.7-0.1,0.9,0.3c0.1,0.3,0.3,0.5,0.4,0.8c0.2,0.3,0,0.7-0.3,0.9C71,40.3,70.9,40.3,70.8,40.3z M30.3,39.3
			c-0.1,0-0.2,0-0.3-0.1c-0.3-0.2-0.4-0.6-0.3-0.9c0.1-0.3,0.3-0.5,0.5-0.8c0.2-0.3,0.6-0.4,0.9-0.2c0.3,0.2,0.4,0.6,0.2,0.9
			c-0.1,0.2-0.3,0.5-0.4,0.7C30.7,39.2,30.5,39.3,30.3,39.3z M69,37.3c-0.2,0-0.4-0.1-0.5-0.3c-0.2-0.2-0.3-0.5-0.5-0.7
			c-0.2-0.3-0.2-0.7,0.1-0.9c0.3-0.2,0.7-0.2,0.9,0.1c0.2,0.2,0.4,0.5,0.5,0.7c0.2,0.3,0.1,0.7-0.2,0.9C69.3,37.2,69.2,37.3,69,37.3
			z M32.2,36.4c-0.1,0-0.3,0-0.4-0.1c-0.3-0.2-0.3-0.6-0.1-0.9c0.2-0.2,0.4-0.5,0.6-0.7c0.2-0.3,0.6-0.3,0.9-0.1
			c0.3,0.2,0.3,0.6,0.1,0.9c-0.2,0.2-0.4,0.4-0.5,0.7C32.6,36.3,32.4,36.4,32.2,36.4z M66.8,34.6c-0.2,0-0.3-0.1-0.5-0.2
			c-0.2-0.2-0.4-0.4-0.6-0.6c-0.3-0.2-0.3-0.7,0-0.9c0.2-0.3,0.7-0.3,0.9,0c0.2,0.2,0.4,0.4,0.6,0.6c0.2,0.3,0.2,0.7,0,0.9
			C67.1,34.5,67,34.6,66.8,34.6z M64.2,32.2c-0.1,0-0.3,0-0.4-0.1c-0.2-0.2-0.5-0.3-0.7-0.5c-0.3-0.2-0.4-0.6-0.2-0.9
			c0.2-0.3,0.6-0.4,0.9-0.2c0.2,0.2,0.5,0.4,0.7,0.5c0.3,0.2,0.3,0.6,0.1,0.9C64.6,32.2,64.4,32.2,64.2,32.2z M61.3,30.3
			c-0.1,0-0.2,0-0.3-0.1c-0.2-0.1-0.5-0.3-0.8-0.4c-0.3-0.2-0.5-0.5-0.3-0.9c0.2-0.3,0.5-0.5,0.9-0.3c0.3,0.1,0.5,0.3,0.8,0.4
			c0.3,0.2,0.4,0.6,0.3,0.9C61.7,30.2,61.5,30.3,61.3,30.3z M58,28.9c-0.1,0-0.1,0-0.2,0c-0.3-0.1-0.5-0.2-0.8-0.3
			c-0.3-0.1-0.5-0.5-0.4-0.8c0.1-0.3,0.5-0.5,0.8-0.4c0.3,0.1,0.6,0.2,0.9,0.3c0.3,0.1,0.5,0.5,0.4,0.8C58.6,28.7,58.3,28.9,58,28.9
			z M54.7,28c0,0-0.1,0-0.1,0c-0.3-0.1-0.6-0.1-0.8-0.1c-0.4-0.1-0.6-0.4-0.5-0.7s0.4-0.6,0.7-0.5c0.3,0,0.6,0.1,0.9,0.2
			c0.4,0.1,0.6,0.4,0.5,0.8C55.2,27.7,55,28,54.7,28z M51.2,27.6C51.2,27.6,51.2,27.6,51.2,27.6c-0.3,0-0.6,0-0.9,0
			c-0.4,0-0.6-0.3-0.6-0.6s0.3-0.6,0.6-0.6c0.3,0,0.6,0,0.9,0c0.4,0,0.6,0.3,0.6,0.7C51.8,27.3,51.5,27.6,51.2,27.6z"/>
	</g>
	<g>
		<path class="st2" d="M68.8,50.5H50c-0.3,0-0.5-0.2-0.5-0.5V27.4c0-0.3,0.2-0.5,0.5-0.5s0.5,0.2,0.5,0.5v22.1h18.3
			c0.3,0,0.5,0.2,0.5,0.5S69.1,50.5,68.8,50.5z"/>
	</g>
	<g>
		<path class="st2" d="M50,20.5c-0.3,0-0.5-0.2-0.5-0.5v-4.1c0-0.3,0.2-0.5,0.5-0.5s0.5,0.2,0.5,0.5V20C50.5,20.3,50.3,20.5,50,20.5
			z"/>
	</g>
	<g>
		<path class="st2" d="M50,84.6c-0.3,0-0.5-0.2-0.5-0.5V80c0-0.3,0.2-0.5,0.5-0.5s0.5,0.2,0.5,0.5v4.1C50.5,84.4,50.3,84.6,50,84.6z
			"/>
	</g>
	<g>
		<path class="st2" d="M84.1,50.5H80c-0.3,0-0.5-0.2-0.5-0.5s0.2-0.5,0.5-0.5h4.1c0.3,0,0.5,0.2,0.5,0.5S84.4,50.5,84.1,50.5z"/>
	</g>
	<g>
		<path class="st2" d="M20,50.5h-4.1c-0.3,0-0.5-0.2-0.5-0.5s0.2-0.5,0.5-0.5H20c0.3,0,0.5,0.2,0.5,0.5S20.3,50.5,20,50.5z"/>
	</g>
	<g>
		<path class="st2" d="M71.2,29.3c-0.1,0-0.3,0-0.4-0.1c-0.2-0.2-0.2-0.5,0-0.7l2.9-2.9c0.2-0.2,0.5-0.2,0.7,0s0.2,0.5,0,0.7
			l-2.9,2.9C71.5,29.3,71.3,29.3,71.2,29.3z"/>
	</g>
	<g>
		<path class="st2" d="M25.9,74.6c-0.1,0-0.3,0-0.4-0.1c-0.2-0.2-0.2-0.5,0-0.7l2.9-2.9c0.2-0.2,0.5-0.2,0.7,0s0.2,0.5,0,0.7
			l-2.9,2.9C26.2,74.6,26,74.6,25.9,74.6z"/>
	</g>
	<g>
		<path class="st2" d="M74.1,74.6c-0.1,0-0.3,0-0.4-0.1l-2.9-2.9c-0.2-0.2-0.2-0.5,0-0.7s0.5-0.2,0.7,0l2.9,2.9
			c0.2,0.2,0.2,0.5,0,0.7C74.4,74.6,74.2,74.6,74.1,74.6z"/>
	</g>
	<g>
		<path class="st2" d="M28.8,29.3c-0.1,0-0.3,0-0.4-0.1l-2.9-2.9c-0.2-0.2-0.2-0.5,0-0.7s0.5-0.2,0.7,0l2.9,2.9
			c0.2,0.2,0.2,0.5,0,0.7C29.1,29.3,28.9,29.3,28.8,29.3z"/>
	</g>
	<g>
		<circle class="st2" cx="50" cy="50" r="2.8"/>
		<path class="st1" d="M50,53.3c-1.8,0-3.3-1.5-3.3-3.3s1.5-3.3,3.3-3.3s3.3,1.5,3.3,3.3S51.8,53.3,50,53.3z M50,47.7
			c-1.3,0-2.3,1-2.3,2.3c0,1.3,1,2.3,2.3,2.3c1.3,0,2.3-1,2.3-2.3C52.3,48.7,51.3,47.7,50,47.7z"/>
	</g>
	<g>
		<polygon class="st3" points="30.6,32.5 35.5,37.4 35.5,32.5 		"/>
	</g>
</g>
</svg>
