<?xml version="1.0" encoding="utf-8"?>
<!-- Generator: Adobe Illustrator 21.0.2, SVG Export Plug-In . SVG Version: 6.00 Build 0)  -->
<svg version="1.1" id="Warstwa_1" xmlns="http://www.w3.org/2000/svg" xmlns:xlink="http://www.w3.org/1999/xlink" x="0px" y="0px"
	 viewBox="0 0 100 100" style="enable-background:new 0 0 100 100;" xml:space="preserve">
<style type="text/css">
	.st0{fill:#FFFFFF;}
	.st1{fill:#F7F7F7;}
	.st2{fill:#575656;}
	.st3{fill:#F9B51B;}
</style>
<g>
	<g>
		<circle class="st0" cx="50" cy="50" r="50"/>
	</g>
</g>
<g>
	<g>
		<g>
			<polygon class="st1" points="61.6,80 47.4,80 49.8,68.9 59.3,68.9 			"/>
			<path class="st2" d="M61.6,80.5H47.4c-0.2,0-0.3-0.1-0.4-0.2c-0.1-0.1-0.1-0.3-0.1-0.4l2.4-11.1c0-0.2,0.3-0.4,0.5-0.4h9.5
				c0.2,0,0.4,0.2,0.5,0.4l2.3,11.1c0,0.1,0,0.3-0.1,0.4C61.9,80.4,61.8,80.5,61.6,80.5z M48,79.5h13l-2.1-10.1h-8.7L48,79.5z"/>
		</g>
		<g>
			<path class="st0" d="M83.7,72.9H25.4c-3.3,0-5.9-2.7-5.9-5.9V28.8c0-3.3,2.7-5.9,5.9-5.9h58.3c3.3,0,5.9,2.7,5.9,5.9V67
				C89.6,70.2,86.9,72.9,83.7,72.9z"/>
			<path class="st2" d="M83.7,73.4H25.4c-3.5,0-6.4-2.9-6.4-6.4V28.8c0-3.5,2.9-6.4,6.4-6.4h58.3c3.5,0,6.4,2.9,6.4,6.4V67
				C90.1,70.5,87.2,73.4,83.7,73.4z M25.4,23.4c-3,0-5.4,2.4-5.4,5.4V67c0,3,2.4,5.4,5.4,5.4h58.3c2.9,0,5.4-2.5,5.4-5.4V28.8
				c0-3-2.4-5.4-5.4-5.4H25.4z"/>
		</g>
		<g>
			<path class="st1" d="M89.6,62.4V67c0,3.3-2.7,5.9-5.9,5.9H25.4c-3.3,0-5.9-2.7-5.9-5.9v-4.5"/>
			<path class="st2" d="M83.7,73.4H25.4c-3.5,0-6.4-2.9-6.4-6.4v-4.5c0-0.3,0.2-0.5,0.5-0.5s0.5,0.2,0.5,0.5V67c0,3,2.4,5.4,5.4,5.4
				h58.3c3,0,5.4-2.4,5.4-5.4v-4.6c0-0.3,0.2-0.5,0.5-0.5s0.5,0.2,0.5,0.5V67C90.1,70.5,87.2,73.4,83.7,73.4z"/>
		</g>
		<g>
			<path class="st2" d="M89.6,62.9H19.5c-0.3,0-0.5-0.2-0.5-0.5s0.2-0.5,0.5-0.5h70.1c0.3,0,0.5,0.2,0.5,0.5S89.9,62.9,89.6,62.9z"
				/>
		</g>
		<g>
			<circle class="st2" cx="54.5" cy="66.6" r="1"/>
		</g>
		<g>
			<path class="st1" d="M63.7,82.1H45.4c-0.8,0-1.4-0.6-1.4-1.4l0,0c0-0.8,0.6-1.4,1.4-1.4h18.3c0.8,0,1.4,0.6,1.4,1.4l0,0
				C65.1,81.5,64.4,82.1,63.7,82.1z"/>
			<path class="st2" d="M63.7,82.6H45.4c-1.1,0-1.9-0.8-1.9-1.9s0.8-1.9,1.9-1.9h18.3c1.1,0,1.9,0.8,1.9,1.9
				C65.6,81.7,64.7,82.6,63.7,82.6z M45.4,79.8c-0.5,0-0.9,0.4-0.9,0.9s0.4,0.9,0.9,0.9h18.3c0.4,0,0.9-0.4,0.9-0.9
				s-0.4-0.9-0.9-0.9H45.4z"/>
		</g>
	</g>
	<g>
		<g>
			<path class="st0" d="M96.9,67.4v-9.2c0-1.3-1-2.3-2.3-2.3H82.5c-1.3,0-2.3,1-2.3,2.3V80c0,1.3,1,2.3,2.3,2.3h5.7
				C91.9,77.9,94.9,72.9,96.9,67.4z"/>
			<g>
				<path class="st2" d="M88.6,81.8h-6.1c-1,0-1.8-0.8-1.8-1.8v-2.6c0-0.3-0.2-0.5-0.5-0.5s-0.5,0.2-0.5,0.5V80
					c0,1.6,1.2,2.8,2.8,2.8h5.2C88,82.5,88.3,82.1,88.6,81.8z"/>
			</g>
			<path class="st2" d="M97.4,65.9v-7.7c0-1.6-1.2-2.8-2.8-2.8H82.5c-1.6,0-2.8,1.2-2.8,2.8V80c0,1.6,1.2,2.8,2.8,2.8h5.2
				c0.3-0.3,0.6-0.7,0.9-1h-6.1c-1,0-1.8-0.8-1.8-1.8v-2.1h10.8c0.2-0.3,0.4-0.7,0.6-1H80.7V58.2c0-1,0.8-1.8,1.8-1.8h12.1
				c1,0,1.8,0.8,1.8,1.8v10.4C96.8,67.7,97.1,66.8,97.4,65.9z"/>
		</g>
		<g>
			<circle class="st2" cx="88.6" cy="79.6" r="0.9"/>
		</g>
	</g>
	<g>
		<path class="st0" d="M42.4,50.7c0-0.7-0.6-1.3-1.3-1.3H0c0,0.2,0,0.4,0,0.6c0,11.2,3.7,21.5,9.9,29.8h31.2c0.8,0,1.4-0.6,1.3-1.3
			V50.7z"/>
		<g>
			<path class="st1" d="M12.2,82.7h34.5c0.9,0,2.8-1.8,2.8-2.6H10.1C10.8,81,11.5,81.9,12.2,82.7z"/>
			<path class="st2" d="M49.5,79.6h-6.9c0.3-0.4,0.4-0.7,0.3-1.1V50.7c0-1-0.8-1.8-1.8-1.8H0c0,0.3,0,0.6,0,0.9h41.1
				c0.4,0,0.8,0.4,0.8,0.8v27.9c0.1,0.3,0,0.4-0.1,0.5c-0.2,0.2-0.4,0.3-0.7,0.3H9.5c0.3,0.4,0.6,0.9,1,1.3h38.3
				c-0.5,0.7-1.6,1.6-2.1,1.6H11.8c0.3,0.3,0.6,0.7,0.9,1h34.1c1.2,0,3.3-2,3.3-3.1C50,79.8,49.8,79.6,49.5,79.6z"/>
		</g>
		<g>
			<rect x="12.7" y="80.4" class="st2" width="10.2" height="1"/>
		</g>
	</g>
	<g>
		<g>
			<path class="st3" d="M53.1,47.7L53.1,47.7c-0.1,0-0.3-0.1-0.4-0.2l-4-4.4c-0.2-0.2-0.2-0.5,0-0.7s0.5-0.2,0.7,0l3.6,4l6.4-6.6
				c0.2-0.2,0.5-0.2,0.7,0s0.2,0.5,0,0.7l-6.8,7C53.4,47.6,53.2,47.7,53.1,47.7z"/>
		</g>
		<g>
			<path class="st3" d="M54.5,53.8c-5.6,0-10.1-4.5-10.1-10.1s4.5-10.1,10.1-10.1s10.1,4.5,10.1,10.1S60.1,53.8,54.5,53.8z
				 M54.5,34.6c-5,0-9.1,4.1-9.1,9.1s4.1,9.1,9.1,9.1s9.1-4.1,9.1-9.1S59.5,34.6,54.5,34.6z"/>
		</g>
	</g>
	<g>
		<g>
			<path class="st3" d="M16.3,68.8L16.3,68.8c-0.1,0-0.3-0.1-0.4-0.2l-4-4.5c-0.2-0.2-0.2-0.5,0-0.7s0.5-0.2,0.7,0l3.6,4.1l6.4-6.7
				c0.2-0.2,0.5-0.2,0.7,0s0.2,0.5,0,0.7l-6.8,7.1C16.6,68.7,16.4,68.8,16.3,68.8z"/>
		</g>
		<g>
			<path class="st3" d="M17.7,74.9c-5.6,0-10.1-4.5-10.1-10.1s4.5-10.1,10.1-10.1s10.1,4.5,10.1,10.1S23.3,74.9,17.7,74.9z
				 M17.7,55.7c-5,0-9.1,4.1-9.1,9.1s4.1,9.1,9.1,9.1s9.1-4.1,9.1-9.1C26.8,59.8,22.7,55.7,17.7,55.7z"/>
		</g>
	</g>
	<g>
		<g>
			<path class="st3" d="M87.8,69.5c-0.1,0-0.3-0.1-0.4-0.2l-2.3-2.5c-0.2-0.2-0.2-0.5,0-0.7s0.5-0.2,0.7,0l1.9,2.1l3.4-3.6
				c0.2-0.2,0.5-0.2,0.7,0s0.2,0.5,0,0.7l-3.8,4C88.1,69.4,87.9,69.5,87.8,69.5z"/>
		</g>
		<g>
			<path class="st3" d="M88.6,72.9c-3.3,0-5.9-2.6-5.9-5.9s2.6-5.9,5.9-5.9s5.9,2.6,5.9,5.9S91.9,72.9,88.6,72.9z M88.6,62.1
				c-2.7,0-4.9,2.2-4.9,4.9s2.2,4.9,4.9,4.9c2.7,0,4.9-2.2,4.9-4.9S91.3,62.1,88.6,62.1z"/>
		</g>
	</g>
</g>
</svg>
