<svg xmlns="http://www.w3.org/2000/svg" xmlns:xlink="http://www.w3.org/1999/xlink" width="172.417" height="93.05" viewBox="0 0 172.417 93.05">
  <defs>
    <linearGradient id="linear-gradient" x1="1.015" y1="0.947" x2="0.072" y2="0.129" gradientUnits="objectBoundingBox">
      <stop offset="0.459" stop-color="#f9c228"/>
      <stop offset="0.528" stop-color="#f9c32c"/>
      <stop offset="0.602" stop-color="#f9c639"/>
      <stop offset="0.678" stop-color="#facc4e"/>
      <stop offset="0.755" stop-color="#fad56c"/>
      <stop offset="0.834" stop-color="#fbe093"/>
      <stop offset="0.913" stop-color="#fdedc2"/>
      <stop offset="0.992" stop-color="#fefdf9"/>
      <stop offset="1" stop-color="#fff"/>
    </linearGradient>
    <linearGradient id="linear-gradient-2" x1="1.107" y1="1.063" x2="0.058" y2="0.09" xlink:href="#linear-gradient"/>
    <linearGradient id="linear-gradient-3" x1="1.144" y1="1.34" x2="0.134" y2="0.023" xlink:href="#linear-gradient"/>
  </defs>
  <g id="Group_608" data-name="Group 608" transform="translate(17.544 -39.795)">
    <path id="Path_53" data-name="Path 53" d="M98.429,127.5H76.506l3.654-17.051H94.775Z" transform="translate(1.395 1.045)" fill="#fff" stroke="#000" stroke-width="1.3"/>
    <path id="Rectangle_13" data-name="Rectangle 13" d="M43.14,40.445h89.923a9.1,9.1,0,0,1,9.134,9.134v58.967a9.1,9.1,0,0,1-9.134,9.134H43.14a9.1,9.1,0,0,1-9.134-9.134V49.579A9.1,9.1,0,0,1,43.14,40.445Z" transform="translate(0.76 0)" fill="#fff" stroke="#000" stroke-width="1.3"/>
    <path id="Path_830" data-name="Path 830" d="M33.906,100.545v7a9.1,9.1,0,0,0,9.134,9.134h89.923a9.1,9.1,0,0,0,9.134-9.134v-7Z" transform="translate(0.758 0.897)" fill="#fff" stroke="#000" stroke-width="1.3"/>
    <path id="Rectangle_14" data-name="Rectangle 14" d="M73.337,126.345h28.215a2.081,2.081,0,0,1,2.131,2.131h0a2.081,2.081,0,0,1-2.131,2.131H73.337a2.081,2.081,0,0,1-2.131-2.131h0A2.144,2.144,0,0,1,73.337,126.345Z" transform="translate(1.315 1.283)" fill="#fff" stroke="#000" stroke-width="1.3"/>
    <path id="Rectangle_15" data-name="Rectangle 15" d="M129.858,90.745h18.675a3.6,3.6,0,0,1,3.552,3.552v33.594a3.6,3.6,0,0,1-3.552,3.552H129.858a3.6,3.6,0,0,1-3.552-3.552V94.3A3.41,3.41,0,0,1,129.858,90.745Z" transform="translate(2.138 0.751)" fill="#fff" stroke="#000" stroke-width="1.3"/>
    <path id="Path_831" data-name="Path 831" d="M126.306,123.345v4.06a3.6,3.6,0,0,0,3.552,3.552h18.675a3.6,3.6,0,0,0,3.552-3.552v-4.06Z" transform="translate(2.138 1.238)" fill="#fff" stroke="#000" stroke-width="1.3"/>
    <path id="Path_68" data-name="Path 68" d="M87.44,88.314a15.934,15.934,0,1,1,15.934-15.934h0A15.9,15.9,0,0,1,87.44,88.314Z" transform="translate(1.6 0)" fill="url(#linear-gradient)"/>
    <path id="Path_67" data-name="Path 67" d="M82.657,74.075h0a.6.6,0,0,1-.524-.262l-3.927-4.451a.742.742,0,0,1,1.113-.982l3.4,3.862,6.218-6.415a.741.741,0,0,1,1.047,1.047h0l-6.742,7A1.056,1.056,0,0,1,82.657,74.075Z" transform="translate(5.089 2.839)" fill="#040404"/>
    <path id="Rectangle_16" data-name="Rectangle 16" d="M-4.164,81.157H67.9a2.036,2.036,0,0,1,2.03,2.03v42.932a2.036,2.036,0,0,1-2.03,2.03H-4.164a2.036,2.036,0,0,1-2.03-2.03V83.187A2.036,2.036,0,0,1-4.164,81.157Z" transform="translate(0.16 0.608)" fill="#fff" stroke="#000" stroke-width="1.3"/>
    <path id="Path_65" data-name="Path 65" d="M-16.894,126.945c0,1.218,2.943,3.958,4.364,3.958H76.683c1.421,0,4.364-2.842,4.364-3.958Z" transform="translate(0 1.291)" fill="#fff" stroke="#000" stroke-width="1.3"/>
    <path id="Path_70" data-name="Path 70" d="M31.54,120.815A15.934,15.934,0,1,1,47.475,104.88,15.9,15.9,0,0,1,31.54,120.815Z" transform="translate(0.5 0.499)" fill="url(#linear-gradient-2)"/>
    <path id="Path_69" data-name="Path 69" d="M27.241,107.569h0a.657.657,0,0,1-.578-.289l-4.336-4.915a.819.819,0,0,1,1.229-1.084l3.758,4.264,6.866-7.083a.879.879,0,0,1,1.156,0,.786.786,0,0,1,0,1.084l-7.444,7.733A1.3,1.3,0,0,1,27.241,107.569Z" transform="translate(2.989 2.199)" fill="#040404"/>
    <path id="Path_72" data-name="Path 72" d="M139.046,117.126a9.54,9.54,0,1,1,9.54-9.54h0A9.529,9.529,0,0,1,139.046,117.126Z" transform="translate(2.6 0.4)" fill="url(#linear-gradient-3)"/>
    <path id="Path_71" data-name="Path 71" d="M136.1,108.658h0a.584.584,0,0,1-.513-.257l-2.182-2.439a.727.727,0,1,1,1.091-.963l1.669,1.861,3.209-3.337a.726.726,0,1,1,1.027,1.027l-3.722,3.85A.784.784,0,0,1,136.1,108.658Z" transform="translate(4.889 2.139)" fill="#040404"/>
  </g>
</svg>
