<svg xmlns="http://www.w3.org/2000/svg" xmlns:xlink="http://www.w3.org/1999/xlink" width="140.717" height="100.12" viewBox="0 0 140.717 100.12">
  <defs>
    <linearGradient id="linear-gradient" x1="-0.196" y1="-0.196" x2="1.098" y2="1.098" gradientUnits="objectBoundingBox">
      <stop offset="0.155" stop-color="#fff"/>
      <stop offset="0.459" stop-color="#f9c228"/>
    </linearGradient>
    <linearGradient id="linear-gradient-2" x1="-0.207" y1="-0.233" x2="1.288" y2="1.317" xlink:href="#linear-gradient"/>
    <linearGradient id="linear-gradient-3" x1="1.405" y1="0.962" x2="0.308" y2="0.071" gradientUnits="objectBoundingBox">
      <stop offset="0.459" stop-color="#f9c228"/>
      <stop offset="0.528" stop-color="#f9c32c"/>
      <stop offset="0.602" stop-color="#f9c639"/>
      <stop offset="0.678" stop-color="#facc4e"/>
      <stop offset="0.755" stop-color="#fad56c"/>
      <stop offset="0.834" stop-color="#fbe093"/>
      <stop offset="0.913" stop-color="#fdedc2"/>
      <stop offset="0.992" stop-color="#fefdf9"/>
      <stop offset="1" stop-color="#fff"/>
    </linearGradient>
    <linearGradient id="linear-gradient-4" x1="0" y1="0.5" x2="1" y2="0.5" xlink:href="#linear-gradient-3"/>
  </defs>
  <g id="Group_616" data-name="Group 616" transform="translate(-211.625 -0.611)">
    <g id="Group_611" data-name="Group 611" transform="translate(239.94 1.261)">
      <rect id="Rectangle_287" data-name="Rectangle 287" width="111.751" height="88.796" rx="9.781" transform="translate(0)" fill="#fff" stroke="#000" stroke-linecap="round" stroke-linejoin="round" stroke-width="1.3"/>
      <path id="Path_832" data-name="Path 832" d="M267.884,11.785v-5.6a4.938,4.938,0,0,1,4.923-4.923h101.9a4.938,4.938,0,0,1,4.923,4.923v5.6" transform="translate(-267.884 -1.261)" fill="#f7f7f7" stroke="#000" stroke-linecap="round" stroke-linejoin="round" stroke-width="1.3"/>
      <line id="Line_252" data-name="Line 252" x2="111.751" transform="translate(0 11.337)" fill="none" stroke="#000" stroke-linecap="round" stroke-linejoin="round" stroke-width="1.3"/>
      <circle id="Ellipse_107" data-name="Ellipse 107" cx="1.728" cy="1.728" r="1.728" transform="translate(5.827 4.426)" fill="#f7f7f7" stroke="#000" stroke-linecap="round" stroke-linejoin="round" stroke-width="1.3"/>
      <circle id="Ellipse_108" data-name="Ellipse 108" cx="1.728" cy="1.728" r="1.728" transform="translate(12.077 4.426)" fill="#f7f7f7" stroke="#000" stroke-linecap="round" stroke-linejoin="round" stroke-width="1.3"/>
      <circle id="Ellipse_109" data-name="Ellipse 109" cx="1.728" cy="1.728" r="1.728" transform="translate(18.326 4.426)" fill="#f7f7f7" stroke="#000" stroke-linecap="round" stroke-linejoin="round" stroke-width="1.3"/>
    </g>
    <g id="Group_612" data-name="Group 612" transform="translate(262.992 25.289)">
      <path id="Path_833" data-name="Path 833" d="M313.686,95.464l21.677-18.692,9.789,7.194L362.768,66.6,375.5,77.586l13.211-18.819" transform="translate(-313.686 -53.851)" fill="none" stroke="#f9b51b" stroke-linecap="round" stroke-linejoin="round" stroke-width="1.3"/>
      <circle id="Ellipse_110" data-name="Ellipse 110" cx="2.812" cy="2.812" r="2.812" transform="translate(46.441 9.913)" fill="url(#linear-gradient)"/>
      <circle id="Ellipse_111" data-name="Ellipse 111" cx="2.812" cy="2.812" r="2.812" transform="translate(18.865 20.283)" fill="url(#linear-gradient-2)"/>
      <path id="Path_834" data-name="Path 834" d="M456.781,52.039l5.852,3.653L462.7,49Z" transform="translate(-384.761 -49.001)" fill="url(#linear-gradient-3)"/>
    </g>
    <g id="Group_614" data-name="Group 614" transform="translate(228.878 17.204)">
      <g id="Group_613" data-name="Group 613" transform="translate(0)">
        <path id="Path_835" data-name="Path 835" d="M304.576,145.146s.045-29.017-9.349-29.485c-12.6-.628-13.008-4.738-13.008-4.738l-6.978,1.982-6.978-1.982s-.406,4.11-13.008,4.738c-9.395.468-9.349,29.485-9.349,29.485" transform="translate(-245.906 -71.673)" fill="#f7f7f7" stroke="#000" stroke-linecap="round" stroke-linejoin="round" stroke-width="1.3"/>
        <ellipse id="Ellipse_112" data-name="Ellipse 112" cx="7.723" cy="9.214" rx="7.723" ry="9.214" transform="translate(22.12 28.725)" fill="#fff" stroke="#000" stroke-linecap="round" stroke-linejoin="round" stroke-width="1.3"/>
        <rect id="Rectangle_288" data-name="Rectangle 288" width="31.436" height="31.436" rx="15.718" transform="translate(13.618)"/>
        <path id="Path_836" data-name="Path 836" d="M305.29,159.539l-6.707,5.894-6.707-5.894,6.707-25.711Z" transform="translate(-268.739 -83.05)" fill="#fff" stroke="#000" stroke-linecap="round" stroke-linejoin="round" stroke-width="1.3"/>
        <path id="Path_837" data-name="Path 837" d="M303.151,61.724l-.016,0c.009-.286.016-.573.016-.861,0-10.738-6.224-12.939-14.9-12.939s-14.9,2.2-14.9,12.939c0,.3.007.6.016.9a1.63,1.63,0,0,0-1.269,1.583v2.642a1.6,1.6,0,0,0,2.072,1.556c1.956,7.843,7.261,13.981,14.086,13.981,6.867,0,12.193-6.212,14.12-14.122a1.605,1.605,0,0,0,.785.211,1.63,1.63,0,0,0,1.626-1.626V63.35A1.63,1.63,0,0,0,303.151,61.724Z" transform="translate(-258.911 -40.382)" fill="#fff" stroke="#000" stroke-linecap="round" stroke-linejoin="round" stroke-width="1.3"/>
        <path id="Path_838" data-name="Path 838" d="M273.93,50.679s7.138-11.328,17.867,0c10,10.563,12.6,5.626,12.6,5.626l-1.626-10.569L292.339,39.5s-12.038-.377-13.685,0-5.691,9.891-5.691,9.891Z" transform="translate(-259.345 -36.116)"/>
      </g>
      <path id="Path_839" data-name="Path 839" d="M352.968,138.854l.35,9.485L371.3,114.69l4.336,1.626-17.886,37.07s-10.027,13.922-13.717-18.031" transform="translate(-294.647 -73.544)" fill="#f7f7f7" stroke="#000" stroke-linecap="round" stroke-linejoin="round" stroke-width="1.3"/>
      <path id="Path_840" data-name="Path 840" d="M403.694,96.178l-4.645-1.744a1.646,1.646,0,0,0-2.113.959l-1.844,4.372-.729-2.33a1.017,1.017,0,0,0-1.269-.665l-.921.288a1.016,1.016,0,0,0-.664,1.269l1.877,6c.137.439,6.129,2.436,6.129,2.436a1.645,1.645,0,0,0,2.113-.959l3.026-7.517A1.646,1.646,0,0,0,403.694,96.178Z" transform="translate(-318.204 -63.431)" fill="#fff" stroke="#000" stroke-linecap="round" stroke-linejoin="round" stroke-width="1.3"/>
    </g>
    <g id="Group_615" data-name="Group 615" transform="translate(211.625 60.364)">
      <circle id="Ellipse_113" data-name="Ellipse 113" cx="16.666" cy="16.666" r="16.666" transform="translate(0 6.368)" fill="url(#linear-gradient-4)"/>
      <path id="Path_841" data-name="Path 841" d="M237.087,141.61a11.5,11.5,0,1,1-8.055,19.707" transform="translate(-220.271 -130.075)" fill="none" stroke="#000" stroke-linecap="round" stroke-linejoin="round" stroke-width="1.3"/>
      <rect id="Rectangle_289" data-name="Rectangle 289" width="9.13" height="3.794" rx="1.897" transform="translate(12.101)" fill="url(#linear-gradient-4)"/>
      <line id="Line_253" data-name="Line 253" x2="3.533" y2="3.533" transform="translate(29.518 8.028)" fill="none" stroke="#000" stroke-linecap="round" stroke-linejoin="round" stroke-width="1.3"/>
      <line id="Line_254" data-name="Line 254" x1="9.912" y2="6.639" transform="translate(6.755 23.035)" fill="#fff" stroke="#000" stroke-linecap="round" stroke-linejoin="round" stroke-width="1.3"/>
      <circle id="Ellipse_114" data-name="Ellipse 114" cx="2.305" cy="2.305" r="2.305" transform="translate(14.361 20.73)" fill="#fff" stroke="#000" stroke-linecap="round" stroke-linejoin="round" stroke-width="1.3"/>
    </g>
  </g>
</svg>
