<svg xmlns="http://www.w3.org/2000/svg" xmlns:xlink="http://www.w3.org/1999/xlink" width="188.3" height="152.108" viewBox="0 0 188.3 152.108">
  <defs>
    <linearGradient id="linear-gradient" x1="0.5" x2="0.491" y2="0.661" gradientUnits="objectBoundingBox">
      <stop offset="0" stop-color="#fff"/>
      <stop offset="1" stop-color="#f9c228"/>
    </linearGradient>
    <linearGradient id="linear-gradient-2" x1="0.5" y1="0.602" x2="0" y2="0.227" gradientUnits="objectBoundingBox">
      <stop offset="0" stop-color="#f9c228"/>
      <stop offset="1" stop-color="#fff"/>
    </linearGradient>
    <linearGradient id="linear-gradient-3" x1="1.33" y1="-0.923" x2="0.5" y2="1" gradientUnits="objectBoundingBox">
      <stop offset="0" stop-color="#fdeab4"/>
      <stop offset="1" stop-color="#ffbc00"/>
    </linearGradient>
    <clipPath id="clip-path">
      <path id="Path_820" data-name="Path 820" d="M397.5,53.248a5.857,5.857,0,1,0,5.857-5.857,5.857,5.857,0,0,0-5.857,5.857" transform="translate(-397.503 -47.391)" stroke="#707070" stroke-width="1.3" fill="url(#linear-gradient)"/>
    </clipPath>
    <clipPath id="clip-path-2">
      <rect id="Rectangle_262" data-name="Rectangle 262" width="46.617" height="46.616" fill="url(#linear-gradient-2)"/>
    </clipPath>
    <clipPath id="clip-path-3">
      <path id="Path_825" data-name="Path 825" d="M46.441,74.782H57.074L51.757,64.224Z" transform="translate(-46.441 -64.224)" stroke="#707070" stroke-width="1.3" fill="url(#linear-gradient-3)"/>
    </clipPath>
    <clipPath id="clip-path-4">
      <path id="Path_826" data-name="Path 826" d="M46.441,44.881H57.074L51.757,34.325Z" transform="translate(-46.441 -34.325)" stroke="#707070" stroke-width="1.3" fill="url(#linear-gradient-3)"/>
    </clipPath>
    <clipPath id="clip-path-5">
      <path id="Path_827" data-name="Path 827" d="M46.441,15.326H57.074L51.757,4.77Z" transform="translate(-46.441 -4.77)" stroke="#707070" stroke-width="1.3" fill="url(#linear-gradient-3)"/>
    </clipPath>
  </defs>
  <g id="Group_607" data-name="Group 607" transform="translate(-819.76 -449)">
    <g id="Group_592" data-name="Group 592" transform="translate(963.193 456.868)">
      <g id="Group_581" data-name="Group 581" transform="translate(12.55 12.549)">
        <g id="Group_580" data-name="Group 580" transform="translate(0 0)" clip-path="url(#clip-path)">
          <rect id="Rectangle_257" data-name="Rectangle 257" width="16.506" height="16.506" transform="translate(-5.772 4.865) rotate(-40.126)" stroke="#707070" stroke-width="1.3" fill="url(#linear-gradient)"/>
        </g>
      </g>
      <path id="Path_821" data-name="Path 821" d="M364.7,25.829V14.586h11.243" transform="translate(-364.695 -14.585)" fill="none" stroke="#070707" stroke-linecap="round" stroke-linejoin="round" stroke-width="1.3"/>
      <path id="Path_822" data-name="Path 822" d="M431.538,14.585h11.243V25.829" transform="translate(-405.968 -14.585)" fill="none" stroke="#070707" stroke-linecap="round" stroke-linejoin="round" stroke-width="1.3"/>
      <path id="Path_823" data-name="Path 823" d="M442.782,81.426V92.669H431.539" transform="translate(-405.969 -55.857)" fill="none" stroke="#070707" stroke-linecap="round" stroke-linejoin="round" stroke-width="1.3"/>
      <path id="Path_824" data-name="Path 824" d="M375.939,92.67H364.7V81.426" transform="translate(-364.696 -55.857)" fill="none" stroke="#070707" stroke-linecap="round" stroke-linejoin="round" stroke-width="1.3"/>
    </g>
    <path id="Path_799" data-name="Path 799" d="M44.9,144.462a13.26,13.26,0,0,0-.4-3.249l7.522-5.787-3.472-5.564-8.5,4.184a13.533,13.533,0,0,0-4.5-2.493l-.935-9.436H28.034l-.935,9.436a13.445,13.445,0,0,0-4.5,2.493l-8.5-4.184-3.472,5.564,7.522,5.787a13,13,0,0,0-.4,3.249,13.264,13.264,0,0,0,.4,3.249L10.631,153.5l3.472,5.564,8.5-4.184a13.518,13.518,0,0,0,4.5,2.493l.935,9.436h6.543l.935-9.436a13.445,13.445,0,0,0,4.5-2.493l8.5,4.184,3.472-5.564-7.522-5.786A13.015,13.015,0,0,0,44.9,144.462Zm-13.62,5.43a5.43,5.43,0,1,1,5.43-5.43A5.4,5.4,0,0,1,31.284,149.892Z" transform="translate(814.186 383.923)" fill="none" stroke="#070707" stroke-linecap="round" stroke-linejoin="round" stroke-width="1.3"/>
    <path id="Path_803" data-name="Path 803" d="M139.086,18.923a18.794,18.794,0,0,0-1.623-3.931l.757-5.229-3.607-3.642-5.229.757a18.784,18.784,0,0,0-3.931-1.623L122.28,1H117.2l-3.174,4.255a19.615,19.615,0,0,0-3.931,1.623l-5.229-.757L101.22,9.763l.757,5.229a19.31,19.31,0,0,0-1.623,3.895L96.1,22.06v5.121l4.255,3.138a18.781,18.781,0,0,0,1.623,3.931l-.757,5.229,3.642,3.606,5.229-.757a18.794,18.794,0,0,0,3.931,1.623l3.174,4.255h5.121l3.174-4.255a18.8,18.8,0,0,0,3.931-1.623l5.229.757,3.606-3.606L137.5,34.25a20,20,0,0,0,1.623-3.931l4.256-3.138V22.06ZM119.756,35.909a11.251,11.251,0,1,1,11.252-11.252A11.266,11.266,0,0,1,119.756,35.909Z" transform="translate(774.648 453.707)" fill="none" stroke="#070707" stroke-linecap="round" stroke-linejoin="round" stroke-width="1.3"/>
    <g id="Group_591" data-name="Group 591" transform="translate(835.954 487.074)">
      <line id="Line_251" data-name="Line 251" x2="155.385" transform="translate(0 78.738)" fill="none" stroke="#070707" stroke-linecap="round" stroke-linejoin="round" stroke-width="1.3"/>
      <path id="Path_804" data-name="Path 804" d="M205.693,152.834H89.344V82.241a4.625,4.625,0,0,1,4.629-4.629H201.02a4.625,4.625,0,0,1,4.629,4.629v70.593Z" transform="translate(-69.849 -77.612)" fill="#fff" stroke="#707070" stroke-width="1.3"/>
      <path id="Path_806" data-name="Path 806" d="M197.756,277.448H73.572a3.429,3.429,0,0,1-3.427-3.427H201.227a3.467,3.467,0,0,1-3.472,3.427" transform="translate(-57.994 -198.888)" fill="#fff" stroke="#707070" stroke-width="1.3"/>
    </g>
    <g id="Group_590" data-name="Group 590" transform="translate(890.316 501.376)" clip-path="url(#clip-path-2)">
      <path id="Path_828" data-name="Path 828" d="M46.116,23.683A22.433,22.433,0,1,1,23.684,1.25,22.433,22.433,0,0,1,46.116,23.683" transform="translate(-0.375 -0.375)" fill="url(#linear-gradient-2)"/>
      <ellipse id="Ellipse_106" data-name="Ellipse 106" cx="22.433" cy="22.433" rx="22.433" ry="22.433" transform="translate(0.876 0.875)" fill="url(#linear-gradient-2)"/>
    </g>
    <g id="Group_595" data-name="Group 595" transform="translate(820.41 479.641)">
      <line id="Line_247" data-name="Line 247" y2="4.451" transform="translate(2.225)" fill="none" stroke="#070707" stroke-linecap="round" stroke-linejoin="round" stroke-width="1.3"/>
      <line id="Line_248" data-name="Line 248" x1="4.406" transform="translate(0 2.226)" fill="none" stroke="#070707" stroke-linecap="round" stroke-linejoin="round" stroke-width="1.3"/>
    </g>
    <g id="Group_596" data-name="Group 596" transform="translate(1003.004 506.041)">
      <line id="Line_249" data-name="Line 249" y2="4.451" transform="translate(2.225)" fill="none" stroke="#070707" stroke-linecap="round" stroke-linejoin="round" stroke-width="1.3"/>
      <line id="Line_250" data-name="Line 250" x1="4.406" transform="translate(0 2.226)" fill="none" stroke="#070707" stroke-linecap="round" stroke-linejoin="round" stroke-width="1.3"/>
    </g>
    <path id="Path_800" data-name="Path 800" d="M16.716,111.263a1.691,1.691,0,1,1-1.692,1.692A1.692,1.692,0,0,1,16.716,111.263Z" transform="translate(808.101 388.583)" fill="none" stroke="#000" stroke-width="1.3"/>
    <path id="Path_801" data-name="Path 801" d="M261.151,24.587a1.691,1.691,0,1,1-1.692,1.692A1.692,1.692,0,0,1,261.151,24.587Z" transform="translate(731.88 509.027)" fill="none" stroke="#000" stroke-width="1.3"/>
    <path id="Path_802" data-name="Path 802" d="M437.426,202.528a1.691,1.691,0,1,1-1.692,1.692A1.692,1.692,0,0,1,437.426,202.528Z" transform="translate(548.779 310.98)" fill="none" stroke="#000" stroke-width="1.3"/>
    <path id="Path_805" data-name="Path 805" d="M205.693,152.834H89.344V82.241a4.625,4.625,0,0,1,4.629-4.629H201.02a4.625,4.625,0,0,1,4.629,4.629v70.593Z" transform="translate(766.106 409.462)" fill="none" stroke="#000" stroke-width="1.3"/>
    <path id="Path_807" data-name="Path 807" d="M197.756,277.448H73.572a3.429,3.429,0,0,1-3.427-3.427H201.227A3.467,3.467,0,0,1,197.756,277.448Z" transform="translate(777.961 288.186)" fill="none" stroke="#070707" stroke-linecap="round" stroke-linejoin="round" stroke-width="1.3"/>
    <path id="Path_809" data-name="Path 809" d="M242.9,163.352l-14.413-7.794v15.588Z" transform="translate(680.191 361.333)" fill="none" stroke="#040404" stroke-width="1.3"/>
    <g id="Group_594" data-name="Group 594" transform="translate(840.198 449)">
      <g id="Group_585" data-name="Group 585" transform="translate(0 27.516)">
        <g id="Group_584" data-name="Group 584" transform="translate(0 0)" clip-path="url(#clip-path-3)">
          <rect id="Rectangle_259" data-name="Rectangle 259" width="14.506" height="14.48" transform="translate(-4.598 2.686) rotate(-30.292)" stroke="#707070" stroke-width="1.3" fill="url(#linear-gradient-3)"/>
        </g>
      </g>
      <g id="Group_587" data-name="Group 587" transform="translate(0 13.678)">
        <g id="Group_586" data-name="Group 586" transform="translate(0)" clip-path="url(#clip-path-4)">
          <rect id="Rectangle_260" data-name="Rectangle 260" width="14.505" height="14.478" transform="matrix(0.863, -0.504, 0.504, 0.863, -4.598, 2.686)" stroke="#707070" stroke-width="1.3" fill="url(#linear-gradient-3)"/>
        </g>
      </g>
      <g id="Group_589" data-name="Group 589" transform="translate(0 0)">
        <g id="Group_588" data-name="Group 588" transform="translate(0 0)" clip-path="url(#clip-path-5)">
          <rect id="Rectangle_261" data-name="Rectangle 261" width="14.505" height="14.478" transform="matrix(0.863, -0.504, 0.504, 0.863, -4.598, 2.686)" stroke="#707070" stroke-width="1.3" fill="url(#linear-gradient-3)"/>
        </g>
      </g>
    </g>
    <g id="Group_593" data-name="Group 593" transform="translate(927.266 524.22)">
      <path id="Path_810" data-name="Path 810" d="M261.783,233.452s-5.029.824-5.1,2.183.505,3.7,5.321,3.784l4.951-.39s-1.805-3.99-1.746-4.137a29.009,29.009,0,0,0-3.426-1.44" transform="translate(-254.094 -218.637)" fill="#fff" stroke="#707070" stroke-width="1.3"/>
      <path id="Path_811" data-name="Path 811" d="M261.783,233.452s-5.029.824-5.1,2.183.505,3.7,5.321,3.784l4.951-.39s-1.805-3.99-1.746-4.137A29.009,29.009,0,0,0,261.783,233.452Z" transform="translate(-254.094 -218.637)" fill="none" stroke="#070707" stroke-linecap="round" stroke-linejoin="round" stroke-width="1.3"/>
      <path id="Path_812" data-name="Path 812" d="M310.556,262.583c-8.306-5.494-9.949-7.925-11.55-29.794a13.307,13.307,0,0,0-.555-3c-.145-.464-.321-1.01-.526-1.616-1.811-5.35-5.887-15.349-10.84-14.521l-.024,0-.088-.077,0,0c-.652-.555-4.725-3.853-8.365-2.782,0,0-8.007-3.964-12.362-3.621L254.811,195.64a3.036,3.036,0,0,0-4.172-.164,1.99,1.99,0,0,0-.708,1.338c-.16,2.042,2.89,6.92,7.615,12.737l.017.021c.42.517.9,1.135,1.416,1.839h0l.121.166c.767,1.046,1.62,2.274,2.508,3.631,1.143,1.749,2.345,3.716,3.5,5.8,3.173,5.728,5.966,12.306,6.113,17.529,0,.01,0,.021,0,.031a10.609,10.609,0,0,1-.756,4.511,46.342,46.342,0,0,1-9.429-8.448q-.461-.547-.928-1.029c-3.482-3.609-7.1-4.581-9.034-3.349a1.353,1.353,0,0,0-.6.85v0c0,.021-.009.041-.012.062,0,0,0,.01,0,.015s-.006.037-.008.055,0,.018,0,.027,0,.031,0,.046,0,.05,0,.075a1.379,1.379,0,0,0,.245.811l.124.179.221.321.077.112.247.358.154.223.974,1.411.12.173,1.584,2.292c.888,1.286,1.856,2.686,2.835,4.1,3.548,5.124,7.233,10.43,7.77,11.137l.156.2,0,0q.1.131.219.277l.049.059.05.061.078.094c.05.058.1.119.156.18l.055.062.106.118.008.008c.039.042.079.086.12.129.062.065.125.131.192.2l.068.068a11.92,11.92,0,0,0,1.323,1.132c.026.02.053.04.08.059.107.078.217.156.331.234l.1.069c.192.129.394.256.607.383l.171.1q.4.231.845.455l.141.07.084.041.147.07.142.066.179.081.164.072.1.042.24.1a24.75,24.75,0,0,0,5.669,1.494c5.051.764,10.7,6.474,15.314,12.272" transform="translate(-249.925 -194.724)" fill="#fff" stroke="#707070" stroke-width="1.3"/>
      <path id="Path_813" data-name="Path 813" d="M310.556,262.583c-8.306-5.494-9.949-7.925-11.55-29.794a13.307,13.307,0,0,0-.555-3c-.145-.464-.321-1.01-.526-1.616-1.811-5.35-5.887-15.349-10.84-14.521l-.024,0-.088-.077,0,0c-.652-.555-4.725-3.853-8.365-2.782,0,0-8.007-3.964-12.362-3.621L254.811,195.64a3.036,3.036,0,0,0-4.172-.164,1.99,1.99,0,0,0-.708,1.338c-.16,2.042,2.89,6.92,7.615,12.737l.017.021c.42.517.9,1.135,1.416,1.839h0l.121.166c.767,1.046,1.62,2.274,2.508,3.631,1.143,1.749,2.345,3.716,3.5,5.8,3.173,5.728,5.966,12.306,6.113,17.529,0,.01,0,.021,0,.031a10.609,10.609,0,0,1-.756,4.511,46.342,46.342,0,0,1-9.429-8.448q-.461-.547-.928-1.029c-3.482-3.609-7.1-4.581-9.034-3.349a1.353,1.353,0,0,0-.6.85v0c0,.021-.009.041-.012.062,0,0,0,.01,0,.015s-.006.037-.008.055,0,.018,0,.027,0,.031,0,.046,0,.05,0,.075a1.379,1.379,0,0,0,.245.811l.124.179.221.321.077.112.247.358.154.223.974,1.411.12.173,1.584,2.292c.888,1.286,1.856,2.686,2.835,4.1,3.548,5.124,7.233,10.43,7.77,11.137l.156.2,0,0q.1.131.219.277l.049.059.05.061.078.094c.05.058.1.119.156.18l.055.062.106.118.008.008c.039.042.079.086.12.129.062.065.125.131.192.2l.068.068a11.92,11.92,0,0,0,1.323,1.132c.026.02.053.04.08.059.107.078.217.156.331.234l.1.069c.192.129.394.256.607.383l.171.1q.4.231.845.455l.141.07.084.041.147.07.142.066.179.081.164.072.1.042.24.1a24.75,24.75,0,0,0,5.669,1.494c5.051.764,10.7,6.474,15.314,12.272" transform="translate(-249.925 -194.724)" fill="none" stroke="#070707" stroke-linecap="round" stroke-linejoin="round" stroke-width="1.3"/>
      <path id="Path_814" data-name="Path 814" d="M292.657,227.283a43.679,43.679,0,0,1,4.219,3.522,47.848,47.848,0,0,1,3.8,3.988,34.029,34.029,0,0,1,3.226,4.474,17.769,17.769,0,0,1,2.137,5.068l-.031.009a20.215,20.215,0,0,0-2.319-4.944,38.4,38.4,0,0,0-3.257-4.4c-1.174-1.4-2.429-2.73-3.729-4.014-1.224-1.206-2.755-2.609-4.062-3.677Z" transform="translate(-276.298 -214.828)" fill="#fff" stroke="#707070" stroke-width="1.3"/>
      <path id="Path_815" data-name="Path 815" d="M292.657,227.283a43.679,43.679,0,0,1,4.219,3.522,47.848,47.848,0,0,1,3.8,3.988,34.029,34.029,0,0,1,3.226,4.474,17.769,17.769,0,0,1,2.137,5.068l-.031.009a20.215,20.215,0,0,0-2.319-4.944,38.4,38.4,0,0,0-3.257-4.4c-1.174-1.4-2.429-2.73-3.729-4.014-1.224-1.206-2.755-2.609-4.062-3.677Z" transform="translate(-276.298 -214.828)" fill="none" stroke="#070707" stroke-linecap="round" stroke-linejoin="round" stroke-width="1.3"/>
      <path id="Path_816" data-name="Path 816" d="M324.695,236.673a11.841,11.841,0,0,1,3.207,2.057,14.886,14.886,0,0,1,4.25,6.309,14.512,14.512,0,0,1,.777,3.729l-.032,0a18.609,18.609,0,0,0-.98-3.644,16.838,16.838,0,0,0-4.187-6.214,14.166,14.166,0,0,0-3.049-2.212Z" transform="translate(-296.084 -220.626)" fill="#fff" stroke="#707070" stroke-width="1.3"/>
      <path id="Path_817" data-name="Path 817" d="M324.695,236.673a11.841,11.841,0,0,1,3.207,2.057,14.886,14.886,0,0,1,4.25,6.309,14.512,14.512,0,0,1,.777,3.729l-.032,0a18.609,18.609,0,0,0-.98-3.644,16.838,16.838,0,0,0-4.187-6.214,14.166,14.166,0,0,0-3.049-2.212Z" transform="translate(-296.084 -220.626)" fill="none" stroke="#070707" stroke-linecap="round" stroke-linejoin="round" stroke-width="1.3"/>
      <path id="Path_818" data-name="Path 818" d="M346.741,244.018a10.528,10.528,0,0,1,2.732,2.8,13.243,13.243,0,0,1,2.251,6.08l-.031.007a18.1,18.1,0,0,0-2.472-5.922,14.3,14.3,0,0,0-2.5-2.939Z" transform="translate(-309.695 -225.161)" fill="#fff" stroke="#707070" stroke-width="1.3"/>
      <path id="Path_819" data-name="Path 819" d="M346.741,244.018a10.528,10.528,0,0,1,2.732,2.8,13.243,13.243,0,0,1,2.251,6.08l-.031.007a18.1,18.1,0,0,0-2.472-5.922,14.3,14.3,0,0,0-2.5-2.939Z" transform="translate(-309.695 -225.161)" fill="none" stroke="#070707" stroke-linecap="round" stroke-linejoin="round" stroke-width="1.3"/>
    </g>
  </g>
</svg>
