<?xml version="1.0" encoding="UTF-8" standalone="no"?>
<!-- Created with Inkscape (http://www.inkscape.org/) -->

<svg
   width="15.854887mm"
   height="15.847473mm"
   viewBox="0 0 15.854887 15.847473"
   version="1.1"
   id="svg5"
   xmlns="http://www.w3.org/2000/svg"
   xmlns:svg="http://www.w3.org/2000/svg">
  <defs
     id="defs2" />
  <g
     id="layer1"
     transform="translate(-61.036786,-118.63427)">
    <path
       style="fill:#000000;stroke-width:0.352778"
       d="m 65.79733,133.8681 c -2.74063,-1.28499 -4.754921,-4.35575 -4.760532,-7.25736 -0.0079,-4.10572 3.870738,-7.9844 7.976461,-7.97646 1.270338,0.002 3.574219,0.62693 3.828024,1.03759 0.104654,0.16934 0.09843,0.54724 -0.01383,0.83978 -0.181689,0.47347 -0.345393,0.47286 -1.49038,-0.006 -4.87043,-2.035 -10.231864,3.04899 -8.559436,8.11649 1.197858,3.62955 5.366805,5.49228 8.945562,3.99698 1.648,-0.68858 3.375883,-2.81027 3.64152,-4.47147 0.174785,-1.09305 0.379921,-1.40191 0.931092,-1.40191 0.623166,0 0.684093,0.17017 0.514265,1.43634 -0.25113,1.87231 -1.657689,3.96037 -3.480244,5.16648 -1.922848,1.27248 -5.412739,1.51298 -7.532503,0.51908 z m -0.97111,-7.36264 0.989429,-0.96024 2.640104,2.40992 6.867932,-6.76361 0.810573,0.77245 c 0,0 -0.773689,0.87254 -3.921961,4.01188 l -3.964374,3.95313 z"
       id="path3276" />
  </g>
</svg>
