<?xml version="1.0" encoding="utf-8"?>
<!-- Generator: Adobe Illustrator 22.0.1, SVG Export Plug-In . SVG Version: 6.00 Build 0)  -->
<svg version="1.1" id="Layer_1" xmlns="http://www.w3.org/2000/svg" xmlns:xlink="http://www.w3.org/1999/xlink" x="0px" y="0px"
	 viewBox="0 0 512 512" style="enable-background:new 0 0 512 512;" xml:space="preserve">
<style type="text/css">
	.st0{fill:#FFFFFF;}
	.st1{fill:#FCB52E;}
</style>
<path class="st0" d="M301.7,208.4c-6.4,0-11.5,5.2-11.5,11.5v40.2c0,13.8-11.2,25-25,25H262v-19.5c0-6.4-5.2-11.5-11.5-11.5
	c-6.4,0-11.5,5.2-11.5,11.5v19.5h-4.1c-14.8,0-26.8-12-26.8-26.8c0-14.8,12-26.8,26.8-26.8c6.4,0,11.5-5.2,11.5-11.5
	c0-6.4-5.2-11.5-11.5-11.5c-27.5,0-49.9,22.4-49.9,49.9c0,26,20,47.4,45.5,49.7c0.7,0.1,1.4,0.2,2.1,0.2h32.5c26.5,0,48-21.5,48-48
	v-40.2C313.2,213.6,308.1,208.4,301.7,208.4"/>
<g>
	<path class="st1" d="M456.1,196.6c-4.2-14.2-9.8-27.7-16.7-40.5l7.8-53.9l-37.4-37.4L356,72.7c-12.7-7-26.2-12.5-40.5-16.7
		L283,12.3h-52.9l-32.6,43.8c-14.1,4.2-27.6,9.7-40.3,16.7l-53.9-7.9l-37.5,37.4l7.9,53.9c-7,12.7-12.5,26.2-16.7,40.3l-43.8,32.6
		V282l43.8,32.5c4.2,14.1,9.7,27.7,16.7,40.4l-7.9,53.9l37.5,37.3l53.9-7.9c12.7,7,26.2,12.6,40.3,16.8l32.6,43.8H283l32.5-43.8
		c14.1-4.2,27.7-9.8,40.5-16.7l53.9,7.8l37.4-37.3l-7.8-53.9c6.9-12.7,12.5-26.2,16.7-40.4l43.8-32.5v-52.9L456.1,196.6z"/>
	<path class="st0" d="M368.7,148.1c-14.5,0-26.2,11.7-26.2,26.2v91.6c0,31.4-25.6,57-57,57h-7.3v-44.4c0-14.5-11.7-26.2-26.2-26.2
		c-14.5,0-26.2,11.7-26.2,26.2v44.4h-9.3c-33.7,0-61.2-27.5-61.2-61.2s27.5-61.2,61.2-61.2c14.5,0,26.2-11.7,26.2-26.2
		c0-14.5-11.7-26.2-26.2-26.2c-62.7,0-113.7,51-113.7,113.7c0,59.3,45.7,108.1,103.7,113.2c1.6,0.3,3.2,0.5,4.8,0.5h74.1
		c60.4,0,109.5-49.1,109.5-109.5v-91.6C394.9,159.8,383.1,148.1,368.7,148.1"/>
</g>
</svg>
