<?xml version="1.0" encoding="utf-8"?>
<!-- Generator: Adobe Illustrator 22.0.1, SVG Export Plug-In . SVG Version: 6.00 Build 0)  -->
<svg version="1.1" id="Layer_1" xmlns="http://www.w3.org/2000/svg" xmlns:xlink="http://www.w3.org/1999/xlink" x="0px" y="0px"
	 viewBox="0 0 144 144" style="enable-background:new 0 0 144 144;" xml:space="preserve">
<style type="text/css">
	.st0{fill:#FFFFFF;}
	.st1{fill:#FCB52E;}
</style>
<path class="st0" d="M84.8,58.9c-1.7,0-3.1,1.4-3.1,3.1v10.9c0,3.7-3,6.8-6.8,6.8H74v-5.3c0-1.7-1.4-3.1-3.1-3.1
	c-1.7,0-3.1,1.4-3.1,3.1v5.3h-1.1c-4,0-7.2-3.3-7.2-7.2c0-4,3.3-7.2,7.2-7.2c1.7,0,3.1-1.4,3.1-3.1s-1.4-3.1-3.1-3.1
	c-7.4,0-13.5,6-13.5,13.5c0,7,5.4,12.8,12.3,13.4c0.2,0,0.4,0.1,0.6,0.1h8.8c7.1,0,13-5.8,13-13V62C87.9,60.3,86.5,58.9,84.8,58.9"
	/>
<g>
	<path class="st1" d="M126.4,55.7c-1.1-3.8-2.7-7.5-4.5-10.9l2.1-14.6L114,20.1l-14.6,2.1c-3.4-1.9-7.1-3.4-10.9-4.5L79.7,5.9H65.4
		l-8.8,11.8c-3.8,1.1-7.5,2.6-10.9,4.5l-14.6-2.1L21,30.2l2.1,14.6c-1.9,3.4-3.4,7.1-4.5,10.9L6.8,64.5v14.3l11.8,8.8
		c1.1,3.8,2.6,7.5,4.5,10.9L21,113l10.1,10.1l14.6-2.1c3.4,1.9,7.1,3.4,10.9,4.5l8.8,11.8h14.3l8.8-11.8c3.8-1.1,7.5-2.7,10.9-4.5
		l14.6,2.1L124,113l-2.1-14.6c1.9-3.4,3.4-7.1,4.5-10.9l11.8-8.8V64.5L126.4,55.7z"/>
	<path class="st0" d="M102.8,42.6c-3.9,0-7.1,3.2-7.1,7.1v24.7c0,8.5-6.9,15.4-15.4,15.4h-2v-12c0-3.9-3.2-7.1-7.1-7.1
		c-3.9,0-7.1,3.2-7.1,7.1v12h-2.5c-9.1,0-16.5-7.4-16.5-16.5s7.4-16.5,16.5-16.5c3.9,0,7.1-3.2,7.1-7.1c0-3.9-3.2-7.1-7.1-7.1
		C44.8,42.6,31,56.3,31,73.3c0,16,12.3,29.2,28,30.6c0.4,0.1,0.9,0.1,1.3,0.1h20c16.3,0,29.6-13.3,29.6-29.6V49.6
		C109.9,45.7,106.7,42.6,102.8,42.6"/>
</g>
</svg>
