<?xml version="1.0" encoding="utf-8"?>
<!-- Generator: Adobe Illustrator 21.0.2, SVG Export Plug-In . SVG Version: 6.00 Build 0)  -->
<svg version="1.1" id="Layer_1" xmlns="http://www.w3.org/2000/svg" xmlns:xlink="http://www.w3.org/1999/xlink" x="0px" y="0px"
	 viewBox="0 0 148.5 102.1" style="enable-background:new 0 0 148.5 102.1;" xml:space="preserve">
<style type="text/css">
	.st0{fill:#FFFFFF;}
	.st1{fill:#575656;}
	.st2{fill:#F7F7F7;}
	.st3{fill:#A5A5A5;}
	.st4{fill:none;}
	.st5{fill:#F9B51B;}
</style>
<g>
	<g>
		<g>
			<path class="st0" d="M142.5,94H35.1c-2.8,0-5.2-2.3-5.2-5.2V6c0-2.8,2.3-5.2,5.2-5.2h107.4c2.8,0,5.2,2.3,5.2,5.2v82.8
				C147.7,91.7,145.4,94,142.5,94z"/>
			<path class="st1" d="M142.5,94.8H35.1c-3.3,0-5.9-2.7-5.9-5.9V6.1c0-3.3,2.7-5.9,5.9-5.9h107.4c3.3,0,5.9,2.7,5.9,5.9v82.8
				C148.4,92.1,145.8,94.8,142.5,94.8z M35.1,1.6c-2.4,0-4.4,2-4.4,4.4v82.8c0,2.4,2,4.4,4.4,4.4h107.4c2.4,0,4.4-2,4.4-4.4V6
				c0-2.4-2-4.4-4.4-4.4L35.1,1.6L35.1,1.6z"/>
		</g>
		<g>
			<path class="st2" d="M29.9,11.8V5.9c0-2.8,2.3-5.2,5.2-5.2h107.4c2.8,0,5.2,2.3,5.2,5.2v5.9"/>
			<path class="st1" d="M147.7,12.6c-0.4,0-0.8-0.3-0.8-0.8V5.9c0-2.4-2-4.4-4.4-4.4H35.1c-2.4,0-4.4,2-4.4,4.4v5.9
				c0,0.4-0.3,0.8-0.8,0.8s-0.8-0.3-0.8-0.8V5.9C29.1,2.6,31.8,0,35,0h107.4c3.3,0,5.9,2.7,5.9,5.9v5.9
				C148.4,12.3,148.1,12.6,147.7,12.6z"/>
		</g>
		<g>
			<path class="st1" d="M147.7,13.5H30c-0.4,0-0.8-0.3-0.8-0.8s0.3-0.8,0.8-0.8h117.7c0.4,0,0.8,0.3,0.8,0.8S148.1,13.5,147.7,13.5z
				"/>
		</g>
		<g>
			<circle class="st3" cx="37.9" cy="7.3" r="1.8"/>
		</g>
		<g>
			<circle class="st3" cx="44.4" cy="7.3" r="1.8"/>
		</g>
		<g>
			<circle class="st3" cx="51" cy="7.3" r="1.8"/>
		</g>
	</g>
	<g>
		<g>
			<path class="st3" d="M113.6,32.6H57c-0.4,0-0.8-0.3-0.8-0.8c0-0.4,0.3-0.8,0.8-0.8h56.6c0.4,0,0.8,0.3,0.8,0.8
				C114.4,32.2,114,32.6,113.6,32.6z"/>
		</g>
		<g>
			<g>
				<line class="st4" x1="123.1" y1="29.6" x2="127.4" y2="34"/>
				<path class="st1" d="M127.4,34.7c-0.2,0-0.4-0.1-0.5-0.2l-4.3-4.3c-0.3-0.3-0.3-0.8,0-1.1c0.3-0.3,0.8-0.3,1.1,0l4.3,4.3
					c0.3,0.3,0.3,0.8,0,1.1C127.8,34.6,127.6,34.7,127.4,34.7z"/>
			</g>
			<g>
				<line class="st4" x1="123.1" y1="34" x2="127.4" y2="29.6"/>
				<path class="st1" d="M123.1,34.7c-0.2,0-0.4-0.1-0.5-0.2c-0.3-0.3-0.3-0.8,0-1.1l4.3-4.3c0.3-0.3,0.8-0.3,1.1,0s0.3,0.8,0,1.1
					l-4.3,4.3C123.5,34.6,123.3,34.7,123.1,34.7z"/>
			</g>
		</g>
		<g>
			<path class="st3" d="M113.6,60.3H57c-0.4,0-0.8-0.3-0.8-0.8s0.3-0.8,0.8-0.8h56.6c0.4,0,0.8,0.3,0.8,0.8S114,60.3,113.6,60.3z"/>
		</g>
		<g>
			<g>
				<path class="st1" d="M127.4,62.4c-0.2,0-0.4-0.1-0.5-0.2l-4.3-4.3c-0.3-0.3-0.3-0.8,0-1.1c0.3-0.3,0.8-0.3,1.1,0l4.3,4.3
					c0.3,0.3,0.3,0.8,0,1.1C127.8,62.4,127.6,62.4,127.4,62.4z"/>
			</g>
			<g>
				<path class="st1" d="M123.1,62.4c-0.2,0-0.4-0.1-0.5-0.2c-0.3-0.3-0.3-0.8,0-1.1l4.3-4.3c0.3-0.3,0.8-0.3,1.1,0s0.3,0.8,0,1.1
					l-4.3,4.3C123.5,62.4,123.3,62.4,123.1,62.4z"/>
			</g>
		</g>
		<g>
			<g>
				<path class="st3" d="M113.6,46.6H57c-0.4,0-0.8-0.3-0.8-0.8c0-0.4,0.3-0.8,0.8-0.8h56.6c0.4,0,0.8,0.3,0.8,0.8
					C114.4,46.2,114,46.6,113.6,46.6z"/>
			</g>
			<g>
				<path class="st5" d="M125.3,47.4c-0.2,0-0.4-0.1-0.6-0.3l-2.1-2.4c-0.3-0.3-0.3-0.8,0.1-1.1c0.3-0.3,0.8-0.3,1.1,0.1l1.5,1.7
					l3.4-3.9c0.3-0.3,0.8-0.3,1.1-0.1c0.3,0.3,0.3,0.8,0.1,1.1l-4,4.5C125.7,47.3,125.5,47.4,125.3,47.4L125.3,47.4z"/>
			</g>
		</g>
		<g>
			<g>
				<path class="st3" d="M113.6,74.3H57c-0.4,0-0.8-0.3-0.8-0.8s0.3-0.8,0.8-0.8h56.6c0.4,0,0.8,0.3,0.8,0.8S114,74.3,113.6,74.3z"
					/>
			</g>
			<g>
				<path class="st5" d="M125.3,75.2c-0.2,0-0.4-0.1-0.6-0.3l-2.1-2.4c-0.3-0.3-0.3-0.8,0.1-1.1c0.3-0.3,0.8-0.3,1.1,0.1l1.5,1.7
					l3.4-3.9c0.3-0.3,0.8-0.3,1.1-0.1c0.3,0.3,0.3,0.8,0.1,1.1l-4,4.5C125.7,75.1,125.5,75.2,125.3,75.2L125.3,75.2z"/>
			</g>
		</g>
	</g>
	<g>
		<g>
			<path class="st2" d="M52.6,63.7c-13.2-0.7-13.7-5-13.7-5l-7.3,2.1l-7.3-2.1c0,0-0.4,4.3-13.7,5C0.7,64.2,0.8,94,0.8,94h30.4h0.7
				h30.4C62.4,94,62.5,64.2,52.6,63.7z"/>
			<path class="st1" d="M62.4,94.8H0.8C0.4,94.8,0,94.5,0,94c0-1.2,0.1-30.5,10.5-31.1c12.1-0.6,12.9-4.3,12.9-4.3
				c0-0.2,0.2-0.4,0.4-0.5s0.4-0.2,0.6-0.1l7.1,2l7.1-2c0.2-0.1,0.5,0,0.6,0.1c0.2,0.1,0.3,0.3,0.3,0.6c0,0,0.8,3.7,12.9,4.3l0,0
				c10.5,0.5,10.5,29.8,10.5,31.1C63.2,94.4,62.9,94.8,62.4,94.8z M1.6,93.2h60c-0.1-8.6-1.8-28.4-9.1-28.8
				c-10.5-0.5-13.3-3.3-14.1-4.8l-6.6,1.9c-0.1,0-0.3,0-0.4,0l-6.6-1.9c-0.8,1.5-3.6,4.3-14.1,4.8C3.5,64.8,1.7,84.6,1.6,93.2z"/>
		</g>
		<g>
			<ellipse class="st0" cx="32.2" cy="57.3" rx="8.1" ry="9.7"/>
			<path class="st1" d="M32.2,67.8c-4.9,0-8.9-4.7-8.9-10.4c0-5.8,4-10.4,8.9-10.4s8.9,4.7,8.9,10.4C41.1,63.1,37.1,67.8,32.2,67.8z
				 M32.2,48.4c-4,0-7.3,4-7.3,8.9s3.3,8.9,7.3,8.9s7.3-4,7.3-8.9C39.5,52.4,36.2,48.4,32.2,48.4z"/>
		</g>
		<g>
			<path class="st1" d="M34.2,50.5h-5.1c-7.7,0-13.9-6.3-13.9-13.9v-5.1c0-7.7,6.3-13.9,13.9-13.9h5.1c7.7,0,13.9,6.3,13.9,13.9v5.1
				C48.1,44.3,41.9,50.5,34.2,50.5z"/>
		</g>
		<g>
			<polygon class="st0" points="39.2,94.3 32.2,101.3 25.1,94.3 32.2,70.8 			"/>
			<path class="st5" d="M32.2,102.1c-0.2,0-0.4-0.1-0.5-0.2l-7-7c-0.2-0.2-0.3-0.5-0.2-0.8l7-23.5c0.1-0.3,0.4-0.5,0.7-0.5l0,0
				c0.3,0,0.6,0.2,0.7,0.5l7,23.5c0.1,0.3,0,0.6-0.2,0.8l-7,7C32.6,102,32.4,102.1,32.2,102.1z M26,94.1l6.2,6.2l6.2-6.2l-6.2-20.6
				L26,94.1z"/>
		</g>
		<g>
			<path class="st0" d="M47.3,39.9L47.3,39.9c0-0.3,0-0.6,0-0.9c0-11.3-6.5-13.6-15.6-13.6S16.1,27.7,16.1,39c0,0.3,0,0.6,0,0.9
				c-0.8,0.2-1.3,0.9-1.3,1.7v2.8c0,0.9,0.8,1.7,1.7,1.7c0.2,0,0.3,0,0.5-0.1c2.1,8.2,7.6,14.7,14.8,14.7s12.8-6.5,14.8-14.8
				c0.2,0.1,0.5,0.2,0.8,0.2c0.9,0,1.7-0.8,1.7-1.7v-2.8C49,40.7,48.2,39.9,47.3,39.9z"/>
			<path class="st1" d="M31.7,61.5c-7,0-12.9-5.7-15.4-14.6c-1.3-0.1-2.4-1.1-2.4-2.5v-2.8c0-0.9,0.5-1.8,1.3-2.2c0-0.1,0-0.3,0-0.4
				c0-12.6,8.3-14.3,16.4-14.3S48,26.4,48,39c0,0.1,0,0.2,0,0.3c1,0.3,1.7,1.3,1.7,2.4v2.8c0,1.4-1.1,2.5-2.5,2.5
				c-0.1,0-0.2,0-0.3,0C44.6,55.6,38.5,61.5,31.7,61.5z M16.9,45.3c0.1,0,0.3,0,0.4,0.1c0.2,0.1,0.3,0.3,0.4,0.5
				c2.1,8.6,7.6,14.1,14,14.1c6.3,0,12-5.7,14.1-14.2c0.1-0.2,0.2-0.4,0.4-0.5s0.5-0.1,0.7,0c0.7,0.4,1.4-0.1,1.4-0.8v-2.8
				c0-0.5-0.4-0.9-0.9-0.9c-0.3,0-0.4-0.1-0.6-0.2c-0.1-0.1-0.2-0.4-0.2-0.6c0-0.3,0-0.6,0-0.9c0-10.6-5.9-12.8-14.9-12.8
				c-8.9,0-14.9,2.2-14.9,12.8c0,0.3,0,0.6,0,0.9c0,0.4-0.2,0.7-0.6,0.8c-0.4,0.1-0.7,0.5-0.7,0.9v2.8c0,0.5,0.4,0.9,0.9,0.9
				c0.1,0,0.2,0,0.3,0C16.7,45.3,16.8,45.3,16.9,45.3z"/>
		</g>
		<g>
			<path class="st1" d="M16.2,32.8c0,0,7.5-11.9,18.7,0c10.5,11.1,13.2,5.9,13.2,5.9l-1.7-11.1l-10.9-6.5c0,0-12.6-0.4-14.4,0
				s-6,10.4-6,10.4L16.2,32.8z"/>
		</g>
	</g>
</g>
</svg>
