<?xml version="1.0" encoding="utf-8"?>
<!-- Generator: Adobe Illustrator 23.0.1, SVG Export Plug-In . SVG Version: 6.00 Build 0)  -->
<svg version="1.1" id="Warstwa_1" xmlns="http://www.w3.org/2000/svg" xmlns:xlink="http://www.w3.org/1999/xlink" x="0px" y="0px"
	 width="300px" height="300px" viewBox="0 0 300 300" style="enable-background:new 0 0 300 300;" xml:space="preserve">
<style type="text/css">
	.st0{fill:#FFFFFF;}
	.st1{opacity:0.3;}
	.st2{clip-path:url(#SVGID_2_);}
	.st3{fill:#575656;}
	.st4{fill:#EAEAEA;}
	.st5{fill:#A5A5A5;}
	.st6{fill:#F9C228;}
	.st7{fill:#565656;}
</style>
<g>
	<g>
		<circle class="st0" cx="150" cy="150" r="150"/>
	</g>
</g>
<g class="st1">
	<defs>
		<circle id="SVGID_1_" class="st1" cx="152.3" cy="142.8" r="80.5"/>
	</defs>
	<clipPath id="SVGID_2_">
		<use xlink:href="#SVGID_1_"  style="overflow:visible;"/>
	</clipPath>
	<g class="st2">
		<g>
			<g>
				<path class="st0" d="M302.9,259.8h-190c-5,0-9.1-4.1-9.1-9.1V104c0-5,4.1-9.1,9.1-9.1h190c5,0,9.1,4.1,9.1,9.1v146.6
					C312,255.7,307.9,259.8,302.9,259.8z"/>
			</g>
			<g>
				<path class="st3" d="M302.9,260.9h-190c-5.7,0-10.3-4.6-10.3-10.3V104c0-5.7,4.6-10.3,10.3-10.3h190c5.7,0,10.3,4.6,10.3,10.3
					v146.6C313.2,256.3,308.6,260.9,302.9,260.9z M112.8,96c-4.4,0-8,3.6-8,8v146.6c0,4.4,3.6,8,8,8h190c4.4,0,8-3.6,8-8V104
					c0-4.4-3.6-8-8-8H112.8z"/>
			</g>
		</g>
		<g>
			<g>
				<path class="st4" d="M103.7,114.4V104c0-5,4.1-9.1,9.1-9.1h190c5,0,9.1,4.1,9.1,9.1v10.4"/>
			</g>
			<g>
				<path class="st3" d="M312,115.6c-0.6,0-1.1-0.5-1.1-1.1V104c0-4.4-3.6-8-8-8h-190c-4.4,0-8,3.6-8,8v10.4c0,0.6-0.5,1.1-1.1,1.1
					s-1.1-0.5-1.1-1.1V104c0-5.7,4.6-10.3,10.3-10.3h190c5.7,0,10.3,4.6,10.3,10.3v10.4C313.2,115.1,312.7,115.6,312,115.6z"/>
			</g>
		</g>
		<g>
			<g>
				<path class="st3" d="M312,117.1H103.7c-0.6,0-1.1-0.5-1.1-1.1s0.5-1.1,1.1-1.1H312c0.6,0,1.1,0.5,1.1,1.1S312.7,117.1,312,117.1
					z"/>
			</g>
		</g>
		<g>
			<g>
				<circle class="st5" cx="117.7" cy="106.3" r="3.2"/>
			</g>
		</g>
		<g>
			<g>
				<circle class="st5" cx="129.3" cy="106.3" r="3.2"/>
			</g>
		</g>
		<g>
			<g>
				<circle class="st5" cx="140.9" cy="106.3" r="3.2"/>
			</g>
		</g>
	</g>
</g>
<g>
	<path class="st6" d="M152.3,224.8c-45.2,0-82-36.8-82-82s36.8-82,82-82c45.2,0,82,36.8,82,82S197.5,224.8,152.3,224.8z M152.3,63.8
		c-43.6,0-79,35.4-79,79c0,43.6,35.4,79,79,79s79-35.4,79-79C231.3,99.2,195.9,63.8,152.3,63.8z"/>
</g>
<g>
	<path class="st6" d="M67.8,239.9c-0.4,0-0.8-0.1-1.1-0.4c-0.6-0.6-0.6-1.5,0-2.1L95.1,209c0.6-0.6,1.5-0.6,2.1,0s0.6,1.5,0,2.1
		l-28.4,28.4C68.5,239.8,68.1,239.9,67.8,239.9z"/>
</g>
<g>
	<g>
		<g>
			<path class="st6" d="M189.8,161.1c-0.4-0.7-10-16.3-24.9-16.3c-15,0-24.6,15.6-24.9,16.3c-0.3,0.5-0.3,1.2,0,1.7
				c0.4,0.7,10,16.3,24.9,16.3c15,0,24.6-15.6,24.9-16.3C190.2,162.3,190.2,161.6,189.8,161.1L189.8,161.1z M164.9,175.7
				c-11.2,0-19.3-10.6-21.5-13.8c2.2-3.1,10.3-13.8,21.5-13.8c11.2,0,19.3,10.6,21.5,13.8C184.2,165.1,176.1,175.7,164.9,175.7
				L164.9,175.7z M164.9,175.7"/>
		</g>
	</g>
	<g>
		<path class="st6" d="M164.9,150.6c-6.3,0-11.3,5.1-11.3,11.3c0,6.3,5.1,11.3,11.3,11.3c6.3,0,11.3-5.1,11.3-11.3
			C176.2,155.7,171.1,150.6,164.9,150.6L164.9,150.6z M164.9,169.9"/>
	</g>
</g>
<g>
	<g>
		<path class="st7" d="M194,193.8h-13.4c-0.6,0-1-0.5-1-1s0.5-1,1-1H193v-12.4c0-0.6,0.5-1,1-1s1,0.5,1,1v13.4
			C195.1,193.4,194.6,193.8,194,193.8z"/>
	</g>
	<g>
		<g>
			<path class="st7" d="M134.4,145.6c-0.6,0-1-0.5-1-1v-13.4c0-0.6,0.5-1,1-1h13.4c0.6,0,1,0.5,1,1s-0.5,1-1,1h-12.4v12.4
				C135.4,145.1,134.9,145.6,134.4,145.6z"/>
		</g>
		<g>
			<path class="st7" d="M195.4,145.6c-0.6,0-1-0.5-1-1v-12.4H182c-0.6,0-1-0.5-1-1s0.5-1,1-1h13.4c0.6,0,1,0.5,1,1v13.4
				C196.4,145.1,196,145.6,195.4,145.6z"/>
		</g>
		<g>
			<path class="st7" d="M147.8,193.8h-13.4c-0.6,0-1-0.5-1-1v-13.4c0-0.6,0.5-1,1-1s1,0.5,1,1v12.4h12.4c0.6,0,1,0.5,1,1
				S148.4,193.8,147.8,193.8z"/>
		</g>
	</g>
</g>
</svg>
