<?xml version="1.0" encoding="utf-8"?>
<!-- Generator: Adobe Illustrator 23.0.1, SVG Export Plug-In . SVG Version: 6.00 Build 0)  -->
<svg version="1.1" id="Layer_1" xmlns="http://www.w3.org/2000/svg" xmlns:xlink="http://www.w3.org/1999/xlink" x="0px" y="0px"
	 width="135px" height="105.8px" viewBox="0 0 135 105.8" style="enable-background:new 0 0 135 105.8;" xml:space="preserve">
<style type="text/css">
	.st0{fill:#FFFFFF;}
	.st1{fill:#565656;}
	.st2{fill:#EAEAEA;}
	.st3{fill:#A5A5A5;}
	.st4{fill:#F9C228;}
</style>
<g>
	<g>
		<path class="st0" d="M130.9,79.5H28.8c-1.9,0-3.5-1.6-3.5-3.5V9.5c0-1.9,1.6-3.5,3.5-3.5h102.1c1.9,0,3.5,1.6,3.5,3.5V76
			C134.4,78,132.8,79.5,130.9,79.5z"/>
		<path class="st1" d="M130.9,80.1H28.8c-2.3,0-4.1-1.8-4.1-4.1V9.5c0-2.3,1.8-4.1,4.1-4.1h102.1c2.3,0,4.1,1.8,4.1,4.1V76
			C135,78.3,133.2,80.1,130.9,80.1z M28.8,6.6c-1.6,0-2.9,1.3-2.9,2.9V76c0,1.6,1.3,2.9,2.9,2.9h102.1c1.6,0,2.9-1.3,2.9-2.9V9.5
			c0-1.6-1.3-2.9-2.9-2.9H28.8z"/>
	</g>
	<g>
		<path class="st2" d="M25.3,17.5v-8c0-1.9,1.6-3.5,3.5-3.5h102.1c1.9,0,3.5,1.6,3.5,3.5v8"/>
		<path class="st1" d="M135,17.5h-1.2v-8c0-1.6-1.3-2.9-2.9-2.9H28.8c-1.6,0-2.9,1.3-2.9,2.9v8h-1.2v-8c0-2.3,1.8-4.1,4.1-4.1h102.1
			c2.3,0,4.1,1.8,4.1,4.1V17.5z"/>
	</g>
	<g>
		<path class="st1" d="M134.4,18.1H25.3c-0.3,0-0.6-0.3-0.6-0.6c0-0.3,0.3-0.6,0.6-0.6h109.1c0.3,0,0.6,0.3,0.6,0.6
			C135,17.8,134.7,18.1,134.4,18.1z"/>
	</g>
	<g>
		<g>
			<circle class="st3" cx="31.3" cy="12.2" r="1.5"/>
		</g>
		<g>
			<circle class="st3" cx="37.7" cy="12.2" r="1.5"/>
		</g>
		<g>
			<circle class="st3" cx="44.2" cy="12.2" r="1.5"/>
		</g>
	</g>
	<g>
		<path class="st0" d="M106.2,97.1H4.1c-1.9,0-3.5-1.6-3.5-3.5V27.1c0-1.9,1.6-3.5,3.5-3.5h102.1c1.9,0,3.5,1.6,3.5,3.5v66.5
			C109.7,95.5,108.1,97.1,106.2,97.1z"/>
		<path class="st1" d="M106.2,97.7H4.1c-2.3,0-4.1-1.8-4.1-4.1V27.1C0,24.8,1.8,23,4.1,23h102.1c2.3,0,4.1,1.8,4.1,4.1v66.5
			C110.3,95.9,108.4,97.7,106.2,97.7z M4.1,24.2c-1.6,0-2.9,1.3-2.9,2.9v66.5c0,1.6,1.3,2.9,2.9,2.9h102.1c1.6,0,2.9-1.3,2.9-2.9
			V27.1c0-1.6-1.3-2.9-2.9-2.9H4.1z"/>
	</g>
	<g>
		<path class="st2" d="M0.6,35v-8c0-1.9,1.6-3.5,3.5-3.5h102.1c1.9,0,3.5,1.6,3.5,3.5v8"/>
		<path class="st1" d="M110.3,35h-1.2v-8c0-1.6-1.3-2.9-2.9-2.9H4.1c-1.6,0-2.9,1.3-2.9,2.9v8H0v-8c0-2.2,1.8-4,4.1-4h102.1
			c2.3,0,4.1,1.8,4.1,4.1C110.3,27.1,110.3,35,110.3,35z"/>
	</g>
	<g>
		<path class="st1" d="M2.5,18.2c-0.3,0-0.6-0.3-0.6-0.6C1.9,9.2,8.7,2.4,17,2.4c0.3,0,0.6,0.3,0.6,0.6S17.4,3.6,17,3.6
			C9.3,3.6,3,9.9,3,17.5C3.1,17.9,2.8,18.2,2.5,18.2z"/>
	</g>
	<g>
		<polygon class="st1" points="22.3,2.2 15.5,0 16.3,6 		"/>
	</g>
	<g>
		<g>
			<path class="st1" d="M116.7,101c-0.3,0-0.6-0.3-0.6-0.6c0-0.3,0.3-0.6,0.6-0.6c7.7,0,14-6.3,14-13.9c0-0.3,0.3-0.6,0.6-0.6
				s0.6,0.3,0.6,0.6C131.9,94.2,125.1,101,116.7,101z"/>
		</g>
		<g>
			<polygon class="st1" points="111.4,101.2 118.2,103.4 117.4,97.3 			"/>
		</g>
	</g>
	<g>
		<path class="st1" d="M109.7,35.6H0.6C0.3,35.6,0,35.4,0,35c0-0.3,0.3-0.6,0.6-0.6h109.1c0.3,0,0.6,0.3,0.6,0.6
			C110.3,35.4,110,35.6,109.7,35.6z"/>
	</g>
	<g>
		<g>
			<circle class="st3" cx="6.6" cy="29.8" r="1.5"/>
		</g>
		<g>
			<circle class="st3" cx="13" cy="29.8" r="1.5"/>
		</g>
		<g>
			<circle class="st3" cx="19.4" cy="29.8" r="1.5"/>
		</g>
	</g>
	<g>
		<g>
			<g>
				<path class="st4" d="M56.4,98.3c-17.6,0-32.1-14.3-32.1-32s14.3-32,32.1-32c17.6,0,32.1,14.3,32.1,32S74,98.3,56.4,98.3z
					 M56.4,36.3c-16.6,0-30,13.4-30,30s13.4,30,30,30s30-13.4,30-30S72.9,36.3,56.4,36.3z"/>
			</g>
		</g>
		<g>
			<path class="st4" d="M26.2,105.8c-0.3,0-0.5-0.1-0.7-0.3c-0.4-0.4-0.4-1,0-1.4l10.3-10.3c0.4-0.4,1-0.4,1.4,0
				c0.4,0.4,0.4,1,0,1.4l-10.3,10.3C26.7,105.7,26.4,105.8,26.2,105.8z"/>
		</g>
	</g>
	<g>
		<g>
			<g>
				<g>
					<path class="st4" d="M75.6,65.7c-0.3-0.5-7.7-12.6-19.2-12.6c-11.6,0-19,12.1-19.3,12.6c-0.2,0.4-0.2,1,0,1.3
						c0.3,0.6,7.7,12.6,19.3,12.6s19-12.1,19.3-12.6C76,66.7,76,66.1,75.6,65.7L75.6,65.7z M56.4,77c-8.7,0-14.9-8.2-16.7-10.7
						c1.7-2.4,8-10.7,16.7-10.7S71.3,63.7,73,66.3C71.3,68.8,65,77,56.4,77L56.4,77z"/>
				</g>
			</g>
		</g>
		<g>
			<g>
				<path class="st4" d="M56.4,57.6c-4.9,0-8.8,3.9-8.8,8.8s4,8.8,8.8,8.8c4.9,0,8.8-3.9,8.8-8.8C65,61.5,61.1,57.6,56.4,57.6
					L56.4,57.6z"/>
			</g>
		</g>
	</g>
</g>
</svg>
