<?xml version="1.0" encoding="utf-8"?>
<!-- Generator: Adobe Illustrator 23.0.1, SVG Export Plug-In . SVG Version: 6.00 Build 0)  -->
<svg version="1.1" id="Warstwa_1" xmlns="http://www.w3.org/2000/svg" xmlns:xlink="http://www.w3.org/1999/xlink" x="0px" y="0px"
	 width="300px" height="300px" viewBox="0 0 300 300" style="enable-background:new 0 0 300 300;" xml:space="preserve">
<style type="text/css">
	.st0{fill:#FFFFFF;}
	.st1{fill:#F7F7F7;}
	.st2{fill:#F9C228;}
	.st3{fill:#565656;}
</style>
<g>
	<circle class="st0" cx="150" cy="150" r="150"/>
</g>
<g>
	<g>
		<path class="st1" d="M218.8,145.8H76.3c-1.1,0-2.1-0.9-2.1-2.1V53.3c0-1.1,0.9-2.1,2.1-2.1h142.5c1.1,0,2.1,0.9,2.1,2.1v90.5
			C220.8,144.9,219.9,145.8,218.8,145.8z"/>
		<path class="st2" d="M218.8,147.1H76.3c-1.9,0-3.4-1.5-3.4-3.4V53.3c0-1.9,1.5-3.4,3.4-3.4h142.5c1.9,0,3.4,1.5,3.4,3.4v90.5
			C222.1,145.6,220.6,147.1,218.8,147.1z M76.3,52.5c-0.4,0-0.8,0.4-0.8,0.8v90.5c0,0.4,0.4,0.8,0.8,0.8h142.5
			c0.4,0,0.8-0.4,0.8-0.8V53.3c0-0.4-0.4-0.8-0.8-0.8H76.3z"/>
	</g>
	<g>
		<g>
			<g>
				<path class="st3" d="M107,132.1c-0.7,0-1.3-0.6-1.3-1.3V65.2c0-0.7,0.6-1.3,1.3-1.3s1.3,0.6,1.3,1.3v65.5
					C108.3,131.5,107.7,132.1,107,132.1z"/>
			</g>
			<g>
				<path class="st0" d="M111.1,96.4h-8.3c-1.1,0-2.1-0.9-2.1-2.1v-4.2c0-1.1,0.9-2.1,2.1-2.1h8.3c1.1,0,2.1,0.9,2.1,2.1v4.2
					C113.2,95.5,112.3,96.4,111.1,96.4z"/>
				<path class="st3" d="M111.1,97.7h-8.3c-1.9,0-3.4-1.5-3.4-3.4v-4.2c0-1.9,1.5-3.4,3.4-3.4h8.3c1.9,0,3.4,1.5,3.4,3.4v4.2
					C114.5,96.2,113,97.7,111.1,97.7z M102.8,89.4c-0.4,0-0.8,0.4-0.8,0.8v4.2c0,0.4,0.4,0.8,0.8,0.8h8.3c0.4,0,0.8-0.4,0.8-0.8
					v-4.2c0-0.4-0.4-0.8-0.8-0.8H102.8z"/>
			</g>
		</g>
		<g>
			<g>
				<path class="st3" d="M134,133.1c-0.7,0-1.3-0.6-1.3-1.3V66.3c0-0.7,0.6-1.3,1.3-1.3s1.3,0.6,1.3,1.3v65.5
					C135.3,132.5,134.7,133.1,134,133.1z"/>
			</g>
			<g>
				<path class="st0" d="M138.2,108.9h-8.3c-1.1,0-2.1-0.9-2.1-2.1v-4.2c0-1.1,0.9-2.1,2.1-2.1h8.3c1.1,0,2.1,0.9,2.1,2.1v4.2
					C140.2,108,139.3,108.9,138.2,108.9z"/>
				<path class="st3" d="M138.2,110.2h-8.3c-1.9,0-3.4-1.5-3.4-3.4v-4.2c0-1.9,1.5-3.4,3.4-3.4h8.3c1.9,0,3.4,1.5,3.4,3.4v4.2
					C141.5,108.7,140,110.2,138.2,110.2z M129.8,101.9c-0.4,0-0.8,0.4-0.8,0.8v4.2c0,0.4,0.4,0.8,0.8,0.8h8.3c0.4,0,0.8-0.4,0.8-0.8
					v-4.2c0-0.4-0.4-0.8-0.8-0.8H129.8z"/>
			</g>
		</g>
		<g>
			<g>
				<path class="st3" d="M188.1,133.1c-0.7,0-1.3-0.6-1.3-1.3V66.3c0-0.7,0.6-1.3,1.3-1.3s1.3,0.6,1.3,1.3v65.5
					C189.4,132.5,188.8,133.1,188.1,133.1z"/>
			</g>
			<g>
				<path class="st0" d="M192.2,92.7h-8.3c-1.1,0-2.1-0.9-2.1-2.1v-4.2c0-1.1,0.9-2.1,2.1-2.1h8.3c1.1,0,2.1,0.9,2.1,2.1v4.2
					C194.3,91.8,193.4,92.7,192.2,92.7z"/>
				<path class="st3" d="M192.2,94h-8.3c-1.9,0-3.4-1.5-3.4-3.4v-4.2c0-1.9,1.5-3.4,3.4-3.4h8.3c1.9,0,3.4,1.5,3.4,3.4v4.2
					C195.6,92.5,194.1,94,192.2,94z M183.9,85.7c-0.4,0-0.8,0.4-0.8,0.8v4.2c0,0.4,0.4,0.8,0.8,0.8h8.3c0.4,0,0.8-0.4,0.8-0.8v-4.2
					c0-0.4-0.4-0.8-0.8-0.8H183.9z"/>
			</g>
		</g>
		<g>
			<g>
				<path class="st3" d="M161,133.1c-0.7,0-1.3-0.6-1.3-1.3V66.3c0-0.7,0.6-1.3,1.3-1.3s1.3,0.6,1.3,1.3v65.5
					C162.3,132.5,161.8,133.1,161,133.1z"/>
			</g>
			<g>
				<path class="st2" d="M165.2,108.7h-8.3c-1.1,0-2.1-0.9-2.1-2.1v-4.2c0-1.1,0.9-2.1,2.1-2.1h8.3c1.1,0,2.1,0.9,2.1,2.1v4.2
					C167.3,107.7,166.3,108.7,165.2,108.7z"/>
				<path class="st3" d="M165.2,110h-8.3c-1.9,0-3.4-1.5-3.4-3.4v-4.2c0-1.9,1.5-3.4,3.4-3.4h8.3c1.9,0,3.4,1.5,3.4,3.4v4.2
					C168.6,108.5,167.1,110,165.2,110z M156.9,101.7c-0.4,0-0.8,0.4-0.8,0.8v4.1c0,0.4,0.4,0.8,0.8,0.8h8.3c0.4,0,0.8-0.4,0.8-0.8
					v-4.2c0-0.4-0.4-0.8-0.8-0.8L156.9,101.7L156.9,101.7z"/>
			</g>
		</g>
	</g>
	<g>
		<path class="st0" d="M223.4,170.1c-0.1-0.7-0.2-1.3-0.5-1.9c0-0.1,0-0.2-0.1-0.3l0,0c-1.2-2.6-4-4.5-7.2-4.5h-2.3
			c-3.8,0-7.1,2.6-7.7,6h-0.1v-6.8c0-4.1-3.4-7.5-7.5-7.5h-2.9c-4.1,0-7.5,3.4-7.5,7.5c0-4.1-3.4-7.5-7.5-7.5h-2.9
			c-4.1,0-7.5,3.4-7.5,7.5V116c0-4.8-3.9-8.6-8.6-8.6h-0.7c-4.8,0-8.6,3.9-8.6,8.6v58.1c-9.5,0.8-28.4,4.6-22.9,22.7
			c7.3,23.9,30.2,52,30.2,52h52C211,248.8,232.9,210.3,223.4,170.1z"/>
		<path class="st3" d="M211,250.1h-52c-0.4,0-0.8-0.2-1-0.5s-23.1-28.6-30.4-52.4c-1.8-5.8-1.3-10.7,1.4-14.6c4.6-6.8,15-9,21.5-9.6
			v-57c0-5.5,4.5-9.9,9.9-9.9h0.7c5.5,0,9.9,4.5,9.9,9.9v40.5c1.6-1.6,3.8-2.6,6.2-2.6h2.9c3.2,0,6,1.7,7.5,4.2
			c1.6-2.5,4.3-4.2,7.5-4.2h2.9c4.9,0,8.8,4,8.8,8.8v2.1c1.7-1.6,4-2.6,6.5-2.6h2.3c3.6,0,6.8,1.9,8.3,5c0.1,0.1,0.2,0.3,0.2,0.5
			l0.1,0.2c0.3,0.7,0.4,1.4,0.5,2c9.5,40.1-12.4,79.1-12.6,79.5C211.9,249.8,211.4,250.1,211,250.1z M211,248.8L211,248.8L211,248.8
			z M159.6,247.5h50.6c2.8-5.2,20.6-40.7,12-77c0-0.1,0-0.1,0-0.2c0-0.5-0.2-1-0.4-1.5v-0.1v-0.1c-1-2.3-3.4-3.7-6-3.7h-2.3
			c-3.1,0-5.9,2.1-6.4,5c-0.1,0.6-0.6,1-1.2,1.1h-0.1c-0.4,0-0.7-0.1-1-0.3s-0.4-0.6-0.4-1v-6.8c0-3.4-2.8-6.2-6.2-6.2h-2.9
			c-3.4,0-6.2,2.8-6.2,6.2c0,0.7-0.6,1.3-1.3,1.3s-1.3-0.6-1.3-1.3c0-3.4-2.8-6.2-6.2-6.2h-2.9c-3.4,0-6.2,2.8-6.2,6.2
			c0,0.7-0.6,1.3-1.3,1.3s-1.3-0.6-1.3-1.3V116c0-4-3.3-7.3-7.3-7.3h-0.7c-4,0-7.3,3.3-7.3,7.3v58.1c0,0.7-0.5,1.2-1.2,1.3
			c-5.9,0.5-16.4,2.3-20.7,8.6c-2.2,3.2-2.6,7.4-1,12.4C136.6,218.1,156.6,243.7,159.6,247.5z"/>
	</g>
	<g>
		<path class="st3" d="M143.9,189.3c-0.2,0-0.4,0-0.6-0.2c-0.6-0.3-0.9-1.1-0.5-1.8l7.3-13.5c0.3-0.6,1.1-0.9,1.8-0.5
			c0.6,0.3,0.9,1.1,0.5,1.8l-7.3,13.5C144.8,189,144.3,189.3,143.9,189.3z"/>
	</g>
</g>
</svg>
