<?xml version="1.0" encoding="utf-8"?>
<!-- Generator: Adobe Illustrator 23.0.1, SVG Export Plug-In . SVG Version: 6.00 Build 0)  -->
<svg version="1.1" id="Layer_1" xmlns="http://www.w3.org/2000/svg" xmlns:xlink="http://www.w3.org/1999/xlink" x="0px" y="0px"
	 width="135px" height="99.3px" viewBox="0 0 135 99.3" style="enable-background:new 0 0 135 99.3;" xml:space="preserve">
<style type="text/css">
	.st0{fill:#F9C228;}
	.st1{fill:#A5A5A5;}
	.st2{fill:#565656;}
</style>
<g>
	<g>
		<path class="st0" d="M20.6,99.3l-7.2-7.2H5.3c-2.9,0-5.3-2.4-5.3-5.3V5.3C0,2.4,2.4,0,5.3,0h124.5c2.9,0,5.3,2.4,5.3,5.3v81.6
			c0,2.9-2.4,5.3-5.3,5.3h-102L20.6,99.3z M5.3,2C3.5,2,2,3.5,2,5.3v81.6c0,1.8,1.5,3.3,3.3,3.3h9l6.3,6.4l6.3-6.4h102.8
			c1.8,0,3.3-1.5,3.3-3.3V5.3c0-1.8-1.5-3.3-3.3-3.3H5.3z"/>
	</g>
	<g>
		<g>
			<g>
				<ellipse class="st1" cx="12.5" cy="10.5" rx="1.9" ry="1.9"/>
			</g>
		</g>
		<g>
			<g>
				<ellipse class="st1" cx="20.4" cy="10.5" rx="1.9" ry="1.9"/>
			</g>
		</g>
		<g>
			<g>
				<ellipse class="st1" cx="28.2" cy="10.5" rx="1.9" ry="1.9"/>
			</g>
		</g>
	</g>
	<g>
		<g>
			<path class="st2" d="M40.1,44.2l0-17.4L61.3,24v20.3H40.1z M64.9,23.5l28.4-4.1v24.9H64.9V23.5z M93.2,47.8l0,24.9l-28.4-4V47.8
				H93.2z M61.3,68.3l-21.3-2.9l0-17.5h21.3V68.3z M61.3,68.3"/>
		</g>
	</g>
</g>
</svg>
