<?xml version="1.0" encoding="utf-8"?>
<!-- Generator: Adobe Illustrator 23.0.1, SVG Export Plug-In . SVG Version: 6.00 Build 0)  -->
<svg version="1.1" id="Warstwa_1" xmlns="http://www.w3.org/2000/svg" xmlns:xlink="http://www.w3.org/1999/xlink" x="0px" y="0px"
	 viewBox="0 0 87.6 87.5" style="enable-background:new 0 0 87.6 87.5;" xml:space="preserve">
<style type="text/css">
	.st0{fill:#F9C228;}
	.st1{fill:#FFFFFF;}
	.st2{fill:#E0E0E0;}
	.st3{fill:#565656;}
</style>
<g>
	<g>
		<path class="st0" d="M0.7,10.3C0.3,10.3,0,10,0,9.6V0.7C0,0.3,0.4,0,0.7,0h9c0.4,0,0.7,0.4,0.7,0.7s-0.4,0.7-0.7,0.7H1.3v8.4
			C1.3,10.1,1,10.3,0.7,10.3z"/>
		<path class="st0" d="M86.9,10.3c-0.4,0-0.7-0.4-0.7-0.7V1.3h-8.4c-0.4,0-0.7-0.4-0.7-0.7S77.5,0,77.9,0h9c0.4,0,0.7,0.4,0.7,0.7v9
			C87.6,10.1,87.3,10.3,86.9,10.3z"/>
		<path class="st0" d="M86.9,87.5h-9c-0.4,0-0.7-0.4-0.7-0.7c0-0.4,0.4-0.7,0.7-0.7h8.3v-8.4c0-0.4,0.4-0.7,0.7-0.7
			c0.4,0,0.7,0.4,0.7,0.7v9C87.6,87.2,87.3,87.5,86.9,87.5z"/>
		<g>
			<path class="st0" d="M9.7,87.5h-9c-0.4,0-0.7-0.4-0.7-0.7v-9c0-0.4,0.4-0.7,0.7-0.7s0.7,0.4,0.7,0.7v8.4h8.4
				c0.4,0,0.7,0.4,0.7,0.7C10.3,87.1,10.1,87.5,9.7,87.5z"/>
		</g>
	</g>
	<g>
		<path class="st0" d="M68.1,35.9l-13.3-6.6c-0.9-0.5-2.1-0.1-2.6,0.9l-9.5,19.4c2.5-0.8,5.4-1.7,6.2-1.9c1.5-0.5,2.8-1.7,4.3,0.8
			c1.1,1.8-1.6,3.5-1.6,3.5s-8.8,6.2-11.5,8.1c-0.4,0.2-1.6,1.1-3.2,2.1c0.1,0.6,0.4,1.2,1.1,1.5l13.3,6.6c0.9,0.5,2.1,0.1,2.6-0.9
			L69,38.4C69.5,37.5,69.1,36.3,68.1,35.9z"/>
		<g>
			<g>
				<g>
					<g>
						<path class="st1" d="M54.7,36.3L54.7,36.3c-0.8-0.4-1.1-1.3-0.7-2.1l0,0c0.4-0.8,1.3-1.1,2.1-0.7l0,0c0.8,0.4,1.1,1.3,0.7,2.1
							l0,0C56.5,36.4,55.5,36.7,54.7,36.3z"/>
					</g>
				</g>
				<g>
					<g>
						<path class="st1" d="M53.2,41.7l-1.8-0.9c-0.3-0.1-0.4-0.5-0.3-0.8l0.9-1.8c0.1-0.3,0.5-0.4,0.8-0.3l1.8,0.9
							c0.3,0.1,0.4,0.5,0.3,0.8L54,41.4C53.8,41.7,53.5,41.8,53.2,41.7z"/>
					</g>
					<g>
						<path class="st1" d="M57.2,43.7l-1.8-0.9c-0.3-0.1-0.4-0.5-0.3-0.8l0.9-1.8c0.1-0.3,0.5-0.4,0.8-0.3l1.8,0.9
							c0.3,0.1,0.4,0.5,0.3,0.8L58,43.4C57.8,43.7,57.5,43.8,57.2,43.7z"/>
					</g>
				</g>
				<g>
					<g>
						<path class="st1" d="M50.8,46.6L49,45.8c-0.3-0.1-0.4-0.5-0.3-0.8l0.9-1.8c0.1-0.3,0.5-0.4,0.8-0.3l1.8,0.9
							c0.3,0.1,0.4,0.5,0.3,0.8l-0.9,1.8C51.4,46.7,51,46.8,50.8,46.6z"/>
					</g>
					<g>
						<path class="st1" d="M54.8,48.6L53,47.7c-0.3-0.1-0.4-0.5-0.3-0.8l0.9-1.8c0.1-0.3,0.5-0.4,0.8-0.3l1.8,0.9
							c0.3,0.1,0.4,0.5,0.3,0.8l-0.9,1.8C55.4,48.6,55,48.8,54.8,48.6z"/>
					</g>
				</g>
				<g>
					<g>
						<path class="st1" d="M48.3,51.6l-1.8-0.9c-0.3-0.1-0.4-0.5-0.3-0.8l0.9-1.8c0.1-0.3,0.5-0.4,0.8-0.3l1.8,0.9
							c0.3,0.1,0.4,0.5,0.3,0.8l-0.9,1.8C49,51.6,48.6,51.7,48.3,51.6z"/>
					</g>
					<g>
						<path class="st1" d="M61.2,45.6l-1.8-0.9c-0.3-0.1-0.4-0.5-0.3-0.8l0.9-1.8c0.1-0.3,0.5-0.4,0.8-0.3l1.8,0.9
							c0.3,0.1,0.4,0.5,0.3,0.8L62,45.4C61.8,45.7,61.5,45.8,61.2,45.6z"/>
					</g>
					<g>
						<path class="st1" d="M58.8,50.6L57,49.7c-0.3-0.1-0.4-0.5-0.3-0.8l0.9-1.8c0.1-0.3,0.5-0.4,0.8-0.3l1.8,0.9
							c0.3,0.1,0.4,0.5,0.3,0.8l-0.9,1.8C59.4,50.6,59,50.7,58.8,50.6z"/>
					</g>
					<g>
						<path class="st1" d="M56.3,55.5l-1.8-0.9c-0.3-0.1-0.4-0.5-0.3-0.8l0.9-1.8c0.1-0.3,0.5-0.4,0.8-0.3l1.8,0.9
							c0.3,0.1,0.4,0.5,0.3,0.8l-0.9,1.8C57,55.6,56.6,55.7,56.3,55.5z"/>
					</g>
					<g>
						<g>
							<path class="st1" d="M50.2,57.8L48.4,57c-0.3-0.1-0.4-0.5-0.3-0.8l0.9-1.8c0.1-0.3,0.5-0.4,0.8-0.3l1.8,0.9
								c0.3,0.1,0.4,0.5,0.3,0.8L51,57.6C50.8,57.9,50.5,58,50.2,57.8z"/>
						</g>
					</g>
					<g>
						<path class="st1" d="M47.8,62.8L46,61.9c-0.3-0.1-0.4-0.5-0.3-0.8l0.9-1.8c0.1-0.3,0.5-0.4,0.8-0.3l1.8,0.9
							c0.3,0.1,0.4,0.5,0.3,0.8l-0.9,1.8C48.4,62.8,48.1,62.9,47.8,62.8z"/>
					</g>
					<g>
						<path class="st1" d="M54.2,59.8l-1.8-0.9c-0.3-0.1-0.4-0.5-0.3-0.8l0.9-1.8c0.1-0.3,0.5-0.4,0.8-0.3l1.8,0.9
							c0.3,0.1,0.4,0.5,0.3,0.8L55,59.5C54.8,59.8,54.5,60,54.2,59.8z"/>
					</g>
					<g>
						<path class="st1" d="M51.8,64.8L50,63.9c-0.3-0.1-0.4-0.5-0.3-0.8l0.9-1.8c0.1-0.3,0.5-0.4,0.8-0.3l1.8,0.9
							c0.3,0.1,0.4,0.5,0.3,0.8l-0.9,1.8C52.4,64.8,52.1,64.9,51.8,64.8z"/>
					</g>
				</g>
			</g>
			<g>
				<path class="st2" d="M71.4,31.1c-1.3,0.4-2.6-0.2-3.1-1.5c-1-3-4.3-4.6-7.3-3.6c-1.3,0.4-2.6-0.2-3.1-1.5s0.2-2.6,1.5-3.1
					c5.5-1.9,11.5,1.1,13.4,6.6C73.4,29.3,72.7,30.7,71.4,31.1z"/>
			</g>
			<g>
				<path class="st2" d="M76.1,25.9c-1.3,0.4-2.6-0.2-3.1-1.5c-1.5-4.4-6.3-6.8-10.8-5.3c-1.3,0.4-2.6-0.2-3.1-1.5
					c-0.4-1.3,0.3-2.6,1.5-3.1c7-2.4,14.5,1.4,16.9,8.3C78.1,24.1,77.4,25.5,76.1,25.9z"/>
			</g>
			<g>
				<path class="st3" d="M47.8,39c-0.4,0-10.2,0.3-12.2,5.4c-0.4,0.9-0.6,1.7-0.9,2.4c-1.2,3.2-1.7,4.5-4,5.4
					c-2.9,1.2-25.4,13-26.4,13.5c-0.2,0.1-0.2,0.3-0.1,0.4c0.1,0.1,0.2,0.2,0.4,0.2c0,0,0,0,0,0C4.9,66.1,28.1,53.9,31,52.8
					c2.5-1,3.1-2.5,4.3-5.8c0.3-0.7,0.6-1.5,0.9-2.4c1.6-4.1,9.1-4.9,11.1-5l-4.9,9.8c0,0,0.1,0,0.1,0l0.1,0c0.2-0.1,0.4,0,0.6,0
					l4.9-9.9c0-0.1,0-0.2,0-0.3C48.1,39.1,48,39,47.8,39z"/>
			</g>
			<g>
				<path class="st3" d="M68.2,35.6L54.9,29c-1.1-0.6-2.5-0.1-3,1l-9.6,19.6c0.3-0.1,0.6-0.2,0.9-0.3l9.4-19.1
					c0.4-0.8,1.3-1.1,2.1-0.7L68,36.2c0.4,0.2,0.6,0.5,0.8,0.9s0.1,0.8-0.1,1.2L53.5,69.2c-0.4,0.8-1.3,1.1-2.1,0.7l-13.3-6.6
					c-0.5-0.3-0.9-0.8-0.9-1.4c-0.2,0.2-0.4,0.3-0.7,0.4c0.1,0.7,0.6,1.3,1.2,1.6l13.3,6.6c0.6,0.3,1.2,0.3,1.7,0.1
					c0.6-0.2,1.1-0.6,1.2-1.2l15.2-30.9c0.3-0.5,0.3-1.2,0.1-1.7C69.2,36.3,68.8,35.8,68.2,35.6z"/>
				<path class="st1" d="M43.9,57.3c-0.7,0.5-1.3,0.9-1.9,1.3l-0.2,0.5c-0.1,0.3,0,0.6,0.3,0.8l1.8,0.9c0.3,0.1,0.6,0,0.8-0.3
					l0.9-1.8c0.1-0.3,0-0.6-0.3-0.8L43.9,57.3z"/>
				<path class="st1" d="M53.1,50.4c-0.5,0.9-1.5,1.5-1.5,1.5s-0.4,0.3-1.1,0.8c0,0,0,0,0,0l1.8,0.9c0.3,0.1,0.6,0,0.8-0.3l0.9-1.8
					c0.1-0.3,0-0.6-0.3-0.8L53.1,50.4z"/>
				<path class="st3" d="M19.7,73.6c-0.1,0-0.3,0-0.4-0.1c-0.1-0.1,0-0.3,0.1-0.4c0.2-0.1,18.7-12.2,20.5-13.3
					c2.7-1.9,11.4-8,11.5-8.1c0,0,2.4-1.5,1.5-3.1c-1.1-1.8-2-1.5-3.2-1c-0.2,0.1-0.5,0.2-0.8,0.3C47.6,48.3,39,51,38.9,51
					c-0.2,0.1-0.3,0-0.4-0.2c0-0.1,0-0.3,0.2-0.4c0.1,0,8.7-2.7,10.1-3.2c0.2-0.1,0.5-0.2,0.7-0.3c1.2-0.5,2.6-1,3.9,1.3
					c1,1.7-0.7,3.3-1.7,3.9c-0.1,0.1-8.8,6.2-11.5,8.1C38.5,61.5,20,73.5,19.8,73.6C19.8,73.6,19.7,73.6,19.7,73.6z"/>
			</g>
		</g>
	</g>
	<path class="st0" d="M33.1,17.7H11.8c-3.4,0-6.2-2.8-6.2-6.2v0c0-3.4,2.8-6.2,6.2-6.2h21.3c3.4,0,6.2,2.8,6.2,6.2v0
		C39.3,14.9,36.5,17.7,33.1,17.7z"/>
	<g>
		<g>
			<path class="st1" d="M15,13.9V8.8c0-0.4,0.3-0.7,0.7-0.7c0.4,0,0.7,0.3,0.7,0.7v4.7h2.2c0.3,0,0.6,0.3,0.6,0.6
				c0,0.3-0.3,0.6-0.6,0.6h-2.9C15.3,14.7,15,14.4,15,13.9z"/>
			<path class="st1" d="M20.1,14V8.8c0-0.4,0.3-0.7,0.7-0.7c0.4,0,0.7,0.3,0.7,0.7V14c0,0.4-0.3,0.7-0.7,0.7
				C20.4,14.7,20.1,14.4,20.1,14z"/>
			<path class="st1" d="M24.3,14l-1.9-4.9c0-0.1-0.1-0.2-0.1-0.3c0-0.4,0.3-0.7,0.7-0.7c0.3,0,0.6,0.2,0.7,0.5l1.7,4.6l1.6-4.6
				c0.1-0.3,0.4-0.5,0.7-0.5c0.4,0,0.7,0.3,0.7,0.7c0,0.1,0,0.2,0,0.3L26.6,14c-0.2,0.5-0.6,0.8-1.1,0.8
				C24.9,14.7,24.5,14.4,24.3,14z"/>
			<path class="st1" d="M29.4,13.9v-5c0-0.5,0.3-0.7,0.7-0.7h3.3c0.3,0,0.6,0.3,0.6,0.6c0,0.3-0.3,0.6-0.6,0.6h-2.7v1.4h2.6
				c0.3,0,0.6,0.3,0.6,0.6c0,0.3-0.3,0.6-0.6,0.6h-2.6v1.5h2.7c0.3,0,0.6,0.3,0.6,0.6c0,0.3-0.3,0.6-0.6,0.6h-3.3
				C29.6,14.7,29.4,14.4,29.4,13.9z"/>
		</g>
		<circle class="st1" cx="12" cy="11.4" r="1.1"/>
	</g>
</g>
</svg>
