<?xml version="1.0" encoding="utf-8"?>
<!-- Generator: Adobe Illustrator 23.0.1, SVG Export Plug-In . SVG Version: 6.00 Build 0)  -->
<svg version="1.1" id="Warstwa_1" xmlns="http://www.w3.org/2000/svg" xmlns:xlink="http://www.w3.org/1999/xlink" x="0px" y="0px"
	 width="224.9px" height="136.4px" viewBox="0 0 224.9 136.4" style="enable-background:new 0 0 224.9 136.4;" xml:space="preserve"
	>
<style type="text/css">
	.st0{fill:#FFFFFF;}
	.st1{fill:#565656;}
	.st2{fill:#F9C228;}
</style>
<path class="st0" d="M189.1,61.1l-28.3-28.3c-2-2-5.3-2-7.3,0l-41.1,41.1c7.1,0.2,15.3,0.4,17.6,0.4c4.1,0.1,8.7-1.8,10.2,5.8
	c1.1,5.6-7.1,7.5-7.1,7.5s-27.7,8.2-36.4,10.7c-1.2,0.3-5,1.3-10.1,2.6c-0.3,1.6,0.2,3.4,1.4,4.6l28.3,28.3c2,2,5.3,2,7.3,0
	l65.6-65.6C191.1,66.3,191.1,63.1,189.1,61.1z"/>
<g>
	<path class="st1" d="M112.2,74.4"/>
	<path class="st1" d="M133,52.5c-5.3-1.4-25.1-5.9-32.8,3.1c-1.7,2-3.1,3.7-4.4,5.3c-6,7.3-8.7,10.6-16,11
		C71.4,72.3,1.6,83.3,0.9,83.4c0,0-0.1,0-0.1,0c-0.4,0-0.7-0.3-0.8-0.7c-0.1-0.4,0.2-0.9,0.7-0.9c2.9-0.5,70.6-11.1,79-11.6
		c6.6-0.3,9-3.3,14.8-10.4c1.3-1.6,2.7-3.3,4.4-5.3c9.6-11.2,34.8-3.6,35.8-3.2"/>
</g>
<g>
	<g>
		<path class="st2" d="M154.6,50.5L154.6,50.5c-1.7-1.7-1.7-4.4,0-6v0c1.7-1.7,4.4-1.7,6,0v0c1.7,1.7,1.7,4.4,0,6v0
			C159,52.2,156.3,52.2,154.6,50.5z"/>
	</g>
	<g>
		<g>
			<path class="st2" d="M146,62.9l-3.8-3.8c-0.6-0.6-0.6-1.6,0-2.2l3.8-3.8c0.6-0.6,1.6-0.6,2.2,0l3.8,3.8c0.6,0.6,0.6,1.6,0,2.2
				l-3.8,3.8C147.6,63.5,146.6,63.5,146,62.9z"/>
		</g>
		<g>
			<path class="st2" d="M154.5,71.4l-3.8-3.8c-0.6-0.6-0.6-1.6,0-2.2l3.8-3.8c0.6-0.6,1.6-0.6,2.2,0l3.8,3.8c0.6,0.6,0.6,1.6,0,2.2
				l-3.8,3.8C156.1,72,155.1,72,154.5,71.4z"/>
		</g>
	</g>
	<g>
		<g>
			<path class="st2" d="M135.5,73.4l-3.8-3.8c-0.6-0.6-0.6-1.6,0-2.2l3.8-3.8c0.6-0.6,1.6-0.6,2.2,0l3.8,3.8c0.6,0.6,0.6,1.6,0,2.2
				l-3.8,3.8C137.1,74,136.1,74,135.5,73.4z"/>
		</g>
		<g>
			<path class="st2" d="M144,81.9l-3.8-3.8c-0.6-0.6-0.6-1.6,0-2.2L144,72c0.6-0.6,1.6-0.6,2.2,0l3.8,3.8c0.6,0.6,0.6,1.6,0,2.2
				l-3.8,3.8C145.6,82.5,144.6,82.5,144,81.9z"/>
		</g>
	</g>
	<g>
		<g>
			<path class="st2" d="M163,79.9l-3.8-3.8c-0.6-0.6-0.6-1.6,0-2.2l3.8-3.8c0.6-0.6,1.6-0.6,2.2,0l3.8,3.8c0.6,0.6,0.6,1.6,0,2.2
				l-3.8,3.8C164.6,80.5,163.6,80.5,163,79.9z"/>
		</g>
		<g>
			<path class="st2" d="M152.5,90.4l-3.8-3.8c-0.6-0.6-0.6-1.6,0-2.2l3.8-3.8c0.6-0.6,1.6-0.6,2.2,0l3.8,3.8c0.6,0.6,0.6,1.6,0,2.2
				l-3.8,3.8C154.1,91,153.1,91,152.5,90.4z"/>
		</g>
		<g>
			<path class="st2" d="M142,100.9l-3.8-3.8c-0.6-0.6-0.6-1.6,0-2.2l3.8-3.8c0.6-0.6,1.6-0.6,2.2,0l3.8,3.8c0.6,0.6,0.6,1.6,0,2.2
				l-3.8,3.8C143.6,101.6,142.6,101.6,142,100.9z"/>
		</g>
		<g>
			<g>
				<path class="st2" d="M124.4,101.5l-3.8-3.8c-0.6-0.6-0.6-1.6,0-2.2l3.8-3.8c0.6-0.6,1.6-0.6,2.2,0l3.8,3.8
					c0.6,0.6,0.6,1.6,0,2.2l-3.8,3.8C126,102.1,125,102.1,124.4,101.5z"/>
			</g>
		</g>
		<g>
			<path class="st2" d="M113.9,112l-3.8-3.8c-0.6-0.6-0.6-1.6,0-2.2l3.8-3.8c0.6-0.6,1.6-0.6,2.2,0l3.8,3.8c0.6,0.6,0.6,1.6,0,2.2
				l-3.8,3.8C115.5,112.6,114.5,112.6,113.9,112z"/>
		</g>
		<g>
			<path class="st2" d="M132.9,110l-3.8-3.8c-0.6-0.6-0.6-1.6,0-2.2l3.8-3.8c0.6-0.6,1.6-0.6,2.2,0l3.8,3.8c0.6,0.6,0.6,1.6,0,2.2
				l-3.8,3.8C134.5,110.6,133.5,110.6,132.9,110z"/>
		</g>
		<g>
			<path class="st2" d="M122.4,120.5l-3.8-3.8c-0.6-0.6-0.6-1.6,0-2.2l3.8-3.8c0.6-0.6,1.6-0.6,2.2,0l3.8,3.8c0.6,0.6,0.6,1.6,0,2.2
				l-3.8,3.8C124,121.2,123,121.2,122.4,120.5z"/>
		</g>
	</g>
</g>
<g>
	<path class="st1" d="M179.7,18.6c14.6,0,26.5,11.9,26.5,26.5c0,2.5-2,4.5-4.5,4.5s-4.5-2-4.5-4.5c0-9.7-7.9-17.5-17.5-17.5
		c-2.5,0-4.5-2-4.5-4.5S177.2,18.6,179.7,18.6 M179.7,16.6c-3.6,0-6.5,2.9-6.5,6.5s2.9,6.5,6.5,6.5c8.6,0,15.5,7,15.5,15.5
		c0,3.6,2.9,6.5,6.5,6.5s6.5-2.9,6.5-6.5C208.2,29.4,195.4,16.6,179.7,16.6L179.7,16.6z"/>
</g>
<g>
	<path class="st1" d="M189,2c18.7,0,33.9,15.2,33.9,33.9c0,2.5-2,4.5-4.5,4.5s-4.5-2-4.5-4.5c0-13.7-11.1-24.9-24.9-24.9
		c-2.5,0-4.5-2-4.5-4.5S186.5,2,189,2 M189,0c-3.6,0-6.5,2.9-6.5,6.5s2.9,6.5,6.5,6.5c12.6,0,22.9,10.3,22.9,22.9
		c0,3.6,2.9,6.5,6.5,6.5s6.5-2.9,6.5-6.5C224.9,16.1,208.8,0,189,0L189,0z"/>
</g>
<g>
	<path class="st2" d="M108.7,94.8c-2.2,0.7-4.4,1.3-6.3,1.8l-0.9,0.9c-0.6,0.6-0.6,1.6,0,2.2l3.8,3.8c0.6,0.6,1.6,0.6,2.2,0l3.8-3.8
		c0.6-0.6,0.6-1.6,0-2.2L108.7,94.8z"/>
	<path class="st2" d="M138.2,85.1c-2.1,1.8-5.2,2.5-5.2,2.5s-1.3,0.4-3.4,1l3.8,3.8c0.6,0.6,1.6,0.6,2.2,0l3.8-3.8
		c0.6-0.6,0.6-1.6,0-2.2L138.2,85.1z"/>
	<path class="st2" d="M189.8,60.4L161.5,32c-2.4-2.4-6.3-2.4-8.6,0l-41.8,41.8c0.9,0,1.8,0,2.7,0.1l40.5-40.5c1.6-1.6,4.3-1.6,5.9,0
		l28.3,28.3c0.8,0.8,1.2,1.8,1.2,3s-0.4,2.2-1.2,3l-65.6,65.6c-1.6,1.6-4.3,1.6-5.9,0l-28.3-28.3c-1.1-1.1-1.5-2.8-1-4.2
		c-0.7,0.2-1.4,0.3-2.1,0.5c-0.2,1.8,0.3,3.7,1.7,5l28.3,28.3c1.2,1.2,2.8,1.8,4.3,1.8s3.1-0.6,4.3-1.8L189.8,69
		c1.1-1.1,1.8-2.7,1.8-4.3S191,61.5,189.8,60.4z"/>
	<path class="st1" d="M32.8,115.4c-0.4,0-0.7-0.2-0.8-0.6c-0.1-0.4,0.2-0.9,0.6-1C33.2,113.7,91,99,96.4,97.5
		c8.5-2.4,36.1-10.6,36.4-10.7c0.1,0,7.5-1.8,6.6-6.6c-1.1-5.6-3.8-5.5-7.2-5.3c-0.7,0-1.5,0.1-2.2,0.1c-4.1-0.1-28.3-0.7-28.6-0.7
		c-0.5,0-0.8-0.4-0.8-0.8s0.4-0.8,0.8-0.8c0.2,0,24.5,0.7,28.5,0.7c0.7,0,1.4,0,2.1-0.1c3.5-0.2,7.5-0.4,8.9,6.6
		c1,5.1-4.6,7.7-7.7,8.5c-0.2,0.1-27.8,8.3-36.3,10.7c-5.5,1.5-63.3,16.2-63.8,16.3C33,115.4,32.9,115.4,32.8,115.4z"/>
</g>
</svg>
