<?xml version="1.0" encoding="utf-8"?>
<!-- Generator: Adobe Illustrator 23.0.1, SVG Export Plug-In . SVG Version: 6.00 Build 0)  -->
<svg version="1.1" id="Warstwa_1" xmlns="http://www.w3.org/2000/svg" xmlns:xlink="http://www.w3.org/1999/xlink" x="0px" y="0px"
	 width="300px" height="300px" viewBox="0 0 300 300" style="enable-background:new 0 0 300 300;" xml:space="preserve">
<style type="text/css">
	.st0{fill:#FFFFFF;}
	.st1{fill:#565656;}
	.st2{fill:#F9C228;}
</style>
<g>
	<g>
		<circle class="st0" cx="150" cy="150" r="150"/>
	</g>
</g>
<g>
	<g>
		<path class="st1" d="M141.5,226.1c-0.4,0-0.8-0.1-1.2-0.3c-45.4-17.2-61.8-52.9-67.6-79.9c-6.3-29.1-1.9-53.8-1.7-54.8
			c0.1-0.7,0.6-1.2,1.2-1.5l68.6-29.3c0.5-0.2,1.1-0.2,1.6,0l0.3,0.1l68.3,29.1c0.6,0.3,1.1,0.8,1.2,1.5c0.2,1,4.5,25.7-1.7,54.8
			c-5.8,26.9-22.3,62.7-67.6,79.9C142.3,226,141.9,226.1,141.5,226.1C141.5,226.1,141.5,226.1,141.5,226.1z M140.8,222.2
			C140.8,222.2,140.8,222.2,140.8,222.2C140.8,222.2,140.8,222.2,140.8,222.2z M74.7,92.8c-0.7,5-3.5,27.3,1.9,52.3
			c8.2,37.6,30,63.4,64.9,76.8c34.9-13.3,56.7-39.1,64.9-76.8c5.4-25,2.7-47.3,1.9-52.3l-66.8-28.5L74.7,92.8z"/>
	</g>
	<g>
		<path class="st1" d="M190.2,98.1c-0.3,0-0.5-0.1-0.8-0.2l-35.8-15.5c-1-0.4-1.5-1.6-1-2.6s1.6-1.5,2.6-1L191,94.3
			c1,0.4,1.5,1.6,1,2.6C191.7,97.6,191,98.1,190.2,98.1z"/>
	</g>
	<g>
		<g>
			<g>
				<path class="st2" d="M169.5,132.7c-0.6-2-1.4-3.9-2.4-5.8l1.1-7.7l-5.3-5.3l-7.7,1.1c-1.8-1-3.7-1.8-5.8-2.4l-4.6-6.2h-7.5
					l-4.6,6.2c-2,0.6-3.9,1.4-5.7,2.4l-7.7-1.1l-5.3,5.3l1.1,7.7c-1,1.8-1.8,3.7-2.4,5.7l-6.2,4.6v7.5l6.2,4.6
					c0.6,2,1.4,3.9,2.4,5.8l-1.1,7.7l5.3,5.3l7.7-1.1c1.8,1,3.7,1.8,5.7,2.4l4.6,6.2h7.5l4.6-6.2c2-0.6,3.9-1.4,5.8-2.4l7.7,1.1
					l5.3-5.3l-1.1-7.7c1-1.8,1.8-3.7,2.4-5.8l6.2-4.6v-7.5L169.5,132.7z M160.7,142.3c0,8.6-7,15.6-15.6,15.6h-10.6
					c-0.2,0-0.5,0-0.7-0.1c-8.3-0.7-14.8-7.7-14.8-16.1c0-8.9,7.3-16.2,16.2-16.2c2.1,0,3.7,1.7,3.7,3.7c0,2.1-1.7,3.7-3.7,3.7
					c-4.8,0-8.7,3.9-8.7,8.7c0,4.8,3.9,8.7,8.7,8.7h1.3v-6.3c0-2.1,1.7-3.7,3.7-3.7c2.1,0,3.7,1.7,3.7,3.7v6.3h1
					c4.5,0,8.1-3.6,8.1-8.1v-13c0-2.1,1.7-3.7,3.7-3.7c2.1,0,3.7,1.7,3.7,3.7V142.3z"/>
			</g>
		</g>
	</g>
	<g>
		<circle class="st1" cx="194.8" cy="203.9" r="33.9"/>
	</g>
	<g>
		<path class="st0" d="M214,193.7l-1.5-1.5c-0.5-0.5-1.4-0.5-2,0l-21,21L177,200.6c-0.5-0.5-1.4-0.5-2,0l-1.5,1.5
			c-0.5,0.5-0.5,1.4,0,2l14.8,14.8c0.4,0.4,0.8,0.5,1.3,0.4c0.5,0.1,0.9,0,1.3-0.4l23.1-23.1C214.6,195.1,214.6,194.2,214,193.7z"/>
	</g>
</g>
</svg>
