<?xml version="1.0" encoding="utf-8"?>
<!-- Generator: Adobe Illustrator 21.0.2, SVG Export Plug-In . SVG Version: 6.00 Build 0)  -->
<svg version="1.1" id="Layer_1" xmlns="http://www.w3.org/2000/svg" xmlns:xlink="http://www.w3.org/1999/xlink" x="0px" y="0px"
	 viewBox="0 0 100 100" style="enable-background:new 0 0 100 100;" xml:space="preserve">
<style type="text/css">
	.st0{fill:#FFFFFF;}
	.st1{fill:#575656;}
	.st2{fill:#F9B51B;}
	.st3{fill:#A5A5A5;}
</style>
<g>
	<circle class="st0" cx="50" cy="50" r="50"/>
</g>
<g>
	<g>
		<g>
			<g>
				<path class="st0" d="M86.8,30.4c0,0,2.2,8.1,2.1,10.9L83,53.2l-1.8-11.5L86.8,30.4z"/>
				<path class="st1" d="M83,53.9c0,0-0.1,0-0.1,0c-0.3,0-0.5-0.3-0.6-0.6l-1.8-11.5c0-0.1,0-0.3,0.1-0.4l5.6-11.3
					c0.1-0.3,0.4-0.4,0.7-0.4c0.3,0,0.5,0.2,0.6,0.5c0.1,0.3,2.2,8.3,2.1,11.1c0,0.1,0,0.2-0.1,0.3l-5.9,11.9
					C83.5,53.8,83.3,53.9,83,53.9z M81.9,41.8l1.4,9.1l4.8-9.8c0-1.9-1-6.2-1.6-8.7L81.9,41.8z"/>
			</g>
		</g>
		<g>
			<g>
				<path class="st0" d="M92.4,1c0,0-9.3,3.2-15.4,13.4L66.8,35.3l7.1,3.5l7.1,3.5l10.2-20.9C95.6,10.2,92.4,1,92.4,1z"/>
				<path class="st1" d="M81,43c-0.1,0-0.2,0-0.3-0.1l-14.2-7c-0.4-0.2-0.5-0.6-0.3-0.9l10.2-20.8C82.6,3.8,91.8,0.5,92.2,0.4
					c0.2-0.1,0.4-0.1,0.5,0s0.3,0.2,0.4,0.4c0.1,0.4,3.2,9.5-1.2,20.8l-10.2,21c-0.1,0.2-0.2,0.3-0.4,0.4C81.2,43,81.1,43,81,43z
					 M67.8,34.9l12.9,6.4L90.6,21c3.5-9,2-16.7,1.4-19.1c-2.2,1-9.4,4.6-14.3,12.8L67.8,34.9z"/>
			</g>
			<g>
				<ellipse transform="matrix(0.439 -0.8985 0.8985 0.439 30.1259 85.7927)" class="st1" cx="83.8" cy="18.8" rx="2.9" ry="2.9"/>
				<path class="st0" d="M83.8,22.4c-0.5,0-1.1-0.1-1.6-0.4c-1.8-0.9-2.6-3.1-1.7-4.9l0,0c0.9-1.8,3.1-2.6,4.9-1.7
					c1.8,0.9,2.6,3.1,1.7,4.9c-0.4,0.9-1.2,1.5-2.1,1.8C84.6,22.3,84.2,22.4,83.8,22.4z M81.8,17.8c-0.3,0.5-0.3,1.1-0.1,1.7
					c0.2,0.6,0.6,1,1.1,1.3c1.1,0.5,2.4,0.1,3-1s0.1-2.4-1-3C83.6,16.2,82.3,16.7,81.8,17.8L81.8,17.8z"/>
			</g>
			<g>
				<path class="st2" d="M66.4,42.8c1.2-2.5,4.2-3.5,6.6-2.3s3.5,4.2,2.3,6.6c-1.2,2.5-7.9,4.9-7.9,4.9S65.3,45.3,66.4,42.8z"/>
				<path class="st1" d="M67.4,52.8c-0.1,0-0.2,0-0.3-0.1c-0.2-0.1-0.3-0.2-0.4-0.4c-0.2-0.7-2.1-7.1-0.9-9.8c0,0,0,0,0,0
					c0.7-1.4,1.8-2.4,3.3-2.9c1.4-0.5,3-0.4,4.3,0.3c1.4,0.7,2.4,1.8,2.9,3.3c0.5,1.4,0.4,3-0.3,4.3c-1.3,2.6-7.6,5-8.3,5.3
					C67.5,52.8,67.5,52.8,67.4,52.8z M67.1,43.1c-0.7,1.6,0.2,5.8,0.8,8c2.1-0.9,6-2.7,6.8-4.3c0.5-1,0.6-2.2,0.2-3.2
					c-0.4-1.1-1.1-1.9-2.2-2.4c-1-0.5-2.2-0.6-3.2-0.2C68.5,41.3,67.6,42.1,67.1,43.1z"/>
			</g>
			<g>
				<path class="st1" d="M67.4,52.9c-0.1,0-0.2,0-0.3-0.1c-0.4-0.2-0.5-0.6-0.3-1l1.9-3.8c0.2-0.3,0.6-0.5,1-0.3
					c0.4,0.2,0.5,0.6,0.3,1L68,52.5C67.9,52.8,67.6,52.9,67.4,52.9z"/>
			</g>
		</g>
		<g>
			<g>
				<path class="st0" d="M72.6,23.5c0,0-7.8,3.2-9.8,5l-5.9,11.9l10.2-5.7L72.6,23.5z"/>
				<path class="st1" d="M56.9,41.2c-0.2,0-0.4-0.1-0.5-0.2c-0.2-0.2-0.3-0.5-0.1-0.8l5.9-11.9c0-0.1,0.1-0.2,0.2-0.2
					c2.1-1.9,9.7-5,10-5.1c0.3-0.1,0.6,0,0.8,0.2s0.3,0.5,0.1,0.8l-5.5,11.3c-0.1,0.1-0.2,0.2-0.3,0.3l-10.2,5.7
					C57.1,41.1,57,41.2,56.9,41.2z M63.3,29l-4.8,9.7l8-4.5l4.6-9.3C68.8,26,64.8,27.8,63.3,29z"/>
			</g>
		</g>
	</g>
	<g>
		<g>
			<g>
				<g>
					<path class="st2" d="M83.2,28.9c-0.1-0.4-0.3-0.8-0.5-1l0.2-1.4l-0.9-0.9l-1.4,0.2c-0.4-0.2-0.7-0.3-1-0.5l-0.9-1.1h-1.4
						l-0.9,1.1c-0.4,0.1-0.8,0.3-1,0.5l-1.4-0.2L73,26.5l0.2,1.4c-0.2,0.4-0.3,0.7-0.5,1l-1.1,0.9v1.4l1.1,0.9
						c0.1,0.4,0.3,0.8,0.5,1L73,34.5l0.9,0.9l1.4-0.2c0.3,0.2,0.7,0.3,1,0.5l0.9,1.1h1.4l0.9-1.1c0.4-0.1,0.8-0.3,1-0.5l1.4,0.2
						l0.9-0.9l-0.2-1.4c0.2-0.3,0.3-0.7,0.5-1l1.1-0.9v-1.4L83.2,28.9z M81.6,30.7c0,1.6-1.3,2.8-2.8,2.8h-1.9h-0.1
						c-1.5-0.1-2.7-1.4-2.7-2.9c0-1.6,1.3-2.9,2.9-2.9c0.4,0,0.7,0.3,0.7,0.7c0,0.4-0.3,0.7-0.7,0.7c-0.9,0-1.6,0.8-1.6,1.6
						s0.8,1.6,1.6,1.6h0.3v-1.1c0-0.4,0.3-0.7,0.7-0.7s0.7,0.3,0.7,0.7v1.1h0.2c0.9,0,1.5-0.7,1.5-1.5v-2.4c0-0.4,0.3-0.7,0.7-0.7
						c0.4,0,0.7,0.3,0.7,0.7L81.6,30.7L81.6,30.7z"/>
				</g>
			</g>
		</g>
	</g>
	<g>
		<path class="st3" d="M11.5,96.2c-0.1,0-0.3,0-0.4-0.1c-0.5-0.4-1.1-0.9-1.5-1.3c-0.3-0.3-0.3-0.7,0-1s0.7-0.3,1,0
			c0.4,0.4,0.8,0.8,1.3,1.2c0.3,0.2,0.4,0.7,0.1,1C12,96.1,11.8,96.2,11.5,96.2z M8.9,93.5c-0.2,0-0.5-0.1-0.6-0.3
			C8,92.6,7.6,92,7.4,91.4c-0.1-0.4,0-0.8,0.4-0.9c0.4-0.1,0.8,0,0.9,0.4c0.2,0.5,0.5,1.1,0.8,1.5c0.2,0.3,0.1,0.8-0.2,1
			C9.2,93.4,9.1,93.5,8.9,93.5z M7.5,90c-0.3,0-0.6-0.2-0.7-0.6c-0.1-0.6-0.2-1.3-0.2-2c0-0.4,0.3-0.7,0.7-0.7
			c0.4,0,0.7,0.3,0.7,0.7c0,0,0,0.1,0,0.1c0,0.6,0.1,1.1,0.2,1.7C8.3,89.5,8,89.9,7.7,90C7.6,90,7.6,90,7.5,90z M7.5,86.2
			c0,0-0.1,0-0.1,0c-0.4-0.1-0.6-0.4-0.6-0.8c0.1-0.6,0.3-1.3,0.5-1.9c0.1-0.4,0.5-0.6,0.9-0.5c0.4,0.1,0.6,0.5,0.5,0.9
			c-0.2,0.6-0.3,1.2-0.4,1.7C8.2,86,7.9,86.2,7.5,86.2z M8.7,82.6c-0.1,0-0.2,0-0.3-0.1C8,82.4,7.9,82,8,81.6
			C8.3,81,8.6,80.5,9,79.9c0.2-0.3,0.6-0.4,1-0.2c0.3,0.2,0.4,0.6,0.2,1c-0.3,0.5-0.6,1.1-0.9,1.6C9.2,82.5,8.9,82.6,8.7,82.6z
			 M10.6,79.4c-0.1,0-0.3,0-0.4-0.1c-0.3-0.2-0.4-0.7-0.2-1c0.4-0.5,0.8-1,1.2-1.5c0.3-0.3,0.7-0.3,1-0.1c0.3,0.3,0.3,0.7,0.1,1
			c-0.4,0.5-0.8,0.9-1.1,1.4C11,79.3,10.8,79.4,10.6,79.4z M13.1,76.5c-0.2,0-0.4-0.1-0.5-0.2c-0.3-0.3-0.3-0.7,0-1
			c0.5-0.4,0.9-0.9,1.4-1.3c0.3-0.3,0.7-0.2,1,0.1c0.3,0.3,0.2,0.7-0.1,1c-0.5,0.4-0.9,0.8-1.4,1.2C13.4,76.5,13.3,76.5,13.1,76.5z
			 M16,74.1c-0.2,0-0.4-0.1-0.6-0.3c-0.2-0.3-0.2-0.8,0.2-1c0.5-0.4,1.1-0.7,1.6-1.1c0.3-0.2,0.8-0.1,1,0.2c0.2,0.3,0.1,0.8-0.2,1
			c-0.5,0.3-1,0.7-1.5,1C16.3,74,16.1,74.1,16,74.1z M19.2,72.1c-0.3,0-0.5-0.1-0.6-0.4c-0.2-0.3-0.1-0.8,0.3-1
			c0.6-0.3,1.2-0.6,1.7-0.9c0.4-0.2,0.8,0,0.9,0.4c0.2,0.4,0,0.8-0.4,0.9c-0.6,0.3-1.1,0.5-1.7,0.8C19.4,72.1,19.3,72.1,19.2,72.1z
			 M46.8,71.3C46.8,71.3,46.8,71.3,46.8,71.3c-0.6,0-1.3,0-2-0.1c-0.4,0-0.7-0.4-0.6-0.8c0-0.4,0.4-0.7,0.8-0.6
			c0.6,0.1,1.2,0.1,1.8,0.1c0.4,0,0.7,0.3,0.7,0.7C47.5,71,47.2,71.3,46.8,71.3z M48.7,71.3c-0.4,0-0.7-0.3-0.7-0.7
			c0-0.4,0.3-0.7,0.7-0.8c0.6,0,1.2-0.1,1.8-0.2c0.4-0.1,0.8,0.2,0.8,0.6c0.1,0.4-0.2,0.8-0.6,0.8C50,71.1,49.4,71.2,48.7,71.3
			C48.7,71.3,48.7,71.3,48.7,71.3z M43,71c0,0-0.1,0-0.1,0c-0.6-0.1-1.3-0.2-1.9-0.4c-0.4-0.1-0.6-0.5-0.5-0.8
			c0.1-0.4,0.5-0.6,0.8-0.5c0.6,0.1,1.2,0.3,1.8,0.4c0.4,0.1,0.6,0.4,0.6,0.8C43.7,70.8,43.4,71,43,71z M52.4,70.6
			c-0.3,0-0.6-0.2-0.7-0.5c-0.1-0.4,0.1-0.8,0.5-0.9c0.6-0.2,1.2-0.4,1.7-0.6c0.4-0.1,0.8,0,0.9,0.4s0,0.8-0.4,0.9
			c-0.6,0.2-1.2,0.5-1.9,0.6C52.5,70.6,52.4,70.6,52.4,70.6z M22.6,70.5c-0.3,0-0.6-0.2-0.7-0.5c-0.1-0.4,0.1-0.8,0.4-0.9
			c0.6-0.2,1.2-0.4,1.8-0.6c0.4-0.1,0.8,0.1,0.9,0.5c0.1,0.4-0.1,0.8-0.5,0.9c-0.6,0.2-1.2,0.4-1.8,0.6
			C22.8,70.5,22.7,70.5,22.6,70.5z M39.3,70.2c-0.1,0-0.1,0-0.2,0L38.6,70c-0.4-0.1-0.9-0.2-1.3-0.4c-0.4-0.1-0.6-0.5-0.5-0.9
			s0.5-0.6,0.9-0.5c0.4,0.1,0.9,0.2,1.3,0.4l0.5,0.1c0.4,0.1,0.6,0.5,0.5,0.9C39.9,70,39.6,70.2,39.3,70.2z M26.3,69.5
			c-0.3,0-0.6-0.2-0.7-0.6c-0.1-0.4,0.2-0.8,0.5-0.8c0.6-0.1,1.3-0.2,1.9-0.3c0.4,0,0.7,0.2,0.8,0.6c0.1,0.4-0.2,0.7-0.6,0.8
			c-0.6,0.1-1.2,0.2-1.8,0.3C26.4,69.5,26.3,69.5,26.3,69.5z M35.7,69.3c0,0-0.1,0-0.1,0c-0.6-0.1-1.2-0.2-1.8-0.2
			c-0.4,0-0.7-0.4-0.6-0.8c0-0.4,0.4-0.7,0.8-0.6c0.6,0.1,1.3,0.1,1.9,0.2c0.4,0.1,0.6,0.4,0.6,0.8C36.3,69,36,69.3,35.7,69.3z
			 M55.9,69.2c-0.3,0-0.5-0.1-0.6-0.4c-0.2-0.3-0.1-0.8,0.3-1c0.5-0.3,1-0.6,1.6-0.9c0.3-0.2,0.8-0.1,1,0.2c0.2,0.3,0.1,0.8-0.2,1
			c-0.5,0.4-1.1,0.7-1.7,1C56.1,69.2,56,69.2,55.9,69.2z M30,69c-0.4,0-0.7-0.3-0.7-0.7c0-0.4,0.3-0.7,0.7-0.8c0.5,0,1.1,0,1.6,0
			l0.4,0c0.4,0,0.7,0.3,0.7,0.7s-0.3,0.7-0.7,0.7l-0.3,0C31,68.9,30.5,68.9,30,69C30,69,30,69,30,69z M59,67.1
			c-0.2,0-0.4-0.1-0.5-0.3c-0.3-0.3-0.2-0.7,0.1-1c0.5-0.4,0.9-0.8,1.3-1.2c0.3-0.3,0.7-0.3,1,0c0.3,0.3,0.3,0.7,0,1
			c-0.5,0.5-0.9,0.9-1.4,1.3C59.3,67,59.2,67.1,59,67.1z M61.7,64.4c-0.2,0-0.3-0.1-0.5-0.2c-0.3-0.3-0.3-0.7-0.1-1
			c0.4-0.5,0.8-1,1.1-1.5c0.2-0.3,0.7-0.4,1-0.2c0.3,0.2,0.4,0.7,0.2,1c-0.4,0.5-0.8,1.1-1.2,1.6C62.1,64.3,61.9,64.4,61.7,64.4z
			 M63.8,61.3c-0.1,0-0.2,0-0.4-0.1c-0.3-0.2-0.4-0.6-0.2-1c0.3-0.5,0.6-1.1,0.9-1.6c0.2-0.3,0.6-0.5,1-0.3c0.4,0.2,0.5,0.6,0.3,1
			c-0.3,0.6-0.6,1.2-0.9,1.7C64.3,61.2,64.1,61.3,63.8,61.3z M65.5,57.9c-0.1,0-0.2,0-0.3-0.1c-0.4-0.1-0.5-0.6-0.4-0.9
			c0.4-1,0.6-1.7,0.6-1.7c0.1-0.4,0.5-0.6,0.9-0.5c0.4,0.1,0.6,0.5,0.5,0.9c0,0-0.2,0.8-0.7,1.9C66.1,57.7,65.8,57.9,65.5,57.9z"/>
	</g>
</g>
</svg>
