<?xml version="1.0" encoding="utf-8"?>
<!-- Generator: Adobe Illustrator 21.0.2, SVG Export Plug-In . SVG Version: 6.00 Build 0)  -->
<svg version="1.1" id="Layer_1" xmlns="http://www.w3.org/2000/svg" xmlns:xlink="http://www.w3.org/1999/xlink" x="0px" y="0px"
	 viewBox="0 0 100 100" style="enable-background:new 0 0 100 100;" xml:space="preserve">
<style type="text/css">
	.st0{fill:#F2F2F2;}
	.st1{fill:#CCCCCC;}
	
		.st2{opacity:0.2;fill:none;stroke:#939393;stroke-width:2;stroke-linecap:round;stroke-linejoin:round;stroke-miterlimit:10;enable-background:new    ;}
	.st3{fill:#B7B7B7;}
	.st4{fill:none;stroke:#D1D1D1;stroke-width:2;stroke-linecap:round;stroke-linejoin:round;stroke-miterlimit:10;}
	.st5{fill:#FFFFFF;}
	.st6{fill:#575656;}
	.st7{fill:#F9B51B;}
	.st8{fill:#F7F7F7;}
</style>
<g>
	<path class="st0" d="M1154.9,395.7l-7.5,4.6c-12,7.3-27.8,3.5-35.2-8.5l-12.9-21.2c-7.3-12-3.5-27.8,8.5-35.2l7.5-4.6
		c12-7.3,27.8-3.5,35.2,8.5l12.9,21.2C1170.8,372.6,1166.9,388.4,1154.9,395.7z"/>
	<path class="st1" d="M1104.7,374.8c0,0,8.8-8.6,1.3-20.8c0,0-6.8-11.4,9.1-9.5c0,0,29.6,9.2,38.7-5.1c0,0,9.7-16-8.1-25
		c0,0-18.7-8.3-25.2,9.3c0,0-5.2,9-20.2,9.7c0,0-19.3,3.2-12.8,21.9C1087.4,355.2,1095.8,373.5,1104.7,374.8z"/>
	<path class="st2" d="M1144.8,323.9c0,0,15.1,17.4-17.5,16.5c0,0-25.6-2.9-28.4,7.2"/>
	<path class="st2" d="M1137.8,319.7c0,0,15.1,17.4-17.5,16.5c0,0-22.6-1.9-25.3,8.2"/>
	<path class="st0" d="M1109.1,386L1109.1,386c-1.8,1.1-4.1,0.5-5.2-1.2l-4.4-7.3c-1.1-1.8-0.5-4.1,1.2-5.2l0,0
		c1.8-1.1,4.1-0.5,5.2,1.2l4.4,7.3C1111.3,382.6,1110.8,385,1109.1,386z"/>
	
		<ellipse transform="matrix(0.6527 -0.7576 0.7576 0.6527 125.2524 993.5867)" class="st3" cx="1146.4" cy="360.2" rx="4.7" ry="4.7"/>
	<line class="st4" x1="1132.8" y1="359.6" x2="1139.9" y2="351.3"/>
	
		<ellipse transform="matrix(0.3594 -0.9332 0.9332 0.3594 397.2087 1323.5343)" class="st3" cx="1162.6" cy="372.5" rx="3.1" ry="3.1"/>
	
		<ellipse transform="matrix(0.9984 -5.637798e-02 5.637798e-02 0.9984 -16.6076 65.4415)" class="st0" cx="1151.5" cy="327.1" rx="8.7" ry="8.7"/>
</g>
<g>
	<circle class="st5" cx="50" cy="50" r="50"/>
</g>
<g>
	<g>
		<g>
			<g>
				<path class="st5" d="M53.3,22.7c0,0,2.3,2.7,2.8,3.7V32L53.3,28V22.7z"/>
				<path class="st6" d="M56.1,32.5c-0.2,0-0.3-0.1-0.4-0.2l-2.8-4.1c-0.1-0.1-0.1-0.2-0.1-0.3v-5.3c0-0.2,0.1-0.4,0.3-0.4
					c0.2-0.1,0.4,0,0.5,0.1c0.2,0.3,2.4,2.8,2.9,3.9c0,0.1,0,0.1,0,0.2V32c0,0.2-0.1,0.4-0.3,0.5C56.2,32.5,56.2,32.5,56.1,32.5z
					 M53.8,27.8l1.8,2.7v-3.9c-0.3-0.6-1.1-1.7-1.8-2.5V27.8z"/>
			</g>
		</g>
		<g>
			<g>
				<path class="st5" d="M50,10.6c0,0-2.9,2.9-3.3,7.9v9.8H50h3.3v-9.8C52.9,13.5,50,10.6,50,10.6z"/>
				<path class="st6" d="M53.3,28.8h-6.6c-0.3,0-0.5-0.2-0.5-0.5v-9.8c0.4-5.2,3.3-8.1,3.4-8.3c0.2-0.2,0.5-0.2,0.7,0
					c0.1,0.1,3,3,3.4,8.2l0,9.9C53.7,28.6,53.5,28.8,53.3,28.8z M47.1,28.3L47.1,28.3L47.1,28.3z M47.1,27.8h5.6v-9.3
					c-0.3-3.7-2.1-6.2-2.8-7.1c-0.8,0.9-2.5,3.5-2.8,7.2L47.1,27.8z"/>
			</g>
			<g>
				<ellipse class="st6" cx="50" cy="18.9" rx="1.3" ry="1.3"/>
				<path class="st5" d="M50,20.5c-0.9,0-1.6-0.7-1.6-1.6s0.7-1.6,1.6-1.6s1.6,0.7,1.6,1.6S50.8,20.5,50,20.5z M50,18
					c-0.5,0-1,0.4-1,1s0.4,1,1,1s1-0.4,1-1S50.5,18,50,18z"/>
			</g>
			<g>
				<path class="st7" d="M47.9,31.2c0-1.1,1-2.1,2.1-2.1c1.1,0,2.1,1,2.1,2.1c0,1.1-2.1,3.3-2.1,3.3S47.9,32.3,47.9,31.2z"/>
				<path class="st6" d="M50,34.9L50,34.9c-0.1,0-0.3-0.1-0.3-0.1c-0.4-0.4-2.2-2.4-2.2-3.6c0-1.4,1.2-2.6,2.6-2.6
					c1.4,0,2.6,1.2,2.6,2.6c0,1.3-1.9,3.2-2.2,3.6C50.3,34.9,50.2,34.9,50,34.9z M50,29.5c-0.9,0-1.6,0.7-1.6,1.6
					c0,0.6,0.9,1.7,1.6,2.6c0.8-0.9,1.6-2,1.6-2.6C51.6,30.3,50.9,29.5,50,29.5z"/>
			</g>
			<g>
				<path class="st6" d="M50,35c-0.3,0-0.5-0.2-0.5-0.5v-1.8c0-0.3,0.2-0.5,0.5-0.5s0.5,0.2,0.5,0.5v1.8C50.4,34.8,50.2,35,50,35z"
					/>
			</g>
		</g>
		<g>
			<g>
				<path class="st5" d="M46.7,22.7c0,0-2.3,2.7-2.8,3.7V32l2.8-4.1V22.7z"/>
				<path class="st6" d="M43.9,32.5c0,0-0.1,0-0.1,0c-0.2-0.1-0.3-0.2-0.3-0.5v-5.6c0-0.1,0-0.1,0-0.2c0.5-1.1,2.6-3.6,2.9-3.9
					c0.1-0.1,0.3-0.2,0.5-0.1c0.2,0.1,0.3,0.2,0.3,0.4V28c0,0.1,0,0.2-0.1,0.3l-2.8,4.1C44.2,32.4,44,32.5,43.9,32.5z M44.4,26.6
					v3.9l1.8-2.7V24C45.5,24.9,44.6,26,44.4,26.6z"/>
			</g>
		</g>
	</g>
	<g>
		<g>
			<g>
				<path class="st5" d="M78,44.2c0,0-0.8,3.4-1.3,4.4l-4.5,3.3l1.6-4.6L78,44.2z"/>
				<path class="st6" d="M72.2,52.4c-0.1,0-0.2,0-0.3-0.1c-0.2-0.1-0.2-0.3-0.2-0.5l1.6-4.6c0-0.1,0.1-0.2,0.2-0.2l4.2-3.1
					c0.2-0.1,0.4-0.1,0.5,0c0.2,0.1,0.2,0.3,0.2,0.5c0,0.1-0.8,3.5-1.4,4.6c0,0.1-0.1,0.1-0.1,0.2l-4.5,3.3
					C72.4,52.4,72.3,52.4,72.2,52.4z M74.2,47.6l-1,3.1l3.2-2.3c0.3-0.6,0.7-1.9,0.9-3L74.2,47.6z"/>
			</g>
		</g>
		<g>
			<g>
				<path class="st5" d="M85.9,34.3c0,0-4.1-0.6-8.3,2l-7.9,5.8l2,2.7l2,2.7l7.9-5.8C85.2,38.4,85.9,34.3,85.9,34.3z"/>
				<path class="st6" d="M73.6,47.9c-0.1,0-0.3-0.1-0.4-0.2l-3.9-5.3c-0.1-0.1-0.1-0.2-0.1-0.4c0-0.1,0.1-0.2,0.2-0.3l7.9-5.8
					c4.4-2.7,8.5-2.1,8.7-2.1c0.3,0,0.4,0.3,0.4,0.5c0,0.2-0.7,4.3-4.5,7.6l-7.9,5.8C73.8,47.9,73.7,47.9,73.6,47.9z M70.4,42.2
					l3.4,4.6l7.5-5.5c2.8-2.5,3.8-5.4,4.1-6.5c-1.2-0.1-4.3,0-7.5,2L70.4,42.2z"/>
			</g>
			<g>
				
					<ellipse transform="matrix(0.8055 -0.5927 0.5927 0.8055 -7.8562 54.5554)" class="st6" cx="79.2" cy="39.2" rx="1.3" ry="1.3"/>
				<path class="st5" d="M79.2,40.8c-0.1,0-0.2,0-0.2,0c-0.4-0.1-0.8-0.3-1-0.6c-0.5-0.7-0.4-1.7,0.3-2.2l0,0
					c0.3-0.3,0.8-0.4,1.2-0.3c0.4,0.1,0.8,0.3,1,0.6c0.3,0.3,0.4,0.8,0.3,1.2s-0.3,0.8-0.6,1C79.8,40.7,79.5,40.8,79.2,40.8z
					 M78.6,38.5c-0.4,0.3-0.5,0.9-0.2,1.3c0.2,0.2,0.4,0.3,0.6,0.4c0.3,0,0.5,0,0.7-0.2s0.3-0.4,0.4-0.6s0-0.5-0.2-0.7
					c-0.2-0.2-0.4-0.3-0.6-0.4C79.1,38.3,78.8,38.3,78.6,38.5L78.6,38.5z"/>
			</g>
			<g>
				<path class="st7" d="M68.1,44.8c1-0.7,2.2-0.5,2.9,0.4c0.7,1,0.5,2.2-0.4,2.9c-1,0.7-3.9,0.3-3.9,0.3S67.2,45.5,68.1,44.8z"/>
				<path class="st6" d="M68.3,49.1c-0.8,0-1.6-0.1-1.7-0.1c-0.1,0-0.2-0.1-0.3-0.2c-0.1-0.1-0.1-0.2-0.1-0.4c0.1-0.5,0.7-3.2,1.6-4
					c0,0,0,0,0,0c1.2-0.9,2.7-0.6,3.6,0.5c0.4,0.6,0.6,1.2,0.5,1.9c-0.1,0.7-0.5,1.3-1,1.7C70.3,49,69.2,49.1,68.3,49.1z M67.2,48.1
					c1.1,0.1,2.6,0.1,3.1-0.3c0.4-0.3,0.6-0.6,0.7-1.1c0.1-0.4,0-0.8-0.3-1.2c-0.5-0.7-1.5-0.9-2.2-0.3C67.9,45.6,67.4,47,67.2,48.1
					z"/>
			</g>
			<g>
				<path class="st6" d="M66.6,49c-0.1,0-0.3-0.1-0.4-0.2c-0.2-0.2-0.1-0.5,0.1-0.7l1.4-1.1c0.2-0.2,0.5-0.1,0.7,0.1
					c0.2,0.2,0.1,0.5-0.1,0.7l-1.4,1.1C66.8,48.9,66.7,49,66.6,49z"/>
			</g>
		</g>
		<g>
			<g>
				<path class="st5" d="M74.1,38.9c0,0-3.5-0.3-4.6-0.1L65,42.1l4.9-0.1L74.1,38.9z"/>
				<path class="st6" d="M65,42.6c-0.2,0-0.4-0.1-0.5-0.3c-0.1-0.2,0-0.4,0.2-0.5l4.5-3.3c0.1,0,0.1-0.1,0.2-0.1
					c1.1-0.3,4.4,0,4.8,0.1c0.2,0,0.4,0.2,0.4,0.3c0.1,0.2,0,0.4-0.2,0.5l-4.2,3.1c-0.1,0.1-0.2,0.1-0.3,0.1L65,42.6
					C65,42.6,65,42.6,65,42.6z M69.7,39.2l-3.2,2.3l3.2-0.1l3.1-2.3C71.6,39.2,70.3,39.1,69.7,39.2z"/>
			</g>
		</g>
	</g>
	<g>
		<g>
			<g>
				<path class="st5" d="M25.8,38.5c0,0,3.5-0.3,4.6,0.1l4.4,3.4L30,41.8L25.8,38.5z"/>
				<path class="st6" d="M34.9,42.5C34.8,42.5,34.8,42.5,34.9,42.5L30,42.2c-0.1,0-0.2,0-0.3-0.1l-4.2-3.2c-0.2-0.1-0.2-0.3-0.2-0.5
					c0.1-0.2,0.2-0.3,0.4-0.3c0.4,0,3.7-0.3,4.8,0.1c0.1,0,0.1,0,0.2,0.1l4.4,3.4c0.2,0.1,0.2,0.3,0.2,0.5
					C35.2,42.4,35.1,42.5,34.9,42.5z M30.1,41.3l3.2,0.2L30.2,39c-0.6-0.1-2-0.1-3.1-0.1L30.1,41.3z"/>
			</g>
		</g>
		<g>
			<g>
				<path class="st5" d="M14.1,33.8c0,0,0.6,4.1,4.2,7.4l7.7,5.9l2-2.7l2-2.7l-7.7-5.9C18.2,33.3,14.1,33.8,14.1,33.8z"/>
				<path class="st6" d="M26.1,47.6c-0.1,0-0.2,0-0.3-0.1l-7.7-5.9c-3.8-3.5-4.4-7.6-4.4-7.7c0-0.1,0-0.3,0.1-0.4
					c0.1-0.1,0.2-0.2,0.3-0.2c0.2,0,4.3-0.5,8.6,2.2l7.8,5.9c0.2,0.2,0.2,0.5,0.1,0.7l-4.1,5.3C26.4,47.5,26.3,47.6,26.1,47.6
					C26.2,47.6,26.1,47.6,26.1,47.6z M14.7,34.2c0.3,1.2,1.2,4.1,4,6.6l7.3,5.6l3.5-4.6l-7.4-5.6C19,34.3,15.9,34.2,14.7,34.2z"/>
			</g>
			<g>
				<ellipse transform="matrix(0.6079 -0.794 0.794 0.6079 -22.7059 31.6812)" class="st6" cx="20.7" cy="38.8" rx="1.3" ry="1.3"/>
				<path class="st5" d="M20.7,40.4c-0.3,0-0.7-0.1-1-0.3c-0.3-0.3-0.6-0.6-0.6-1.1c-0.1-0.4,0.1-0.8,0.3-1.2
					c0.5-0.7,1.5-0.8,2.2-0.3c0.3,0.3,0.6,0.6,0.6,1.1c0.1,0.4-0.1,0.8-0.3,1.2C21.7,40.2,21.2,40.4,20.7,40.4z M20.7,37.9
					c-0.3,0-0.6,0.1-0.8,0.4c-0.3,0.4-0.2,1,0.2,1.3c0.4,0.3,1,0.2,1.3-0.2c0.2-0.2,0.2-0.5,0.2-0.7s-0.2-0.5-0.4-0.6
					C21.1,37.9,20.9,37.9,20.7,37.9z"/>
			</g>
			<g>
				<path class="st7" d="M29.2,47.9c-0.9-0.7-1.1-2-0.4-2.9s2-1.1,2.9-0.4c0.9,0.7,1.4,3.7,1.4,3.7S30,48.6,29.2,47.9z"/>
				<path class="st6" d="M31.6,48.9c-1,0-2.1-0.1-2.7-0.6c-0.5-0.4-0.9-1-1-1.7c-0.1-0.7,0.1-1.4,0.5-1.9c0.4-0.5,1-0.9,1.7-1
					c0.7-0.1,1.4,0.1,1.9,0.5c1,0.8,1.5,3.4,1.6,4c0,0.1,0,0.3-0.1,0.4c-0.1,0.1-0.2,0.2-0.3,0.2C32.9,48.8,32.3,48.9,31.6,48.9z
					 M30.4,44.7c-0.1,0-0.1,0-0.2,0c-0.4,0.1-0.8,0.3-1.1,0.6c-0.3,0.3-0.4,0.7-0.3,1.2c0.1,0.4,0.3,0.8,0.6,1.1
					c0.4,0.3,1.9,0.4,3.1,0.3c-0.2-1.1-0.7-2.5-1.1-2.9C31.1,44.8,30.8,44.7,30.4,44.7z"/>
			</g>
			<g>
				<path class="st6" d="M33.1,48.8c-0.1,0-0.2,0-0.3-0.1l-1.4-1.1c-0.2-0.2-0.2-0.5-0.1-0.7c0.2-0.2,0.5-0.2,0.7-0.1l1.4,1.1
					c0.2,0.2,0.2,0.5,0.1,0.7C33.4,48.8,33.2,48.8,33.1,48.8z"/>
			</g>
		</g>
		<g>
			<g>
				<path class="st5" d="M21.7,43.8c0,0,0.7,3.5,1.3,4.5l4.4,3.4L25.9,47L21.7,43.8z"/>
				<path class="st6" d="M27.4,52.2c-0.1,0-0.2,0-0.3-0.1l-4.4-3.4c-0.1,0-0.1-0.1-0.1-0.1c-0.6-1-1.2-4.3-1.3-4.6
					c0-0.2,0-0.4,0.2-0.5s0.4-0.1,0.5,0l4.2,3.2c0.1,0.1,0.1,0.1,0.2,0.2l1.5,4.7c0.1,0.2,0,0.4-0.2,0.5
					C27.6,52.2,27.5,52.2,27.4,52.2z M23.4,48l3.1,2.4l-1-3.1l-3-2.3C22.7,46.1,23.1,47.4,23.4,48z"/>
			</g>
		</g>
	</g>
	<g>
		<g>
			<path class="st8" d="M64.3,74.6c0-6.7-6.4-10.1-14.3-10.1c-2.5,0-4.9,0.4-7,1.1l-3.9-2.1l-0.1,4.3c-0.9,0.8-2.2,2-3.5,3.8h-2.3
				c-0.4,0-0.6,0.3-0.6,0.6v5.4c0,0.4,0.3,0.6,0.6,0.6l2.2,0.6c1.3,1.6,0.5,2.4,5.9,6v2.8c0,0.3,0.3,0.6,0.6,0.6h1
				c0.4,0,0.6-0.3,0.6-0.6v-2c0.8,0.3,1.6,0.4,2.5,0.5l0,0c1.3,0.3,2.7,0.5,4.1,0.5c2.6,0,5-0.6,7.1-1.6v2.6c0,0.3,0.3,0.6,0.6,0.6
				h1c0.4,0,0.6-0.3,0.6-0.6v-3.9l0,0C62.4,81.6,64.3,78.3,64.3,74.6z"/>
			<path class="st6" d="M58.7,88.9h-1c-0.6,0-1.1-0.5-1.1-1.1v-1.9c-2,0.9-4.3,1.3-6.6,1.3c-1.4,0-2.8-0.2-4.2-0.5
				c-0.6-0.1-1.2-0.2-1.9-0.3v1.3c0,0.6-0.5,1.1-1.1,1.1h-1c-0.6,0-1.1-0.5-1.1-1.1v-2.5c-3.8-2.6-4.5-3.8-5.1-4.9
				c-0.2-0.3-0.4-0.7-0.6-1l-2-0.6c-0.6,0-1-0.5-1-1.1v-5.4c0-0.6,0.5-1.1,1.1-1.1h2.1c1-1.3,2.1-2.5,3.3-3.6l0.1-4.1
				c0-0.2,0.1-0.3,0.2-0.4c0.1-0.1,0.3-0.1,0.5,0l3.8,2c2.1-0.7,4.5-1,6.9-1c9,0,14.8,4.2,14.8,10.6c0,3.6-1.8,7.1-5,9.4v3.7
				C59.8,88.4,59.3,88.9,58.7,88.9z M57.1,84.7c0.1,0,0.2,0,0.3,0.1c0.1,0.1,0.2,0.2,0.2,0.4v2.6c0,0,0,0.2,0.2,0.2h1
				c0.1,0,0.2-0.1,0.2-0.2v-3.9c0-0.2,0.1-0.3,0.2-0.4c3.1-2.2,4.8-5.4,4.8-8.8c0-5.9-5.4-9.7-13.8-9.7c-2.4,0-4.7,0.4-6.8,1.1
				c-0.1,0-0.3,0-0.4,0l-3.3-1.7l-0.1,3.5c0,0.1-0.1,0.3-0.2,0.3c-1.3,1.1-2.4,2.3-3.4,3.7c-0.1,0.1-0.2,0.2-0.4,0.2h-2.3
				c-0.1,0-0.2,0.1-0.2,0.2v5.4c0,0.2,0.1,0.1,0.3,0.2l2.2,0.6c0.1,0,0.2,0.1,0.2,0.2c0.4,0.5,0.6,0.9,0.8,1.3c0.5,1,1.1,2.1,5,4.7
				c0.1,0.1,0.2,0.2,0.2,0.4v2.8c0,0,0,0.2,0.2,0.2h1c0.1,0,0.2-0.1,0.2-0.2v-2c0-0.2,0.1-0.3,0.2-0.4c0.1-0.1,0.3-0.1,0.4-0.1
				c0.8,0.2,1.6,0.4,2.4,0.5c3.9,1,7.7,0.5,10.9-1C56.9,84.7,57,84.7,57.1,84.7z"/>
		</g>
		<g>
			<path class="st6" d="M53.5,66.9h-6.1c-0.3,0-0.5-0.2-0.5-0.5s0.2-0.5,0.5-0.5h6.1c0.3,0,0.5,0.2,0.5,0.5S53.8,66.9,53.5,66.9z"/>
		</g>
		<g>
			<circle class="st6" cx="40.3" cy="73" r="1"/>
		</g>
		<g>
			<path class="st6" d="M64.3,75.1c-0.2,0-0.3-0.1-0.4-0.2c-0.1-0.2-0.1-0.5,0.1-0.7c0.7-0.5,1.4-1.1,2-1.6
				c-0.6-0.4-0.9-1.2-0.8-1.8c0.1-0.5,0.5-0.9,1.4-0.9c0.3,0,1.4,0,1.6,0.8c0.1,0.3,0,0.7-0.3,1.2c0.5-0.2,0.9-0.7,1.4-1.3
				c0.2-0.2,0.5-0.3,0.7-0.1c0.2,0.2,0.3,0.5,0.1,0.7c-1.2,1.7-2.4,2-3.1,1.9c-0.8,0.8-1.8,1.6-2.5,2C64.5,75.1,64.4,75.1,64.3,75.1
				z M66.5,70.8c-0.3,0-0.4,0.1-0.4,0.2c-0.1,0.2,0.1,0.7,0.6,0.9c0.4-0.4,0.6-0.8,0.6-1l0,0C67.3,71,67.2,70.9,66.5,70.8
				C66.6,70.8,66.5,70.8,66.5,70.8z"/>
		</g>
	</g>
	<g>
		<g>
			<g>
				<path class="st7" d="M52.4,65.1c0,0-0.1,0-0.2,0c-0.2-0.1-0.4-0.3-0.3-0.6c0,0,0.1-0.2,0.1-0.6c0-0.3,0.3-0.4,0.5-0.4
					c0.3,0,0.4,0.3,0.4,0.5c-0.1,0.5-0.1,0.7-0.1,0.7C52.8,65,52.6,65.1,52.4,65.1z"/>
			</g>
			<g>
				<path class="st7" d="M52.9,63.3c-0.1,0-0.1,0-0.2,0c-0.2-0.1-0.4-0.4-0.3-0.6c0.1-0.3,0.2-0.5,0.3-0.8l0.1-0.3
					c0.1-0.2,0.4-0.4,0.6-0.3c0.2,0.1,0.4,0.4,0.3,0.6l-0.1,0.3c-0.1,0.3-0.2,0.6-0.3,0.9C53.3,63.2,53.1,63.3,52.9,63.3z
					 M53.7,60.9c-0.1,0-0.1,0-0.2,0c-0.2-0.1-0.4-0.4-0.3-0.6c0.1-0.4,0.3-0.8,0.5-1.2c0.1-0.2,0.4-0.3,0.6-0.2
					c0.2,0.1,0.3,0.4,0.2,0.6c-0.2,0.4-0.3,0.8-0.5,1.1C54.1,60.8,53.9,60.9,53.7,60.9z M54.8,58.7c-0.1,0-0.2,0-0.2-0.1
					c-0.2-0.1-0.3-0.4-0.2-0.6c0.2-0.4,0.4-0.7,0.7-1.1c0.1-0.2,0.4-0.3,0.7-0.1c0.2,0.1,0.3,0.4,0.1,0.7c-0.2,0.4-0.4,0.7-0.6,1
					C55.1,58.6,54.9,58.7,54.8,58.7z M56.1,56.6c-0.1,0-0.2,0-0.3-0.1c-0.2-0.2-0.3-0.5-0.1-0.7c0.3-0.3,0.5-0.7,0.8-1
					c0.2-0.2,0.5-0.2,0.7,0c0.2,0.2,0.2,0.5,0,0.7c-0.3,0.3-0.5,0.6-0.8,0.9C56.4,56.5,56.2,56.6,56.1,56.6z M57.8,54.7
					c-0.1,0-0.2,0-0.3-0.1c-0.2-0.2-0.2-0.5,0-0.7c0.3-0.3,0.6-0.6,0.9-0.9c0.2-0.2,0.5-0.1,0.7,0.1c0.2,0.2,0.1,0.5-0.1,0.7
					c-0.3,0.3-0.6,0.5-0.9,0.8C58,54.6,57.9,54.7,57.8,54.7z M59.7,53.1c-0.1,0-0.3-0.1-0.4-0.2c-0.2-0.2-0.1-0.5,0.1-0.7
					c0.3-0.2,0.7-0.5,1-0.7c0.2-0.1,0.5-0.1,0.7,0.1c0.1,0.2,0.1,0.5-0.1,0.7c-0.4,0.2-0.7,0.5-1,0.7C59.9,53,59.8,53.1,59.7,53.1z
					 M61.7,51.7c-0.2,0-0.3-0.1-0.4-0.2c-0.1-0.2-0.1-0.5,0.2-0.7c0.4-0.2,0.7-0.4,1.1-0.6c0.2-0.1,0.5,0,0.6,0.2
					c0.1,0.2,0,0.5-0.2,0.6c-0.4,0.2-0.7,0.4-1.1,0.6C61.9,51.7,61.8,51.7,61.7,51.7z"/>
			</g>
			<g>
				<path class="st7" d="M64.4,50.3c-0.2,0-0.4-0.1-0.5-0.3c-0.1-0.2,0.1-0.5,0.3-0.6c0.1,0,0.1-0.1,0.2-0.1
					c0.1-0.1,0.2-0.1,0.3-0.2c0.2-0.1,0.5,0.1,0.6,0.3s-0.1,0.5-0.3,0.6c-0.1,0-0.1,0.1-0.2,0.1c-0.1,0.1-0.2,0.1-0.3,0.2
					C64.5,50.3,64.5,50.3,64.4,50.3z"/>
			</g>
		</g>
	</g>
	<g>
		<g>
			<g>
				<path class="st7" d="M47.6,65.1c-0.2,0-0.4-0.1-0.5-0.3c0,0-0.1-0.2-0.1-0.7c0-0.3,0.1-0.5,0.4-0.5c0.3,0,0.5,0.1,0.5,0.4
					c0.1,0.4,0.1,0.5,0.1,0.6c0.1,0.2-0.1,0.5-0.3,0.6C47.7,65.1,47.7,65.1,47.6,65.1z"/>
			</g>
			<g>
				<path class="st7" d="M47.1,63.3c-0.2,0-0.4-0.1-0.4-0.3c-0.1-0.3-0.2-0.6-0.3-0.9l-0.1-0.3c-0.1-0.2,0-0.5,0.3-0.6
					c0.2-0.1,0.5,0,0.6,0.3l0.1,0.3c0.1,0.3,0.2,0.6,0.3,0.8c0.1,0.2,0,0.5-0.3,0.6C47.2,63.3,47.2,63.3,47.1,63.3z M46.3,60.9
					c-0.2,0-0.4-0.1-0.4-0.3c-0.1-0.4-0.3-0.7-0.5-1.1c-0.1-0.2,0-0.5,0.2-0.6c0.2-0.1,0.5,0,0.6,0.2c0.2,0.4,0.3,0.8,0.5,1.2
					c0.1,0.2,0,0.5-0.3,0.6C46.4,60.9,46.3,60.9,46.3,60.9z M45.2,58.7c-0.2,0-0.3-0.1-0.4-0.3c-0.2-0.3-0.4-0.7-0.6-1
					c-0.1-0.2-0.1-0.5,0.1-0.7c0.2-0.1,0.5-0.1,0.7,0.1c0.2,0.4,0.5,0.7,0.7,1.1c0.1,0.2,0,0.5-0.2,0.6
					C45.4,58.7,45.3,58.7,45.2,58.7z M43.9,56.6c-0.1,0-0.3-0.1-0.4-0.2c-0.2-0.3-0.5-0.6-0.8-0.9c-0.2-0.2-0.2-0.5,0-0.7
					c0.2-0.2,0.5-0.2,0.7,0c0.3,0.3,0.6,0.7,0.8,1c0.2,0.2,0.1,0.5-0.1,0.7C44.1,56.5,44,56.6,43.9,56.6z M42.3,54.7
					c-0.1,0-0.2,0-0.3-0.1c-0.3-0.3-0.6-0.5-0.9-0.8c-0.2-0.2-0.2-0.5-0.1-0.7c0.2-0.2,0.5-0.2,0.7-0.1c0.3,0.3,0.7,0.6,0.9,0.9
					c0.2,0.2,0.2,0.5,0,0.7C42.5,54.6,42.4,54.7,42.3,54.7z M40.3,53.1c-0.1,0-0.2,0-0.3-0.1c-0.3-0.2-0.6-0.5-1-0.7
					c-0.2-0.1-0.3-0.4-0.1-0.7c0.1-0.2,0.4-0.3,0.7-0.1c0.4,0.2,0.7,0.5,1,0.7c0.2,0.2,0.3,0.5,0.1,0.7C40.6,53,40.5,53.1,40.3,53.1
					z M38.3,51.7c-0.1,0-0.2,0-0.2-0.1c-0.3-0.2-0.7-0.4-1.1-0.6c-0.2-0.1-0.3-0.4-0.2-0.6c0.1-0.2,0.4-0.3,0.6-0.2
					c0.4,0.2,0.8,0.4,1.1,0.6c0.2,0.1,0.3,0.4,0.2,0.7C38.6,51.6,38.4,51.7,38.3,51.7z"/>
			</g>
			<g>
				<path class="st7" d="M35.6,50.3c0,0-0.1,0-0.2,0c-0.1,0-0.2-0.1-0.3-0.2c-0.1,0-0.1-0.1-0.2-0.1c-0.2-0.1-0.4-0.4-0.3-0.6
					s0.4-0.4,0.6-0.3c0.1,0,0.2,0.1,0.3,0.2c0.1,0,0.1,0.1,0.2,0.1c0.2,0.1,0.4,0.4,0.3,0.6C35.9,50.2,35.8,50.3,35.6,50.3z"/>
			</g>
		</g>
	</g>
	<g>
		<path class="st7" d="M50,65c-0.3,0-0.5-0.2-0.5-0.5v-1.3c0-0.3,0.2-0.5,0.5-0.5s0.5,0.2,0.5,0.5v1.3C50.4,64.7,50.2,65,50,65z
			 M50,62.4c-0.3,0-0.5-0.2-0.5-0.5v-1.3c0-0.3,0.2-0.5,0.5-0.5s0.5,0.2,0.5,0.5v1.3C50.4,62.2,50.2,62.4,50,62.4z M50,59.9
			c-0.3,0-0.5-0.2-0.5-0.5v-1.3c0-0.3,0.2-0.5,0.5-0.5s0.5,0.2,0.5,0.5v1.3C50.4,59.7,50.2,59.9,50,59.9z M50,57.3
			c-0.3,0-0.5-0.2-0.5-0.5v-1.3c0-0.3,0.2-0.5,0.5-0.5s0.5,0.2,0.5,0.5v1.3C50.4,57.1,50.2,57.3,50,57.3z M50,54.8
			c-0.3,0-0.5-0.2-0.5-0.5v-1.3c0-0.3,0.2-0.5,0.5-0.5s0.5,0.2,0.5,0.5v1.3C50.4,54.6,50.2,54.8,50,54.8z M50,52.3
			c-0.3,0-0.5-0.2-0.5-0.5v-1.3c0-0.3,0.2-0.5,0.5-0.5s0.5,0.2,0.5,0.5v1.3C50.4,52.1,50.2,52.3,50,52.3z M50,49.7
			c-0.3,0-0.5-0.2-0.5-0.5V48c0-0.3,0.2-0.5,0.5-0.5s0.5,0.2,0.5,0.5v1.3C50.4,49.5,50.2,49.7,50,49.7z M50,47.2
			c-0.3,0-0.5-0.2-0.5-0.5v-1.3c0-0.3,0.2-0.5,0.5-0.5s0.5,0.2,0.5,0.5v1.3C50.4,47,50.2,47.2,50,47.2z M50,44.7
			c-0.3,0-0.5-0.2-0.5-0.5v-1.3c0-0.3,0.2-0.5,0.5-0.5s0.5,0.2,0.5,0.5v1.3C50.4,44.5,50.2,44.7,50,44.7z M50,42.1
			c-0.3,0-0.5-0.2-0.5-0.5v-1.3c0-0.3,0.2-0.5,0.5-0.5s0.5,0.2,0.5,0.5v1.3C50.4,41.9,50.2,42.1,50,42.1z M50,39.6
			c-0.3,0-0.5-0.2-0.5-0.5v-1.3c0-0.3,0.2-0.5,0.5-0.5s0.5,0.2,0.5,0.5v1.3C50.4,39.4,50.2,39.6,50,39.6z"/>
	</g>
</g>
</svg>
