<?xml version="1.0" encoding="utf-8"?>
<!-- Generator: Adobe Illustrator 21.0.2, SVG Export Plug-In . SVG Version: 6.00 Build 0)  -->
<svg version="1.1" id="Layer_1" xmlns="http://www.w3.org/2000/svg" xmlns:xlink="http://www.w3.org/1999/xlink" x="0px" y="0px"
	 viewBox="0 0 100 100" style="enable-background:new 0 0 100 100;" xml:space="preserve">
<style type="text/css">
	.st0{fill:#FFFFFF;}
	.st1{fill:#F2F2F2;}
	.st2{fill:#CCCCCC;}
	
		.st3{opacity:0.2;fill:none;stroke:#939393;stroke-width:2;stroke-linecap:round;stroke-linejoin:round;stroke-miterlimit:10;enable-background:new    ;}
	.st4{fill:#B7B7B7;}
	.st5{fill:none;stroke:#D1D1D1;stroke-width:2;stroke-linecap:round;stroke-linejoin:round;stroke-miterlimit:10;}
	.st6{fill:#575656;}
	.st7{fill:#F9B51B;}
	.st8{fill:#F7F7F7;}
</style>
<g>
	<circle class="st0" cx="50" cy="50" r="50"/>
</g>
<g>
	<path class="st1" d="M1128.9,417.6l-7.5,4.6c-12,7.3-27.8,3.5-35.2-8.5l-12.9-21.2c-7.3-12-3.5-27.8,8.5-35.2l7.5-4.6
		c12-7.3,27.8-3.5,35.2,8.5l12.9,21.2C1144.7,394.4,1140.9,410.3,1128.9,417.6z"/>
	<path class="st2" d="M1078.6,396.6c0,0,8.8-8.6,1.3-20.8c0,0-6.8-11.4,9.1-9.5c0,0,29.6,9.2,38.7-5.1c0,0,9.7-16-8.1-25
		c0,0-18.7-8.3-25.2,9.3c0,0-5.2,9-20.2,9.7c0,0-19.3,3.2-12.8,21.9C1061.4,377,1069.6,395.3,1078.6,396.6z"/>
	<path class="st3" d="M1118.7,345.8c0,0,15.1,17.4-17.5,16.5c0,0-25.6-2.9-28.4,7.2"/>
	<path class="st3" d="M1111.7,341.5c0,0,15.1,17.4-17.5,16.5c0,0-22.6-1.9-25.3,8.2"/>
	<path class="st1" d="M1082.9,407.9L1082.9,407.9c-1.8,1.1-4.1,0.5-5.2-1.2l-4.4-7.3c-1.1-1.8-0.5-4.1,1.2-5.2l0,0
		c1.8-1.1,4.1-0.5,5.2,1.2l4.4,7.3C1085.3,404.5,1084.7,406.8,1082.9,407.9z"/>
	
		<ellipse transform="matrix(0.6527 -0.7576 0.7576 0.6527 99.622 981.4753)" class="st4" cx="1120.3" cy="382.1" rx="4.7" ry="4.7"/>
	<line class="st5" x1="1106.7" y1="381.5" x2="1113.9" y2="373.1"/>
	
		<ellipse transform="matrix(0.3594 -0.9332 0.9332 0.3594 359.9821 1313.1847)" class="st4" cx="1136.5" cy="394.4" rx="3.1" ry="3.1"/>
	
		<ellipse transform="matrix(0.9984 -5.637798e-02 5.637798e-02 0.9984 -17.8855 64.0079)" class="st1" cx="1125.5" cy="349" rx="8.7" ry="8.7"/>
</g>
<g>
	<g>
		<g>
			<g>
				<path class="st0" d="M55.3,24.9c0,0,3.5,4,4.2,5.6V39l-4.2-6.1V24.9z"/>
				<path class="st6" d="M59.5,39.4c-0.1,0-0.3-0.1-0.4-0.2L55,33.1c0-0.1-0.1-0.2-0.1-0.2v-7.9c0-0.2,0.1-0.3,0.3-0.4
					c0.2-0.1,0.4,0,0.5,0.1c0.1,0.2,3.6,4.1,4.3,5.7c0,0.1,0,0.1,0,0.2V39c0,0.2-0.1,0.4-0.3,0.4C59.6,39.4,59.6,39.4,59.5,39.4z
					 M55.8,32.7l3.3,4.9v-7c-0.5-1.1-2.3-3.3-3.3-4.6V32.7z"/>
			</g>
		</g>
		<g>
			<g>
				<path class="st0" d="M50.3,6.5c0,0-4.4,4.4-5,11.9v14.7h5h5V18.4C54.7,10.9,50.3,6.5,50.3,6.5z"/>
				<path class="st6" d="M55.3,33.6h-10c-0.2,0-0.4-0.2-0.4-0.4V18.4c0.7-7.6,5-12,5.2-12.2c0.1-0.1,0.2-0.1,0.3-0.1h0
					c0.1,0,0.2,0,0.3,0.1c0.2,0.2,4.5,4.6,5.1,12.2l0,14.8C55.8,33.4,55.6,33.6,55.3,33.6z M45.7,33.2L45.7,33.2L45.7,33.2z
					 M45.7,32.7h9.2V18.4c-0.5-6.1-3.6-10.1-4.6-11.3c-1,1.2-4.1,5.2-4.6,11.3L45.7,32.7z"/>
			</g>
			<g>
				<ellipse class="st6" cx="50.3" cy="19" rx="1.9" ry="1.9"/>
				<path class="st0" d="M50.3,21.3c-1.3,0-2.3-1-2.3-2.3s1-2.3,2.3-2.3s2.3,1,2.3,2.3S51.6,21.3,50.3,21.3z M50.3,17.6
					c-0.8,0-1.4,0.6-1.4,1.4s0.6,1.4,1.4,1.4s1.4-0.6,1.4-1.4S51.1,17.6,50.3,17.6z"/>
			</g>
			<g>
				<path class="st7" d="M47.2,37.5c0-1.8,1.4-3.1,3.1-3.1c1.8,0,3.1,1.4,3.1,3.1c0,1.8-3.1,5-3.1,5S47.2,39.3,47.2,37.5z"/>
				<path class="st6" d="M50.3,43c-0.1,0-0.2,0-0.3-0.1c-0.3-0.3-3.2-3.5-3.2-5.3c0-2,1.6-3.5,3.5-3.5c2,0,3.5,1.6,3.5,3.5
					c0,1.9-2.9,5-3.2,5.3C50.5,43,50.4,43,50.3,43z M50.3,34.8c-1.5,0-2.7,1.2-2.7,2.7c0,1.2,1.7,3.3,2.7,4.4c1-1.1,2.7-3.3,2.7-4.4
					C53,36.1,51.8,34.8,50.3,34.8z"/>
			</g>
			<g>
				<path class="st6" d="M50.3,43.1c-0.2,0-0.4-0.2-0.4-0.4V40c0-0.2,0.2-0.4,0.4-0.4s0.4,0.2,0.4,0.4v2.7
					C50.8,42.9,50.6,43.1,50.3,43.1z"/>
			</g>
		</g>
		<g>
			<g>
				<path class="st0" d="M45.3,24.9c0,0-3.5,4-4.2,5.6V39l4.2-6.1V24.9z"/>
				<path class="st6" d="M41.1,39.4c0,0-0.1,0-0.1,0c-0.2-0.1-0.3-0.2-0.3-0.4v-8.5c0-0.1,0-0.1,0-0.2c0.7-1.6,4.1-5.6,4.3-5.7
					c0.1-0.1,0.3-0.2,0.5-0.1s0.3,0.2,0.3,0.4v7.9c0,0.1,0,0.2-0.1,0.2l-4.2,6.1C41.4,39.3,41.2,39.4,41.1,39.4z M41.5,30.6v7
					l3.3-4.9V26C43.8,27.3,42,29.5,41.5,30.6z"/>
			</g>
		</g>
	</g>
	<g>
		<g>
			<path class="st8" d="M66.2,78.7L46.4,58.9l-2-0.5c-0.4-0.1-0.8-0.3-1.1-0.6L41.4,56L29,68.1l3.5,6.5c0.1,0.2,0.2,0.4,0.4,0.6
				l15.8,15.8l0,0l1.3,1.3c1,1,2.7,1.1,3.7,0.2c1-0.9,1.1-2.2,0.5-3.2l0.2,0.2c1,1,2.6,1.1,3.7,0.2c1.1-1,1.2-2.6,0.3-3.6l0.2,0.2
				c1,1,2.6,1.1,3.6,0.2c1.1-0.9,1.2-2.5,0.4-3.6c1.1,0.9,2.7,0.7,3.6-0.4C67.3,81.3,67.1,79.6,66.2,78.7z"/>
			<path class="st6" d="M51.9,93.4c-0.8,0-1.7-0.3-2.3-1L32.6,75.4c-0.2-0.2-0.3-0.4-0.5-0.7l-3.5-6.5c-0.1-0.2-0.1-0.4,0.1-0.5
				l12.4-12.1c0.2-0.2,0.4-0.2,0.6,0l1.8,1.8c0.3,0.2,0.6,0.4,1,0.5l2,0.5c0.1,0,0.1,0.1,0.2,0.1l19.7,19.7l0,0
				c1.2,1.2,1.3,3.1,0.2,4.2c-0.8,0.9-2,1.2-3.1,1c0.3,1.1-0.1,2.3-1,3.1c-0.9,0.8-2.1,0.9-3.2,0.4c0.1,1-0.2,2-1,2.7
				c-1,0.9-2.3,1-3.4,0.4c0,0.9-0.3,1.8-1,2.4C53.4,93.2,52.7,93.4,51.9,93.4z M29.5,68.1l3.3,6.2c0.1,0.2,0.2,0.3,0.3,0.5
				l17.1,17.1c0.9,0.9,2.3,1,3.2,0.2c0.8-0.7,1-1.8,0.4-2.7c-0.1-0.2-0.1-0.4,0.1-0.6c0.2-0.1,0.4-0.1,0.6,0l0.2,0.2
				c0.9,0.9,2.2,0.9,3.1,0.2c0.9-0.8,1-2.1,0.3-3C58,86,58,85.7,58.2,85.6c0.2-0.1,0.4-0.1,0.6,0l0.2,0.2c0.8,0.8,2.2,0.9,3,0.2
				c0.9-0.8,1.1-2.1,0.3-3.1c-0.1-0.2-0.1-0.4,0-0.6c0.2-0.1,0.4-0.2,0.6,0c0.9,0.7,2.2,0.6,3-0.3c0.8-0.9,0.6-2.3-0.2-3L46.2,59.3
				l-1.9-0.5c-0.5-0.1-0.9-0.4-1.3-0.7l-1.5-1.5L29.5,68.1z"/>
		</g>
		<g>
			<path class="st8" d="M57.9,56.2l-1.4,1.4c-0.5,0.5-1.1,0.7-1.7,0.7h-6.5c-0.6,0-1.2,0.2-1.7,0.7l-6.4,6.4
				c-1.2,1.2-1.4,3.2-0.2,4.4c1.2,1.4,3.3,1.5,4.7,0.2l4.4-4.4c2.9,2.8,6.3,2.3,6.3,2.3l9.2,9.2l6.3-7.9L57.9,56.2z"/>
			<path class="st6" d="M64.6,77.5c-0.1,0-0.2,0-0.3-0.1l-9.1-9.1c-0.8,0.1-3.6,0.1-6.1-2.2L45,70.2c-0.7,0.7-1.7,1.1-2.7,1.1
				c-1,0-1.9-0.5-2.6-1.3c-1.2-1.4-1.1-3.6,0.2-5l6.4-6.4c0.5-0.5,1.2-0.8,2-0.8h6.5c0.5,0,1-0.2,1.4-0.6l1.4-1.4
				c0.2-0.2,0.4-0.2,0.6,0l13,13c0.2,0.2,0.2,0.4,0,0.6l-6.3,7.9C64.8,77.4,64.7,77.5,64.6,77.5C64.6,77.5,64.6,77.5,64.6,77.5z
				 M55.3,67.4c0.1,0,0.2,0,0.3,0.1l8.9,8.9l5.8-7.2L57.9,56.8l-1.1,1.1c-0.5,0.5-1.2,0.8-2,0.8h-6.5c-0.5,0-1,0.2-1.4,0.6l-6.4,6.4
				c-1.1,1.1-1.2,2.8-0.2,3.8c0.5,0.6,1.2,0.9,2,1c0.8,0,1.5-0.3,2-0.8l4.4-4.4c0.2-0.2,0.4-0.2,0.6,0C52,67.8,55.2,67.4,55.3,67.4
				C55.3,67.4,55.3,67.4,55.3,67.4z"/>
		</g>
		<g>
			<g>
				<path class="st8" d="M38,74.6c-0.9-0.9-2.3-0.9-3.2,0l-2.1,2.1c-0.9,0.9-0.9,2.3,0,3.2l0,0c0.9,0.9,2.3,0.9,3.2,0l2.1-2.1
					C38.9,77,38.9,75.5,38,74.6z"/>
				<path class="st6" d="M34.2,81.1c-0.7,0-1.4-0.3-1.9-0.8c-0.5-0.5-0.8-1.2-0.8-1.9c0-0.7,0.3-1.4,0.8-1.9l2.1-2.1
					c1-1,2.8-1,3.8,0c0.5,0.5,0.8,1.2,0.8,2c0,0.7-0.3,1.4-0.8,1.9l-2.1,2.1C35.6,80.8,35,81.1,34.2,81.1z M36.3,74.4
					c-0.5,0-1,0.2-1.3,0.6L32.9,77c-0.4,0.4-0.6,0.8-0.6,1.3c0,0.5,0.2,1,0.6,1.3c0.7,0.7,1.9,0.7,2.6,0l2.1-2.1
					c0.4-0.3,0.5-0.8,0.6-1.3c0-0.5-0.2-1-0.6-1.4C37.3,74.6,36.8,74.4,36.3,74.4z"/>
			</g>
			<g>
				<path class="st8" d="M46.1,82.1c-0.9-0.9-2.3-0.9-3.2,0l-3.3,3.3c-0.9,0.9-0.9,2.3,0,3.2l0,0c0.9,0.9,2.3,0.9,3.2,0l3.3-3.3
					C47,84.5,47,83,46.1,82.1z"/>
				<path class="st6" d="M41.2,89.8c-0.7,0-1.4-0.3-1.9-0.8c-0.5-0.5-0.8-1.2-0.8-1.9c0-0.7,0.3-1.4,0.8-1.9l3.3-3.3
					c1-1,2.8-1,3.8,0c0.5,0.5,0.8,1.2,0.8,2c0,0.7-0.3,1.4-0.8,1.9L43.1,89C42.5,89.5,41.9,89.8,41.2,89.8z M44.5,81.9
					c-0.5,0-1,0.2-1.3,0.6l-3.3,3.3c-0.4,0.4-0.6,0.8-0.6,1.3c0,0.5,0.2,1,0.6,1.3c0.7,0.7,1.9,0.7,2.6,0l3.3-3.3
					c0.4-0.3,0.5-0.8,0.6-1.3c0-0.5-0.2-1-0.6-1.4C45.4,82.1,44.9,81.9,44.5,81.9z"/>
			</g>
			<g>
				<path class="st8" d="M42.6,77.8c-0.9-0.9-2.3-0.9-3.2,0L35.1,82c-0.9,0.9-0.9,2.3,0,3.2l0,0c0.9,0.9,2.3,0.9,3.2,0l4.2-4.2
					C43.5,80.1,43.5,78.7,42.6,77.8z"/>
				<path class="st6" d="M36.7,86.3c-0.7,0-1.4-0.3-1.9-0.8C34.3,85,34,84.3,34,83.6c0-0.7,0.3-1.4,0.8-1.9l4.2-4.2c1-1,2.8-1,3.8,0
					l0,0l0,0l0,0c0.5,0.5,0.8,1.2,0.8,2c0,0.7-0.3,1.4-0.8,1.9l-4.2,4.2C38.1,86,37.5,86.3,36.7,86.3z M40.9,77.5
					c-0.5,0-1,0.2-1.3,0.6l-4.2,4.2c-0.4,0.4-0.6,0.8-0.6,1.3c0,0.5,0.2,1,0.6,1.3c0.7,0.7,1.9,0.7,2.6,0l4.2-4.2
					c0.4-0.3,0.5-0.8,0.6-1.3c0-0.5-0.2-1-0.6-1.4l0,0C41.9,77.7,41.4,77.5,40.9,77.5z"/>
			</g>
			<g>
				<path class="st8" d="M49.2,86.8c-0.9-0.9-2.3-0.9-3.2,0l-2.1,2.1c-0.9,0.9-0.9,2.3,0,3.2l0,0c0.9,0.9,2.3,0.9,3.2,0l2.1-2.1
					C50.1,89.2,50.1,87.7,49.2,86.8z"/>
				<path class="st6" d="M45.5,93.3c-0.7,0-1.4-0.3-1.9-0.8c-1.1-1.1-1.1-2.8,0-3.8l2.1-2.1c1.1-1.1,2.8-1.1,3.8,0l0,0
					c0.5,0.5,0.8,1.2,0.8,2c0,0.7-0.3,1.4-0.8,1.9l-2.1,2.1C46.9,93,46.2,93.3,45.5,93.3z M47.6,86.6c-0.5,0-0.9,0.2-1.3,0.6
					l-2.1,2.1c-0.7,0.7-0.7,1.9,0,2.6c0.7,0.7,1.9,0.7,2.6,0l2.1-2.1c0.4-0.3,0.5-0.8,0.6-1.3c0-0.5-0.2-1-0.6-1.4
					C48.5,86.8,48,86.6,47.6,86.6z"/>
			</g>
		</g>
		<g>
			
				<rect x="62.7" y="48.1" transform="matrix(0.7071 -0.7071 0.7071 0.7071 -22.5955 65.9352)" class="st0" width="11.1" height="24.3"/>
			<path class="st6" d="M73,73.2c-0.1,0-0.2,0-0.3-0.1L55.5,55.9c-0.2-0.2-0.2-0.4,0-0.6l7.9-7.9c0.2-0.2,0.4-0.2,0.6,0l17.2,17.2
				c0.1,0.1,0.1,0.2,0.1,0.3s0,0.2-0.1,0.3l-7.9,7.9C73.2,73.2,73.1,73.2,73,73.2z M56.4,55.6L73,72.2l7.3-7.3L63.6,48.3L56.4,55.6z
				"/>
		</g>
		<g>
			
				<rect x="19.5" y="54.7" transform="matrix(0.7071 -0.7071 0.7071 0.7071 -33.3292 40.0723)" class="st0" width="24.3" height="11.1"/>
			<path class="st6" d="M27,73.2c-0.1,0-0.2,0-0.3-0.1l-7.9-7.9c-0.1-0.1-0.1-0.2-0.1-0.3s0-0.2,0.1-0.3l17.2-17.2
				c0.2-0.2,0.4-0.2,0.6,0l7.9,7.9c0.1,0.1,0.1,0.2,0.1,0.3s0,0.2-0.1,0.3L27.3,73.1C27.3,73.2,27.1,73.2,27,73.2z M19.8,64.9
				l7.3,7.3l16.6-16.6l-7.3-7.3L19.8,64.9z"/>
		</g>
	</g>
	<g>
		<path class="st7" d="M50.3,55.3c-0.2,0-0.4-0.2-0.4-0.4v-1.1c0-0.2,0.2-0.4,0.4-0.4s0.4,0.2,0.4,0.4v1.1
			C50.8,55.1,50.6,55.3,50.3,55.3z M50.3,53.1c-0.2,0-0.4-0.2-0.4-0.4v-1.1c0-0.2,0.2-0.4,0.4-0.4s0.4,0.2,0.4,0.4v1.1
			C50.8,52.9,50.6,53.1,50.3,53.1z M50.3,50.8c-0.2,0-0.4-0.2-0.4-0.4v-1.1c0-0.2,0.2-0.4,0.4-0.4s0.4,0.2,0.4,0.4v1.1
			C50.8,50.6,50.6,50.8,50.3,50.8z M50.3,48.5c-0.2,0-0.4-0.2-0.4-0.4V47c0-0.2,0.2-0.4,0.4-0.4s0.4,0.2,0.4,0.4v1.1
			C50.8,48.3,50.6,48.5,50.3,48.5z M50.3,46.2c-0.2,0-0.4-0.2-0.4-0.4v-0.5c0-0.2,0.2-0.4,0.4-0.4s0.4,0.2,0.4,0.4v0.5
			C50.8,46.1,50.6,46.2,50.3,46.2z"/>
	</g>
</g>
</svg>
