<?xml version="1.0" encoding="utf-8"?>
<!-- Generator: Adobe Illustrator 21.0.2, SVG Export Plug-In . SVG Version: 6.00 Build 0)  -->
<svg version="1.1" id="Layer_1" xmlns="http://www.w3.org/2000/svg" xmlns:xlink="http://www.w3.org/1999/xlink" x="0px" y="0px"
	 viewBox="0 0 100 100" style="enable-background:new 0 0 100 100;" xml:space="preserve">
<style type="text/css">
	.st0{fill:#FFFFFF;}
	.st1{fill:#575656;}
	.st2{fill:#F9B51B;}
	.st3{fill:#A5A5A5;}
</style>
<g>
	<path class="st0" d="M62.7,98c2.1-3.5,3.3-7.5,3.6-11.6H54.1c-0.1,3.9-1,8-2.6,11.8c0.6,0.2,1.9,1.1,2.8,1.6
		c2.9-0.2,5.7-0.7,8.4-1.4C62.6,98.2,62.6,98.1,62.7,98z"/>
	<path class="st0" d="M50.7,99.8c0,0-0.1,0.1-0.1,0.1c0.7,0,1.4,0,2.1-0.1c-0.6-0.4-1.3-0.8-1.6-0.9C51,99.3,50.8,99.5,50.7,99.8z"
		/>
	<path class="st0" d="M30.8,73.6c-1.6,3.7-2.6,7.7-2.6,11.7c0,0.1,0,0.1-0.1,0.2h12.2c-0.1-0.1-0.1-0.2-0.1-0.3
		c0.1-3.5,0.2-6.8,0.2-10.1C37.2,75.1,33.9,74.6,30.8,73.6z"/>
	<path class="st0" d="M30,73.4c-2.9-0.9-5.6-2.3-8.1-4c-3.9,4.3-6.4,9.9-6.7,16.1h12.2c0-0.1-0.1-0.1-0.1-0.2
		C27.4,81.2,28.4,77.1,30,73.4z"/>
	<path class="st0" d="M49.9,99.4c0.1-0.2,0.2-0.5,0.3-0.7c-3-0.9-6.1-1.3-9.2-1.3c0,0.3,0,1.2,0,1.7c2.9,0.5,5.9,0.8,9,0.8
		c0,0,0,0,0,0C49.9,99.8,49.8,99.6,49.9,99.4z"/>
	<path class="st0" d="M15.8,86.4c3.8,3.5,8.1,6.5,12.8,8.8c-0.7-2.6-1.2-6.1-1.3-8.8H15.8z"/>
	<path class="st0" d="M34.4,96.9c1.6-0.3,4.2-0.4,5.8-0.4c0-3.4,0.1-6.9,0.2-10.1H28.2c0.1,2.7,0.6,6.5,1.4,9c0,0.1,0,0.1,0,0.2
		c1.4,0.6,2.9,1.2,4.4,1.7C34,97.1,34.2,97,34.4,96.9z"/>
	<path class="st0" d="M35.1,97.7c1.6,0.5,3.3,0.9,5,1.3c0-0.6,0-1.3,0-1.6C38.8,97.4,36.7,97.5,35.1,97.7z"/>
	<path class="st0" d="M39.3,61.2c-6.6,0.3-12.5,3.2-16.8,7.5c2.5,1.6,5.1,2.9,7.9,3.8C32.5,68.1,35.6,64.1,39.3,61.2z"/>
	<path class="st0" d="M51.4,73.4c1.6,3.8,2.5,7.8,2.7,11.9c0,0.1,0,0.2-0.1,0.2h12.2c-0.3-6.2-2.8-11.9-6.7-16.1
		C57,71.1,54.3,72.4,51.4,73.4z"/>
	<path class="st0" d="M50.6,73.6c-3,0.9-6.1,1.4-9.3,1.4c0,3.3-0.1,6.7-0.2,10.2c0,0.1,0,0.2-0.1,0.3h12.3c0-0.1-0.1-0.1-0.1-0.2
		C53.1,81.3,52.2,77.3,50.6,73.6z"/>
	<path class="st0" d="M50-0.1c-27.6,0-50,22.4-50,50C0,63.6,5.5,76,14.4,85c0.4-6.1,2.8-11.6,6.6-15.8c4.8-5.5,11.9-8.9,19.8-8.9
		c0,0,0,0,0.1,0c0.1,0,0.3,0,0.4,0c14,0.2,25.3,11.2,25.9,25.2c0,0,0,0.1,0,0.1c0,0,0,0.1,0,0.1c0,0.1,0,0.1,0,0.2
		c0,0.1,0,0.1,0,0.2c-0.2,4.2-1.4,8.3-3.5,12c21-5.9,36.4-25.2,36.4-48.1C100,22.3,77.6-0.1,50-0.1z"/>
	<path class="st0" d="M41,96.5c3.3,0,6.5,0.5,9.6,1.4c1.6-3.7,2.5-7.7,2.6-11.6H41.2C41.1,89.6,41,93.1,41,96.5z"/>
	<path class="st0" d="M45.9,64.5c0.2,0.2,0.3,0.4,0.4,0.5c1.6,1.9,2.9,4,4,6c0.3,0.5,0.5,1,0.7,1.5c2.8-0.9,5.4-2.2,7.9-3.8
		c-4.1-4.2-9.8-6.9-16-7.5C43.9,62.1,44.9,63.3,45.9,64.5z"/>
	<path class="st0" d="M31.2,72.8c3,0.9,6.1,1.4,9.3,1.4c0-4.2,0-8.4-0.2-12.6C36.5,64.3,33.3,68.3,31.2,72.8z"/>
	<path class="st0" d="M50.2,72.8c-0.2-0.5-0.4-0.9-0.7-1.4c-1-2-2.4-4-3.9-5.8c-0.1-0.1-0.3-0.3-0.4-0.5c-0.8-1-2.9-3.6-4.1-3.9
		c0.1,4.4,0.2,8.7,0.2,13C44.4,74.2,47.4,73.7,50.2,72.8z"/>
	<path class="st1" d="M50.1,100c0.1,0,0.1,0,0.2,0c0.1,0,0.2-0.1,0.3-0.1C50.4,99.9,50.2,99.9,50.1,100C50,100,50.1,100,50.1,100z"
		/>
	<path class="st1" d="M67.2,85.9c0-0.1,0-0.1,0-0.2c0,0,0-0.1,0-0.1c0,0,0-0.1,0-0.1c-0.6-14-11.9-24.9-25.9-25.2
		c-0.1,0-0.3,0-0.4,0c0,0,0,0-0.1,0c-7.9,0-15,3.4-19.8,8.9c-3.8,4.2-6.2,9.7-6.6,15.8c0.5,0.5,0.9,0.9,1.4,1.4h11.5
		c0.1,2.7,0.6,6.1,1.3,8.8c0.3,0.2,0.7,0.3,1,0.5c0-0.1,0-0.1,0-0.2c-0.8-2.6-1.3-6.3-1.4-9h12.1c-0.1,3.3-0.1,6.7-0.2,10.1
		c-1.6,0-4.2,0.2-5.8,0.4c-0.2,0-0.3,0.2-0.4,0.4c0.4,0.1,0.8,0.3,1.1,0.4c1.5-0.2,3.6-0.3,5-0.3c0,0.3,0,1,0,1.6
		c0.3,0.1,0.6,0.1,0.9,0.2c0-0.6,0-1.4,0-1.7c3.2,0,6.3,0.5,9.2,1.3c-0.1,0.2-0.2,0.5-0.3,0.7c-0.1,0.2,0,0.4,0.1,0.5
		c0.2,0,0.4,0,0.6,0c0,0,0.1-0.1,0.1-0.1c0.1-0.3,0.3-0.6,0.4-0.8c0.4,0.1,1,0.5,1.6,0.9c0.5,0,1-0.1,1.5-0.1
		c-0.9-0.5-2.1-1.4-2.8-1.6c1.7-3.8,2.6-7.9,2.6-11.8h12.1c-0.3,4.1-1.5,8.1-3.6,11.6c-0.1,0.1-0.1,0.3,0,0.4c0.3-0.1,0.6-0.2,1-0.3
		c2.1-3.6,3.3-7.8,3.5-12C67.2,86,67.2,86,67.2,85.9z M39.3,61.2c-3.8,2.9-6.9,6.9-9,11.4c-2.8-0.9-5.4-2.2-7.9-3.8
		C26.8,64.4,32.7,61.6,39.3,61.2z M15.2,85.5c0.3-6.2,2.8-11.8,6.7-16.1c2.5,1.7,5.3,3,8.1,4c-1.6,3.8-2.6,7.9-2.7,11.9
		c0,0.1,0,0.1,0.1,0.2H15.2z M40.4,85.5H28.2c0-0.1,0.1-0.1,0.1-0.2c0-4,1-8,2.6-11.7c3.1,0.9,6.3,1.4,9.6,1.5
		c0,3.3-0.1,6.7-0.2,10.1C40.3,85.3,40.3,85.4,40.4,85.5z M31.2,72.8c2.1-4.5,5.3-8.5,9.1-11.3c0.1,4.3,0.2,8.5,0.2,12.6
		C37.3,74.2,34.2,73.7,31.2,72.8z M59,68.7c-2.5,1.6-5.1,2.9-7.9,3.8c-0.2-0.5-0.5-1-0.7-1.5c-1.1-2-2.4-4.1-4-6
		c-0.1-0.1-0.3-0.3-0.4-0.5c-1-1.2-2-2.4-3-3.2C49.2,61.8,54.8,64.5,59,68.7z M45.2,65c0.2,0.2,0.3,0.4,0.4,0.5
		c1.5,1.9,2.9,3.9,3.9,5.8c0.2,0.5,0.5,0.9,0.7,1.4c-2.9,0.9-5.9,1.3-8.9,1.4c0-4.3,0-8.6-0.2-13C42.3,61.4,44.4,64,45.2,65z
		 M50.6,97.9c-3.1-0.9-6.3-1.4-9.6-1.4c0-3.4,0.1-6.9,0.2-10.1h12.1C53.2,90.2,52.3,94.2,50.6,97.9z M41.1,85.5
		c0.1-0.1,0.1-0.2,0.1-0.3c0.1-3.5,0.2-6.8,0.2-10.2c3.2-0.1,6.3-0.5,9.3-1.4c1.6,3.7,2.5,7.7,2.7,11.7c0,0.1,0,0.1,0.1,0.2H41.1z
		 M54.1,85.5c0-0.1,0.1-0.1,0.1-0.2c-0.2-4.1-1.1-8.2-2.7-11.9c2.9-1,5.6-2.3,8.2-4c3.9,4.3,6.4,9.9,6.7,16.1H54.1z"/>
	<g>
		<g>
			<g>
				<g>
					<g>
						<path class="st0" d="M72.1,29.9c0,0,1.3,5,1.3,6.7l-3.6,7.3l-1.1-7.1L72.1,29.9z"/>
					</g>
				</g>
				<g>
					<g>
						<path class="st1" d="M69.7,44.3C69.7,44.3,69.7,44.3,69.7,44.3c-0.3,0-0.4-0.2-0.4-0.4l-1.1-7.1c0-0.1,0-0.2,0-0.3l3.4-6.9
							c0.1-0.2,0.3-0.3,0.4-0.2c0.2,0,0.3,0.1,0.4,0.3c0.1,0.2,1.4,5.1,1.3,6.8c0,0.1,0,0.1,0,0.2l-3.6,7.3
							C70.1,44.2,69.9,44.3,69.7,44.3z M69.1,36.9l0.9,5.6l2.9-6c0-1.2-0.6-3.8-1-5.3L69.1,36.9z"/>
					</g>
				</g>
			</g>
		</g>
		<g>
			<g>
				<g>
					<g>
						<path class="st0" d="M75.5,11.8c0,0-5.7,2-9.5,8.2l-6.3,12.8l4.4,2.1l4.4,2.1l6.3-12.8C77.5,17.5,75.5,11.8,75.5,11.8z"/>
					</g>
				</g>
				<g>
					<g>
						<path class="st1" d="M68.5,37.6c-0.1,0-0.1,0-0.2,0l-8.7-4.3c-0.2-0.1-0.3-0.4-0.2-0.6l6.3-12.8c3.8-6.4,9.5-8.4,9.7-8.5
							c0.1,0,0.2,0,0.3,0c0.1,0.1,0.2,0.1,0.2,0.3c0.1,0.2,1.9,5.9-0.8,12.8l-6.3,12.9c-0.1,0.1-0.1,0.2-0.3,0.2
							C68.6,37.6,68.6,37.6,68.5,37.6z M60.4,32.6l7.9,3.9l6.1-12.4c2.1-5.5,1.2-10.3,0.9-11.7c-1.4,0.6-5.8,2.8-8.8,7.9L60.4,32.6z
							"/>
					</g>
				</g>
			</g>
			<g>
				<g>
					<g>
						
							<ellipse transform="matrix(0.439 -0.8985 0.8985 0.439 18.9805 75.8214)" class="st1" cx="70.2" cy="22.7" rx="1.8" ry="1.8"/>
					</g>
				</g>
				<g>
					<g>
						<path class="st0" d="M70.2,24.9c-0.3,0-0.7-0.1-1-0.2c-0.5-0.3-0.9-0.7-1.1-1.3c-0.2-0.6-0.2-1.2,0.1-1.7c0.5-1.1,1.9-1.6,3-1
							c1.1,0.5,1.6,1.9,1,3c-0.3,0.5-0.7,0.9-1.3,1.1C70.7,24.9,70.4,24.9,70.2,24.9z M70.2,21.3c-0.5,0-1,0.3-1.2,0.8
							c-0.2,0.3-0.2,0.7-0.1,1c0.1,0.3,0.4,0.6,0.7,0.8c0.3,0.2,0.7,0.2,1,0.1c0.3-0.1,0.6-0.4,0.8-0.7c0.3-0.7,0-1.5-0.6-1.8
							C70.6,21.4,70.4,21.3,70.2,21.3z"/>
					</g>
				</g>
			</g>
			<g>
				<g>
					<g>
						<path class="st2" d="M59.6,37.5c0.8-1.5,2.6-2.1,4.1-1.4c1.5,0.8,2.1,2.6,1.4,4.1c-0.8,1.5-4.9,3-4.9,3S58.9,39,59.6,37.5z"/>
					</g>
				</g>
				<g>
					<g>
						<path class="st1" d="M60.2,43.6c-0.1,0-0.1,0-0.2,0c-0.1-0.1-0.2-0.1-0.2-0.3c-0.1-0.4-1.3-4.4-0.6-6c0,0,0,0,0,0
							c0.4-0.8,1.1-1.5,2-1.8c0.9-0.3,1.8-0.2,2.7,0.2c1.7,0.9,2.4,2.9,1.6,4.6c-0.8,1.6-4.7,3.1-5.1,3.2
							C60.3,43.6,60.2,43.6,60.2,43.6z M60,37.7c-0.5,1,0.1,3.6,0.5,4.9c1.3-0.5,3.7-1.7,4.2-2.6c0.6-1.3,0.1-2.8-1.2-3.5
							c-0.6-0.3-1.3-0.4-2-0.1C60.8,36.6,60.3,37,60,37.7z"/>
					</g>
				</g>
			</g>
			<g>
				<g>
					<g>
						<path class="st1" d="M60.2,43.7c-0.1,0-0.1,0-0.2,0c-0.2-0.1-0.3-0.4-0.2-0.6l1.1-2.3c0.1-0.2,0.4-0.3,0.6-0.2
							c0.2,0.1,0.3,0.4,0.2,0.6l-1.1,2.3C60.5,43.6,60.3,43.7,60.2,43.7z"/>
					</g>
				</g>
			</g>
		</g>
		<g>
			<g>
				<g>
					<g>
						<path class="st0" d="M63.4,25.6c0,0-4.8,2-6,3.1L53.7,36l6.3-3.5L63.4,25.6z"/>
					</g>
				</g>
				<g>
					<g>
						<path class="st1" d="M53.7,36.5c-0.1,0-0.2,0-0.3-0.1c-0.1-0.1-0.2-0.3-0.1-0.5l3.6-7.3c0-0.1,0.1-0.1,0.1-0.1
							c1.3-1.1,6-3.1,6.2-3.1c0.2-0.1,0.4,0,0.5,0.1c0.1,0.1,0.2,0.3,0.1,0.5l-3.4,6.9c0,0.1-0.1,0.1-0.2,0.2l-6.3,3.5
							C53.9,36.5,53.8,36.5,53.7,36.5z M57.7,29l-2.9,6l4.9-2.7l2.8-5.7C61,27.1,58.6,28.3,57.7,29z"/>
					</g>
				</g>
			</g>
		</g>
	</g>
	<g>
		<g>
			<g>
				<path class="st3" d="M43.6,58.9c-0.2,0-0.4-0.1-0.4-0.3c-0.1-0.2,0.1-0.5,0.3-0.5c0,0,0.4-0.1,1.1-0.4c0.2-0.1,0.5,0,0.6,0.3
					s0,0.5-0.3,0.6c-0.7,0.3-1.2,0.4-1.2,0.4C43.7,58.9,43.6,58.9,43.6,58.9z M45.8,58.1c-0.2,0-0.3-0.1-0.4-0.3
					c-0.1-0.2,0-0.5,0.2-0.6c0.3-0.1,0.7-0.3,1-0.5c0.2-0.1,0.5,0,0.6,0.2c0.1,0.2,0,0.5-0.2,0.6c-0.4,0.2-0.7,0.4-1.1,0.5
					C45.9,58.1,45.8,58.1,45.8,58.1z M47.8,57.1c-0.2,0-0.3-0.1-0.4-0.2c-0.1-0.2,0-0.5,0.2-0.6c0.3-0.2,0.6-0.4,1-0.6
					c0.2-0.1,0.5-0.1,0.6,0.1c0.1,0.2,0.1,0.5-0.1,0.6c-0.3,0.2-0.7,0.4-1,0.6C48,57.1,47.9,57.1,47.8,57.1z M49.8,55.8
					c-0.1,0-0.3-0.1-0.4-0.2c-0.1-0.2-0.1-0.5,0.1-0.6c0.3-0.2,0.6-0.4,0.9-0.7c0.2-0.1,0.5-0.1,0.6,0.1s0.1,0.5-0.1,0.6
					c-0.3,0.2-0.6,0.5-1,0.7C50,55.8,49.9,55.8,49.8,55.8z M51.6,54.4c-0.1,0-0.2-0.1-0.3-0.2c-0.2-0.2-0.1-0.5,0.1-0.6
					c0.3-0.2,0.6-0.5,0.9-0.8c0.2-0.2,0.5-0.1,0.6,0c0.2,0.2,0.2,0.5,0,0.6c-0.3,0.3-0.6,0.5-0.9,0.8C51.8,54.4,51.7,54.4,51.6,54.4
					z M53.4,52.9c-0.1,0-0.2,0-0.3-0.1c-0.2-0.2-0.2-0.4,0-0.6c0.3-0.3,0.5-0.5,0.8-0.8c0.2-0.2,0.4-0.2,0.6,0
					c0.2,0.2,0.2,0.4,0,0.6c-0.3,0.3-0.5,0.6-0.8,0.9C53.6,52.8,53.5,52.9,53.4,52.9z M54.9,51.1c-0.1,0-0.2,0-0.3-0.1
					c-0.2-0.2-0.2-0.4-0.1-0.6c0.2-0.3,0.5-0.6,0.7-0.9c0.1-0.2,0.4-0.2,0.6-0.1c0.2,0.1,0.2,0.4,0.1,0.6c-0.2,0.3-0.5,0.6-0.7,0.9
					C55.2,51.1,55,51.1,54.9,51.1z M56.3,49.3c-0.1,0-0.2,0-0.2-0.1c-0.2-0.1-0.2-0.4-0.1-0.6c0.2-0.3,0.4-0.6,0.6-1
					c0.1-0.2,0.4-0.3,0.6-0.1c0.2,0.1,0.3,0.4,0.1,0.6c-0.2,0.3-0.4,0.7-0.7,1C56.6,49.2,56.5,49.3,56.3,49.3z M57.6,47.3
					c-0.1,0-0.1,0-0.2-0.1c-0.2-0.1-0.3-0.4-0.2-0.6c0.2-0.3,0.4-0.7,0.5-1c0.1-0.2,0.4-0.3,0.6-0.2c0.2,0.1,0.3,0.4,0.2,0.6
					c-0.2,0.4-0.4,0.7-0.6,1C57.9,47.2,57.7,47.3,57.6,47.3z M58.6,45.3c-0.1,0-0.1,0-0.2,0c-0.2-0.1-0.3-0.4-0.2-0.6l0.1-0.3
					c0.1-0.2,0.4-0.3,0.6-0.2c0.2,0.1,0.3,0.4,0.2,0.6L59,45C59,45.2,58.8,45.3,58.6,45.3z"/>
			</g>
		</g>
	</g>
</g>
</svg>
