<?xml version="1.0" encoding="utf-8"?>
<!-- Generator: Adobe Illustrator 21.0.2, SVG Export Plug-In . SVG Version: 6.00 Build 0)  -->
<svg version="1.1" id="Layer_1" xmlns="http://www.w3.org/2000/svg" xmlns:xlink="http://www.w3.org/1999/xlink" x="0px" y="0px"
	 viewBox="0 0 100 100" style="enable-background:new 0 0 100 100;" xml:space="preserve">
<style type="text/css">
	.st0{fill:#FFFFFF;}
	.st1{fill:#575656;}
	.st2{fill:#F9B51B;}
	.st3{fill:#A5A5A5;}
</style>
<g>
	<g>
		<circle class="st0" cx="50" cy="50" r="50"/>
	</g>
</g>
<g>
	<g>
		<g>
			<g>
				<path class="st0" d="M63.6,34.6c0,0,2.1,4.8,2.3,6.4l-2.5,7.8L61.3,42L63.6,34.6z"/>
				<path class="st1" d="M63.5,49.3L63.5,49.3c-0.2,0-0.3-0.1-0.4-0.3l-2.1-6.9c0-0.1,0-0.2,0-0.2l2.3-7.4c0.1-0.2,0.2-0.3,0.4-0.3
					c0.2,0,0.3,0.1,0.4,0.2c0.1,0.2,2.1,4.8,2.3,6.5c0,0.1,0,0.1,0,0.2L63.9,49C63.8,49.1,63.6,49.3,63.5,49.3z M61.8,42l1.7,5.5
					l2-6.5c-0.2-1.2-1.2-3.7-1.8-5.2L61.8,42z"/>
			</g>
		</g>
		<g>
			<g>
				<path class="st0" d="M64.3,16.1c0,0-5.4,2.8-8.1,9.6l-4.3,13.7l4.7,1.4l4.7,1.4l4.3-13.7C67.2,21.4,64.3,16.1,64.3,16.1z"/>
				<path class="st1" d="M61.2,42.7c0,0-0.1,0-0.1,0l-9.3-2.9c-0.1,0-0.2-0.1-0.2-0.2s-0.1-0.2,0-0.3l4.3-13.7
					c2.8-6.9,8.1-9.7,8.3-9.9c0.1-0.1,0.2-0.1,0.3,0c0.1,0,0.2,0.1,0.2,0.2c0.1,0.2,2.9,5.6,1.2,12.8l-4.3,13.7
					C61.6,42.6,61.4,42.7,61.2,42.7z M52.4,39.1l8.5,2.6l4.2-13.3c1.3-5.8-0.4-10.5-1-11.8c-1.3,0.8-5.3,3.6-7.5,9.2L52.4,39.1z"/>
			</g>
			<g>
				<ellipse transform="matrix(0.2985 -0.9544 0.9544 0.2985 16.0954 77.348)" class="st1" cx="60.7" cy="27.7" rx="1.8" ry="1.8"/>
				<path class="st0" d="M60.7,30c-0.2,0-0.4,0-0.7-0.1c-1.2-0.4-1.8-1.6-1.5-2.8c0.4-1.2,1.6-1.8,2.8-1.5c1.2,0.4,1.8,1.6,1.5,2.8
					c-0.2,0.6-0.6,1-1.1,1.3C61.4,29.9,61,30,60.7,30z M60.7,26.3c-0.6,0-1.1,0.4-1.3,1c0,0,0,0,0,0c-0.2,0.7,0.2,1.5,0.9,1.7
					c0.4,0.1,0.7,0.1,1.1-0.1c0.3-0.2,0.6-0.5,0.7-0.8c0.2-0.7-0.2-1.5-0.9-1.7C60.9,26.3,60.8,26.3,60.7,26.3z M58.9,27.2
					L58.9,27.2L58.9,27.2z"/>
			</g>
			<g>
				<path class="st2" d="M52.4,44c0.5-1.6,2.2-2.5,3.8-2c1.6,0.5,2.5,2.2,2,3.8c-0.5,1.6-4.4,3.8-4.4,3.8S51.9,45.6,52.4,44z"/>
				<path class="st1" d="M53.8,50c0,0-0.1,0-0.1,0c-0.1,0-0.2-0.1-0.2-0.2c-0.2-0.4-2-4.2-1.5-5.9l0,0c0.3-0.9,0.9-1.6,1.7-2
					c0.8-0.4,1.8-0.5,2.6-0.2c0.9,0.3,1.6,0.9,2,1.7c0.4,0.8,0.5,1.8,0.2,2.6c-0.5,1.7-4.2,3.8-4.6,4C54,50,53.9,50,53.8,50z
					 M55.3,42.3c-0.4,0-0.8,0.1-1.2,0.3c-0.6,0.3-1.1,0.9-1.3,1.6l0,0c-0.3,1.1,0.6,3.6,1.2,4.9c1.2-0.7,3.5-2.2,3.8-3.3
					c0.4-1.4-0.3-2.9-1.7-3.3C55.8,42.3,55.6,42.3,55.3,42.3z M52.4,44L52.4,44L52.4,44z"/>
			</g>
			<g>
				<path class="st1" d="M53.8,50.1c0,0-0.1,0-0.1,0c-0.2-0.1-0.3-0.3-0.3-0.5l0.8-2.5c0.1-0.2,0.3-0.3,0.5-0.3
					c0.2,0.1,0.3,0.3,0.3,0.5l-0.8,2.5C54.1,50,54,50.1,53.8,50.1z"/>
			</g>
		</g>
		<g>
			<g>
				<path class="st0" d="M54.3,31.7c0,0-4.5,2.7-5.6,4l-2.5,7.8l5.7-4.5L54.3,31.7z"/>
				<path class="st1" d="M46.2,44c-0.1,0-0.2,0-0.2-0.1c-0.1-0.1-0.2-0.3-0.2-0.5l2.5-7.8c0-0.1,0-0.1,0.1-0.1
					c1.1-1.4,5.5-4,5.7-4.1c0.1-0.1,0.3-0.1,0.5,0c0.1,0.1,0.2,0.3,0.1,0.5l-2.4,7.4c0,0.1-0.1,0.1-0.1,0.2l-5.7,4.5
					C46.4,43.9,46.3,44,46.2,44z M49.1,35.9l-2,6.5l4.5-3.6l2-6.2C52.2,33.5,49.9,35,49.1,35.9z"/>
			</g>
		</g>
	</g>
	<g>
		<g>
			<path class="st2" d="M22.4,76.6c-3.4,0-5.5-0.2-5.6-0.3c-0.2,0-0.4-0.2-0.4-0.5s0.3-0.4,0.5-0.4c0.3,0,25.4,2.9,43.5-11.8
				C71,55,77.1,42,78.5,25c0-0.2,0.2-0.4,0.5-0.4c0.2,0,0.4,0.2,0.4,0.5C78,42.3,71.8,55.5,61,64.4C47.8,75.1,31,76.6,22.4,76.6z"/>
		</g>
		<g>
			<path class="st2" d="M80.8,27.5c-0.2,0-0.3-0.1-0.4-0.2l-1.4-2.4l-2.6,2C76.3,27,76,27,75.9,26.8c-0.1-0.2-0.1-0.5,0.1-0.6l3-2.3
				c0.1-0.1,0.2-0.1,0.4-0.1c0.1,0,0.2,0.1,0.3,0.2l1.6,2.8c0.1,0.2,0.1,0.5-0.2,0.6C81,27.5,80.9,27.5,80.8,27.5z"/>
		</g>
	</g>
	<g>
		<path class="st3" d="M16.9,72.1c-0.2,0-0.4-0.2-0.4-0.4s0.2-0.4,0.4-0.4c0.4,0,0.8,0,1.2,0c0,0,0,0,0,0c0.2,0,0.4,0.2,0.4,0.4
			c0,0.2-0.2,0.4-0.4,0.4C17.7,72.1,17.3,72.1,16.9,72.1z M19.2,72.1c-0.2,0-0.4-0.2-0.4-0.4c0-0.2,0.2-0.4,0.4-0.4
			c0.4,0,0.8,0,1.2,0c0.2,0,0.4,0.2,0.5,0.4s-0.2,0.4-0.4,0.5C20,72.1,19.6,72.1,19.2,72.1C19.2,72.1,19.2,72.1,19.2,72.1z M21.6,72
			c-0.2,0-0.4-0.2-0.4-0.4c0-0.2,0.2-0.4,0.4-0.5c0.4,0,0.8,0,1.2-0.1c0.3,0,0.5,0.2,0.5,0.4c0,0.2-0.2,0.5-0.4,0.5
			C22.4,72,22,72,21.6,72C21.6,72,21.6,72,21.6,72z M23.9,71.9c-0.2,0-0.4-0.2-0.4-0.4c0-0.2,0.2-0.5,0.4-0.5c0.4,0,0.8-0.1,1.2-0.1
			c0.2,0,0.5,0.1,0.5,0.4c0,0.2-0.1,0.5-0.4,0.5C24.7,71.8,24.3,71.8,23.9,71.9C23.9,71.9,23.9,71.9,23.9,71.9z M26.2,71.6
			c-0.2,0-0.4-0.2-0.4-0.4c0-0.2,0.1-0.5,0.4-0.5c0.4,0,0.8-0.1,1.1-0.2c0.2,0,0.5,0.1,0.5,0.4c0,0.2-0.1,0.5-0.4,0.5
			C27.1,71.5,26.7,71.5,26.2,71.6C26.3,71.6,26.3,71.6,26.2,71.6z M28.5,71.2c-0.2,0-0.4-0.1-0.4-0.4c0-0.2,0.1-0.5,0.4-0.5
			c0.4-0.1,0.8-0.1,1.1-0.2c0.2,0,0.5,0.1,0.5,0.3c0,0.2-0.1,0.5-0.3,0.5C29.4,71.1,29,71.2,28.5,71.2
			C28.6,71.2,28.6,71.2,28.5,71.2z M30.8,70.8c-0.2,0-0.4-0.1-0.4-0.3c-0.1-0.2,0.1-0.5,0.3-0.5c0.4-0.1,0.8-0.2,1.1-0.3
			c0.2-0.1,0.5,0.1,0.5,0.3c0.1,0.2-0.1,0.5-0.3,0.5C31.7,70.6,31.3,70.7,30.8,70.8C30.9,70.8,30.9,70.8,30.8,70.8z M33.1,70.2
			c-0.2,0-0.4-0.1-0.4-0.3c-0.1-0.2,0.1-0.5,0.3-0.5c0.4-0.1,0.7-0.2,1.1-0.3c0.2-0.1,0.5,0.1,0.6,0.3c0.1,0.2-0.1,0.5-0.3,0.6
			c-0.4,0.1-0.8,0.2-1.1,0.3C33.2,70.2,33.1,70.2,33.1,70.2z M35.3,69.5c-0.2,0-0.3-0.1-0.4-0.3c-0.1-0.2,0-0.5,0.3-0.6
			c0.4-0.1,0.7-0.3,1.1-0.4c0.2-0.1,0.5,0,0.6,0.2c0.1,0.2,0,0.5-0.2,0.6c-0.4,0.1-0.7,0.3-1.1,0.4C35.4,69.5,35.4,69.5,35.3,69.5z
			 M37.5,68.6c-0.2,0-0.3-0.1-0.4-0.3c-0.1-0.2,0-0.5,0.2-0.6c0.4-0.2,0.7-0.3,1-0.5c0.2-0.1,0.5,0,0.6,0.2c0.1,0.2,0,0.5-0.2,0.6
			c-0.4,0.2-0.7,0.3-1.1,0.5C37.6,68.6,37.6,68.6,37.5,68.6z M39.6,67.6c-0.2,0-0.3-0.1-0.4-0.2c-0.1-0.2,0-0.5,0.2-0.6
			c0.3-0.2,0.7-0.4,1-0.6c0.2-0.1,0.5-0.1,0.6,0.2c0.1,0.2,0.1,0.5-0.2,0.6c-0.3,0.2-0.7,0.4-1,0.6C39.7,67.6,39.7,67.6,39.6,67.6z
			 M41.6,66.4c-0.1,0-0.3-0.1-0.4-0.2c-0.1-0.2-0.1-0.5,0.1-0.6c0.3-0.2,0.6-0.4,1-0.6c0.2-0.1,0.5-0.1,0.6,0.1
			c0.1,0.2,0.1,0.5-0.1,0.6c-0.3,0.2-0.7,0.4-1,0.7C41.8,66.4,41.7,66.4,41.6,66.4z M43.5,65.1c-0.1,0-0.3-0.1-0.3-0.2
			c-0.1-0.2-0.1-0.5,0.1-0.6c0.3-0.2,0.6-0.5,0.9-0.7c0.2-0.2,0.5-0.1,0.6,0.1c0.2,0.2,0.1,0.5-0.1,0.6c-0.3,0.3-0.6,0.5-0.9,0.7
			C43.7,65.1,43.6,65.1,43.5,65.1z M45.3,63.6c-0.1,0-0.2,0-0.3-0.1c-0.2-0.2-0.2-0.5,0-0.6c0.3-0.3,0.6-0.5,0.8-0.8
			c0.2-0.2,0.4-0.2,0.6,0c0.2,0.2,0.2,0.4,0,0.6c-0.3,0.3-0.6,0.6-0.9,0.8C45.5,63.5,45.4,63.6,45.3,63.6z M46.9,61.9
			c-0.1,0-0.2,0-0.3-0.1c-0.2-0.2-0.2-0.4,0-0.6c0.3-0.3,0.5-0.6,0.8-0.9c0.2-0.2,0.4-0.2,0.6-0.1c0.2,0.2,0.2,0.4,0.1,0.6
			c-0.3,0.3-0.5,0.6-0.8,0.9C47.2,61.9,47.1,61.9,46.9,61.9z M48.4,60.1c-0.1,0-0.2,0-0.3-0.1c-0.2-0.1-0.2-0.4-0.1-0.6
			c0.2-0.3,0.5-0.6,0.7-0.9c0.1-0.2,0.4-0.2,0.6-0.1c0.2,0.1,0.2,0.4,0.1,0.6c-0.2,0.3-0.5,0.6-0.7,1C48.7,60.1,48.6,60.1,48.4,60.1
			z M49.8,58.2c-0.1,0-0.2,0-0.2-0.1c-0.2-0.1-0.3-0.4-0.1-0.6c0.2-0.3,0.4-0.6,0.6-1c0.1-0.2,0.4-0.3,0.6-0.2
			c0.2,0.1,0.3,0.4,0.2,0.6c-0.2,0.3-0.4,0.7-0.6,1C50.1,58.2,49.9,58.2,49.8,58.2z M50.9,56.2c-0.1,0-0.1,0-0.2-0.1
			c-0.2-0.1-0.3-0.4-0.2-0.6c0.2-0.3,0.4-0.7,0.5-1c0.1-0.2,0.4-0.3,0.6-0.2c0.2,0.1,0.3,0.4,0.2,0.6c-0.2,0.4-0.4,0.7-0.5,1.1
			C51.3,56.1,51.1,56.2,50.9,56.2z M52,54.1c-0.1,0-0.1,0-0.2,0c-0.2-0.1-0.3-0.4-0.2-0.6c0.2-0.3,0.3-0.7,0.5-1.1
			c0.1-0.2,0.3-0.3,0.6-0.2c0.2,0.1,0.3,0.3,0.2,0.6c-0.2,0.4-0.3,0.7-0.5,1.1C52.3,54,52.1,54.1,52,54.1z"/>
	</g>
	<g>
		<path class="st1" d="M79.2,80.4H16.5c-0.2,0-0.4-0.2-0.4-0.4s0.2-0.4,0.4-0.4h62.7c0.2,0,0.4,0.2,0.4,0.4S79.4,80.4,79.2,80.4z"/>
	</g>
</g>
</svg>
