<?xml version="1.0" encoding="utf-8"?>
<!-- Generator: Adobe Illustrator 21.0.2, SVG Export Plug-In . SVG Version: 6.00 Build 0)  -->
<svg version="1.1" id="Layer_1" xmlns="http://www.w3.org/2000/svg" xmlns:xlink="http://www.w3.org/1999/xlink" x="0px" y="0px"
	 viewBox="0 0 200 200" style="enable-background:new 0 0 200 200;" xml:space="preserve">
<style type="text/css">
	.st0{fill:#FFFFFF;}
	.st1{fill:#575656;}
	.st2{fill:#F9B51B;}
	.st3{fill:#F7F7F7;}
</style>
<g>
	<g>
		<g>
			<g>
				<circle class="st0" cx="100" cy="100" r="100"/>
			</g>
		</g>
	</g>
	<g>
		<g>
			<path class="st0" d="M152.5,118.8h-102c-2.7,0-4.9-2.2-4.9-4.9V51.7c0-2.7,2.2-4.9,4.9-4.9h102c2.7,0,4.9,2.2,4.9,4.9v62.2
				C157.5,116.6,155.2,118.8,152.5,118.8z"/>
			<path class="st1" d="M152.5,119.6h-102c-3.1,0-5.7-2.6-5.7-5.7V51.7c0-3.1,2.6-5.7,5.7-5.7h102c3.2,0,5.7,2.6,5.7,5.7v62.2
				C158.3,117.1,155.7,119.6,152.5,119.6z M50.6,47.6c-2.3,0-4.1,1.8-4.1,4.1v62.2c0,2.3,1.8,4.1,4.1,4.1h102c2.3,0,4.1-1.8,4.1-4.1
				V51.7c0-2.3-1.8-4.1-4.1-4.1H50.6z"/>
		</g>
		<g>
			<g>
				<path class="st1" d="M108.9,66.1H70.7c-0.4,0-0.8-0.4-0.8-0.8s0.4-0.8,0.8-0.8h38.2c0.4,0,0.8,0.4,0.8,0.8
					S109.3,66.1,108.9,66.1z"/>
			</g>
			<g>
				<path class="st1" d="M86.7,71.8h-16c-0.4,0-0.8-0.4-0.8-0.8s0.4-0.8,0.8-0.8h16c0.4,0,0.8,0.4,0.8,0.8S87.2,71.8,86.7,71.8z"/>
			</g>
			<g>
				<path class="st1" d="M86.7,77.6h-16c-0.4,0-0.8-0.4-0.8-0.8s0.4-0.8,0.8-0.8h16c0.4,0,0.8,0.4,0.8,0.8S87.2,77.6,86.7,77.6z"/>
			</g>
			<g>
				<path class="st1" d="M108.9,71.8h-16c-0.4,0-0.8-0.4-0.8-0.8s0.4-0.8,0.8-0.8h16c0.4,0,0.8,0.4,0.8,0.8S109.3,71.8,108.9,71.8z"
					/>
			</g>
			<g>
				<path class="st1" d="M108.9,77.6h-16c-0.4,0-0.8-0.4-0.8-0.8s0.4-0.8,0.8-0.8h16c0.4,0,0.8,0.4,0.8,0.8S109.3,77.6,108.9,77.6z"
					/>
			</g>
		</g>
		<g>
			<g>
				<path class="st2" d="M73.1,102.6c-1.5,0-2.4,0-2.5,0c-0.4,0-0.8-0.4-0.8-0.9c0-0.4,0.4-0.8,0.9-0.8c0.5,0,49.8,2.5,58.2-31.8
					c0.1-0.4,0.5-0.7,1-0.6c0.4,0.1,0.7,0.5,0.6,1C122.9,100.5,83.4,102.6,73.1,102.6z"/>
			</g>
			<g>
				<path class="st2" d="M131.7,72.7c-0.3,0-0.6-0.2-0.7-0.5l-1.4-2.9l-2.9,1.4c-0.4,0.2-0.9,0-1.1-0.4c-0.2-0.4,0-0.9,0.4-1.1
					l3.6-1.8c0.4-0.2,0.9,0,1.1,0.4l1.8,3.6c0.2,0.4,0,0.9-0.4,1.1C132,72.6,131.8,72.7,131.7,72.7z"/>
			</g>
		</g>
		<g>
			<path class="st1" d="M129.7,106.4h-59c-0.4,0-0.8-0.4-0.8-0.8s0.4-0.8,0.8-0.8h59c0.4,0,0.8,0.4,0.8,0.8S130.1,106.4,129.7,106.4
				z"/>
		</g>
		<g>
			<line class="st3" x1="49.8" y1="146.6" x2="153" y2="146.6"/>
			<path class="st1" d="M153,147.4H49.8c-0.4,0-0.8-0.4-0.8-0.8s0.4-0.8,0.8-0.8H153c0.4,0,0.8,0.4,0.8,0.8S153.5,147.4,153,147.4z"
				/>
		</g>
		<g>
			<g>
				<path class="st3" d="M44.7,122.1c-1,1.6-2.7,2.8-5.2,2.8c-2.3,0-4-1-5-2.5c-4.3,2-7.3,6.4-7.3,11.4v19.4h25.4v-19.4
					C52.5,128.6,49.3,124,44.7,122.1z"/>
				<path class="st1" d="M52.5,154H27.2c-0.4,0-0.8-0.4-0.8-0.8v-19.4c0-5.2,3-9.9,7.7-12.2c0.4-0.2,0.8-0.1,1,0.3
					c0.7,1,2,2.2,4.4,2.2c2.5,0,3.8-1.3,4.5-2.4c0.2-0.3,0.6-0.5,1-0.3c5.1,2.1,8.4,7,8.4,12.5v19.4C53.3,153.7,53,154,52.5,154z
					 M28,152.4h23.8v-18.6c0-4.6-2.6-8.7-6.8-10.7c-1.3,1.7-3.2,2.6-5.5,2.6c-2.1,0-4-0.8-5.3-2.3c-3.8,2.1-6.2,6.1-6.2,10.4V152.4z
					"/>
			</g>
			<g>
				<polyline class="st3" points="50.3,126.6 63.6,140.9 78.1,140.9 78.1,145.7 61.4,145.7 46.5,131.8 				"/>
				<path class="st1" d="M78.1,146.5H61.4c-0.2,0-0.4-0.1-0.5-0.2L46,132.4c-0.3-0.3-0.3-0.8,0-1.1c0.3-0.3,0.8-0.3,1.1,0l14.7,13.7
					h15.5v-3.1H63.6c-0.2,0-0.4-0.1-0.6-0.3l-13.3-14.4c-0.3-0.3-0.3-0.8,0-1.1c0.3-0.3,0.8-0.3,1.1,0l13,14.1h14.1
					c0.4,0,0.8,0.4,0.8,0.8v4.7C78.9,146.1,78.5,146.5,78.1,146.5z"/>
			</g>
			<g>
				<g>
					<path class="st0" d="M41.4,119.5l-3.2,0.1c-5.1,0.1-9.4-4-9.5-9.1l-0.2-9c-0.1-5.1,4-9.4,9.1-9.5l3.2-0.1
						c5.1-0.1,9.4,4,9.5,9.1l0.2,9C50.6,115.1,46.5,119.4,41.4,119.5z"/>
					<path class="st1" d="M38,120.4c-5.5,0-10-4.4-10.1-9.9l-0.2-9c-0.1-2.7,0.9-5.3,2.8-7.2c1.9-2,4.4-3.1,7.1-3.1l3.2-0.1
						c0.1,0,0.1,0,0.2,0c5.5,0,10,4.4,10.1,9.9l0.2,9c0.1,2.7-0.9,5.3-2.8,7.2c-1.9,2-4.4,3.1-7.1,3.1l0,0l-3.2,0.1
						C38.1,120.4,38,120.4,38,120.4z M41.4,119.5L41.4,119.5L41.4,119.5z M41,92.6c-0.1,0-0.1,0-0.2,0l-3.2,0.1c-2.3,0-4.4,1-6,2.6
						c-1.6,1.7-2.4,3.8-2.4,6.1l0.2,9c0.1,4.6,3.9,8.4,8.5,8.4c0.1,0,0.1,0,0.2,0l3.2-0.1c4.7-0.1,8.5-4,8.3-8.7l-0.2-9
						C49.4,96.3,45.6,92.6,41,92.6z"/>
				</g>
				<g>
					<path class="st1" d="M29.4,103.7c0,0,4.3-1.1,4.2-6.3c0,0-0.1-4.9,4.6-1.3c0,0,7.6,8.3,13.1,5.5c0,0,6-3.3,2-9.4
						c0,0-4.4-6-9.7-1.7c0,0-3.3,1.9-8.1-0.6c0,0-6.7-2.5-8,4.6C27.5,94.3,26.8,101.6,29.4,103.7z"/>
				</g>
			</g>
		</g>
		<g>
			<g>
				<path class="st3" d="M155.3,122.1c1,1.6,2.7,2.8,5.2,2.8c2.3,0,4-1,5-2.5c4.3,2,7.3,6.4,7.3,11.4v19.4h-25.4v-19.4
					C147.5,128.6,150.7,124,155.3,122.1z"/>
				<path class="st1" d="M172.8,154h-25.4c-0.4,0-0.8-0.4-0.8-0.8v-19.4c0-5.5,3.3-10.4,8.4-12.5c0.4-0.2,0.8,0,1,0.3
					c0.7,1.1,2,2.4,4.5,2.4c2.4,0,3.7-1.2,4.4-2.2c0.2-0.3,0.7-0.4,1-0.3c4.7,2.2,7.7,7,7.7,12.2v19.4
					C173.6,153.7,173.3,154,172.8,154z M148.3,152.4H172v-18.6c0-4.3-2.4-8.3-6.2-10.4c-1.3,1.5-3.1,2.3-5.3,2.3
					c-2.3,0-4.2-0.9-5.5-2.6c-4.1,2-6.8,6.1-6.8,10.7V152.4z"/>
			</g>
			<g>
				<g>
					<path class="st0" d="M158.6,119.5l3.2,0.1c5.1,0.1,9.4-4,9.5-9.1l0.2-9c0.1-5.1-4-9.4-9.1-9.5l-3.2-0.1c-5.1-0.1-9.4,4-9.5,9.1
						l-0.2,9C149.4,115.1,153.5,119.4,158.6,119.5z"/>
					<path class="st1" d="M162,120.4c-0.1,0-0.1,0-0.2,0l-3.2-0.1c-2.7-0.1-5.2-1.2-7.1-3.1c-1.9-2-2.9-4.5-2.8-7.2l0.2-9
						c0.1-2.7,1.2-5.2,3.1-7.1s4.5-2.9,7.2-2.8l3.2,0.1c2.7,0.1,5.2,1.2,7.1,3.1c1.9,2,2.9,4.5,2.8,7.2l-0.2,9
						C172.1,116,167.5,120.4,162,120.4z M158.6,118.7l3.2,0.1c4.7,0.1,8.6-3.6,8.7-8.3l0.2-9c0-2.3-0.8-4.4-2.4-6.1s-3.7-2.6-6-2.6
						l-3.2-0.1c-2.3,0-4.4,0.8-6.1,2.4s-2.6,3.7-2.6,6l-0.2,9C150.2,114.7,153.9,118.6,158.6,118.7L158.6,118.7z"/>
				</g>
				<g>
					<path class="st1" d="M170.6,103.7c0,0-4.3-1.1-4.2-6.3c0,0,0.1-4.9-4.6-1.3c0,0-7.6,8.3-13.1,5.5c0,0-6-3.3-2-9.4
						c0,0,4.4-6,9.7-1.7c0,0,3.3,1.9,8.1-0.6c0,0,6.7-2.5,8,4.6C172.5,94.3,173.2,101.6,170.6,103.7z"/>
				</g>
			</g>
		</g>
		<g>
			<polyline class="st3" points="154.7,123 139.4,126.6 129,109.2 124.1,110.5 136.5,132 151.1,129.1 			"/>
			<path class="st1" d="M136.5,132.8c-0.3,0-0.6-0.2-0.7-0.4l-12.4-21.5c-0.1-0.2-0.1-0.5,0-0.7c0.1-0.2,0.3-0.4,0.5-0.5l4.9-1.3
				c0.3-0.1,0.7,0.1,0.9,0.4l10.1,16.9l14.7-3.4c0.4-0.1,0.9,0.2,1,0.6c0.1,0.4-0.2,0.9-0.6,1l-15.3,3.6c-0.3,0.1-0.7-0.1-0.9-0.4
				l-10.1-16.9l-3.3,0.9l11.6,20.1l14.1-2.8c0.4-0.1,0.9,0.2,1,0.6c0.1,0.4-0.2,0.9-0.6,1l-14.7,3
				C136.6,132.8,136.5,132.8,136.5,132.8z"/>
		</g>
	</g>
</g>
</svg>
