<?xml version="1.0" encoding="utf-8"?>
<!-- Generator: Adobe Illustrator 21.0.2, SVG Export Plug-In . SVG Version: 6.00 Build 0)  -->
<svg version="1.1" id="Layer_1" xmlns="http://www.w3.org/2000/svg" xmlns:xlink="http://www.w3.org/1999/xlink" x="0px" y="0px"
	 viewBox="0 0 200 200" style="enable-background:new 0 0 200 200;" xml:space="preserve">
<style type="text/css">
	.st0{fill:#FFFFFF;}
	.st1{fill:#F7F7F7;}
	.st2{fill:#A5A5A5;}
	.st3{fill:#F9B51B;}
	.st4{fill:#575656;}
</style>
<circle class="st0" cx="100" cy="100" r="100"/>
<g>
	<g>
		<path class="st1" d="M154.1,61.7H88.4l-6.3-6.3l-6.2,6.3H56.3c-1.9,0-3.5,1.6-3.5,3.5v53.6c0,1.9,1.6,3.5,3.5,3.5h97.8
			c1.9,0,3.5-1.6,3.5-3.5V65.2C157.6,63.2,156,61.7,154.1,61.7z"/>
		<path class="st2" d="M154.1,123.2H56.3c-2.4,0-4.4-2-4.4-4.4V65.2c0-2.4,2-4.4,4.4-4.4h19.2l6.1-6.1c0.3-0.3,0.9-0.3,1.2,0
			l6.1,6.1h65.3c2.4,0,4.4,2,4.4,4.4v53.6C158.5,121.3,156.5,123.2,154.1,123.2z M56.3,62.6c-1.4,0-2.7,1.2-2.7,2.7v53.6
			c0,1.4,1.2,2.7,2.7,2.7h97.8c1.4,0,2.7-1.2,2.7-2.7V65.2c0-1.4-1.2-2.7-2.7-2.7H88.4c-0.2,0-0.4-0.1-0.7-0.2L82,56.6l-5.7,5.7
			c-0.1,0.1-0.4,0.2-0.7,0.2C75.8,62.6,56.3,62.6,56.3,62.6z"/>
	</g>
	<g>
		<path class="st2" d="M140.8,82.3H69c-0.4,0-0.9-0.4-0.9-0.9c0-0.4,0.4-0.9,0.9-0.9h71.8c0.4,0,0.9,0.4,0.9,0.9
			C141.7,81.8,141.3,82.3,140.8,82.3z"/>
	</g>
	<g>
		<path class="st2" d="M140.8,95.4H69c-0.4,0-0.9-0.4-0.9-0.9s0.4-0.9,0.9-0.9h71.8c0.4,0,0.9,0.4,0.9,0.9S141.3,95.4,140.8,95.4z"
			/>
	</g>
	<g>
		<path class="st2" d="M140.8,108.3H69c-0.4,0-0.9-0.4-0.9-0.9c0-0.4,0.4-0.9,0.9-0.9h71.8c0.4,0,0.9,0.4,0.9,0.9
			C141.7,108,141.3,108.3,140.8,108.3z"/>
	</g>
	<g>
		<g>
			<path class="st2" d="M149.9,73.2c-0.2,0-0.4-0.1-0.7-0.2l-3-3c-0.3-0.3-0.3-0.9,0-1.2c0.3-0.3,0.9-0.3,1.2,0l3,3
				c0.3,0.3,0.3,0.9,0,1.2C150.4,73.2,150.2,73.2,149.9,73.2z"/>
		</g>
		<g>
			<path class="st2" d="M146.9,73.2c-0.2,0-0.4-0.1-0.7-0.2c-0.3-0.3-0.3-0.9,0-1.2l3-3c0.3-0.3,0.9-0.3,1.2,0s0.3,0.9,0,1.2l-3,3
				C147.4,73.2,147.2,73.2,146.9,73.2z"/>
		</g>
	</g>
</g>
<g>
	<path class="st0" d="M138.2,79.6H72.6l-6.3-6.3L60,79.6H40.5c-1.9,0-3.5,1.6-3.5,3.5v53.6c0,1.9,1.6,3.5,3.5,3.5h97.8
		c1.9,0,3.5-1.6,3.5-3.5V83.2C141.7,81.3,140.2,79.6,138.2,79.6z"/>
	<path class="st3" d="M138.2,141.2H40.5c-2.4,0-4.4-2-4.4-4.4V83.2c0-2.4,2-4.4,4.4-4.4h19.2l6.1-6.1c0.3-0.3,0.9-0.3,1.2,0l6.1,6.1
		h65.3c2.4,0,4.4,2,4.4,4.4v53.6C142.6,139.2,140.6,141.2,138.2,141.2z M40.5,80.5c-1.4,0-2.7,1.2-2.7,2.7v53.6
		c0,1.4,1.2,2.7,2.7,2.7h97.8c1.4,0,2.7-1.2,2.7-2.7V83.2c0-1.4-1.2-2.7-2.7-2.7H72.6c-0.2,0-0.4-0.1-0.7-0.2l-5.7-5.7l-5.7,5.7
		c-0.1,0.1-0.4,0.2-0.7,0.2H40.5z"/>
</g>
<g>
	<path class="st4" d="M125,101.1H53.1c-0.4,0-0.9-0.4-0.9-0.9s0.4-0.9,0.9-0.9h71.8c0.4,0,0.9,0.4,0.9,0.9S125.4,101.1,125,101.1z"
		/>
</g>
<g>
	<path class="st4" d="M125,113.3H53.1c-0.4,0-0.9-0.4-0.9-0.9s0.4-0.9,0.9-0.9h71.8c0.4,0,0.9,0.4,0.9,0.9S125.4,113.3,125,113.3z"
		/>
</g>
<g>
	<path class="st4" d="M125,124.6H53.1c-0.4,0-0.9-0.4-0.9-0.9s0.4-0.9,0.9-0.9h71.8c0.4,0,0.9,0.4,0.9,0.9
		C125.9,124.2,125.4,124.6,125,124.6z"/>
</g>
<g>
	<g>
		<path class="st3" d="M134.1,91.3c-0.2,0-0.4-0.1-0.7-0.2l-3-3c-0.3-0.3-0.3-0.9,0-1.2c0.3-0.3,0.9-0.3,1.2,0l3,3
			c0.3,0.3,0.3,0.9,0,1.2C134.5,91.1,134.3,91.3,134.1,91.3z"/>
	</g>
	<g>
		<path class="st3" d="M131.1,91.3c-0.2,0-0.4-0.1-0.7-0.2c-0.3-0.3-0.3-0.9,0-1.2l3-3c0.3-0.3,0.9-0.3,1.2,0s0.3,0.9,0,1.2l-3,3
			C131.5,91.1,131.3,91.3,131.1,91.3z"/>
	</g>
</g>
</svg>
