<svg id="icon-more-sales" xmlns="http://www.w3.org/2000/svg" width="196" height="196" viewBox="0 0 196 196">
  <circle id="Ellipse_90" data-name="Ellipse 90" cx="98" cy="98" r="98" fill="#f8f8f8"/>
  <g id="Group_521" data-name="Group 521" transform="translate(-861.632 -2603.001)">
    <path id="Path_734" data-name="Path 734" d="M20.442,80.114a6.44,6.44,0,0,1-6.16-4.581L8.735,57.042a6.439,6.439,0,0,1,4.31-8.005h0a6.428,6.428,0,0,1,8,4.311l5.546,18.491a6.428,6.428,0,0,1-6.153,8.275" transform="translate(899.631 2653)" fill="#fff" stroke="#707070" stroke-width="1.8"/>
    <path id="Path_735" data-name="Path 735" d="M20.442,80.114a6.44,6.44,0,0,1-6.16-4.581L8.735,57.042a6.439,6.439,0,0,1,4.31-8.005h0a6.428,6.428,0,0,1,8,4.311l5.546,18.491a6.428,6.428,0,0,1-6.153,8.275Z" transform="translate(899.631 2653)" fill="none" stroke="#070707" stroke-linecap="square" stroke-linejoin="round" stroke-width="1.8"/>
    <path id="Path_736" data-name="Path 736" d="M119.737,67.48c-2.6.51-41.029,5.019-48.854-.9-.2-.151-3.075-1.628-3.3-1.76a17.923,17.923,0,0,0-18.507.588l-3.042,1.927-13.027.468c-3.615-.052-5.254,2.477-5.283,4.49a5.876,5.876,0,0,0,.211,1.66l-8.11-3.746L10.487,50.963a4.868,4.868,0,0,0-6.624-2.046A4.466,4.466,0,0,0,1.44,55.035l10.3,22.508L33.528,90.019c4.78,2.737,9.35,5.141,15.124,5.141H59.164a41.563,41.563,0,0,0,9.55-1.113L68.889,94c5.782-1.361,30.864-1.236,32.022-.965" transform="translate(899.631 2653)" fill="#fff" stroke="#707070" stroke-width="1.8"/>
    <path id="Path_737" data-name="Path 737" d="M119.737,67.48c-2.6.51-41.029,5.019-48.854-.9-.2-.151-3.075-1.628-3.3-1.76a17.923,17.923,0,0,0-18.507.588l-3.042,1.927-13.027.468c-3.615-.052-5.254,2.477-5.283,4.49a5.876,5.876,0,0,0,.211,1.66l-8.11-3.746L10.487,50.963a4.868,4.868,0,0,0-6.624-2.046A4.466,4.466,0,0,0,1.44,55.035l10.3,22.508L33.528,90.019c4.78,2.737,9.35,5.141,15.124,5.141H59.164a41.563,41.563,0,0,0,9.55-1.113L68.889,94c5.782-1.361,30.864-1.236,32.022-.965" transform="translate(899.631 2653)" fill="none" stroke="#070707" stroke-linecap="square" stroke-linejoin="round" stroke-width="1.8"/>
    <path id="Path_738" data-name="Path 738" d="M59.3,78.168h-26.3a5.227,5.227,0,0,1-5.1-4.327" transform="translate(899.631 2653)" fill="#fff" stroke="#707070" stroke-width="1.8"/>
    <path id="Path_739" data-name="Path 739" d="M59.3,78.168h-26.3a5.227,5.227,0,0,1-5.1-4.327" transform="translate(899.631 2653)" fill="none" stroke="#070707" stroke-linecap="square" stroke-linejoin="round" stroke-width="1.8"/>
    <rect id="Rectangle_191" data-name="Rectangle 191" width="11.651" height="20.718" transform="translate(931.583 2680.659)" fill="#f9c228"/>
    <rect id="Rectangle_192" data-name="Rectangle 192" width="11.651" height="20.718" transform="translate(931.583 2680.659)" fill="#f9c228"/>
    <rect id="Rectangle_193" data-name="Rectangle 193" width="11.651" height="33.933" transform="translate(948.349 2667.444)" fill="#f9c228"/>
    <rect id="Rectangle_194" data-name="Rectangle 194" width="11.651" height="33.933" transform="translate(948.349 2667.444)" fill="#f9c228"/>
    <rect id="Rectangle_195" data-name="Rectangle 195" width="11.651" height="47.376" transform="translate(967.78 2654.001)" fill="#f9c228"/>
    <rect id="Rectangle_196" data-name="Rectangle 196" width="11.651" height="47.376" transform="translate(967.78 2654.001)" fill="#f9c228"/>
  </g>
</svg>
