<?xml version="1.0" encoding="utf-8"?>
<!-- Generator: Adobe Illustrator 21.0.2, SVG Export Plug-In . SVG Version: 6.00 Build 0)  -->
<svg version="1.1" id="Layer_1" xmlns="http://www.w3.org/2000/svg" xmlns:xlink="http://www.w3.org/1999/xlink" x="0px" y="0px"
	 viewBox="0 0 200 200" style="enable-background:new 0 0 200 200;" xml:space="preserve">
<style type="text/css">
	.st0{fill:#FFFFFF;}
	.st1{fill:#F7F7F7;}
	.st2{fill:#A5A5A5;}
	.st3{fill:#575656;}
	.st4{fill:#F9B51B;}
</style>
<g>
	<circle class="st0" cx="100" cy="100" r="100"/>
</g>
<g>
	<g>
		<g>
			<path class="st1" d="M132.8,40.9H70.6c-2.1,0-3.8,1.7-3.8,3.8v95.1c0,2.1,1.7,3.8,3.8,3.8h72.8c2.1,0,3.8-1.7,3.8-3.8V55.2
				C142.4,50.4,137.6,45.6,132.8,40.9z"/>
			<path class="st2" d="M143.4,144.6H70.6c-2.6,0-4.8-2.2-4.8-4.8V44.7c0-2.6,2.2-4.8,4.8-4.8h62.2c0.3,0,0.5,0.1,0.7,0.3
				c4.9,4.8,9.7,9.6,14.4,14.3c0.2,0.2,0.3,0.4,0.3,0.7v84.6C148.2,142.4,146,144.6,143.4,144.6z M70.6,41.9c-1.5,0-2.8,1.3-2.8,2.8
				v95.1c0,1.5,1.3,2.8,2.8,2.8h72.8c1.5,0,2.8-1.3,2.8-2.8V55.6c-4.5-4.5-9.1-9.1-13.8-13.7H70.6z"/>
		</g>
		<g>
			<path class="st2" d="M147.2,56.2h-10.5c-2.6,0-4.8-2.2-4.8-4.8V40.9c0-0.4,0.2-0.8,0.6-0.9c0.4-0.2,0.8-0.1,1.1,0.2l14.3,14.3
				c0.3,0.3,0.4,0.7,0.2,1.1C148,56,147.6,56.2,147.2,56.2z M133.9,43.3v8.1c0,1.5,1.3,2.8,2.8,2.8h8.1L133.9,43.3z"/>
		</g>
	</g>
	<g>
		<g>
			<g>
				<path class="st0" d="M118.9,50.2H56.6c-2.1,0-3.8,1.7-3.8,3.8v95.1c0,2.1,1.7,3.8,3.8,3.8h72.8c2.1,0,3.8-1.7,3.8-3.8V64.6
					C128.4,59.8,123.7,55,118.9,50.2z"/>
				<path class="st3" d="M129.4,153.9H56.6c-2.6,0-4.8-2.2-4.8-4.8V54c0-2.6,2.2-4.8,4.8-4.8h62.3c0.3,0,0.5,0.1,0.7,0.3
					c2.4,2.4,4.8,4.8,7.2,7.2c2.4,2.4,4.7,4.8,7.1,7.2c0.2,0.2,0.3,0.4,0.3,0.7v84.5C134.2,151.7,132,153.9,129.4,153.9z M56.6,51.2
					c-1.5,0-2.8,1.3-2.8,2.8v95.1c0,1.5,1.3,2.8,2.8,2.8h72.8c1.5,0,2.8-1.3,2.8-2.8V65c-2.3-2.3-4.6-4.6-6.8-6.9
					c-2.3-2.3-4.6-4.6-6.9-6.9H56.6z"/>
			</g>
			<g>
				<path class="st0" d="M118.9,50.2v10.5c0,2.1,1.7,3.8,3.8,3.8h10.5L118.9,50.2z"/>
				<path class="st3" d="M133.2,65.5h-10.5c-2.6,0-4.8-2.2-4.8-4.8V50.2c0-0.4,0.2-0.8,0.6-0.9c0.4-0.2,0.8-0.1,1.1,0.2l14.3,14.3
					c0.3,0.3,0.4,0.7,0.2,1.1C134,65.3,133.6,65.5,133.2,65.5z M119.9,52.6v8.1c0,1.5,1.3,2.8,2.8,2.8h8.1L119.9,52.6z"/>
			</g>
		</g>
		<g>
			<g>
				<g>
					<g>
						<path class="st1" d="M93,101.6l17.8,5.8c-3.2,9.8-13.8,15.2-23.6,12c-5.9-1.9-10.1-6.1-12-12L93,101.6z"/>
						<path class="st4" d="M93,121.3c-2,0-4.1-0.3-6.1-1c-6.2-2-10.7-6.5-12.6-12.6c-0.2-0.5,0.1-1.1,0.6-1.3l17.8-5.8
							c0.2-0.1,0.4-0.1,0.6,0l17.8,5.8c0.3,0.1,0.5,0.3,0.6,0.5s0.1,0.5,0.1,0.8C109,116,101.3,121.3,93,121.3z M76.5,108
							c1.9,5.1,5.7,8.7,11,10.4c9,2.9,18.6-1.7,22-10.4L93,102.7L76.5,108z"/>
					</g>
				</g>
			</g>
			<g>
				<g>
					<g>
						<path class="st0" d="M104,86.5c6.7,4.9,9.4,13.1,6.8,21L93,101.6"/>
						<path class="st3" d="M110.8,108.5c-0.1,0-0.2,0-0.3-0.1l-17.8-5.9c-0.5-0.2-0.8-0.7-0.6-1.3c0.2-0.5,0.7-0.8,1.3-0.6l16.8,5.6
							c1.9-7.1-0.6-14.5-6.7-18.9c-0.4-0.3-0.5-1-0.2-1.4c0.3-0.4,1-0.5,1.4-0.2c7.1,5.2,9.9,13.9,7.2,22.1
							c-0.1,0.3-0.3,0.5-0.5,0.6C111.1,108.5,111,108.5,110.8,108.5z"/>
					</g>
				</g>
			</g>
			<g>
				<g>
					<g>
						<path class="st1" d="M93,82.9c4.1,0,7.7,1.1,11,3.6l-11,15.1"/>
						<path class="st4" d="M93,102.6c-0.2,0-0.4-0.1-0.6-0.2c-0.4-0.3-0.5-1-0.2-1.4l10.4-14.3c-2.8-1.9-6-2.8-9.6-2.8
							c-0.6,0-1-0.4-1-1s0.4-1,1-1c4.4,0,8.2,1.2,11.6,3.8c0.4,0.3,0.5,0.9,0.2,1.4l-11,15.1C93.6,102.5,93.3,102.6,93,102.6z"/>
					</g>
				</g>
			</g>
			<g>
				<g>
					<g>
						<path class="st3" d="M75.2,108.4c-0.4,0-0.8-0.3-1-0.7c-1.6-5-1.2-10.3,1.2-15c2.4-4.7,6.5-8.2,11.5-9.8
							c2.3-0.7,4-0.9,6.1-0.9c0.6,0,1,0.4,1,1v18.7c0,0.4-0.3,0.8-0.7,1l-17.8,5.8C75.4,108.4,75.3,108.4,75.2,108.4z M92,83.9
							c-1.5,0.1-2.8,0.3-4.5,0.8c-4.5,1.5-8.1,4.6-10.3,8.8c-2,3.9-2.5,8.3-1.3,12.6l16.1-5.3V83.9z M93,101.6L93,101.6L93,101.6z"
							/>
					</g>
				</g>
			</g>
		</g>
		<g>
			<path class="st2" d="M113.3,66.6H72.7c-0.6,0-1-0.4-1-1s0.4-1,1-1h40.6c0.6,0,1,0.4,1,1S113.9,66.6,113.3,66.6z"/>
		</g>
		<g>
			<path class="st2" d="M113.3,74.7H72.7c-0.6,0-1-0.4-1-1s0.4-1,1-1h40.6c0.6,0,1,0.4,1,1S113.9,74.7,113.3,74.7z"/>
		</g>
		<g>
			<path class="st2" d="M113.3,130.6H72.7c-0.6,0-1-0.4-1-1s0.4-1,1-1h40.6c0.6,0,1,0.4,1,1S113.9,130.6,113.3,130.6z"/>
		</g>
		<g>
			<path class="st2" d="M113.3,138.6H72.7c-0.6,0-1-0.4-1-1s0.4-1,1-1h40.6c0.6,0,1,0.4,1,1S113.9,138.6,113.3,138.6z"/>
		</g>
	</g>
	<g>
		<polygon class="st0" points="97.7,164 97.7,149.6 88.3,149.6 88.3,164 83.9,164 93,173.1 102.2,164 		"/>
		<path class="st4" d="M93,174.1c-0.3,0-0.5-0.1-0.7-0.3l-9.1-9.1c-0.3-0.3-0.4-0.7-0.2-1.1s0.5-0.6,0.9-0.6h3.4v-13.4
			c0-0.6,0.4-1,1-1h9.4c0.6,0,1,0.4,1,1V163h3.5c0.4,0,0.8,0.2,0.9,0.6s0.1,0.8-0.2,1.1l-9.2,9.1C93.5,174,93.3,174.1,93,174.1z
			 M86.3,165l6.7,6.7l6.8-6.7h-2.1c-0.6,0-1-0.4-1-1v-13.4h-7.4V164c0,0.6-0.4,1-1,1H86.3z"/>
	</g>
</g>
</svg>
