<?xml version="1.0" encoding="utf-8"?>
<!-- Generator: Adobe Illustrator 21.0.2, SVG Export Plug-In . SVG Version: 6.00 Build 0)  -->
<svg version="1.1" id="Layer_1" xmlns="http://www.w3.org/2000/svg" xmlns:xlink="http://www.w3.org/1999/xlink" x="0px" y="0px"
	 viewBox="0 0 200 200" style="enable-background:new 0 0 200 200;" xml:space="preserve">
<style type="text/css">
	.st0{fill:#FFFFFF;}
	.st1{fill:#575656;}
	.st2{fill:#F7F7F7;}
	.st3{fill:#F9B51B;}
</style>
<g>
	<g>
		<circle class="st0" cx="100" cy="100" r="100"/>
	</g>
	<g>
		<g>
			<g>
				<path class="st0" d="M142,140.6H97c-3.9,0-7.3-2.6-8.5-6.2H78.4V90.9h9.3l16.9-23.4V56.7c0-5,4-9,9-9c2.2,0,4.2,1.1,5.9,3.4
					c4.9,6.4,6.8,20.6,5.4,25.8c-0.5,1.7-1.4,4.4-2.8,7.9H150c5,0,9,4,9,9c0,3.1-1.6,6-4.2,7.6c1,1.5,1.5,3.2,1.5,5
					c0,3.1-1.6,6-4.2,7.6c1,1.5,1.5,3.2,1.5,5c0,3.1-1.6,6-4.2,7.6c1,1.5,1.5,3.2,1.5,5C151,136.6,146.9,140.6,142,140.6z"/>
				<path class="st1" d="M142,141.5H97c-4,0-7.6-2.5-9.1-6.2h-9.5c-0.5,0-0.9-0.4-0.9-0.9V90.9c0-0.5,0.4-0.9,0.9-0.9h8.8l16.5-22.8
					V56.7c0-5.5,4.4-9.9,9.9-9.9c2.5,0,4.8,1.3,6.6,3.8c5.1,6.6,7,21,5.5,26.6c-0.3,1.2-1.1,3.5-2.4,6.8H150c5.5,0,9.9,4.4,9.9,9.9
					c0,3.1-1.5,6-3.9,7.9c0.8,1.4,1.2,3,1.2,4.7c0,3.1-1.5,6-3.9,7.9c0.8,1.4,1.2,3,1.2,4.7c0,3.1-1.5,6-3.9,7.9
					c0.8,1.4,1.2,3,1.2,4.7c0.1,2.6-0.9,5.1-2.8,6.9C147.2,140.4,144.6,141.5,142,141.5z M79.3,133.5h9.2c0.4,0,0.7,0.2,0.8,0.6
					c1.1,3.3,4.2,5.6,7.7,5.6h45c2.1,0,4.2-0.9,5.8-2.4c1.5-1.5,2.3-3.5,2.3-5.7c0-1.7-0.5-3.2-1.3-4.5c-0.1-0.2-0.2-0.5-0.1-0.7
					c0.1-0.2,0.2-0.4,0.4-0.6c2.3-1.4,3.8-4.1,3.8-6.8c0-1.6-0.5-3.2-1.3-4.5c-0.1-0.2-0.2-0.5-0.1-0.7s0.2-0.4,0.4-0.6
					c2.3-1.4,3.8-4.1,3.8-6.8c0-1.6-0.5-3.2-1.3-4.5c-0.1-0.2-0.2-0.5-0.1-0.7c0.1-0.2,0.2-0.4,0.4-0.6c2.3-1.4,3.8-4.1,3.8-6.8
					c0-4.5-3.6-8.1-8.1-8.1h-27.9c-0.3,0-0.6-0.1-0.7-0.4c-0.2-0.2-0.2-0.6-0.1-0.8c1.6-3.9,2.4-6.6,2.8-7.8c1.4-5-0.5-18.8-5.3-25
					c-1.5-2-3.2-3-5.2-3c-4.5,0-8.1,3.6-8.1,8.1v10.8c0,0.2-0.1,0.4-0.2,0.5L88.4,91.4c-0.2,0.2-0.4,0.4-0.7,0.4h-8.4V133.5z"/>
			</g>
			<g>
				<path class="st2" d="M73.2,140.6H46.3c-2.9,0-5.2-2.4-5.2-5.2V90c0-2.9,2.4-5.2,5.2-5.2h26.8c2.9,0,5.2,2.4,5.2,5.2v45.4
					C78.4,138.3,76.1,140.6,73.2,140.6z"/>
				<path class="st1" d="M73.2,141.5H46.3c-3.4,0-6.1-2.7-6.1-6.1V90c0-3.4,2.7-6.1,6.1-6.1h26.8c3.4,0,6.1,2.7,6.1,6.1v45.4
					c0.1,1.6-0.5,3.1-1.6,4.3C76.4,140.8,74.9,141.5,73.2,141.5z M46.3,85.7c-2.4,0-4.3,1.9-4.3,4.3v45.4c0,2.4,1.9,4.3,4.3,4.3
					h26.9c1.2,0,2.3-0.5,3.1-1.3c0.8-0.8,1.2-1.9,1.1-3l0-45.4c0-2.4-1.9-4.3-4.3-4.3H46.3z"/>
			</g>
		</g>
		<g>
			<circle class="st1" cx="58.1" cy="99.1" r="4.9"/>
		</g>
		<g>
			<path class="st3" d="M111,123c-0.7,0-1.4-0.3-1.9-0.8l-12-11.9c-1.1-1-1.1-2.7,0-3.8c1-1.1,2.7-1.1,3.8,0l10.1,10l19.3-19.3
				c1-1,2.7-1,3.8,0c1,1,1,2.7,0,3.8l-21.2,21.2C112.4,122.7,111.7,123,111,123z"/>
		</g>
	</g>
</g>
</svg>
