<?xml version="1.0" encoding="utf-8"?>
<!-- Generator: Adobe Illustrator 21.0.2, SVG Export Plug-In . SVG Version: 6.00 Build 0)  -->
<svg version="1.1" id="Layer_1" xmlns="http://www.w3.org/2000/svg" xmlns:xlink="http://www.w3.org/1999/xlink" x="0px" y="0px"
	 viewBox="0 0 200 200" style="enable-background:new 0 0 200 200;" xml:space="preserve">
<style type="text/css">
	.st0{fill:#FFFFFF;}
	.st1{fill:#575656;}
	.st2{fill:#F7F7F7;}
	.st3{fill:#F9B51B;}
</style>
<g>
	<circle class="st0" cx="100" cy="100" r="100"/>
</g>
<g>
	<g>
		<path class="st0" d="M127.3,159.9H55.9c-3.3,0-5.9-2.7-5.9-5.9V42.8c0-3.3,2.7-5.9,5.9-5.9h71.4c3.3,0,5.9,2.7,5.9,5.9V154
			C133.2,157.3,130.6,159.9,127.3,159.9z"/>
		<path class="st1" d="M127.3,160.8H55.9c-3.7,0-6.8-3-6.8-6.8V42.8c0-3.7,3-6.8,6.8-6.8h71.4c3.7,0,6.8,3,6.8,6.8V154
			C134.1,157.8,131.1,160.8,127.3,160.8z M55.9,37.8c-2.8,0-5,2.2-5,5V154c0,2.8,2.2,5,5,5h71.4c2.8,0,5-2.2,5-5V42.8
			c0-2.8-2.3-5-5-5H55.9z"/>
	</g>
	<g>
		<path class="st2" d="M133.6,130.3v23.4c0,3.5-2.8,6.3-6.3,6.3H56.5c-3.5,0-6.3-2.8-6.3-6.3v-23.4"/>
		<path class="st1" d="M127.3,160.9H56.5c-4,0-7.2-3.2-7.2-7.2v-23.4c0-0.5,0.4-0.9,0.9-0.9s0.9,0.4,0.9,0.9v23.4
			c0,3,2.4,5.4,5.4,5.4h70.8c3,0,5.4-2.4,5.4-5.4v-23.4c0-0.5,0.4-0.9,0.9-0.9s0.9,0.4,0.9,0.9v23.4
			C134.5,157.7,131.3,160.9,127.3,160.9z"/>
	</g>
	<g>
		<path class="st1" d="M133.2,132.9H50c-0.5,0-0.9-0.4-0.9-0.9s0.4-0.9,0.9-0.9h83.2c0.5,0,0.9,0.4,0.9,0.9S133.7,132.9,133.2,132.9
			z"/>
	</g>
	<g>
		<circle class="st0" cx="91.6" cy="145.1" r="3.5"/>
		<path class="st1" d="M91.6,149.5c-2.4,0-4.4-2-4.4-4.4s2-4.4,4.4-4.4s4.4,2,4.4,4.4S94,149.5,91.6,149.5z M91.6,142.5
			c-1.4,0-2.6,1.2-2.6,2.6s1.2,2.6,2.6,2.6s2.6-1.2,2.6-2.6S93,142.5,91.6,142.5z"/>
	</g>
	<g>
		<path class="st3" d="M121.5,115.3H61.7c-0.5,0-0.9-0.4-0.9-0.9V95.5c0-0.5,0.4-0.9,0.9-0.9h59.8c0.5,0,0.9,0.4,0.9,0.9v18.9
			C122.4,114.9,122,115.3,121.5,115.3z"/>
	</g>
	<g>
		<path class="st2" d="M139.4,105.7l-11.8,10l-7.2-8.1c-2.4-2.7-6.6-3-9.4-0.5c-2.7,2.4-3,6.6-0.5,9.4l18.7,20.9
			c0.4,0.4,0.8,0.8,1.2,1.1l4.6,5.8l-10-2c-2.3-0.4-4.5,1-5,3.3l-0.8,3.9c-0.4,2.3,1,4.5,3.3,5l25.7,5.3
			c1.9,0.4,21.3-17.4,21.3-17.4c2.8-2.4,3.2-6.8,0.8-9.7L149,106.4C146.7,103.7,142.4,103.3,139.4,105.7z"/>
		<path class="st1" d="M148.2,160.7c0,0-0.1,0-0.1,0l-25.7-5.3c-2.7-0.6-4.5-3.2-4-6l0.8-3.9c0.6-2.7,3.2-4.5,6-4l7.7,1.5l-3-3.8
			c-0.4-0.3-0.8-0.7-1.2-1.1l-18.7-20.9c-1.4-1.5-2-3.5-1.9-5.5c0.1-2,1-3.8,2.5-5.2c1.5-1.4,3.5-2,5.5-1.9c2,0.1,3.8,1,5.2,2.5
			l6.6,7.5l11.1-9.4c0,0,0,0,0,0c3.3-2.7,8.2-2.3,10.8,0.8l21.3,26.3c2.7,3.3,2.3,8.2-0.9,10.9C157.3,154.8,150,160.7,148.2,160.7z
			 M148.4,158.9L148.4,158.9C148.4,158.9,148.4,158.9,148.4,158.9z M124.2,143.1c-1.6,0-3,1.1-3.3,2.7l-0.8,3.9
			c-0.3,1.8,0.8,3.6,2.6,4l25.6,5.3c1.7-0.5,11.8-9,20.6-17.2c2.5-2.1,2.8-6,0.7-8.5L148.3,107c-2-2.4-5.8-2.6-8.3-0.6l-11.8,10
			c-0.4,0.3-0.9,0.3-1.2-0.1l-7.2-8.1c-1-1.1-2.4-1.8-3.9-1.9c-1.5-0.1-3,0.4-4.2,1.5c-1.1,1-1.8,2.4-1.9,3.9
			c-0.1,1.5,0.4,3,1.5,4.2l18.7,20.9c0.4,0.4,0.7,0.7,1.1,1c0.1,0,0.1,0.1,0.2,0.2l4.6,5.8c0.2,0.3,0.3,0.7,0.1,1s-0.6,0.5-0.9,0.4
			l-10-2C124.6,143.1,124.4,143.1,124.2,143.1z"/>
	</g>
	<g>
		<g>
			<path class="st0" d="M79.7,100.9c0.5,0,1.1,0.1,1.4,0.2c0.4,0.1,0.7,0.3,1,0.4c0.3,0.2,0.4,0.4,0.5,0.7c0.1,0.3,0.2,0.6,0.2,1
				c0,0.2,0,0.4-0.1,0.6s-0.2,0.4-0.3,0.5c-0.2,0.2-0.3,0.4-0.5,0.4c-0.2,0.2-0.4,0.3-0.7,0.4c1.3,0.3,1.9,1,1.9,2
				c0,0.4-0.1,0.7-0.2,1.1c-0.2,0.4-0.4,0.6-0.6,0.8c-0.3,0.3-0.6,0.4-1,0.5s-0.8,0.2-1.3,0.2h-3.2v-8.9h2.9V100.9z M78.1,101.8v2.9
				h1.5c0.6,0,1.2-0.1,1.4-0.4c0.4-0.3,0.4-0.6,0.4-1.1s-0.2-0.9-0.4-1.2c-0.3-0.3-0.8-0.4-1.4-0.4h-1.5V101.8z M79.9,108.7
				c0.4,0,0.6,0,0.9-0.1s0.4-0.2,0.6-0.4c0.2-0.2,0.3-0.3,0.4-0.4c0.1-0.2,0.1-0.4,0.1-0.6c0-0.4-0.2-0.8-0.4-1.1
				c-0.3-0.3-0.8-0.4-1.4-0.4h-1.9v3H79.9L79.9,108.7z"/>
		</g>
		<g>
			<path class="st0" d="M90.7,108.7c0.4,0,0.7-0.1,1-0.2s0.5-0.3,0.7-0.5s0.4-0.4,0.4-0.8c0.1-0.3,0.2-0.6,0.2-1v-5.4h1.3v5.4
				c0,0.5-0.1,1-0.3,1.4c-0.2,0.4-0.4,0.8-0.7,1.2c-0.4,0.4-0.7,0.5-1.2,0.8c-0.4,0.2-1,0.3-1.5,0.3s-1.1-0.1-1.5-0.3
				c-0.4-0.2-0.8-0.4-1.2-0.8s-0.5-0.7-0.7-1.2c-0.2-0.4-0.3-0.9-0.3-1.4v-5.4h1.3v5.4c0,0.4,0.1,0.7,0.2,1s0.3,0.5,0.4,0.8
				c0.2,0.2,0.4,0.4,0.7,0.5C90,108.7,90.4,108.7,90.7,108.7z"/>
		</g>
		<g>
			<path class="st0" d="M102.3,106.2v3.5H101v-3.5l-3.2-5.3H99c0.1,0,0.2,0,0.3,0.1c0.1,0.1,0.1,0.1,0.2,0.2l1.9,3.4
				c0.1,0.2,0.2,0.3,0.2,0.4s0.1,0.3,0.2,0.4c0.1-0.1,0.1-0.3,0.2-0.4s0.1-0.3,0.2-0.4l1.9-3.4c0-0.1,0.1-0.2,0.2-0.2
				c0.1-0.1,0.2-0.1,0.3-0.1h1.2L102.3,106.2z"/>
		</g>
	</g>
	<g>
		<path class="st3" d="M91.6,86.2c-8.1,0-14.7-6.6-14.7-14.7s6.6-14.7,14.7-14.7s14.7,6.6,14.7,14.7S99.7,86.2,91.6,86.2z M91.6,59
			c-6.9,0-12.5,5.6-12.5,12.5S84.7,84,91.6,84s12.5-5.6,12.5-12.5S98.5,59,91.6,59z"/>
	</g>
	<g>
		<g>
			<path class="st1" d="M92.3,70.3c0.4,0.1,0.9,0.3,1.2,0.4c0.4,0.2,0.8,0.4,1.2,0.6s0.6,0.5,0.8,0.9c0.2,0.4,0.3,0.8,0.3,1.3
				s-0.1,1.1-0.3,1.5s-0.4,0.9-0.8,1.2c-0.4,0.4-0.8,0.6-1.2,0.9c-0.5,0.3-1.1,0.4-1.7,0.4L91.7,79c0,0.1-0.1,0.3-0.2,0.4
				s-0.2,0.2-0.4,0.2h-0.6l0.2-1.9c-0.7-0.1-1.3-0.3-1.9-0.5c-0.6-0.3-1.2-0.6-1.5-1.1l0.5-0.8c0.1-0.1,0.1-0.1,0.2-0.2
				s0.2-0.1,0.3-0.1s0.3,0.1,0.4,0.2s0.4,0.3,0.5,0.4c0.2,0.2,0.4,0.3,0.7,0.4c0.3,0.2,0.6,0.3,1,0.3l0.4-4.5
				c-0.4-0.1-0.8-0.3-1.2-0.4c-0.4-0.2-0.8-0.4-1.1-0.6c-0.4-0.3-0.6-0.6-0.8-1s-0.3-0.9-0.3-1.4c0-0.4,0.1-0.9,0.3-1.2
				c0.2-0.4,0.4-0.8,0.7-1.2c0.3-0.4,0.7-0.6,1.2-0.8c0.5-0.2,1.1-0.4,1.7-0.4l0.1-1.2c0-0.1,0.1-0.3,0.2-0.4s0.2-0.2,0.4-0.2h0.6
				L93,64.8c0.6,0.1,1.2,0.3,1.6,0.5s0.9,0.5,1.2,0.9l-0.4,0.4c-0.1,0.2-0.3,0.3-0.4,0.3s-0.2,0-0.3-0.1s-0.3-0.2-0.4-0.3
				s-0.4-0.2-0.6-0.3C93.5,66.1,93.3,66,93,66L92.3,70.3z M91.6,66.1c-0.4,0-0.7,0.1-1,0.3c-0.3,0.1-0.5,0.3-0.7,0.4
				c-0.2,0.2-0.3,0.4-0.4,0.5c-0.1,0.2-0.1,0.4-0.1,0.7s0.1,0.5,0.2,0.7s0.3,0.4,0.4,0.5c0.1,0.2,0.4,0.3,0.6,0.4s0.4,0.2,0.7,0.4
				L91.6,66.1z M92,76.2c0.7-0.1,1.3-0.4,1.7-0.7c0.4-0.4,0.6-0.9,0.6-1.6c0-0.3-0.1-0.5-0.2-0.7s-0.3-0.4-0.4-0.5
				c-0.2-0.2-0.4-0.3-0.6-0.4c-0.3-0.1-0.5-0.2-0.8-0.3L92,76.2z"/>
		</g>
	</g>
</g>
</svg>
