<?xml version="1.0" encoding="utf-8"?>
<!-- Generator: Adobe Illustrator 21.0.2, SVG Export Plug-In . SVG Version: 6.00 Build 0)  -->
<svg version="1.1" id="Layer_1" xmlns="http://www.w3.org/2000/svg" xmlns:xlink="http://www.w3.org/1999/xlink" x="0px" y="0px"
	 viewBox="0 0 155.7 106.3" style="enable-background:new 0 0 155.7 106.3;" xml:space="preserve">
<style type="text/css">
	.st0{fill:#A5A5A5;}
	.st1{fill:#FFFFFF;}
	.st2{fill:#F9B51B;}
	.st3{fill:#575656;}
	.st4{fill:none;stroke:#575656;stroke-linecap:round;stroke-linejoin:round;stroke-miterlimit:10;}
</style>
<g>
	<g>
		<path class="st0" d="M119.8,5.5c0,0,0.1,0,0.2,0c0.1,0,0.3,0,0.5,0c0.5,0,1.1,0.1,1.8,0.3c0.7,0.2,1.5,0.5,2.3,0.8
			c0.8,0.4,1.6,0.9,2.4,1.4c0.8,0.5,1.5,1.1,2.1,1.8c0.6,0.6,1.1,1.3,1.5,1.9c0.2,0.3,0.3,0.6,0.5,0.8c0.1,0.3,0.2,0.5,0.3,0.7
			c0.1,0.2,0.1,0.4,0.2,0.5c0,0.1,0,0.2,0,0.2s-0.1,0-0.2,0c-0.1,0-0.3-0.1-0.5-0.1c-0.2-0.1-0.4-0.1-0.7-0.2
			c-0.3-0.1-0.6-0.2-0.9-0.3c-0.6-0.3-1.3-0.6-2-1c-0.7-0.4-1.4-0.9-2.2-1.4c-0.7-0.5-1.4-1.1-2-1.6c-0.6-0.6-1.2-1.1-1.7-1.6
			c-0.5-0.5-0.9-1-1.2-1.4c-0.1-0.2-0.2-0.3-0.3-0.4C119.9,5.5,119.8,5.5,119.8,5.5z"/>
	</g>
	<g>
		<g>
			<path class="st0" d="M122.5,16.4c0,0,0,0,0.1-0.1c0.1-0.1,0.2-0.2,0.3-0.3c0.2-0.2,0.6-0.5,1.1-0.7c0.5-0.2,1-0.4,1.6-0.5
				c0.6-0.1,1.3-0.1,2-0.1c0.7,0.1,1.5,0.2,2.2,0.5c0.7,0.2,1.4,0.6,2,0.9c0.3,0.2,0.6,0.4,0.8,0.5c0.2,0.2,0.4,0.3,0.6,0.5
				c0.2,0.1,0.3,0.3,0.4,0.4c0.1,0.1,0.1,0.1,0.1,0.1s0,0-0.1,0.1c-0.1,0-0.2,0.1-0.3,0.2c-0.1,0.1-0.3,0.2-0.5,0.2
				c-0.2,0.1-0.4,0.2-0.7,0.2c-0.5,0.1-1.1,0.2-1.7,0.3c-0.6,0-1.3,0-2-0.1c-0.7-0.1-1.4-0.2-2-0.4c-0.7-0.2-1.3-0.4-1.9-0.7
				c-0.6-0.2-1.1-0.5-1.4-0.7c-0.2-0.1-0.3-0.2-0.4-0.3C122.6,16.4,122.5,16.4,122.5,16.4z"/>
		</g>
		<g>
			<path class="st0" d="M131.9,4.1c0,0,0,0-0.1,0.1c0,0.1-0.1,0.2-0.2,0.3c-0.1,0.3-0.2,0.7-0.3,1.3c-0.1,0.5-0.1,1.2,0,1.8
				c0.1,0.7,0.3,1.4,0.5,2.2c0.2,0.7,0.5,1.5,0.8,2.2c0.3,0.7,0.7,1.4,1.1,2c0.2,0.3,0.4,0.6,0.5,0.8c0.2,0.3,0.3,0.5,0.5,0.7
				c0.1,0.2,0.3,0.3,0.3,0.4c0.1,0.1,0.1,0.2,0.1,0.2s0,0,0.1-0.1c0.1-0.1,0.1-0.2,0.2-0.3c0.1-0.1,0.2-0.3,0.3-0.5
				c0.1-0.2,0.2-0.4,0.3-0.7c0.2-0.5,0.3-1.1,0.3-1.8c0-0.7-0.1-1.4-0.3-2.2c-0.2-0.8-0.5-1.6-0.9-2.3c-0.4-0.8-0.9-1.5-1.3-2.1
				c-0.5-0.6-1-1.2-1.4-1.5c-0.2-0.2-0.4-0.3-0.5-0.4C132,4.2,131.9,4.1,131.9,4.1z"/>
		</g>
	</g>
	<g>
		<g>
			<path class="st0" d="M128.8,22.2c0,0,0,0,0.1-0.1c0.1,0,0.2-0.1,0.3-0.2c0.3-0.2,0.7-0.4,1.2-0.5c0.5-0.1,1.1-0.2,1.7-0.2
				c0.6,0,1.3,0.1,2,0.3c0.7,0.2,1.4,0.5,2,0.8c0.6,0.3,1.2,0.8,1.7,1.2c0.2,0.2,0.5,0.4,0.7,0.6c0.2,0.2,0.4,0.4,0.5,0.6
				c0.1,0.2,0.2,0.3,0.3,0.4c0.1,0.1,0.1,0.2,0.1,0.2s0,0-0.1,0.1c-0.1,0-0.2,0.1-0.4,0.1c-0.2,0.1-0.3,0.1-0.5,0.2
				c-0.2,0-0.4,0.1-0.7,0.1c-0.5,0.1-1.1,0-1.7,0c-0.6-0.1-1.3-0.2-1.9-0.4c-0.6-0.2-1.3-0.5-1.9-0.8c-0.6-0.3-1.2-0.6-1.7-1
				c-0.5-0.3-0.9-0.7-1.2-0.9c-0.1-0.1-0.3-0.2-0.3-0.3C128.8,22.2,128.8,22.2,128.8,22.2z"/>
		</g>
		<g>
			<path class="st0" d="M140.3,11.9c0,0,0,0-0.1,0.1c-0.1,0.1-0.1,0.2-0.2,0.3c-0.2,0.3-0.4,0.7-0.6,1.2c-0.2,0.5-0.3,1.1-0.3,1.8
				c-0.1,0.7,0,1.4,0,2.2c0.1,0.8,0.2,1.5,0.4,2.3c0.2,0.8,0.4,1.5,0.6,2.1c0.1,0.3,0.2,0.6,0.4,0.9c0.1,0.3,0.2,0.5,0.3,0.7
				c0.1,0.2,0.2,0.4,0.3,0.5c0.1,0.1,0.1,0.2,0.1,0.2s0,0,0.1-0.1c0.1-0.1,0.2-0.1,0.3-0.3c0.1-0.1,0.2-0.3,0.4-0.4
				c0.1-0.2,0.3-0.4,0.4-0.6c0.3-0.5,0.5-1,0.6-1.7c0.1-0.7,0.2-1.4,0.2-2.2c0-0.8-0.2-1.6-0.4-2.4c-0.2-0.8-0.5-1.6-0.9-2.3
				c-0.3-0.7-0.7-1.3-1-1.7c-0.1-0.2-0.3-0.4-0.4-0.5C140.4,12,140.3,11.9,140.3,11.9z"/>
		</g>
	</g>
	<g>
		<g>
			<path class="st0" d="M133.7,28.8c0,0,0,0,0.1-0.1c0.1,0,0.2-0.1,0.4-0.1c0.3-0.1,0.7-0.2,1.2-0.3c0.5-0.1,1.1,0,1.7,0.1
				c0.6,0.1,1.3,0.3,1.9,0.6c0.6,0.3,1.2,0.7,1.8,1.1c0.6,0.4,1,1,1.5,1.5c0.2,0.3,0.4,0.5,0.5,0.7c0.2,0.2,0.3,0.5,0.4,0.6
				c0.1,0.2,0.2,0.4,0.2,0.5c0.1,0.1,0.1,0.2,0.1,0.2s0,0-0.1,0c-0.1,0-0.2,0.1-0.4,0.1c-0.2,0-0.3,0-0.6,0.1c-0.2,0-0.5,0-0.7,0
				c-0.5,0-1.1-0.1-1.7-0.3c-0.6-0.2-1.2-0.4-1.8-0.7c-0.6-0.3-1.2-0.7-1.7-1.1c-0.5-0.4-1-0.8-1.4-1.2c-0.4-0.4-0.8-0.8-1-1.1
				c-0.1-0.1-0.2-0.3-0.3-0.4C133.8,28.9,133.7,28.8,133.7,28.8z"/>
		</g>
		<g>
			<path class="st0" d="M146.9,20.8c0,0,0,0-0.1,0.1c-0.1,0.1-0.2,0.1-0.3,0.3c-0.2,0.2-0.5,0.6-0.8,1.1c-0.3,0.5-0.5,1-0.7,1.7
				c-0.2,0.6-0.3,1.4-0.4,2.1c-0.1,0.7-0.1,1.5-0.1,2.3c0,0.8,0.1,1.5,0.2,2.2c0.1,0.3,0.1,0.7,0.2,0.9c0.1,0.3,0.1,0.5,0.2,0.8
				c0.1,0.2,0.1,0.4,0.2,0.5c0,0.1,0.1,0.2,0.1,0.2s0,0,0.1-0.1c0.1,0,0.2-0.1,0.3-0.2c0.1-0.1,0.3-0.2,0.4-0.4
				c0.2-0.1,0.3-0.3,0.5-0.5c0.3-0.4,0.7-0.9,0.9-1.5c0.3-0.6,0.5-1.3,0.6-2.1c0.1-0.8,0.1-1.6,0.1-2.4c-0.1-0.8-0.2-1.6-0.4-2.3
				c-0.2-0.7-0.5-1.4-0.7-1.8c-0.1-0.2-0.2-0.4-0.3-0.5C147,20.9,146.9,20.8,146.9,20.8z"/>
		</g>
	</g>
	<g>
		<g>
			<path class="st0" d="M137.3,36.1c0,0,0,0,0.1,0c0.1,0,0.2-0.1,0.4-0.1c0.3-0.1,0.8-0.1,1.3-0.1c0.5,0,1.1,0.1,1.6,0.4
				c0.6,0.2,1.2,0.5,1.7,0.9c0.6,0.4,1.1,0.9,1.6,1.4c0.5,0.5,0.9,1.1,1.2,1.7c0.2,0.3,0.3,0.6,0.4,0.8c0.1,0.3,0.2,0.5,0.3,0.7
				c0.1,0.2,0.1,0.4,0.1,0.5c0,0.1,0,0.2,0,0.2s-0.1,0-0.1,0c-0.1,0-0.2,0-0.4,0c-0.2,0-0.4,0-0.6,0c-0.2,0-0.4-0.1-0.7-0.1
				c-0.5-0.1-1-0.3-1.6-0.6c-0.6-0.3-1.1-0.6-1.6-1c-0.5-0.4-1-0.8-1.5-1.3c-0.5-0.5-0.9-1-1.2-1.4c-0.3-0.5-0.6-0.9-0.8-1.2
				c-0.1-0.2-0.2-0.3-0.2-0.4C137.3,36.2,137.3,36.1,137.3,36.1z"/>
		</g>
		<g>
			<path class="st0" d="M151.7,30.5c0,0,0,0-0.1,0.1c-0.1,0-0.2,0.1-0.3,0.2c-0.3,0.2-0.6,0.5-0.9,0.9c-0.3,0.4-0.7,0.9-1,1.5
				c-0.3,0.6-0.6,1.3-0.8,2c-0.2,0.7-0.4,1.5-0.5,2.2c-0.1,0.7-0.2,1.5-0.2,2.2c0,0.3,0,0.7,0,0.9c0,0.3,0,0.6,0,0.8
				c0,0.2,0,0.4,0.1,0.5c0,0.1,0,0.2,0,0.2s0.1,0,0.1,0c0.1,0,0.2-0.1,0.4-0.1c0.1-0.1,0.3-0.2,0.5-0.3c0.2-0.1,0.4-0.3,0.6-0.4
				c0.4-0.3,0.8-0.8,1.2-1.3c0.4-0.5,0.7-1.2,0.9-1.9c0.2-0.7,0.4-1.5,0.5-2.3c0.1-0.8,0.1-1.6,0-2.4c-0.1-0.7-0.2-1.4-0.3-1.9
				c-0.1-0.2-0.1-0.4-0.2-0.6C151.7,30.6,151.7,30.5,151.7,30.5z"/>
		</g>
	</g>
	<g>
		<g>
			<path class="st0" d="M139.4,43.8c0,0,0.1,0,0.1,0c0.1,0,0.2,0,0.4,0c0.3,0,0.8,0,1.2,0.2c0.5,0.1,1,0.3,1.6,0.6
				c0.5,0.3,1.1,0.7,1.5,1.2c0.5,0.5,0.9,1,1.3,1.6c0.4,0.6,0.7,1.2,0.9,1.8c0.1,0.3,0.2,0.6,0.2,0.9c0.1,0.3,0.1,0.5,0.1,0.7
				c0,0.2,0,0.4,0.1,0.5c0,0.1,0,0.2,0,0.2s-0.1,0-0.1,0c-0.1,0-0.2,0-0.4-0.1c-0.2,0-0.3-0.1-0.5-0.1c-0.2-0.1-0.4-0.1-0.7-0.3
				c-0.5-0.2-1-0.5-1.5-0.9c-0.5-0.4-1-0.8-1.4-1.3c-0.5-0.5-0.9-1-1.2-1.6c-0.4-0.5-0.7-1.1-0.9-1.6c-0.2-0.5-0.4-1-0.5-1.4
				c-0.1-0.2-0.1-0.3-0.1-0.4C139.4,43.9,139.4,43.8,139.4,43.8z"/>
		</g>
		<g>
			<path class="st0" d="M154.6,40.9c0,0-0.1,0-0.1,0c-0.1,0-0.2,0.1-0.4,0.1c-0.3,0.1-0.7,0.4-1.1,0.7c-0.4,0.3-0.8,0.8-1.2,1.3
				c-0.4,0.5-0.8,1.1-1.1,1.8c-0.3,0.7-0.6,1.4-0.9,2.1c-0.2,0.7-0.4,1.4-0.6,2.1c-0.1,0.3-0.1,0.6-0.2,0.9c0,0.3-0.1,0.5-0.1,0.8
				c0,0.2,0,0.4,0,0.5c0,0.1,0,0.2,0,0.2s0.1,0,0.1,0c0.1,0,0.2,0,0.4-0.1c0.2,0,0.3-0.1,0.5-0.2c0.2-0.1,0.4-0.2,0.6-0.3
				c0.5-0.3,0.9-0.6,1.4-1.1c0.5-0.5,0.9-1.1,1.3-1.7c0.4-0.7,0.7-1.4,0.9-2.2c0.2-0.8,0.4-1.6,0.4-2.3c0.1-0.7,0.1-1.4,0-1.9
				c0-0.2,0-0.5-0.1-0.6C154.6,41,154.6,40.9,154.6,40.9z"/>
		</g>
	</g>
	<g>
		<g>
			<path class="st0" d="M140.2,51.7c0,0,0.1,0,0.1,0c0.1,0,0.2,0,0.4,0.1c0.3,0.1,0.7,0.2,1.2,0.4c0.5,0.2,1,0.5,1.4,0.9
				c0.5,0.4,0.9,0.9,1.3,1.4c0.4,0.6,0.7,1.2,1,1.8c0.3,0.7,0.4,1.3,0.5,2c0,0.3,0.1,0.6,0.1,0.9c0,0.3,0,0.5,0,0.7
				c0,0.2,0,0.4,0,0.5c0,0.1,0,0.2,0,0.2s-0.1,0-0.1,0c-0.1,0-0.2-0.1-0.4-0.1c-0.2-0.1-0.3-0.1-0.5-0.2c-0.2-0.1-0.4-0.2-0.6-0.4
				c-0.4-0.3-0.9-0.7-1.3-1.1c-0.4-0.4-0.8-1-1.2-1.5c-0.4-0.6-0.7-1.2-0.9-1.8c-0.3-0.6-0.5-1.2-0.6-1.7c-0.2-0.5-0.2-1.1-0.3-1.4
				c0-0.2,0-0.3,0-0.4C140.2,51.8,140.2,51.7,140.2,51.7z"/>
		</g>
		<g>
			<path class="st0" d="M155.7,51.5c0,0-0.1,0-0.1,0c-0.1,0-0.2,0-0.4,0.1c-0.3,0.1-0.7,0.2-1.2,0.5c-0.5,0.3-1,0.6-1.4,1.1
				c-0.5,0.4-1,1-1.4,1.6c-0.4,0.6-0.9,1.2-1.2,1.9c-0.4,0.7-0.7,1.3-0.9,2c-0.1,0.3-0.2,0.6-0.3,0.9c-0.1,0.3-0.2,0.5-0.2,0.7
				c-0.1,0.2-0.1,0.4-0.1,0.5c0,0.1,0,0.2,0,0.2s0.1,0,0.1,0c0.1,0,0.2,0,0.4,0c0.2,0,0.4,0,0.6-0.1c0.2,0,0.4-0.1,0.7-0.2
				c0.5-0.2,1-0.4,1.6-0.8c0.5-0.4,1.1-0.9,1.5-1.5c0.5-0.6,0.9-1.3,1.3-2c0.4-0.7,0.6-1.5,0.8-2.2c0.2-0.7,0.3-1.4,0.3-1.9
				c0-0.2,0-0.5,0-0.6C155.7,51.6,155.7,51.5,155.7,51.5z"/>
		</g>
	</g>
	<g>
		<g>
			<path class="st0" d="M139.6,59.7c0,0,0.1,0,0.1,0c0.1,0,0.2,0.1,0.4,0.1c0.3,0.1,0.7,0.3,1.1,0.6c0.4,0.3,0.9,0.7,1.2,1.1
				c0.4,0.5,0.8,1,1,1.7c0.3,0.6,0.5,1.3,0.7,2c0.1,0.7,0.2,1.4,0.2,2c0,0.3,0,0.6-0.1,0.9c0,0.3-0.1,0.5-0.1,0.7
				c0,0.2-0.1,0.4-0.1,0.5c0,0.1-0.1,0.2-0.1,0.2s0,0-0.1-0.1c-0.1,0-0.2-0.1-0.3-0.2c-0.1-0.1-0.3-0.2-0.5-0.3
				c-0.2-0.1-0.3-0.3-0.5-0.5c-0.4-0.4-0.7-0.8-1.1-1.3c-0.3-0.5-0.6-1.1-0.9-1.7c-0.3-0.6-0.5-1.3-0.6-1.9
				c-0.2-0.6-0.3-1.3-0.3-1.8c-0.1-0.6-0.1-1.1,0-1.5c0-0.2,0-0.3,0-0.4C139.6,59.8,139.6,59.7,139.6,59.7z"/>
		</g>
		<g>
			<path class="st0" d="M154.9,62.2c0,0-0.1,0-0.1,0c-0.1,0-0.2,0-0.4,0c-0.3,0-0.8,0.1-1.3,0.3c-0.5,0.2-1,0.4-1.6,0.8
				c-0.6,0.4-1.1,0.8-1.7,1.3c-0.5,0.5-1.1,1.1-1.5,1.7c-0.5,0.6-0.9,1.2-1.2,1.8c-0.2,0.3-0.3,0.6-0.5,0.8
				c-0.1,0.3-0.3,0.5-0.3,0.7c-0.1,0.2-0.2,0.4-0.2,0.5c0,0.1-0.1,0.2-0.1,0.2s0,0,0.1,0c0.1,0,0.2,0.1,0.4,0.1c0.2,0,0.4,0,0.6,0
				c0.2,0,0.5,0,0.7-0.1c0.5-0.1,1.1-0.3,1.7-0.6c0.6-0.3,1.2-0.7,1.8-1.2c0.6-0.5,1.1-1.1,1.6-1.7c0.5-0.7,0.9-1.4,1.2-2
				c0.3-0.7,0.5-1.3,0.7-1.8c0.1-0.2,0.1-0.4,0.1-0.6C154.9,62.3,154.9,62.2,154.9,62.2z"/>
		</g>
	</g>
	<g>
		<g>
			<path class="st0" d="M137.7,67.5c0,0,0,0,0.1,0.1c0.1,0,0.2,0.1,0.3,0.2c0.3,0.2,0.6,0.4,1,0.8c0.4,0.4,0.7,0.8,1,1.3
				c0.3,0.5,0.6,1.2,0.7,1.8c0.2,0.7,0.3,1.4,0.3,2.1c0,0.7-0.1,1.4-0.2,2.1c-0.1,0.3-0.1,0.6-0.2,0.9c-0.1,0.3-0.2,0.5-0.3,0.7
				c-0.1,0.2-0.2,0.4-0.2,0.5c-0.1,0.1-0.1,0.2-0.1,0.2s0,0-0.1-0.1c-0.1-0.1-0.2-0.1-0.3-0.2c-0.1-0.1-0.3-0.2-0.4-0.4
				c-0.1-0.2-0.3-0.3-0.4-0.6c-0.3-0.4-0.6-0.9-0.8-1.5c-0.2-0.6-0.4-1.2-0.6-1.9c-0.1-0.7-0.2-1.3-0.3-2c0-0.7,0-1.3,0-1.9
				c0-0.6,0.1-1.1,0.2-1.5c0-0.2,0.1-0.3,0.1-0.4C137.7,67.5,137.7,67.5,137.7,67.5z"/>
		</g>
		<g>
			<path class="st0" d="M152.2,72.6c0,0,0,0-0.1,0c-0.1,0-0.2,0-0.4-0.1c-0.3,0-0.8,0-1.3,0.1c-0.5,0.1-1.1,0.3-1.7,0.5
				c-0.6,0.3-1.2,0.6-1.9,1c-0.6,0.4-1.2,0.9-1.8,1.4c-0.6,0.5-1.1,1-1.5,1.6c-0.2,0.3-0.4,0.5-0.6,0.7c-0.2,0.2-0.3,0.4-0.5,0.6
				c-0.1,0.2-0.2,0.4-0.3,0.5c-0.1,0.1-0.1,0.2-0.1,0.2s0,0,0.1,0.1c0.1,0,0.2,0.1,0.4,0.1c0.2,0,0.3,0.1,0.6,0.1
				c0.2,0,0.5,0.1,0.7,0.1c0.5,0,1.1-0.1,1.8-0.3c0.6-0.2,1.3-0.5,2-0.9c0.7-0.4,1.3-0.9,1.9-1.5c0.6-0.6,1.1-1.2,1.5-1.8
				c0.4-0.6,0.8-1.2,1-1.7c0.1-0.2,0.2-0.4,0.2-0.6C152.2,72.7,152.2,72.6,152.2,72.6z"/>
		</g>
	</g>
	<g>
		<g>
			<path class="st0" d="M134.3,74.8c0,0,0,0,0.1,0.1c0.1,0.1,0.2,0.1,0.3,0.2c0.2,0.2,0.6,0.5,0.8,0.9c0.3,0.4,0.6,0.9,0.8,1.5
				c0.2,0.6,0.3,1.2,0.4,1.9c0,0.7,0,1.4-0.1,2.1c-0.1,0.7-0.3,1.4-0.6,2c-0.1,0.3-0.3,0.6-0.4,0.8c-0.1,0.3-0.3,0.5-0.4,0.7
				c-0.1,0.2-0.2,0.3-0.3,0.4c-0.1,0.1-0.1,0.2-0.1,0.2s0,0-0.1-0.1c-0.1-0.1-0.2-0.2-0.2-0.3c-0.1-0.1-0.2-0.3-0.3-0.5
				c-0.1-0.2-0.2-0.4-0.3-0.6c-0.2-0.5-0.4-1-0.5-1.6c-0.1-0.6-0.2-1.3-0.2-2c0-0.7,0-1.4,0.1-2c0.1-0.7,0.2-1.3,0.4-1.9
				c0.2-0.6,0.3-1.1,0.5-1.4c0.1-0.2,0.1-0.3,0.2-0.4C134.3,74.9,134.3,74.8,134.3,74.8z"/>
		</g>
		<g>
			<path class="st0" d="M147.8,82.5c0,0,0,0-0.1-0.1c-0.1,0-0.2-0.1-0.4-0.1c-0.3-0.1-0.8-0.2-1.3-0.2c-0.5,0-1.1,0.1-1.8,0.2
				c-0.7,0.1-1.3,0.4-2,0.7c-0.7,0.3-1.4,0.7-2,1.1c-0.7,0.4-1.3,0.8-1.8,1.3c-0.3,0.2-0.5,0.4-0.8,0.6c-0.2,0.2-0.4,0.4-0.6,0.6
				c-0.2,0.2-0.3,0.3-0.4,0.4c-0.1,0.1-0.1,0.2-0.1,0.2s0,0,0.1,0.1c0.1,0,0.2,0.1,0.3,0.2c0.1,0.1,0.3,0.1,0.5,0.2
				c0.2,0.1,0.4,0.1,0.7,0.2c0.5,0.1,1.1,0.1,1.8,0.1c0.7-0.1,1.4-0.3,2.1-0.5c0.7-0.3,1.5-0.7,2.2-1.1c0.7-0.5,1.3-1,1.9-1.5
				c0.5-0.5,1-1.1,1.3-1.5c0.2-0.2,0.3-0.4,0.3-0.5C147.7,82.6,147.8,82.5,147.8,82.5z"/>
		</g>
	</g>
	<g>
		<g>
			<path class="st0" d="M129.6,81.6c0,0,0,0,0.1,0.1c0.1,0.1,0.2,0.2,0.3,0.3c0.2,0.3,0.4,0.6,0.6,1.1c0.2,0.5,0.4,1,0.5,1.6
				c0.1,0.6,0.1,1.3,0,2c-0.1,0.7-0.3,1.4-0.6,2.1c-0.3,0.7-0.6,1.3-1,1.9c-0.2,0.3-0.4,0.5-0.6,0.8c-0.2,0.2-0.4,0.4-0.5,0.6
				c-0.2,0.2-0.3,0.3-0.4,0.4c-0.1,0.1-0.2,0.1-0.2,0.1s0,0-0.1-0.1c0-0.1-0.1-0.2-0.2-0.3c-0.1-0.1-0.1-0.3-0.2-0.5
				c-0.1-0.2-0.1-0.4-0.2-0.7c-0.1-0.5-0.2-1.1-0.2-1.7c0-0.6,0.1-1.3,0.2-2c0.1-0.7,0.3-1.4,0.5-2c0.2-0.6,0.5-1.3,0.8-1.8
				c0.3-0.5,0.5-1,0.8-1.3c0.1-0.2,0.2-0.3,0.3-0.4C129.6,81.6,129.6,81.6,129.6,81.6z"/>
		</g>
		<g>
			<path class="st0" d="M141.4,91.5c0,0,0,0-0.1-0.1c-0.1,0-0.2-0.1-0.3-0.2c-0.3-0.1-0.7-0.3-1.2-0.4c-0.5-0.1-1.1-0.1-1.8-0.1
				c-0.7,0-1.4,0.2-2.2,0.3c-0.8,0.2-1.5,0.4-2.3,0.7c-0.7,0.3-1.5,0.6-2.1,1c-0.3,0.2-0.6,0.3-0.9,0.5c-0.3,0.2-0.5,0.3-0.7,0.5
				c-0.2,0.1-0.4,0.3-0.5,0.3c-0.1,0.1-0.2,0.1-0.2,0.1s0,0,0.1,0.1c0.1,0.1,0.2,0.2,0.3,0.2c0.1,0.1,0.3,0.2,0.5,0.3
				c0.2,0.1,0.4,0.2,0.7,0.3c0.5,0.2,1.1,0.3,1.8,0.4c0.7,0,1.5,0,2.2-0.2c0.8-0.2,1.6-0.4,2.4-0.7c0.8-0.3,1.5-0.8,2.2-1.2
				c0.6-0.4,1.2-0.9,1.6-1.3c0.2-0.2,0.3-0.3,0.4-0.4C141.4,91.6,141.4,91.5,141.4,91.5z"/>
		</g>
	</g>
	<g>
		<g>
			<path class="st0" d="M123.5,87.5c0,0,0,0,0.1,0.1c0,0.1,0.1,0.2,0.2,0.3c0.1,0.3,0.3,0.7,0.4,1.2c0.1,0.5,0.2,1.1,0.1,1.7
				c0,0.6-0.2,1.3-0.4,2c-0.2,0.7-0.6,1.4-1,2c-0.4,0.6-0.9,1.2-1.5,1.7c-0.3,0.3-0.5,0.5-0.8,0.7c-0.2,0.2-0.5,0.4-0.7,0.5
				c-0.2,0.1-0.4,0.2-0.5,0.3c-0.1,0.1-0.2,0.1-0.2,0.1s0,0-0.1-0.1c0-0.1-0.1-0.2-0.1-0.4c0-0.2-0.1-0.3-0.1-0.6c0-0.2,0-0.5,0-0.7
				c0-0.5,0.1-1.1,0.2-1.8c0.1-0.6,0.4-1.3,0.7-2c0.3-0.7,0.6-1.3,1-1.9c0.4-0.6,0.8-1.2,1.2-1.7c0.4-0.5,0.8-0.9,1.1-1.2
				c0.1-0.1,0.3-0.3,0.4-0.3C123.5,87.5,123.5,87.5,123.5,87.5z"/>
		</g>
		<g>
			<path class="st0" d="M133.3,99.5c0,0,0,0-0.1-0.1c-0.1-0.1-0.2-0.2-0.3-0.2c-0.3-0.2-0.7-0.4-1.2-0.6c-0.5-0.2-1.1-0.3-1.8-0.4
				c-0.7-0.1-1.5-0.1-2.3,0c-0.8,0.1-1.6,0.2-2.4,0.3c-0.8,0.2-1.6,0.4-2.3,0.6c-0.4,0.1-0.7,0.2-1,0.4c-0.3,0.1-0.6,0.2-0.8,0.3
				c-0.2,0.1-0.4,0.2-0.6,0.3c-0.1,0.1-0.2,0.1-0.2,0.1s0,0,0.1,0.1c0.1,0.1,0.1,0.2,0.2,0.3c0.1,0.1,0.3,0.3,0.4,0.4
				c0.2,0.1,0.4,0.3,0.6,0.4c0.5,0.3,1.1,0.5,1.7,0.7c0.7,0.2,1.5,0.2,2.3,0.2c0.8,0,1.7-0.1,2.6-0.3c0.9-0.2,1.7-0.5,2.4-0.8
				c0.7-0.3,1.4-0.7,1.8-1c0.2-0.1,0.4-0.3,0.5-0.4C133.2,99.5,133.3,99.5,133.3,99.5z"/>
		</g>
	</g>
</g>
<g>
	<g>
		<path class="st0" d="M35.8,5.5c0,0-0.1,0-0.2,0c-0.1,0-0.3,0-0.5,0c-0.5,0-1.1,0.1-1.8,0.3C32.6,6,31.8,6.3,31,6.6
			C30.2,7,29.3,7.5,28.6,8c-0.8,0.5-1.5,1.1-2.1,1.8c-0.6,0.6-1.1,1.3-1.5,1.9c-0.2,0.3-0.3,0.6-0.5,0.8c-0.1,0.3-0.2,0.5-0.3,0.7
			c-0.1,0.2-0.1,0.4-0.2,0.5c0,0.1,0,0.2,0,0.2s0.1,0,0.2,0c0.1,0,0.3-0.1,0.5-0.1c0.2-0.1,0.4-0.1,0.7-0.2c0.3-0.1,0.6-0.2,0.9-0.3
			c0.6-0.3,1.3-0.6,2-1c0.7-0.4,1.4-0.9,2.2-1.4c0.7-0.5,1.4-1.1,2-1.6c0.6-0.6,1.2-1.1,1.7-1.6c0.5-0.5,0.9-1,1.2-1.4
			c0.1-0.2,0.2-0.3,0.3-0.4C35.8,5.5,35.8,5.5,35.8,5.5z"/>
	</g>
	<g>
		<g>
			<path class="st0" d="M33.1,16.4c0,0,0,0-0.1-0.1c-0.1-0.1-0.2-0.2-0.3-0.3c-0.2-0.2-0.6-0.5-1.1-0.7c-0.5-0.2-1-0.4-1.6-0.5
				c-0.6-0.1-1.3-0.1-2-0.1c-0.7,0.1-1.5,0.2-2.2,0.5c-0.7,0.2-1.4,0.6-2,0.9c-0.3,0.2-0.6,0.4-0.8,0.5c-0.2,0.2-0.4,0.3-0.6,0.5
				c-0.2,0.1-0.3,0.3-0.4,0.4c-0.1,0.1-0.1,0.1-0.1,0.1s0,0,0.1,0.1c0.1,0,0.2,0.1,0.3,0.2c0.1,0.1,0.3,0.2,0.5,0.2
				c0.2,0.1,0.4,0.2,0.7,0.2c0.5,0.1,1.1,0.2,1.7,0.3c0.6,0,1.3,0,2-0.1c0.7-0.1,1.4-0.2,2-0.4c0.7-0.2,1.3-0.4,1.9-0.7
				c0.6-0.2,1.1-0.5,1.4-0.7c0.2-0.1,0.3-0.2,0.4-0.3C33.1,16.4,33.1,16.4,33.1,16.4z"/>
		</g>
		<g>
			<path class="st0" d="M23.8,4.1c0,0,0,0,0.1,0.1c0,0.1,0.1,0.2,0.2,0.3c0.1,0.3,0.2,0.7,0.3,1.3c0.1,0.5,0.1,1.2,0,1.8
				c-0.1,0.7-0.3,1.4-0.5,2.2c-0.2,0.7-0.5,1.5-0.8,2.2c-0.3,0.7-0.7,1.4-1.1,2c-0.2,0.3-0.4,0.6-0.5,0.8c-0.2,0.3-0.3,0.5-0.5,0.7
				c-0.1,0.2-0.3,0.3-0.3,0.4c-0.1,0.1-0.1,0.2-0.1,0.2s0,0-0.1-0.1c-0.1-0.1-0.1-0.2-0.2-0.3c-0.1-0.1-0.2-0.3-0.3-0.5
				c-0.1-0.2-0.2-0.4-0.3-0.7c-0.2-0.5-0.3-1.1-0.3-1.8c0-0.7,0.1-1.4,0.3-2.2c0.2-0.8,0.5-1.6,0.9-2.3c0.4-0.8,0.9-1.5,1.3-2.1
				c0.5-0.6,1-1.2,1.4-1.5c0.2-0.2,0.4-0.3,0.5-0.4C23.7,4.2,23.8,4.1,23.8,4.1z"/>
		</g>
	</g>
	<g>
		<g>
			<path class="st0" d="M26.9,22.2c0,0,0,0-0.1-0.1c-0.1,0-0.2-0.1-0.3-0.2c-0.3-0.2-0.7-0.4-1.2-0.5c-0.5-0.1-1.1-0.2-1.7-0.2
				c-0.6,0-1.3,0.1-2,0.3c-0.7,0.2-1.4,0.5-2,0.8c-0.6,0.3-1.2,0.8-1.7,1.2c-0.2,0.2-0.5,0.4-0.7,0.6c-0.2,0.2-0.4,0.4-0.5,0.6
				c-0.1,0.2-0.2,0.3-0.3,0.4c-0.1,0.1-0.1,0.2-0.1,0.2s0,0,0.1,0.1c0.1,0,0.2,0.1,0.4,0.1c0.2,0.1,0.3,0.1,0.5,0.2
				c0.2,0,0.4,0.1,0.7,0.1c0.5,0.1,1.1,0,1.7,0c0.6-0.1,1.3-0.2,1.9-0.4c0.6-0.2,1.3-0.5,1.9-0.8c0.6-0.3,1.2-0.6,1.7-1
				c0.5-0.3,0.9-0.7,1.2-0.9c0.1-0.1,0.3-0.2,0.3-0.3C26.8,22.2,26.9,22.2,26.9,22.2z"/>
		</g>
		<g>
			<path class="st0" d="M15.3,11.9c0,0,0,0,0.1,0.1c0.1,0.1,0.1,0.2,0.2,0.3c0.2,0.3,0.4,0.7,0.6,1.2c0.2,0.5,0.3,1.1,0.3,1.8
				c0.1,0.7,0,1.4,0,2.2c-0.1,0.8-0.2,1.5-0.4,2.3c-0.2,0.8-0.4,1.5-0.6,2.1c-0.1,0.3-0.2,0.6-0.4,0.9c-0.1,0.3-0.2,0.5-0.3,0.7
				c-0.1,0.2-0.2,0.4-0.3,0.5c-0.1,0.1-0.1,0.2-0.1,0.2s0,0-0.1-0.1c-0.1-0.1-0.2-0.1-0.3-0.3c-0.1-0.1-0.2-0.3-0.4-0.4
				c-0.1-0.2-0.3-0.4-0.4-0.6c-0.3-0.5-0.5-1-0.6-1.7c-0.1-0.7-0.2-1.4-0.2-2.2c0-0.8,0.2-1.6,0.4-2.4c0.2-0.8,0.5-1.6,0.9-2.3
				c0.3-0.7,0.7-1.3,1-1.7c0.1-0.2,0.3-0.4,0.4-0.5C15.3,12,15.3,11.9,15.3,11.9z"/>
		</g>
	</g>
	<g>
		<g>
			<path class="st0" d="M21.9,28.8c0,0,0,0-0.1-0.1c-0.1,0-0.2-0.1-0.4-0.1c-0.3-0.1-0.7-0.2-1.2-0.3c-0.5-0.1-1.1,0-1.7,0.1
				c-0.6,0.1-1.3,0.3-1.9,0.6c-0.6,0.3-1.2,0.7-1.8,1.1c-0.6,0.4-1,1-1.5,1.5c-0.2,0.3-0.4,0.5-0.5,0.7c-0.2,0.2-0.3,0.5-0.4,0.6
				c-0.1,0.2-0.2,0.4-0.2,0.5c-0.1,0.1-0.1,0.2-0.1,0.2s0,0,0.1,0c0.1,0,0.2,0.1,0.4,0.1c0.2,0,0.3,0,0.6,0.1c0.2,0,0.5,0,0.7,0
				c0.5,0,1.1-0.1,1.7-0.3c0.6-0.2,1.2-0.4,1.8-0.7c0.6-0.3,1.2-0.7,1.7-1.1c0.5-0.4,1-0.8,1.4-1.2c0.4-0.4,0.8-0.8,1-1.1
				c0.1-0.1,0.2-0.3,0.3-0.4C21.9,28.9,21.9,28.8,21.9,28.8z"/>
		</g>
		<g>
			<path class="st0" d="M8.7,20.8c0,0,0,0,0.1,0.1C8.9,20.9,9,21,9.1,21.1c0.2,0.2,0.5,0.6,0.8,1.1c0.3,0.5,0.5,1,0.7,1.7
				c0.2,0.6,0.3,1.4,0.4,2.1c0.1,0.7,0.1,1.5,0.1,2.3c0,0.8-0.1,1.5-0.2,2.2c-0.1,0.3-0.1,0.7-0.2,0.9c-0.1,0.3-0.1,0.5-0.2,0.8
				c-0.1,0.2-0.1,0.4-0.2,0.5c0,0.1-0.1,0.2-0.1,0.2s0,0-0.1-0.1c-0.1,0-0.2-0.1-0.3-0.2c-0.1-0.1-0.3-0.2-0.4-0.4
				c-0.2-0.1-0.3-0.3-0.5-0.5c-0.3-0.4-0.7-0.9-0.9-1.5c-0.3-0.6-0.5-1.3-0.6-2.1c-0.1-0.8-0.1-1.6-0.1-2.4c0.1-0.8,0.2-1.6,0.4-2.3
				c0.2-0.7,0.5-1.4,0.7-1.8c0.1-0.2,0.2-0.4,0.3-0.5C8.7,20.9,8.7,20.8,8.7,20.8z"/>
		</g>
	</g>
	<g>
		<g>
			<path class="st0" d="M18.4,36.1c0,0,0,0-0.1,0C18.2,36,18,36,17.9,36c-0.3-0.1-0.8-0.1-1.3-0.1c-0.5,0-1.1,0.1-1.6,0.4
				c-0.6,0.2-1.2,0.5-1.7,0.9c-0.6,0.4-1.1,0.9-1.6,1.4c-0.5,0.5-0.9,1.1-1.2,1.7c-0.2,0.3-0.3,0.6-0.4,0.8
				c-0.1,0.3-0.2,0.5-0.3,0.7c-0.1,0.2-0.1,0.4-0.1,0.5c0,0.1,0,0.2,0,0.2s0.1,0,0.1,0c0.1,0,0.2,0,0.4,0c0.2,0,0.4,0,0.6,0
				c0.2,0,0.4-0.1,0.7-0.1c0.5-0.1,1-0.3,1.6-0.6c0.6-0.3,1.1-0.6,1.6-1c0.5-0.4,1-0.8,1.5-1.3c0.5-0.5,0.9-1,1.2-1.4
				c0.3-0.5,0.6-0.9,0.8-1.2c0.1-0.2,0.2-0.3,0.2-0.4C18.4,36.2,18.4,36.1,18.4,36.1z"/>
		</g>
		<g>
			<path class="st0" d="M4,30.5c0,0,0,0,0.1,0.1c0.1,0,0.2,0.1,0.3,0.2C4.7,31,5,31.3,5.4,31.7c0.3,0.4,0.7,0.9,1,1.5
				c0.3,0.6,0.6,1.3,0.8,2c0.2,0.7,0.4,1.5,0.5,2.2c0.1,0.7,0.2,1.5,0.2,2.2c0,0.3,0,0.7,0,0.9c0,0.3,0,0.6,0,0.8
				c0,0.2,0,0.4-0.1,0.5c0,0.1,0,0.2,0,0.2s-0.1,0-0.1,0c-0.1,0-0.2-0.1-0.4-0.1c-0.1-0.1-0.3-0.2-0.5-0.3c-0.2-0.1-0.4-0.3-0.6-0.4
				c-0.4-0.3-0.8-0.8-1.2-1.3c-0.4-0.5-0.7-1.2-0.9-1.9c-0.2-0.7-0.4-1.5-0.5-2.3c-0.1-0.8-0.1-1.6,0-2.4c0.1-0.7,0.2-1.4,0.3-1.9
				c0.1-0.2,0.1-0.4,0.2-0.6C3.9,30.6,4,30.5,4,30.5z"/>
		</g>
	</g>
	<g>
		<g>
			<path class="st0" d="M16.2,43.8c0,0-0.1,0-0.1,0c-0.1,0-0.2,0-0.4,0c-0.3,0-0.8,0-1.2,0.2c-0.5,0.1-1,0.3-1.6,0.6
				c-0.5,0.3-1.1,0.7-1.5,1.2c-0.5,0.5-0.9,1-1.3,1.6c-0.4,0.6-0.7,1.2-0.9,1.8C9.1,49.6,9,49.8,9,50.1c-0.1,0.3-0.1,0.5-0.1,0.7
				c0,0.2,0,0.4-0.1,0.5c0,0.1,0,0.2,0,0.2s0.1,0,0.1,0c0.1,0,0.2,0,0.4-0.1c0.2,0,0.3-0.1,0.5-0.1c0.2-0.1,0.4-0.1,0.7-0.3
				c0.5-0.2,1-0.5,1.5-0.9c0.5-0.4,1-0.8,1.4-1.3c0.5-0.5,0.9-1,1.2-1.6c0.4-0.5,0.7-1.1,0.9-1.6c0.2-0.5,0.4-1,0.5-1.4
				c0.1-0.2,0.1-0.3,0.1-0.4C16.2,43.9,16.2,43.8,16.2,43.8z"/>
		</g>
		<g>
			<path class="st0" d="M1.1,40.9c0,0,0.1,0,0.1,0c0.1,0,0.2,0.1,0.4,0.1c0.3,0.1,0.7,0.4,1.1,0.7c0.4,0.3,0.8,0.8,1.2,1.3
				c0.4,0.5,0.8,1.1,1.1,1.8c0.3,0.7,0.6,1.4,0.9,2.1c0.2,0.7,0.4,1.4,0.6,2.1c0.1,0.3,0.1,0.6,0.2,0.9c0,0.3,0.1,0.5,0.1,0.8
				c0,0.2,0,0.4,0,0.5c0,0.1,0,0.2,0,0.2s-0.1,0-0.1,0c-0.1,0-0.2,0-0.4-0.1c-0.2,0-0.3-0.1-0.5-0.2C5.4,51.2,5.2,51.1,5,51
				c-0.5-0.3-0.9-0.6-1.4-1.1c-0.5-0.5-0.9-1.1-1.3-1.7c-0.4-0.7-0.7-1.4-0.9-2.2C1.2,45.2,1,44.4,1,43.6c-0.1-0.7-0.1-1.4,0-1.9
				c0-0.2,0-0.5,0.1-0.6C1,41,1.1,40.9,1.1,40.9z"/>
		</g>
	</g>
	<g>
		<g>
			<path class="st0" d="M15.4,51.7c0,0-0.1,0-0.1,0c-0.1,0-0.2,0-0.4,0.1c-0.3,0.1-0.7,0.2-1.2,0.4c-0.5,0.2-1,0.5-1.4,0.9
				c-0.5,0.4-0.9,0.9-1.3,1.4c-0.4,0.6-0.7,1.2-1,1.8c-0.3,0.7-0.4,1.3-0.5,2c0,0.3-0.1,0.6-0.1,0.9c0,0.3,0,0.5,0,0.7
				c0,0.2,0,0.4,0,0.5c0,0.1,0,0.2,0,0.2s0.1,0,0.1,0c0.1,0,0.2-0.1,0.4-0.1c0.2-0.1,0.3-0.1,0.5-0.2c0.2-0.1,0.4-0.2,0.6-0.4
				c0.4-0.3,0.9-0.7,1.3-1.1c0.4-0.4,0.8-1,1.2-1.5c0.4-0.6,0.7-1.2,0.9-1.8c0.3-0.6,0.5-1.2,0.6-1.7c0.2-0.5,0.2-1.1,0.3-1.4
				c0-0.2,0-0.3,0-0.4C15.4,51.8,15.4,51.7,15.4,51.7z"/>
		</g>
		<g>
			<path class="st0" d="M0,51.5c0,0,0.1,0,0.1,0c0.1,0,0.2,0,0.4,0.1c0.3,0.1,0.7,0.2,1.2,0.5c0.5,0.3,1,0.6,1.4,1.1
				c0.5,0.4,1,1,1.4,1.6C5,55.4,5.4,56,5.8,56.7c0.4,0.7,0.7,1.3,0.9,2C6.8,59,6.9,59.3,7,59.6c0.1,0.3,0.2,0.5,0.2,0.7
				c0.1,0.2,0.1,0.4,0.1,0.5c0,0.1,0,0.2,0,0.2s-0.1,0-0.1,0c-0.1,0-0.2,0-0.4,0c-0.2,0-0.4,0-0.6-0.1c-0.2,0-0.4-0.1-0.7-0.2
				c-0.5-0.2-1-0.4-1.6-0.8C3.5,59.5,3,59,2.5,58.4c-0.5-0.6-0.9-1.3-1.3-2c-0.4-0.7-0.6-1.5-0.8-2.2c-0.2-0.7-0.3-1.4-0.3-1.9
				c0-0.2,0-0.5,0-0.6C0,51.6,0,51.5,0,51.5z"/>
		</g>
	</g>
	<g>
		<g>
			<path class="st0" d="M16,59.7c0,0-0.1,0-0.1,0c-0.1,0-0.2,0.1-0.4,0.1c-0.3,0.1-0.7,0.3-1.1,0.6c-0.4,0.3-0.9,0.7-1.2,1.1
				c-0.4,0.5-0.8,1-1,1.7c-0.3,0.6-0.5,1.3-0.7,2c-0.1,0.7-0.2,1.4-0.2,2c0,0.3,0,0.6,0.1,0.9c0,0.3,0.1,0.5,0.1,0.7
				c0,0.2,0.1,0.4,0.1,0.5c0,0.1,0.1,0.2,0.1,0.2s0,0,0.1-0.1c0.1,0,0.2-0.1,0.3-0.2c0.1-0.1,0.3-0.2,0.5-0.3
				c0.2-0.1,0.3-0.3,0.5-0.5c0.4-0.4,0.7-0.8,1.1-1.3c0.3-0.5,0.6-1.1,0.9-1.7c0.3-0.6,0.5-1.3,0.6-1.9c0.2-0.6,0.3-1.3,0.3-1.8
				c0.1-0.6,0.1-1.1,0-1.5c0-0.2,0-0.3,0-0.4C16,59.8,16,59.7,16,59.7z"/>
		</g>
		<g>
			<path class="st0" d="M0.8,62.2c0,0,0.1,0,0.1,0c0.1,0,0.2,0,0.4,0c0.3,0,0.8,0.1,1.3,0.3c0.5,0.2,1,0.4,1.6,0.8
				c0.6,0.4,1.1,0.8,1.7,1.3c0.5,0.5,1.1,1.1,1.5,1.7c0.5,0.6,0.9,1.2,1.2,1.8c0.2,0.3,0.3,0.6,0.5,0.8c0.1,0.3,0.3,0.5,0.3,0.7
				c0.1,0.2,0.2,0.4,0.2,0.5c0,0.1,0.1,0.2,0.1,0.2s0,0-0.1,0c-0.1,0-0.2,0.1-0.4,0.1c-0.2,0-0.4,0-0.6,0c-0.2,0-0.5,0-0.7-0.1
				c-0.5-0.1-1.1-0.3-1.7-0.6c-0.6-0.3-1.2-0.7-1.8-1.2c-0.6-0.5-1.1-1.1-1.6-1.7c-0.5-0.7-0.9-1.4-1.2-2C1.3,64.1,1.1,63.5,1,63
				c-0.1-0.2-0.1-0.4-0.1-0.6C0.8,62.3,0.8,62.2,0.8,62.2z"/>
		</g>
	</g>
	<g>
		<g>
			<path class="st0" d="M18,67.5c0,0,0,0-0.1,0.1c-0.1,0-0.2,0.1-0.3,0.2c-0.3,0.2-0.6,0.4-1,0.8c-0.4,0.4-0.7,0.8-1,1.3
				c-0.3,0.5-0.6,1.2-0.7,1.8c-0.2,0.7-0.3,1.4-0.3,2.1c0,0.7,0.1,1.4,0.2,2.1c0.1,0.3,0.1,0.6,0.2,0.9c0.1,0.3,0.2,0.5,0.3,0.7
				c0.1,0.2,0.2,0.4,0.2,0.5c0.1,0.1,0.1,0.2,0.1,0.2s0,0,0.1-0.1c0.1-0.1,0.2-0.1,0.3-0.2c0.1-0.1,0.3-0.2,0.4-0.4
				c0.1-0.2,0.3-0.3,0.4-0.6c0.3-0.4,0.6-0.9,0.8-1.5c0.2-0.6,0.4-1.2,0.6-1.9c0.1-0.7,0.2-1.3,0.3-2c0-0.7,0-1.3,0-1.9
				c0-0.6-0.1-1.1-0.2-1.5c0-0.2-0.1-0.3-0.1-0.4C18,67.5,18,67.5,18,67.5z"/>
		</g>
		<g>
			<path class="st0" d="M3.4,72.6c0,0,0,0,0.1,0c0.1,0,0.2,0,0.4-0.1c0.3,0,0.8,0,1.3,0.1c0.5,0.1,1.1,0.3,1.7,0.5
				c0.6,0.3,1.2,0.6,1.9,1c0.6,0.4,1.2,0.9,1.8,1.4c0.6,0.5,1.1,1,1.5,1.6c0.2,0.3,0.4,0.5,0.6,0.7c0.2,0.2,0.3,0.4,0.5,0.6
				c0.1,0.2,0.2,0.4,0.3,0.5c0.1,0.1,0.1,0.2,0.1,0.2s0,0-0.1,0.1c-0.1,0-0.2,0.1-0.4,0.1c-0.2,0-0.3,0.1-0.6,0.1
				c-0.2,0-0.5,0.1-0.7,0.1c-0.5,0-1.1-0.1-1.8-0.3c-0.6-0.2-1.3-0.5-2-0.9c-0.7-0.4-1.3-0.9-1.9-1.5c-0.6-0.6-1.1-1.2-1.5-1.8
				c-0.4-0.6-0.8-1.2-1-1.7c-0.1-0.2-0.2-0.4-0.2-0.6C3.4,72.7,3.4,72.6,3.4,72.6z"/>
		</g>
	</g>
	<g>
		<g>
			<path class="st0" d="M21.3,74.8c0,0,0,0-0.1,0.1C21.1,75,21,75,20.9,75.1c-0.2,0.2-0.6,0.5-0.8,0.9c-0.3,0.4-0.6,0.9-0.8,1.5
				c-0.2,0.6-0.3,1.2-0.4,1.9c0,0.7,0,1.4,0.1,2.1c0.1,0.7,0.3,1.4,0.6,2c0.1,0.3,0.3,0.6,0.4,0.8c0.1,0.3,0.3,0.5,0.4,0.7
				c0.1,0.2,0.2,0.3,0.3,0.4c0.1,0.1,0.1,0.2,0.1,0.2s0,0,0.1-0.1c0.1-0.1,0.2-0.2,0.2-0.3c0.1-0.1,0.2-0.3,0.3-0.5
				c0.1-0.2,0.2-0.4,0.3-0.6c0.2-0.5,0.4-1,0.5-1.6c0.1-0.6,0.2-1.3,0.2-2c0-0.7,0-1.4-0.1-2c-0.1-0.7-0.2-1.3-0.4-1.9
				c-0.2-0.6-0.3-1.1-0.5-1.4c-0.1-0.2-0.1-0.3-0.2-0.4C21.3,74.9,21.3,74.8,21.3,74.8z"/>
		</g>
		<g>
			<path class="st0" d="M7.9,82.5c0,0,0,0,0.1-0.1c0.1,0,0.2-0.1,0.4-0.1c0.3-0.1,0.8-0.2,1.3-0.2c0.5,0,1.1,0.1,1.8,0.2
				c0.7,0.1,1.3,0.4,2,0.7c0.7,0.3,1.4,0.7,2,1.1c0.7,0.4,1.3,0.8,1.8,1.3c0.3,0.2,0.5,0.4,0.8,0.6c0.2,0.2,0.4,0.4,0.6,0.6
				c0.2,0.2,0.3,0.3,0.4,0.4c0.1,0.1,0.1,0.2,0.1,0.2s0,0-0.1,0.1c-0.1,0-0.2,0.1-0.3,0.2c-0.1,0.1-0.3,0.1-0.5,0.2
				c-0.2,0.1-0.4,0.1-0.7,0.2c-0.5,0.1-1.1,0.1-1.8,0.1c-0.7-0.1-1.4-0.3-2.1-0.5c-0.7-0.3-1.5-0.7-2.2-1.1c-0.7-0.5-1.3-1-1.9-1.5
				c-0.5-0.5-1-1.1-1.3-1.5C8.2,83,8.1,82.8,8,82.7C7.9,82.6,7.9,82.5,7.9,82.5z"/>
		</g>
	</g>
	<g>
		<g>
			<path class="st0" d="M26,81.6c0,0,0,0-0.1,0.1c-0.1,0.1-0.2,0.2-0.3,0.3c-0.2,0.3-0.4,0.6-0.6,1.1c-0.2,0.5-0.4,1-0.5,1.6
				c-0.1,0.6-0.1,1.3,0,2c0.1,0.7,0.3,1.4,0.6,2.1c0.3,0.7,0.6,1.3,1,1.9c0.2,0.3,0.4,0.5,0.6,0.8c0.2,0.2,0.4,0.4,0.5,0.6
				c0.2,0.2,0.3,0.3,0.4,0.4c0.1,0.1,0.2,0.1,0.2,0.1s0,0,0.1-0.1c0-0.1,0.1-0.2,0.2-0.3c0.1-0.1,0.1-0.3,0.2-0.5
				c0.1-0.2,0.1-0.4,0.2-0.7c0.1-0.5,0.2-1.1,0.2-1.7c0-0.6-0.1-1.3-0.2-2c-0.1-0.7-0.3-1.4-0.5-2c-0.2-0.6-0.5-1.3-0.8-1.8
				c-0.3-0.5-0.5-1-0.8-1.3c-0.1-0.2-0.2-0.3-0.3-0.4C26.1,81.6,26,81.6,26,81.6z"/>
		</g>
		<g>
			<path class="st0" d="M14.2,91.5c0,0,0,0,0.1-0.1c0.1,0,0.2-0.1,0.3-0.2c0.3-0.1,0.7-0.3,1.2-0.4c0.5-0.1,1.1-0.1,1.8-0.1
				c0.7,0,1.4,0.2,2.2,0.3c0.8,0.2,1.5,0.4,2.3,0.7c0.7,0.3,1.5,0.6,2.1,1c0.3,0.2,0.6,0.3,0.9,0.5c0.3,0.2,0.5,0.3,0.7,0.5
				c0.2,0.1,0.4,0.3,0.5,0.3c0.1,0.1,0.2,0.1,0.2,0.1s0,0-0.1,0.1c-0.1,0.1-0.2,0.2-0.3,0.2c-0.1,0.1-0.3,0.2-0.5,0.3
				c-0.2,0.1-0.4,0.2-0.7,0.3c-0.5,0.2-1.1,0.3-1.8,0.4c-0.7,0-1.5,0-2.2-0.2c-0.8-0.2-1.6-0.4-2.4-0.7c-0.8-0.3-1.5-0.8-2.2-1.2
				c-0.6-0.4-1.2-0.9-1.6-1.3c-0.2-0.2-0.3-0.3-0.4-0.4C14.3,91.6,14.2,91.5,14.2,91.5z"/>
		</g>
	</g>
	<g>
		<g>
			<path class="st0" d="M32.1,87.5c0,0,0,0-0.1,0.1c0,0.1-0.1,0.2-0.2,0.3c-0.1,0.3-0.3,0.7-0.4,1.2c-0.1,0.5-0.2,1.1-0.1,1.7
				c0,0.6,0.2,1.3,0.4,2c0.2,0.7,0.6,1.4,1,2c0.4,0.6,0.9,1.2,1.5,1.7c0.3,0.3,0.5,0.5,0.8,0.7c0.2,0.2,0.5,0.4,0.7,0.5
				c0.2,0.1,0.4,0.2,0.5,0.3c0.1,0.1,0.2,0.1,0.2,0.1s0,0,0.1-0.1c0-0.1,0.1-0.2,0.1-0.4c0-0.2,0.1-0.3,0.1-0.6c0-0.2,0-0.5,0-0.7
				c0-0.5-0.1-1.1-0.2-1.8c-0.1-0.6-0.4-1.3-0.7-2c-0.3-0.7-0.6-1.3-1-1.9c-0.4-0.6-0.8-1.2-1.2-1.7c-0.4-0.5-0.8-0.9-1.1-1.2
				c-0.1-0.1-0.3-0.3-0.4-0.3C32.2,87.5,32.1,87.5,32.1,87.5z"/>
		</g>
		<g>
			<path class="st0" d="M22.4,99.5c0,0,0,0,0.1-0.1c0.1-0.1,0.2-0.2,0.3-0.2c0.3-0.2,0.7-0.4,1.2-0.6c0.5-0.2,1.1-0.3,1.8-0.4
				c0.7-0.1,1.5-0.1,2.3,0c0.8,0.1,1.6,0.2,2.4,0.3c0.8,0.2,1.6,0.4,2.3,0.6c0.4,0.1,0.7,0.2,1,0.4c0.3,0.1,0.6,0.2,0.8,0.3
				c0.2,0.1,0.4,0.2,0.6,0.3c0.1,0.1,0.2,0.1,0.2,0.1s0,0-0.1,0.1c-0.1,0.1-0.1,0.2-0.2,0.3c-0.1,0.1-0.3,0.3-0.4,0.4
				c-0.2,0.1-0.4,0.3-0.6,0.4c-0.5,0.3-1.1,0.5-1.7,0.7c-0.7,0.2-1.5,0.2-2.3,0.2c-0.8,0-1.7-0.1-2.6-0.3c-0.9-0.2-1.7-0.5-2.4-0.8
				c-0.7-0.3-1.4-0.7-1.8-1c-0.2-0.1-0.4-0.3-0.5-0.4C22.4,99.5,22.4,99.5,22.4,99.5z"/>
		</g>
	</g>
</g>
<g>
	<path class="st1" d="M77.8,99.8c-25.7,0-46.7-20.9-46.7-46.7c0-25.7,20.9-46.7,46.7-46.7s46.7,20.9,46.7,46.7
		C124.5,78.9,103.6,99.8,77.8,99.8z"/>
</g>
<g>
	<path class="st2" d="M77.8,99.8c-25.7,0-46.7-20.9-46.7-46.7c0-25.7,20.9-46.7,46.7-46.7s46.7,20.9,46.7,46.7
		C124.5,78.9,103.6,99.8,77.8,99.8z M77.8,7.2c-25.3,0-45.9,20.6-45.9,45.9c0,25.3,20.6,45.9,45.9,45.9c25.3,0,45.9-20.6,45.9-45.9
		C123.8,27.8,103.1,7.2,77.8,7.2z"/>
</g>
<g>
	<path class="st0" d="M78.4,106.3l-0.1-5c0.3,0,0.6,0,1,0l0.1,5C79.1,106.3,78.7,106.3,78.4,106.3z M76.3,106.3c-0.4,0-0.7,0-1.1,0
		l0.2-5c0.3,0,0.6,0,0.9,0L76.3,106.3z M81.5,106.2l-0.3-5c0.3,0,0.6,0,0.9-0.1l0.4,5C82.2,106.1,81.9,106.2,81.5,106.2z
		 M73.2,106.1c-0.4,0-0.7-0.1-1-0.1l0.5-5c0.3,0,0.6,0.1,0.9,0.1L73.2,106.1z M84.7,105.9l-0.6-5c0.3,0,0.6-0.1,0.9-0.1l0.7,4.9
		C85.4,105.8,85,105.8,84.7,105.9z M70,105.7c-0.3-0.1-0.7-0.1-1-0.2l0.8-4.9c0.3,0.1,0.6,0.1,0.9,0.1L70,105.7z M87.8,105.4
		l-0.9-4.9c0.3-0.1,0.6-0.1,0.9-0.2l1,4.9C88.5,105.2,88.1,105.3,87.8,105.4z M66.9,105.2c-0.3-0.1-0.7-0.1-1-0.2l1.1-4.9
		c0.3,0.1,0.6,0.1,0.9,0.2L66.9,105.2z M90.9,104.7l-1.2-4.8c0.3-0.1,0.6-0.2,0.9-0.2l1.3,4.8C91.5,104.5,91.2,104.6,90.9,104.7z
		 M63.9,104.5c-0.3-0.1-0.7-0.2-1-0.3l1.4-4.8c0.3,0.1,0.6,0.2,0.9,0.3L63.9,104.5z M93.9,103.8l-1.5-4.8c0.3-0.1,0.6-0.2,0.9-0.3
		l1.6,4.7C94.6,103.6,94.2,103.7,93.9,103.8z M60.9,103.5c-0.3-0.1-0.7-0.2-1-0.3l1.7-4.7c0.3,0.1,0.6,0.2,0.9,0.3L60.9,103.5z
		 M96.9,102.8l-1.8-4.7c0.3-0.1,0.6-0.2,0.9-0.3l1.9,4.6C97.5,102.5,97.2,102.7,96.9,102.8z M57.9,102.4c-0.3-0.1-0.6-0.3-1-0.4
		l2-4.6c0.3,0.1,0.6,0.2,0.9,0.4L57.9,102.4z M99.8,101.6L97.7,97c0.3-0.1,0.6-0.3,0.9-0.4l2.2,4.5
		C100.4,101.3,100.1,101.4,99.8,101.6z M55,101.2c-0.3-0.2-0.6-0.3-0.9-0.5l2.2-4.5c0.3,0.1,0.6,0.3,0.9,0.4L55,101.2z M102.6,100.2
		l-2.3-4.4c0.3-0.1,0.6-0.3,0.8-0.5l2.4,4.4C103.2,99.9,102.9,100,102.6,100.2z M52.2,99.7c-0.3-0.2-0.6-0.3-0.9-0.5l2.5-4.3
		c0.3,0.2,0.6,0.3,0.8,0.5L52.2,99.7z M105.3,98.6l-2.6-4.3c0.3-0.2,0.5-0.3,0.8-0.5l2.7,4.2C105.9,98.3,105.6,98.5,105.3,98.6z
		 M49.5,98.1c-0.3-0.2-0.6-0.4-0.9-0.6l2.8-4.2c0.3,0.2,0.5,0.3,0.8,0.5L49.5,98.1z M108,96.9l-2.8-4.1c0.3-0.2,0.5-0.4,0.8-0.5
		l2.9,4.1C108.5,96.5,108.2,96.7,108,96.9z M46.9,96.4c-0.3-0.2-0.6-0.4-0.8-0.6l3-4c0.3,0.2,0.5,0.4,0.8,0.6L46.9,96.4z
		 M110.5,95.1l-3.1-3.9c0.3-0.2,0.5-0.4,0.7-0.6l3.2,3.9C111,94.6,110.8,94.9,110.5,95.1z M44.4,94.4c-0.3-0.2-0.5-0.4-0.8-0.7
		l3.2-3.8c0.2,0.2,0.5,0.4,0.7,0.6L44.4,94.4z M112.9,93.1l-3.3-3.8c0.2-0.2,0.5-0.4,0.7-0.6l3.4,3.7
		C113.4,92.6,113.2,92.8,112.9,93.1z M42,92.4c-0.3-0.2-0.5-0.5-0.8-0.7l3.4-3.6c0.2,0.2,0.5,0.4,0.7,0.6L42,92.4z M115.2,90.9
		l-3.5-3.5c0.2-0.2,0.4-0.4,0.7-0.7l3.6,3.5C115.7,90.4,115.5,90.7,115.2,90.9z M39.7,90.2c-0.2-0.3-0.5-0.5-0.7-0.8l3.7-3.4
		c0.2,0.2,0.4,0.5,0.7,0.7L39.7,90.2z M117.4,88.6l-3.7-3.3c0.2-0.2,0.4-0.5,0.6-0.7l3.8,3.3C117.9,88.1,117.6,88.4,117.4,88.6z
		 M37.6,87.9c-0.2-0.3-0.5-0.5-0.7-0.8l3.8-3.2c0.2,0.2,0.4,0.5,0.6,0.7L37.6,87.9z M119.4,86.2l-3.9-3.1c0.2-0.2,0.4-0.5,0.6-0.7
		l4,3C119.9,85.7,119.6,86,119.4,86.2z M35.6,85.4c-0.2-0.3-0.4-0.6-0.6-0.8l4-3c0.2,0.3,0.4,0.5,0.6,0.8L35.6,85.4z M121.3,83.7
		l-4.1-2.9c0.2-0.3,0.4-0.5,0.5-0.8l4.1,2.8C121.7,83.1,121.5,83.4,121.3,83.7z M33.8,82.9c-0.2-0.3-0.4-0.6-0.6-0.9l4.2-2.7
		c0.2,0.3,0.3,0.5,0.5,0.8L33.8,82.9z M123,81.1l-4.3-2.6c0.2-0.3,0.3-0.5,0.5-0.8l4.3,2.5C123.4,80.5,123.2,80.8,123,81.1z
		 M32.1,80.2c-0.2-0.3-0.4-0.6-0.5-0.9l4.4-2.5c0.2,0.3,0.3,0.5,0.5,0.8L32.1,80.2z M124.6,78.4l-4.4-2.4c0.2-0.3,0.3-0.6,0.4-0.8
		l4.4,2.3C125,77.7,124.8,78.1,124.6,78.4z M30.6,77.5c-0.2-0.3-0.3-0.6-0.5-0.9l4.5-2.2c0.1,0.3,0.3,0.6,0.4,0.8L30.6,77.5z
		 M126,75.5l-4.5-2.1c0.1-0.3,0.3-0.6,0.4-0.9l4.6,2C126.3,74.9,126.2,75.2,126,75.5z M29.2,74.7c-0.1-0.3-0.3-0.6-0.4-1l4.6-1.9
		c0.1,0.3,0.2,0.6,0.4,0.9L29.2,74.7z M127.3,72.6l-4.6-1.8c0.1-0.3,0.2-0.6,0.3-0.9l4.7,1.7C127.5,72,127.4,72.3,127.3,72.6z
		 M28,71.7c-0.1-0.3-0.2-0.7-0.4-1l4.7-1.7c0.1,0.3,0.2,0.6,0.3,0.9L28,71.7z M128.4,69.7l-4.8-1.6c0.1-0.3,0.2-0.6,0.3-0.9l4.8,1.5
		C128.6,69,128.5,69.3,128.4,69.7z M27,68.8c-0.1-0.3-0.2-0.7-0.3-1l4.8-1.4c0.1,0.3,0.2,0.6,0.3,0.9L27,68.8z M129.3,66.6l-4.8-1.3
		c0.1-0.3,0.2-0.6,0.2-0.9l4.9,1.2C129.4,66,129.3,66.3,129.3,66.6z M26.2,65.7c-0.1-0.3-0.2-0.7-0.2-1l4.9-1.1
		c0.1,0.3,0.1,0.6,0.2,0.9L26.2,65.7z M130,63.6l-4.9-1c0.1-0.3,0.1-0.6,0.2-0.9l4.9,0.9C130.1,62.9,130,63.2,130,63.6z M25.5,62.6
		c-0.1-0.3-0.1-0.7-0.2-1l4.9-0.8c0,0.3,0.1,0.6,0.2,0.9L25.5,62.6z M130.5,60.5l-5-0.7c0-0.3,0.1-0.6,0.1-0.9l5,0.6
		C130.6,59.8,130.5,60.1,130.5,60.5z M25.1,59.5c0-0.3-0.1-0.7-0.1-1l5-0.5c0,0.3,0.1,0.6,0.1,0.9L25.1,59.5z M130.8,57.3l-5-0.4
		c0-0.3,0-0.6,0.1-0.9l5,0.3C130.9,56.6,130.8,57,130.8,57.3z M24.8,56.4c0-0.3,0-0.7-0.1-1l5-0.2c0,0.3,0,0.6,0,1L24.8,56.4z
		 M131,54.2l-5-0.1c0-0.3,0-0.6,0-1l0-0.2h5l0,0.2C131,53.5,131,53.8,131,54.2z M26,53.2l-1.4,0c0-0.4,0-0.7,0-1l5,0.1
		c0,0.3,0,0.6,0,0.9L26,53.2z M125.9,51.1c0-0.3,0-0.6,0-1l5-0.3c0,0.3,0,0.7,0.1,1L125.9,51.1z M29.7,50.4l-5-0.3
		c0-0.3,0-0.7,0.1-1l5,0.4C29.8,49.8,29.8,50.1,29.7,50.4z M125.7,48.2c0-0.3-0.1-0.6-0.1-0.9l5-0.6c0,0.3,0.1,0.7,0.1,1L125.7,48.2
		z M30,47.5L25,47c0-0.3,0.1-0.7,0.1-1l5,0.7C30.1,46.9,30,47.2,30,47.5z M125.4,45.4c-0.1-0.3-0.1-0.6-0.2-0.9l4.9-0.9
		c0.1,0.3,0.1,0.7,0.2,1L125.4,45.4z M30.4,44.7l-4.9-0.9c0.1-0.3,0.1-0.7,0.2-1l4.9,1C30.5,44.1,30.5,44.4,30.4,44.7z M124.8,42.6
		c-0.1-0.3-0.1-0.6-0.2-0.9l4.9-1.2c0.1,0.3,0.2,0.7,0.2,1L124.8,42.6z M31,41.9l-4.9-1.2c0.1-0.3,0.2-0.7,0.3-1l4.8,1.3
		C31.1,41.3,31.1,41.6,31,41.9z M124.1,39.8c-0.1-0.3-0.2-0.6-0.3-0.9l4.8-1.5c0.1,0.3,0.2,0.7,0.3,1L124.1,39.8z M31.7,39.2
		l-4.8-1.4c0.1-0.3,0.2-0.7,0.3-1l4.8,1.5C31.9,38.6,31.8,38.9,31.7,39.2z M123.2,37.1c-0.1-0.3-0.2-0.6-0.3-0.9l4.7-1.8
		c0.1,0.3,0.2,0.7,0.4,1L123.2,37.1z M32.6,36.5L28,34.7c0.1-0.3,0.2-0.7,0.4-1l4.7,1.8C32.9,35.9,32.8,36.2,32.6,36.5z M122.2,34.5
		c-0.1-0.3-0.2-0.6-0.4-0.9l4.6-2c0.1,0.3,0.3,0.6,0.4,1L122.2,34.5z M33.7,33.8l-4.6-2c0.1-0.3,0.3-0.6,0.4-1l4.5,2.1
		C34,33.2,33.8,33.5,33.7,33.8z M121,31.9c-0.1-0.3-0.3-0.6-0.4-0.8l4.4-2.3c0.2,0.3,0.3,0.6,0.5,0.9L121,31.9z M34.9,31.2L30.5,29
		c0.2-0.3,0.3-0.6,0.5-0.9l4.4,2.4C35.2,30.7,35.1,30.9,34.9,31.2z M119.7,29.4c-0.2-0.3-0.3-0.5-0.5-0.8l4.3-2.6
		c0.2,0.3,0.4,0.6,0.5,0.9L119.7,29.4z M36.3,28.7L32,26.2c0.2-0.3,0.4-0.6,0.5-0.9l4.3,2.6C36.6,28.2,36.5,28.5,36.3,28.7z
		 M118.2,26.9c-0.2-0.3-0.3-0.5-0.5-0.8l4.1-2.8c0.2,0.3,0.4,0.6,0.6,0.9L118.2,26.9z M37.8,26.3l-4.1-2.8c0.2-0.3,0.4-0.6,0.6-0.9
		l4.1,2.9C38.2,25.8,38,26,37.8,26.3z M116.6,24.6c-0.2-0.3-0.4-0.5-0.6-0.8l4-3c0.2,0.3,0.4,0.6,0.6,0.8L116.6,24.6z M39.5,24l-4-3
		c0.2-0.3,0.4-0.6,0.6-0.8l3.9,3.1C39.9,23.5,39.7,23.7,39.5,24z M114.8,22.3c-0.2-0.2-0.4-0.5-0.6-0.7l3.8-3.3
		c0.2,0.3,0.5,0.5,0.7,0.8L114.8,22.3z M41.3,21.8l-3.8-3.3c0.2-0.3,0.5-0.5,0.7-0.8l3.7,3.3C41.7,21.3,41.5,21.5,41.3,21.8z
		 M112.9,20.2c-0.2-0.2-0.4-0.5-0.7-0.7l3.6-3.5c0.2,0.3,0.5,0.5,0.7,0.8L112.9,20.2z M43.2,19.7l-3.6-3.5c0.2-0.3,0.5-0.5,0.7-0.7
		l3.5,3.5C43.7,19.2,43.4,19.4,43.2,19.7z M110.9,18.2c-0.2-0.2-0.5-0.4-0.7-0.6l3.4-3.7c0.3,0.2,0.5,0.5,0.8,0.7L110.9,18.2z
		 M45.3,17.7L41.9,14c0.3-0.2,0.5-0.5,0.8-0.7L46,17C45.7,17.2,45.5,17.5,45.3,17.7z M108.8,16.3c-0.2-0.2-0.5-0.4-0.7-0.6l3.1-3.9
		c0.3,0.2,0.5,0.4,0.8,0.7L108.8,16.3z M47.4,15.8l-3.2-3.9c0.3-0.2,0.5-0.4,0.8-0.7l3.1,3.9C47.9,15.4,47.7,15.6,47.4,15.8z
		 M106.6,14.5c-0.3-0.2-0.5-0.4-0.8-0.6l2.9-4.1c0.3,0.2,0.6,0.4,0.8,0.6L106.6,14.5z M49.7,14.1L46.8,10c0.3-0.2,0.6-0.4,0.9-0.6
		l2.8,4.1C50.2,13.7,49.9,13.9,49.7,14.1z M104.2,12.9c-0.3-0.2-0.5-0.3-0.8-0.5l2.7-4.2c0.3,0.2,0.6,0.4,0.9,0.6L104.2,12.9z
		 M52,12.5l-2.7-4.2c0.3-0.2,0.6-0.4,0.9-0.6l2.6,4.3C52.6,12.1,52.3,12.3,52,12.5z M101.8,11.4c-0.3-0.2-0.6-0.3-0.8-0.5l2.4-4.4
		c0.3,0.2,0.6,0.3,0.9,0.5L101.8,11.4z M54.5,11l-2.4-4.4c0.3-0.2,0.6-0.3,0.9-0.5l2.3,4.4C55,10.7,54.8,10.9,54.5,11z M99.3,10
		c-0.3-0.1-0.6-0.3-0.9-0.4l2.1-4.5c0.3,0.2,0.6,0.3,1,0.5L99.3,10z M57,9.7l-2.2-4.5c0.3-0.1,0.6-0.3,0.9-0.4l2.1,4.5
		C57.6,9.4,57.3,9.6,57,9.7z M96.7,8.8c-0.3-0.1-0.6-0.2-0.9-0.4l1.9-4.6c0.3,0.1,0.6,0.3,1,0.4L96.7,8.8z M59.6,8.6l-1.9-4.6
		c0.3-0.1,0.6-0.3,1-0.4l1.8,4.7C60.2,8.3,59.9,8.4,59.6,8.6z M94,7.8c-0.3-0.1-0.6-0.2-0.9-0.3l1.6-4.7c0.3,0.1,0.7,0.2,1,0.3
		L94,7.8z M62.3,7.6l-1.6-4.7c0.3-0.1,0.7-0.2,1-0.3l1.5,4.8C62.9,7.4,62.6,7.5,62.3,7.6z M91.3,6.9c-0.3-0.1-0.6-0.2-0.9-0.3
		l1.3-4.8c0.3,0.1,0.7,0.2,1,0.3L91.3,6.9z M65,6.7l-1.3-4.8c0.3-0.1,0.7-0.2,1-0.3l1.2,4.8C65.6,6.6,65.3,6.6,65,6.7z M88.5,6.2
		c-0.3-0.1-0.6-0.1-0.9-0.2l1-4.9c0.3,0.1,0.7,0.1,1,0.2L88.5,6.2z M67.8,6l-1-4.9c0.3-0.1,0.7-0.1,1-0.2l0.9,4.9
		C68.4,5.9,68.1,6,67.8,6z M85.7,5.6c-0.3-0.1-0.6-0.1-0.9-0.1l0.7-4.9c0.3,0.1,0.7,0.1,1,0.2L85.7,5.6z M70.6,5.5l-0.7-4.9
		c0.3-0.1,0.7-0.1,1-0.1l0.7,5C71.2,5.4,70.9,5.5,70.6,5.5z M82.9,5.3c-0.3,0-0.6-0.1-0.9-0.1l0.4-5c0.3,0,0.7,0.1,1,0.1L82.9,5.3z
		 M73.4,5.2l-0.5-5c0.3,0,0.7-0.1,1-0.1l0.4,5C74.1,5.1,73.7,5.2,73.4,5.2z M80.1,5c-0.3,0-0.6,0-1,0l0.1-5c0.4,0,0.7,0,1,0L80.1,5z
		 M76.3,5l-0.2-5c0.3,0,0.7,0,1.1,0l0.1,5C76.9,5,76.6,5,76.3,5z"/>
</g>
<g>
	<polygon class="st2" points="77.8,71.7 79.9,75.9 84.5,76.6 81.2,79.8 81.9,84.4 77.8,82.2 73.7,84.4 74.5,79.8 71.2,76.6 
		75.8,75.9 	"/>
	<g>
		<polygon class="st2" points="88.9,80.7 90.2,83.3 93,83.7 91,85.7 91.4,88.5 88.9,87.1 86.4,88.5 86.9,85.7 84.8,83.7 87.6,83.3 
					"/>
		<polygon class="st2" points="66.7,80.7 68,83.3 70.8,83.7 68.8,85.7 69.3,88.5 66.7,87.1 64.2,88.5 64.7,85.7 62.7,83.7 
			65.5,83.3 		"/>
	</g>
</g>
<g>
	<g>
		<path class="st3" d="M54.3,34.9c0,0.1-0.1,0.1-0.1,0.1c0,0-0.1,0-0.2,0c-0.1,0-0.2,0-0.3-0.1c-0.1-0.1-0.2-0.2-0.4-0.2
			s-0.3-0.2-0.5-0.2c-0.2-0.1-0.5-0.1-0.8-0.1c-0.3,0-0.5,0-0.7,0.1c-0.2,0.1-0.4,0.2-0.5,0.3c-0.1,0.1-0.3,0.3-0.3,0.5
			c-0.1,0.2-0.1,0.4-0.1,0.6c0,0.3,0.1,0.5,0.2,0.6c0.1,0.2,0.3,0.3,0.5,0.4c0.2,0.1,0.4,0.2,0.7,0.3c0.3,0.1,0.5,0.2,0.8,0.3
			c0.3,0.1,0.6,0.2,0.8,0.3s0.5,0.3,0.7,0.5c0.2,0.2,0.4,0.4,0.5,0.7s0.2,0.6,0.2,1c0,0.4-0.1,0.8-0.2,1.1S54.3,41.8,54,42
			c-0.3,0.3-0.6,0.5-1,0.6c-0.4,0.2-0.8,0.2-1.3,0.2c-0.6,0-1.2-0.1-1.6-0.3s-0.9-0.5-1.3-0.9l0.4-0.6c0,0,0.1-0.1,0.1-0.1
			s0.1,0,0.2,0c0.1,0,0.2,0,0.3,0.1s0.3,0.2,0.4,0.3c0.2,0.1,0.4,0.2,0.6,0.3s0.6,0.1,0.9,0.1c0.3,0,0.6,0,0.8-0.1
			c0.2-0.1,0.4-0.2,0.6-0.3c0.2-0.1,0.3-0.3,0.4-0.5s0.1-0.4,0.1-0.7c0-0.3-0.1-0.5-0.2-0.7s-0.3-0.3-0.5-0.5
			c-0.2-0.1-0.4-0.2-0.7-0.3c-0.3-0.1-0.5-0.2-0.8-0.3c-0.3-0.1-0.6-0.2-0.8-0.3s-0.5-0.3-0.7-0.5s-0.4-0.4-0.5-0.7
			c-0.1-0.3-0.2-0.6-0.2-1c0-0.3,0.1-0.6,0.2-1s0.3-0.6,0.6-0.8c0.2-0.2,0.5-0.4,0.9-0.6c0.4-0.1,0.8-0.2,1.2-0.2
			c0.5,0,1,0.1,1.4,0.2c0.4,0.2,0.8,0.4,1.1,0.7L54.3,34.9z"/>
		<path class="st3" d="M64.9,40.9c0.1,0,0.1,0,0.2,0.1l0.5,0.5c-0.4,0.4-0.8,0.8-1.4,1c-0.5,0.2-1.2,0.4-2,0.4
			c-0.7,0-1.3-0.1-1.8-0.3c-0.5-0.2-1-0.6-1.4-1s-0.7-0.9-0.9-1.5c-0.2-0.6-0.3-1.2-0.3-1.9s0.1-1.3,0.3-1.9c0.2-0.6,0.5-1.1,1-1.5
			c0.4-0.4,0.9-0.7,1.5-1c0.6-0.2,1.2-0.3,1.9-0.3c0.7,0,1.3,0.1,1.8,0.3c0.5,0.2,0.9,0.5,1.3,0.9l-0.4,0.6c0,0-0.1,0.1-0.1,0.1
			s-0.1,0-0.2,0c-0.1,0-0.1,0-0.2-0.1c-0.1,0-0.1-0.1-0.2-0.2c-0.1-0.1-0.2-0.1-0.3-0.2s-0.3-0.1-0.4-0.2s-0.3-0.1-0.6-0.2
			c-0.2,0-0.5-0.1-0.7-0.1c-0.5,0-1,0.1-1.4,0.3c-0.4,0.2-0.8,0.4-1.1,0.7s-0.5,0.7-0.7,1.2s-0.3,1-0.3,1.5c0,0.6,0.1,1.1,0.3,1.6
			s0.4,0.8,0.7,1.2c0.3,0.3,0.6,0.6,1,0.7c0.4,0.2,0.8,0.2,1.3,0.2c0.3,0,0.5,0,0.7,0c0.2,0,0.4-0.1,0.6-0.2s0.4-0.2,0.5-0.3
			c0.2-0.1,0.3-0.2,0.5-0.4C64.8,40.9,64.9,40.9,64.9,40.9z"/>
		<path class="st3" d="M70.6,38.9v3.9h-1.3v-9.3H72c0.6,0,1.1,0.1,1.5,0.2s0.8,0.3,1.1,0.5c0.3,0.2,0.5,0.5,0.6,0.8
			c0.1,0.3,0.2,0.7,0.2,1.1c0,0.3-0.1,0.6-0.2,0.9c-0.1,0.3-0.3,0.5-0.5,0.8s-0.4,0.4-0.7,0.6c-0.3,0.2-0.6,0.3-1,0.4
			c0.2,0.1,0.3,0.2,0.4,0.4l2.7,3.7h-1.1c-0.2,0-0.4-0.1-0.5-0.3l-2.4-3.3C72.1,39.1,72,39,72,39c-0.1,0-0.2-0.1-0.4-0.1H70.6z
			 M70.6,38h1.3c0.4,0,0.7,0,1-0.1s0.5-0.2,0.7-0.4c0.2-0.2,0.3-0.4,0.4-0.6c0.1-0.2,0.1-0.5,0.1-0.7c0-0.6-0.2-1-0.5-1.3
			c-0.4-0.3-0.9-0.4-1.6-0.4h-1.4V38z"/>
		<path class="st3" d="M85.3,33.5v1h-4.5v3.1h3.6v1h-3.6v3.2h4.5v1h-5.7v-9.3H85.3z"/>
		<path class="st3" d="M94.8,33.5v1h-4.5v3.1h3.6v1h-3.6v3.2h4.5v1h-5.7v-9.3H94.8z"/>
		<path class="st3" d="M99.5,33.5c0.1,0,0.1,0.1,0.2,0.2l5.4,7c0-0.1,0-0.2,0-0.3c0-0.1,0-0.2,0-0.3v-6.6h1.1v9.3h-0.6
			c-0.1,0-0.2,0-0.3-0.1s-0.1-0.1-0.2-0.2l-5.4-7c0,0.1,0,0.2,0,0.3c0,0.1,0,0.2,0,0.3v6.6h-1.1v-9.3h0.7
			C99.3,33.5,99.4,33.5,99.5,33.5z"/>
		<path class="st3" d="M49.2,49.9c0,0.1-0.1,0.1-0.1,0.1c0,0-0.1,0-0.2,0c-0.1,0-0.2,0-0.3-0.1c-0.1-0.1-0.2-0.2-0.4-0.2
			s-0.3-0.2-0.5-0.2c-0.2-0.1-0.5-0.1-0.8-0.1c-0.3,0-0.5,0-0.7,0.1c-0.2,0.1-0.4,0.2-0.5,0.3s-0.3,0.3-0.3,0.5
			c-0.1,0.2-0.1,0.4-0.1,0.6c0,0.3,0.1,0.5,0.2,0.6c0.1,0.2,0.3,0.3,0.5,0.4s0.4,0.2,0.7,0.3c0.3,0.1,0.5,0.2,0.8,0.3
			c0.3,0.1,0.6,0.2,0.8,0.3s0.5,0.3,0.7,0.5c0.2,0.2,0.4,0.4,0.5,0.7c0.1,0.3,0.2,0.6,0.2,1c0,0.4-0.1,0.8-0.2,1.1
			c-0.1,0.4-0.3,0.7-0.6,0.9c-0.3,0.3-0.6,0.5-1,0.6c-0.4,0.2-0.8,0.2-1.3,0.2c-0.6,0-1.2-0.1-1.6-0.3s-0.9-0.5-1.3-0.9l0.4-0.6
			c0,0,0.1-0.1,0.1-0.1c0,0,0.1,0,0.2,0c0.1,0,0.2,0,0.3,0.1s0.3,0.2,0.4,0.3c0.2,0.1,0.4,0.2,0.6,0.3s0.6,0.1,0.9,0.1
			c0.3,0,0.6,0,0.8-0.1c0.2-0.1,0.4-0.2,0.6-0.3c0.2-0.1,0.3-0.3,0.4-0.5s0.1-0.4,0.1-0.7c0-0.3-0.1-0.5-0.2-0.7s-0.3-0.3-0.5-0.5
			c-0.2-0.1-0.4-0.2-0.7-0.3c-0.3-0.1-0.5-0.2-0.8-0.3c-0.3-0.1-0.6-0.2-0.8-0.3s-0.5-0.3-0.7-0.5s-0.4-0.4-0.5-0.7
			c-0.1-0.3-0.2-0.6-0.2-1c0-0.3,0.1-0.6,0.2-1c0.1-0.3,0.3-0.6,0.6-0.8c0.2-0.2,0.5-0.4,0.9-0.6c0.4-0.1,0.8-0.2,1.2-0.2
			c0.5,0,1,0.1,1.4,0.2c0.4,0.2,0.8,0.4,1.1,0.7L49.2,49.9z"/>
		<path class="st3" d="M60.9,57.8h-1.3v-4.2h-5v4.2h-1.3v-9.3h1.3v4.2h5v-4.2h1.3V57.8z"/>
		<path class="st3" d="M72.7,57.8h-1c-0.1,0-0.2,0-0.3-0.1c-0.1-0.1-0.1-0.1-0.2-0.2l-0.9-2.2h-4.2l-0.9,2.2c0,0.1-0.1,0.1-0.2,0.2
			c-0.1,0.1-0.2,0.1-0.3,0.1h-1l3.7-9.3H69L72.7,57.8z M66.6,54.3h3.5l-1.5-3.8c-0.1-0.2-0.2-0.5-0.3-0.9c0,0.2-0.1,0.3-0.1,0.5
			c0,0.1-0.1,0.3-0.1,0.4L66.6,54.3z"/>
		<path class="st3" d="M77.3,53.9v3.9H76v-9.3h2.6c0.6,0,1.1,0.1,1.5,0.2s0.8,0.3,1.1,0.5c0.3,0.2,0.5,0.5,0.6,0.8
			c0.1,0.3,0.2,0.7,0.2,1.1c0,0.3-0.1,0.6-0.2,0.9c-0.1,0.3-0.3,0.5-0.5,0.8s-0.4,0.4-0.7,0.6c-0.3,0.2-0.6,0.3-1,0.4
			c0.2,0.1,0.3,0.2,0.4,0.4l2.7,3.7h-1.1c-0.2,0-0.4-0.1-0.5-0.3l-2.4-3.3c-0.1-0.1-0.2-0.2-0.2-0.2c-0.1,0-0.2-0.1-0.4-0.1H77.3z
			 M77.3,53h1.3c0.4,0,0.7,0,1-0.1s0.5-0.2,0.7-0.4c0.2-0.2,0.3-0.4,0.4-0.6c0.1-0.2,0.1-0.5,0.1-0.7c0-0.6-0.2-1-0.5-1.3
			s-0.9-0.4-1.6-0.4h-1.4V53z"/>
		<path class="st3" d="M87.7,57.8h-1.3v-9.3h1.3V57.8z"/>
		<path class="st3" d="M93,48.5c0.1,0,0.1,0.1,0.2,0.2l5.4,7c0-0.1,0-0.2,0-0.3c0-0.1,0-0.2,0-0.3v-6.6h1.1v9.3H99
			c-0.1,0-0.2,0-0.3-0.1c-0.1,0-0.1-0.1-0.2-0.2l-5.4-7c0,0.1,0,0.2,0,0.3c0,0.1,0,0.2,0,0.3v6.6h-1.1v-9.3h0.7
			C92.9,48.5,93,48.5,93,48.5z"/>
		<path class="st3" d="M108.1,56.9c0.3,0,0.5,0,0.7,0s0.4-0.1,0.6-0.1s0.4-0.1,0.5-0.2c0.2-0.1,0.3-0.1,0.5-0.2v-2.1h-1.4
			c-0.1,0-0.1,0-0.2-0.1s-0.1-0.1-0.1-0.2v-0.7h2.9v3.6c-0.2,0.2-0.5,0.3-0.7,0.4c-0.3,0.1-0.5,0.2-0.8,0.3
			c-0.3,0.1-0.6,0.1-0.9,0.2c-0.3,0-0.7,0.1-1.1,0.1c-0.7,0-1.3-0.1-1.9-0.3c-0.6-0.2-1-0.6-1.5-1c-0.4-0.4-0.7-0.9-1-1.5
			c-0.2-0.6-0.3-1.2-0.3-1.9c0-0.7,0.1-1.4,0.3-1.9c0.2-0.6,0.5-1.1,1-1.5c0.4-0.4,0.9-0.7,1.5-1c0.6-0.2,1.2-0.3,2-0.3
			c0.4,0,0.7,0,1,0.1c0.3,0.1,0.6,0.1,0.9,0.2c0.3,0.1,0.5,0.2,0.8,0.4c0.2,0.1,0.4,0.3,0.6,0.5l-0.4,0.6c-0.1,0.1-0.2,0.2-0.3,0.2
			c-0.1,0-0.1,0-0.2-0.1c-0.1-0.1-0.2-0.1-0.4-0.2c-0.1-0.1-0.3-0.2-0.5-0.3c-0.2-0.1-0.4-0.1-0.7-0.2c-0.3-0.1-0.6-0.1-0.9-0.1
			c-0.5,0-1,0.1-1.4,0.3c-0.4,0.2-0.8,0.4-1.1,0.7s-0.5,0.7-0.7,1.2c-0.2,0.5-0.2,1-0.2,1.5c0,0.6,0.1,1.1,0.3,1.6
			c0.2,0.5,0.4,0.9,0.7,1.2c0.3,0.3,0.7,0.6,1.1,0.7S107.6,56.9,108.1,56.9z"/>
	</g>
</g>
<line class="st4" x1="48.8" y1="25.9" x2="106.9" y2="25.9"/>
<line class="st4" x1="48.8" y1="65.7" x2="106.9" y2="65.7"/>
</svg>
