<?xml version="1.0" encoding="utf-8"?>
<!-- Generator: Adobe Illustrator 21.0.2, SVG Export Plug-In . SVG Version: 6.00 Build 0)  -->
<svg version="1.1" id="Layer_1" xmlns="http://www.w3.org/2000/svg" xmlns:xlink="http://www.w3.org/1999/xlink" x="0px" y="0px"
	 viewBox="0 0 200 200" style="enable-background:new 0 0 200 200;" xml:space="preserve">
<style type="text/css">
	.st0{fill:#FFFFFF;}
	.st1{fill:#A5A5A5;}
	.st2{fill:#F9B51B;}
	.st3{fill:#575656;}
</style>
<g>
	<circle class="st0" cx="100" cy="100" r="100"/>
</g>
<g>
	<g>
		<g>
			<g>
				<path class="st1" d="M141.9,52.3c0,0,0.1,0,0.2,0c0.1,0,0.3,0,0.5,0c0.5,0,1.1,0.1,1.8,0.3s1.5,0.5,2.3,0.8
					c0.8,0.4,1.6,0.9,2.4,1.4s1.5,1.1,2.1,1.8c0.6,0.6,1.1,1.3,1.5,1.9c0.2,0.3,0.3,0.6,0.5,0.8c0.1,0.3,0.2,0.5,0.3,0.7
					s0.1,0.4,0.2,0.5c0,0.1,0,0.2,0,0.2s-0.1,0-0.2,0c-0.1,0-0.3-0.1-0.5-0.1c-0.2-0.1-0.4-0.1-0.7-0.2c-0.3-0.1-0.6-0.2-0.9-0.3
					c-0.6-0.3-1.3-0.6-2-1s-1.4-0.9-2.2-1.4c-0.7-0.5-1.4-1.1-2-1.6c-0.6-0.6-1.2-1.1-1.7-1.6s-0.9-1-1.2-1.4
					c-0.1-0.2-0.2-0.3-0.3-0.4C142,52.3,141.9,52.3,141.9,52.3z"/>
			</g>
		</g>
		<g>
			<g>
				<g>
					<path class="st1" d="M144.6,63.3c0,0,0,0,0.1-0.1s0.2-0.2,0.3-0.3c0.2-0.2,0.6-0.5,1.1-0.7s1-0.4,1.6-0.5s1.3-0.1,2-0.1
						c0.7,0.1,1.5,0.2,2.2,0.5c0.7,0.2,1.4,0.6,2,0.9c0.3,0.2,0.6,0.4,0.8,0.5c0.2,0.2,0.4,0.3,0.6,0.5c0.2,0.1,0.3,0.3,0.4,0.4
						c0.1,0.1,0.1,0.1,0.1,0.1s0,0-0.1,0.1c-0.1,0-0.2,0.1-0.3,0.2s-0.3,0.2-0.5,0.2c-0.2,0.1-0.4,0.2-0.7,0.2
						c-0.5,0.1-1.1,0.2-1.7,0.3c-0.6,0-1.3,0-2-0.1s-1.4-0.2-2-0.4c-0.7-0.2-1.3-0.4-1.9-0.7c-0.6-0.2-1.1-0.5-1.4-0.7
						c-0.2-0.1-0.3-0.2-0.4-0.3C144.7,63.3,144.6,63.3,144.6,63.3z"/>
				</g>
			</g>
			<g>
				<g>
					<path class="st1" d="M154,50.9c0,0,0,0-0.1,0.1c0,0.1-0.1,0.2-0.2,0.3c-0.1,0.3-0.2,0.7-0.3,1.3c-0.1,0.5-0.1,1.2,0,1.8
						c0.1,0.7,0.3,1.4,0.5,2.2c0.2,0.7,0.5,1.5,0.8,2.2s0.7,1.4,1.1,2c0.2,0.3,0.4,0.6,0.5,0.8c0.2,0.3,0.3,0.5,0.5,0.7
						c0.1,0.2,0.3,0.3,0.3,0.4c0.1,0.1,0.1,0.2,0.1,0.2s0,0,0.1-0.1s0.1-0.2,0.2-0.3c0.1-0.1,0.2-0.3,0.3-0.5s0.2-0.4,0.3-0.7
						c0.2-0.5,0.3-1.1,0.3-1.8s-0.1-1.4-0.3-2.2s-0.5-1.6-0.9-2.3c-0.4-0.8-0.9-1.5-1.3-2.1c-0.5-0.6-1-1.2-1.4-1.5
						c-0.2-0.2-0.4-0.3-0.5-0.4C154.1,51,154,50.9,154,50.9z"/>
				</g>
			</g>
		</g>
		<g>
			<g>
				<g>
					<path class="st1" d="M150.9,69.1c0,0,0,0,0.1-0.1c0.1,0,0.2-0.1,0.3-0.2c0.3-0.2,0.7-0.4,1.2-0.5s1.1-0.2,1.7-0.2
						c0.6,0,1.3,0.1,2,0.3c0.7,0.2,1.4,0.5,2,0.8s1.2,0.8,1.7,1.2c0.2,0.2,0.5,0.4,0.7,0.6s0.4,0.4,0.5,0.6s0.2,0.3,0.3,0.4
						s0.1,0.2,0.1,0.2s0,0-0.1,0.1c-0.1,0-0.2,0.1-0.4,0.1c-0.2,0.1-0.3,0.1-0.5,0.2c-0.2,0-0.4,0.1-0.7,0.1c-0.5,0.1-1.1,0-1.7,0
						c-0.6-0.1-1.3-0.2-1.9-0.4c-0.6-0.2-1.3-0.5-1.9-0.8c-0.6-0.3-1.2-0.6-1.7-1c-0.5-0.3-0.9-0.7-1.2-0.9
						c-0.1-0.1-0.3-0.2-0.3-0.3C150.9,69.1,150.9,69.1,150.9,69.1z"/>
				</g>
			</g>
			<g>
				<g>
					<path class="st1" d="M162.4,58.8c0,0,0,0-0.1,0.1s-0.1,0.2-0.2,0.3c-0.2,0.3-0.4,0.7-0.6,1.2c-0.2,0.5-0.3,1.1-0.3,1.8
						c-0.1,0.7,0,1.4,0,2.2c0.1,0.8,0.2,1.5,0.4,2.3s0.4,1.5,0.6,2.1c0.1,0.3,0.2,0.6,0.4,0.9c0.1,0.3,0.2,0.5,0.3,0.7
						s0.2,0.4,0.3,0.5s0.1,0.2,0.1,0.2s0,0,0.1-0.1s0.2-0.1,0.3-0.3c0.1-0.1,0.2-0.3,0.4-0.4c0.1-0.2,0.3-0.4,0.4-0.6
						c0.3-0.5,0.5-1,0.6-1.7s0.2-1.4,0.2-2.2s-0.2-1.6-0.4-2.4c-0.2-0.8-0.5-1.6-0.9-2.3c-0.3-0.7-0.7-1.3-1-1.7
						c-0.1-0.2-0.3-0.4-0.4-0.5C162.5,58.8,162.4,58.8,162.4,58.8z"/>
				</g>
			</g>
		</g>
		<g>
			<g>
				<g>
					<path class="st1" d="M155.8,75.6c0,0,0,0,0.1-0.1c0.1,0,0.2-0.1,0.4-0.1c0.3-0.1,0.7-0.2,1.2-0.3c0.5-0.1,1.1,0,1.7,0.1
						c0.6,0.1,1.3,0.3,1.9,0.6c0.6,0.3,1.2,0.7,1.8,1.1s1,1,1.5,1.5c0.2,0.3,0.4,0.5,0.5,0.7c0.2,0.2,0.3,0.5,0.4,0.6
						c0.1,0.2,0.2,0.4,0.2,0.5c0.1,0.1,0.1,0.2,0.1,0.2s0,0-0.1,0s-0.2,0.1-0.4,0.1s-0.3,0-0.6,0.1c-0.2,0-0.5,0-0.7,0
						c-0.5,0-1.1-0.1-1.7-0.3c-0.6-0.2-1.2-0.4-1.8-0.7s-1.2-0.7-1.7-1.1s-1-0.8-1.4-1.2c-0.4-0.4-0.8-0.8-1-1.1
						c-0.1-0.1-0.2-0.3-0.3-0.4C155.9,75.8,155.8,75.6,155.8,75.6z"/>
				</g>
			</g>
			<g>
				<g>
					<path class="st1" d="M169,67.6c0,0,0,0-0.1,0.1s-0.2,0.1-0.3,0.3c-0.2,0.2-0.5,0.6-0.8,1.1s-0.5,1-0.7,1.7
						c-0.2,0.6-0.3,1.4-0.4,2.1c-0.1,0.7-0.1,1.5-0.1,2.3s0.1,1.5,0.2,2.2c0.1,0.3,0.1,0.7,0.2,0.9c0.1,0.3,0.1,0.5,0.2,0.8
						c0.1,0.2,0.1,0.4,0.2,0.5c0,0.1,0.1,0.2,0.1,0.2s0,0,0.1-0.1c0.1,0,0.2-0.1,0.3-0.2s0.3-0.2,0.4-0.4c0.2-0.1,0.3-0.3,0.5-0.5
						c0.3-0.4,0.7-0.9,0.9-1.5c0.3-0.6,0.5-1.3,0.6-2.1c0.1-0.8,0.1-1.6,0.1-2.4c-0.1-0.8-0.2-1.6-0.4-2.3c-0.2-0.7-0.5-1.4-0.7-1.8
						c-0.1-0.2-0.2-0.4-0.3-0.5C169.1,67.8,169,67.6,169,67.6z"/>
				</g>
			</g>
		</g>
		<g>
			<g>
				<g>
					<path class="st1" d="M159.4,82.9c0,0,0,0,0.1,0s0.2-0.1,0.4-0.1c0.3-0.1,0.8-0.1,1.3-0.1s1.1,0.1,1.6,0.4
						c0.6,0.2,1.2,0.5,1.7,0.9c0.6,0.4,1.1,0.9,1.6,1.4s0.9,1.1,1.2,1.7c0.2,0.3,0.3,0.6,0.4,0.8c0.1,0.3,0.2,0.5,0.3,0.7
						s0.1,0.4,0.1,0.5s0,0.2,0,0.2H168c-0.1,0-0.2,0-0.4,0s-0.4,0-0.6,0s-0.4-0.1-0.7-0.1c-0.5-0.1-1-0.3-1.6-0.6s-1.1-0.6-1.6-1
						s-1-0.8-1.5-1.3s-0.9-1-1.2-1.4c-0.3-0.5-0.6-0.9-0.8-1.2c-0.1-0.2-0.2-0.3-0.2-0.4C159.4,83.1,159.4,82.9,159.4,82.9z"/>
				</g>
			</g>
			<g>
				<g>
					<path class="st1" d="M173.8,77.3c0,0,0,0-0.1,0.1c-0.1,0-0.2,0.1-0.3,0.2c-0.3,0.2-0.6,0.5-0.9,0.9c-0.3,0.4-0.7,0.9-1,1.5
						s-0.6,1.3-0.8,2s-0.4,1.5-0.5,2.2s-0.2,1.5-0.2,2.2c0,0.3,0,0.7,0,0.9c0,0.3,0,0.6,0,0.8s0,0.4,0.1,0.5c0,0.1,0,0.2,0,0.2h0.1
						c0.1,0,0.2-0.1,0.4-0.1c0.1-0.1,0.3-0.2,0.5-0.3c0.2-0.1,0.4-0.3,0.6-0.4c0.4-0.3,0.8-0.8,1.2-1.3s0.7-1.2,0.9-1.9
						c0.2-0.7,0.4-1.5,0.5-2.3s0.1-1.6,0-2.4c-0.1-0.7-0.2-1.4-0.3-1.9c-0.1-0.2-0.1-0.4-0.2-0.6C173.8,77.4,173.8,77.3,173.8,77.3z
						"/>
				</g>
			</g>
		</g>
		<g>
			<g>
				<g>
					<path class="st1" d="M161.5,90.6h0.1c0.1,0,0.2,0,0.4,0c0.3,0,0.8,0,1.2,0.2c0.5,0.1,1,0.3,1.6,0.6c0.5,0.3,1.1,0.7,1.5,1.2
						c0.5,0.5,0.9,1,1.3,1.6c0.4,0.6,0.7,1.2,0.9,1.8c0.1,0.3,0.2,0.6,0.2,0.9c0.1,0.3,0.1,0.5,0.1,0.7s0,0.4,0.1,0.5
						c0,0.1,0,0.2,0,0.2h-0.1c-0.1,0-0.2,0-0.4-0.1c-0.2,0-0.3-0.1-0.5-0.1c-0.2-0.1-0.4-0.1-0.7-0.3c-0.5-0.2-1-0.5-1.5-0.9
						s-1-0.8-1.4-1.3c-0.5-0.5-0.9-1-1.2-1.6c-0.4-0.5-0.7-1.1-0.9-1.6s-0.4-1-0.5-1.4c-0.1-0.2-0.1-0.3-0.1-0.4
						C161.5,90.8,161.5,90.6,161.5,90.6z"/>
				</g>
			</g>
			<g>
				<g>
					<path class="st1" d="M176.7,87.8h-0.1c-0.1,0-0.2,0.1-0.4,0.1c-0.3,0.1-0.7,0.4-1.1,0.7c-0.4,0.3-0.8,0.8-1.2,1.3
						s-0.8,1.1-1.1,1.8c-0.3,0.7-0.6,1.4-0.9,2.1c-0.2,0.7-0.4,1.4-0.6,2.1c-0.1,0.3-0.1,0.6-0.2,0.9c0,0.3-0.1,0.5-0.1,0.8
						c0,0.2,0,0.4,0,0.5s0,0.2,0,0.2h0.1c0.1,0,0.2,0,0.4-0.1c0.2,0,0.3-0.1,0.5-0.2s0.4-0.2,0.6-0.3c0.5-0.3,0.9-0.6,1.4-1.1
						s0.9-1.1,1.3-1.7c0.4-0.7,0.7-1.4,0.9-2.2c0.2-0.8,0.4-1.6,0.4-2.3c0.1-0.7,0.1-1.4,0-1.9c0-0.2,0-0.5-0.1-0.6
						C176.7,87.8,176.7,87.8,176.7,87.8z"/>
				</g>
			</g>
		</g>
		<g>
			<g>
				<g>
					<path class="st1" d="M162.3,98.6h0.1c0.1,0,0.2,0,0.4,0.1c0.3,0.1,0.7,0.2,1.2,0.4c0.5,0.2,1,0.5,1.4,0.9
						c0.5,0.4,0.9,0.9,1.3,1.4c0.4,0.6,0.7,1.2,1,1.8c0.3,0.7,0.4,1.3,0.5,2c0,0.3,0.1,0.6,0.1,0.9s0,0.5,0,0.7s0,0.4,0,0.5
						s0,0.2,0,0.2h-0.1c-0.1,0-0.2-0.1-0.4-0.1c-0.2-0.1-0.3-0.1-0.5-0.2s-0.4-0.2-0.6-0.4c-0.4-0.3-0.9-0.7-1.3-1.1
						c-0.4-0.4-0.8-1-1.2-1.5c-0.4-0.6-0.7-1.2-0.9-1.8c-0.3-0.6-0.5-1.2-0.6-1.7c-0.2-0.5-0.2-1.1-0.3-1.4c0-0.2,0-0.3,0-0.4
						C162.3,98.6,162.3,98.6,162.3,98.6z"/>
				</g>
			</g>
			<g>
				<g>
					<path class="st1" d="M177.8,98.3h-0.1c-0.1,0-0.2,0-0.4,0.1c-0.3,0.1-0.7,0.2-1.2,0.5s-1,0.6-1.4,1.1c-0.5,0.4-1,1-1.4,1.6
						s-0.9,1.2-1.2,1.9c-0.4,0.7-0.7,1.3-0.9,2c-0.1,0.3-0.2,0.6-0.3,0.9s-0.2,0.5-0.2,0.7c-0.1,0.2-0.1,0.4-0.1,0.5s0,0.2,0,0.2
						h0.1c0.1,0,0.2,0,0.4,0s0.4,0,0.6-0.1c0.2,0,0.4-0.1,0.7-0.2c0.5-0.2,1-0.4,1.6-0.8c0.5-0.4,1.1-0.9,1.5-1.5
						c0.5-0.6,0.9-1.3,1.3-2c0.4-0.7,0.6-1.5,0.8-2.2s0.3-1.4,0.3-1.9c0-0.2,0-0.5,0-0.6C177.8,98.4,177.8,98.3,177.8,98.3z"/>
				</g>
			</g>
		</g>
		<g>
			<g>
				<g>
					<path class="st1" d="M161.7,106.6h0.1c0.1,0,0.2,0.1,0.4,0.1c0.3,0.1,0.7,0.3,1.1,0.6c0.4,0.3,0.9,0.7,1.2,1.1
						c0.4,0.5,0.8,1,1,1.7c0.3,0.6,0.5,1.3,0.7,2c0.1,0.7,0.2,1.4,0.2,2c0,0.3,0,0.6-0.1,0.9c0,0.3-0.1,0.5-0.1,0.7
						s-0.1,0.4-0.1,0.5s-0.1,0.2-0.1,0.2s0,0-0.1-0.1c-0.1,0-0.2-0.1-0.3-0.2s-0.3-0.2-0.5-0.3c-0.2-0.1-0.3-0.3-0.5-0.5
						c-0.4-0.4-0.7-0.8-1.1-1.3c-0.3-0.5-0.6-1.1-0.9-1.7s-0.5-1.3-0.6-1.9c-0.2-0.6-0.3-1.3-0.3-1.8c-0.1-0.6-0.1-1.1,0-1.5
						C161.7,106.8,161.7,106.7,161.7,106.6L161.7,106.6z"/>
				</g>
			</g>
			<g>
				<g>
					<path class="st1" d="M177,109.1h-0.1c-0.1,0-0.2,0-0.4,0c-0.3,0-0.8,0.1-1.3,0.3s-1,0.4-1.6,0.8s-1.1,0.8-1.7,1.3
						c-0.5,0.5-1.1,1.1-1.5,1.7c-0.5,0.6-0.9,1.2-1.2,1.8c-0.2,0.3-0.3,0.6-0.5,0.8c-0.1,0.3-0.3,0.5-0.3,0.7
						c-0.1,0.2-0.2,0.4-0.2,0.5s-0.1,0.2-0.1,0.2s0,0,0.1,0s0.2,0.1,0.4,0.1s0.4,0,0.6,0c0.2,0,0.5,0,0.7-0.1
						c0.5-0.1,1.1-0.3,1.7-0.6c0.6-0.3,1.2-0.7,1.8-1.2s1.1-1.1,1.6-1.7c0.5-0.7,0.9-1.4,1.2-2c0.3-0.7,0.5-1.3,0.7-1.8
						c0.1-0.2,0.1-0.4,0.1-0.6C177,109.1,177,109.1,177,109.1z"/>
				</g>
			</g>
		</g>
		<g>
			<g>
				<g>
					<path class="st1" d="M159.8,114.3c0,0,0,0,0.1,0.1c0.1,0,0.2,0.1,0.3,0.2c0.3,0.2,0.6,0.4,1,0.8s0.7,0.8,1,1.3s0.6,1.2,0.7,1.8
						c0.2,0.7,0.3,1.4,0.3,2.1s-0.1,1.4-0.2,2.1c-0.1,0.3-0.1,0.6-0.2,0.9s-0.2,0.5-0.3,0.7s-0.2,0.4-0.2,0.5
						c-0.1,0.1-0.1,0.2-0.1,0.2s0,0-0.1-0.1s-0.2-0.1-0.3-0.2s-0.3-0.2-0.4-0.4c-0.1-0.2-0.3-0.3-0.4-0.6c-0.3-0.4-0.6-0.9-0.8-1.5
						s-0.4-1.2-0.6-1.9c-0.1-0.7-0.2-1.3-0.3-2c0-0.7,0-1.3,0-1.9s0.1-1.1,0.2-1.5c0-0.2,0.1-0.3,0.1-0.4
						C159.8,114.3,159.8,114.3,159.8,114.3z"/>
				</g>
			</g>
			<g>
				<g>
					<path class="st1" d="M174.3,119.4c0,0,0,0-0.1,0s-0.2,0-0.4-0.1c-0.3,0-0.8,0-1.3,0.1s-1.1,0.3-1.7,0.5c-0.6,0.3-1.2,0.6-1.9,1
						c-0.6,0.4-1.2,0.9-1.8,1.4s-1.1,1-1.5,1.6c-0.2,0.3-0.4,0.5-0.6,0.7c-0.2,0.2-0.3,0.4-0.5,0.6c-0.1,0.2-0.2,0.4-0.3,0.5
						s-0.1,0.2-0.1,0.2s0,0,0.1,0.1c0.1,0,0.2,0.1,0.4,0.1s0.3,0.1,0.6,0.1c0.2,0,0.5,0.1,0.7,0.1c0.5,0,1.1-0.1,1.8-0.3
						c0.6-0.2,1.3-0.5,2-0.9s1.3-0.9,1.9-1.5s1.1-1.2,1.5-1.8c0.4-0.6,0.8-1.2,1-1.7C174.2,119.9,174.3,119.7,174.3,119.4
						C174.3,119.5,174.3,119.4,174.3,119.4z"/>
				</g>
			</g>
		</g>
		<g>
			<g>
				<g>
					<path class="st1" d="M156.4,121.7c0,0,0,0,0.1,0.1s0.2,0.1,0.3,0.2c0.2,0.2,0.6,0.5,0.8,0.9c0.3,0.4,0.6,0.9,0.8,1.5
						s0.3,1.2,0.4,1.9c0,0.7,0,1.4-0.1,2.1s-0.3,1.4-0.6,2c-0.1,0.3-0.3,0.6-0.4,0.8c-0.1,0.3-0.3,0.5-0.4,0.7
						c-0.1,0.2-0.2,0.3-0.3,0.4s-0.1,0.2-0.1,0.2s0,0-0.1-0.1s-0.2-0.2-0.2-0.3c-0.1-0.1-0.2-0.3-0.3-0.5s-0.2-0.4-0.3-0.6
						c-0.2-0.5-0.4-1-0.5-1.6s-0.2-1.3-0.2-2s0-1.4,0.1-2c0.1-0.7,0.2-1.3,0.4-1.9s0.3-1.1,0.5-1.4
						C156.4,121.8,156.4,121.7,156.4,121.7C156.4,121.8,156.4,121.7,156.4,121.7z"/>
				</g>
			</g>
			<g>
				<g>
					<path class="st1" d="M169.9,129.4c0,0,0,0-0.1-0.1c-0.1,0-0.2-0.1-0.4-0.1c-0.3-0.1-0.8-0.2-1.3-0.2s-1.1,0.1-1.8,0.2
						c-0.7,0.1-1.3,0.4-2,0.7s-1.4,0.7-2,1.1c-0.7,0.4-1.3,0.8-1.8,1.3c-0.3,0.2-0.5,0.4-0.8,0.6c-0.2,0.2-0.4,0.4-0.6,0.6
						s-0.3,0.3-0.4,0.4c-0.1,0.1-0.1,0.2-0.1,0.2s0,0,0.1,0.1c0.1,0,0.2,0.1,0.3,0.2s0.3,0.1,0.5,0.2c0.2,0.1,0.4,0.1,0.7,0.2
						c0.5,0.1,1.1,0.1,1.8,0.1c0.7-0.1,1.4-0.3,2.1-0.5c0.7-0.3,1.5-0.7,2.2-1.1c0.7-0.5,1.3-1,1.9-1.5c0.5-0.5,1-1.1,1.3-1.5
						c0.2-0.2,0.3-0.4,0.3-0.5C169.8,129.4,169.9,129.4,169.9,129.4z"/>
				</g>
			</g>
		</g>
		<g>
			<g>
				<g>
					<path class="st1" d="M151.7,128.4c0,0,0,0,0.1,0.1s0.2,0.2,0.3,0.3c0.2,0.3,0.4,0.6,0.6,1.1c0.2,0.5,0.4,1,0.5,1.6s0.1,1.3,0,2
						s-0.3,1.4-0.6,2.1c-0.3,0.7-0.6,1.3-1,1.9c-0.2,0.3-0.4,0.5-0.6,0.8c-0.2,0.2-0.4,0.4-0.5,0.6c-0.2,0.2-0.3,0.3-0.4,0.4
						c-0.1,0.1-0.2,0.1-0.2,0.1s0,0-0.1-0.1c0-0.1-0.1-0.2-0.2-0.3c-0.1-0.1-0.1-0.3-0.2-0.5c-0.1-0.2-0.1-0.4-0.2-0.7
						c-0.1-0.5-0.2-1.1-0.2-1.7c0-0.6,0.1-1.3,0.2-2c0.1-0.7,0.3-1.4,0.5-2s0.5-1.3,0.8-1.8s0.5-1,0.8-1.3c0.1-0.2,0.2-0.3,0.3-0.4
						C151.7,128.4,151.7,128.4,151.7,128.4z"/>
				</g>
			</g>
			<g>
				<g>
					<path class="st1" d="M163.5,138.4c0,0,0,0-0.1-0.1c-0.1,0-0.2-0.1-0.3-0.2c-0.3-0.1-0.7-0.3-1.2-0.4c-0.5-0.1-1.1-0.1-1.8-0.1
						s-1.4,0.2-2.2,0.3c-0.8,0.2-1.5,0.4-2.3,0.7c-0.7,0.3-1.5,0.6-2.1,1c-0.3,0.2-0.6,0.3-0.9,0.5c-0.3,0.2-0.5,0.3-0.7,0.5
						c-0.2,0.1-0.4,0.3-0.5,0.3c-0.1,0.1-0.2,0.1-0.2,0.1s0,0,0.1,0.1s0.2,0.2,0.3,0.2c0.1,0.1,0.3,0.2,0.5,0.3s0.4,0.2,0.7,0.3
						c0.5,0.2,1.1,0.3,1.8,0.4c0.7,0,1.5,0,2.2-0.2c0.8-0.2,1.6-0.4,2.4-0.7c0.8-0.3,1.5-0.8,2.2-1.2c0.6-0.4,1.2-0.9,1.6-1.3
						c0.2-0.2,0.3-0.3,0.4-0.4C163.5,138.4,163.5,138.4,163.5,138.4z"/>
				</g>
			</g>
		</g>
		<g>
			<g>
				<g>
					<path class="st1" d="M145.6,134.4c0,0,0,0,0.1,0.1c0,0.1,0.1,0.2,0.2,0.3c0.1,0.3,0.3,0.7,0.4,1.2c0.1,0.5,0.2,1.1,0.1,1.7
						c0,0.6-0.2,1.3-0.4,2s-0.6,1.4-1,2s-0.9,1.2-1.5,1.7c-0.3,0.3-0.5,0.5-0.8,0.7c-0.2,0.2-0.5,0.4-0.7,0.5s-0.4,0.2-0.5,0.3
						s-0.2,0.1-0.2,0.1s0,0-0.1-0.1c0-0.1-0.1-0.2-0.1-0.4s-0.1-0.3-0.1-0.6c0-0.2,0-0.5,0-0.7c0-0.5,0.1-1.1,0.2-1.8
						c0.1-0.6,0.4-1.3,0.7-2s0.6-1.3,1-1.9c0.4-0.6,0.8-1.2,1.2-1.7s0.8-0.9,1.1-1.2C145.3,134.5,145.5,134.3,145.6,134.4
						C145.6,134.4,145.6,134.4,145.6,134.4z"/>
				</g>
			</g>
			<g>
				<g>
					<path class="st1" d="M155.4,146.4c0,0,0,0-0.1-0.1s-0.2-0.2-0.3-0.2c-0.3-0.2-0.7-0.4-1.2-0.6c-0.5-0.2-1.1-0.3-1.8-0.4
						c-0.7-0.1-1.5-0.1-2.3,0s-1.6,0.2-2.4,0.3c-0.8,0.2-1.6,0.4-2.3,0.6c-0.4,0.1-0.7,0.2-1,0.4c-0.3,0.1-0.6,0.2-0.8,0.3
						s-0.4,0.2-0.6,0.3c-0.1,0.1-0.2,0.1-0.2,0.1s0,0,0.1,0.1s0.1,0.2,0.2,0.3s0.3,0.3,0.4,0.4c0.2,0.1,0.4,0.3,0.6,0.4
						c0.5,0.3,1.1,0.5,1.7,0.7c0.7,0.2,1.5,0.2,2.3,0.2s1.7-0.1,2.6-0.3c0.9-0.2,1.7-0.5,2.4-0.8s1.4-0.7,1.8-1
						c0.2-0.1,0.4-0.3,0.5-0.4C155.3,146.4,155.4,146.4,155.4,146.4z"/>
				</g>
			</g>
		</g>
	</g>
	<g>
		<g>
			<g>
				<path class="st1" d="M57.9,52.3c0,0-0.1,0-0.2,0c-0.1,0-0.3,0-0.5,0c-0.5,0-1.1,0.1-1.8,0.3s-1.5,0.5-2.3,0.8
					c-0.8,0.4-1.7,0.9-2.4,1.4c-0.8,0.5-1.5,1.1-2.1,1.8c-0.6,0.6-1.1,1.3-1.5,1.9c-0.2,0.3-0.3,0.6-0.5,0.8
					c-0.1,0.3-0.2,0.5-0.3,0.7s-0.1,0.4-0.2,0.5c0,0.1,0,0.2,0,0.2s0.1,0,0.2,0s0.3-0.1,0.5-0.1c0.2-0.1,0.4-0.1,0.7-0.2
					c0.3-0.1,0.6-0.2,0.9-0.3c0.6-0.3,1.3-0.6,2-1s1.4-0.9,2.2-1.4c0.7-0.5,1.4-1.1,2-1.6c0.6-0.6,1.2-1.1,1.7-1.6s0.9-1,1.2-1.4
					c0.1-0.2,0.2-0.3,0.3-0.4C57.9,52.3,57.9,52.3,57.9,52.3z"/>
			</g>
		</g>
		<g>
			<g>
				<g>
					<path class="st1" d="M55.2,63.3C55.2,63.3,55.2,63.3,55.2,63.3c-0.2-0.2-0.3-0.3-0.4-0.4c-0.2-0.2-0.6-0.5-1.1-0.7
						s-1-0.4-1.6-0.5s-1.3-0.1-2-0.1c-0.7,0.1-1.5,0.2-2.2,0.5c-0.7,0.2-1.4,0.6-2,0.9c-0.3,0.2-0.6,0.4-0.8,0.5
						c-0.2,0.2-0.4,0.3-0.6,0.5c-0.2,0.1-0.3,0.3-0.4,0.4s-0.1,0-0.1,0s0,0,0.1,0.1c0.1,0,0.2,0.1,0.3,0.2s0.3,0.2,0.5,0.2
						c0.2,0.1,0.4,0.2,0.7,0.2c0.5,0.1,1.1,0.2,1.7,0.3c0.6,0,1.3,0,2-0.1s1.4-0.2,2-0.4c0.7-0.2,1.3-0.4,1.9-0.7
						c0.6-0.2,1.1-0.5,1.4-0.7c0.2-0.1,0.3-0.2,0.4-0.3C55.2,63.3,55.2,63.3,55.2,63.3z"/>
				</g>
			</g>
			<g>
				<g>
					<path class="st1" d="M45.9,50.9C45.9,50.9,45.9,50.9,45.9,50.9c0.1,0.2,0.2,0.3,0.3,0.4c0.1,0.3,0.2,0.7,0.3,1.3
						c0.1,0.5,0.1,1.2,0,1.8c-0.1,0.7-0.3,1.4-0.5,2.2c-0.2,0.7-0.5,1.5-0.8,2.2s-0.7,1.4-1.1,2c-0.2,0.3-0.4,0.6-0.5,0.8
						c-0.2,0.3-0.3,0.5-0.5,0.7c-0.1,0.2-0.3,0.3-0.3,0.4c-0.1,0.1-0.1,0.2-0.1,0.2s0,0-0.1-0.1s-0.1-0.2-0.2-0.3
						c-0.1-0.1-0.2-0.3-0.3-0.5s-0.2-0.4-0.3-0.7c-0.2-0.5-0.3-1.1-0.3-1.8s0.1-1.4,0.3-2.2s0.5-1.6,0.9-2.3
						c0.4-0.8,0.9-1.5,1.3-2.1c0.5-0.6,1-1.2,1.4-1.5c0.2-0.2,0.4-0.3,0.5-0.4C45.8,51,45.9,50.9,45.9,50.9z"/>
				</g>
			</g>
		</g>
		<g>
			<g>
				<g>
					<path class="st1" d="M49,69.1C49,69.1,49,69.1,49,69.1c-0.2-0.1-0.3-0.2-0.4-0.3c-0.3-0.2-0.7-0.4-1.2-0.5s-1.1-0.2-1.7-0.2
						s-1.3,0.1-2,0.3c-0.7,0.2-1.4,0.5-2,0.8S40.5,70,40,70.4c-0.2,0.2-0.5,0.4-0.7,0.6s-0.4,0.4-0.5,0.6s-0.2,0.3-0.3,0.4
						s-0.1,0.2-0.1,0.2s0,0,0.1,0.1c0.1,0,0.2,0.1,0.4,0.1c0.2,0.1,0.3,0.1,0.5,0.2c0.2,0,0.4,0.1,0.7,0.1c0.5,0.1,1.1,0,1.7,0
						c0.6-0.1,1.3-0.2,1.9-0.4s1.3-0.5,1.9-0.8c0.6-0.3,1.2-0.6,1.7-1c0.5-0.3,0.9-0.7,1.2-0.9c0.1-0.1,0.3-0.2,0.3-0.3
						C48.9,69.1,49,69.1,49,69.1z"/>
				</g>
			</g>
			<g>
				<g>
					<path class="st1" d="M37.4,58.8C37.4,58.8,37.4,58.8,37.4,58.8c0.2,0.2,0.2,0.3,0.3,0.4c0.2,0.3,0.4,0.7,0.6,1.2
						s0.3,1.1,0.3,1.8c0.1,0.7,0,1.4,0,2.2c-0.1,0.8-0.2,1.5-0.4,2.3s-0.4,1.5-0.6,2.1c-0.1,0.3-0.2,0.6-0.4,0.9
						c-0.1,0.3-0.2,0.5-0.3,0.7s-0.2,0.4-0.3,0.5s-0.1,0.2-0.1,0.2s0,0-0.1-0.1s-0.2-0.1-0.3-0.3c-0.1-0.1-0.2-0.3-0.4-0.4
						c-0.1-0.2-0.3-0.4-0.4-0.6c-0.3-0.5-0.5-1-0.6-1.7s-0.2-1.4-0.2-2.2s0.2-1.6,0.4-2.4c0.2-0.8,0.5-1.6,0.9-2.3
						c0.3-0.7,0.7-1.3,1-1.7c0.1-0.2,0.3-0.4,0.4-0.5C37.4,58.8,37.4,58.8,37.4,58.8z"/>
				</g>
			</g>
		</g>
		<g>
			<g>
				<g>
					<path class="st1" d="M44,75.6C44,75.6,44,75.6,44,75.6c-0.2-0.1-0.3-0.2-0.5-0.2c-0.3-0.1-0.7-0.2-1.2-0.3
						c-0.5-0.1-1.1,0-1.7,0.1c-0.6,0.1-1.3,0.3-1.9,0.6c-0.6,0.3-1.2,0.7-1.8,1.1s-1,1-1.5,1.5c-0.2,0.3-0.4,0.5-0.5,0.7
						c-0.2,0.2-0.3,0.5-0.4,0.6c-0.1,0.2-0.2,0.4-0.2,0.5c-0.1,0.1-0.1,0.2-0.1,0.2s0,0,0.1,0s0.2,0.1,0.4,0.1s0.3,0,0.6,0.1
						c0.2,0,0.5,0,0.7,0c0.5,0,1.1-0.1,1.7-0.3c0.6-0.2,1.2-0.4,1.8-0.7c0.6-0.3,1.2-0.7,1.7-1.1s1-0.8,1.4-1.2
						c0.4-0.4,0.8-0.8,1-1.1c0.1-0.1,0.2-0.3,0.3-0.4C44,75.8,44,75.6,44,75.6z"/>
				</g>
			</g>
			<g>
				<g>
					<path class="st1" d="M30.8,67.6c0,0,0,0,0.1,0.1c0.1,0,0.2,0.1,0.3,0.2c0.2,0.2,0.5,0.6,0.8,1.1c0.3,0.5,0.5,1,0.7,1.7
						c0.2,0.6,0.3,1.4,0.4,2.1c0.1,0.7,0.1,1.5,0.1,2.3s-0.1,1.5-0.2,2.2c-0.1,0.3-0.1,0.7-0.2,0.9c-0.1,0.3-0.1,0.5-0.2,0.8
						c-0.1,0.2-0.1,0.4-0.2,0.5c0,0.1-0.1,0.2-0.1,0.2s0,0-0.1-0.1c-0.1,0-0.2-0.1-0.3-0.2c-0.1-0.1-0.3-0.2-0.4-0.4
						c-0.2-0.1-0.3-0.3-0.5-0.5c-0.3-0.4-0.7-0.9-0.9-1.5c-0.3-0.6-0.5-1.3-0.6-2.1c-0.1-0.8-0.1-1.6-0.1-2.4
						c0.1-0.8,0.2-1.6,0.4-2.3s0.5-1.4,0.7-1.8c0.1-0.2,0.2-0.4,0.3-0.5C30.8,67.8,30.8,67.6,30.8,67.6z"/>
				</g>
			</g>
		</g>
		<g>
			<g>
				<g>
					<path class="st1" d="M40.5,82.9C40.5,82.9,40.5,82.9,40.5,82.9c-0.2-0.1-0.4-0.1-0.5-0.1c-0.3-0.1-0.8-0.1-1.3-0.1
						s-1.1,0.1-1.6,0.4c-0.6,0.2-1.2,0.5-1.7,0.9c-0.6,0.4-1.1,0.9-1.6,1.4s-0.9,1.1-1.2,1.7c-0.2,0.3-0.3,0.6-0.4,0.8
						c-0.1,0.3-0.2,0.5-0.3,0.7c-0.1,0.2-0.1,0.4-0.1,0.5s0,0.2,0,0.2h0.1c0.1,0,0.2,0,0.4,0s0.4,0,0.6,0s0.4-0.1,0.7-0.1
						c0.5-0.1,1-0.3,1.6-0.6c0.6-0.3,1.1-0.6,1.6-1s1-0.8,1.5-1.3s0.9-1,1.2-1.4c0.3-0.5,0.6-0.9,0.8-1.2c0.1-0.2,0.2-0.3,0.2-0.4
						C40.5,83.1,40.5,82.9,40.5,82.9z"/>
				</g>
			</g>
			<g>
				<g>
					<path class="st1" d="M26.1,77.3c0,0,0,0,0.1,0.1c0.1,0,0.2,0.1,0.3,0.2c0.3,0.2,0.6,0.5,1,0.9c0.3,0.4,0.7,0.9,1,1.5
						s0.6,1.3,0.8,2c0.2,0.7,0.4,1.5,0.5,2.2s0.2,1.5,0.2,2.2c0,0.3,0,0.7,0,0.9c0,0.3,0,0.6,0,0.8s0,0.4-0.1,0.5c0,0.1,0,0.2,0,0.2
						h-0.1c-0.1,0-0.2-0.1-0.4-0.1c-0.1-0.1-0.3-0.2-0.5-0.3c-0.2-0.1-0.4-0.3-0.6-0.4c-0.4-0.3-0.8-0.8-1.2-1.3s-0.7-1.2-0.9-1.9
						c-0.2-0.7-0.4-1.5-0.5-2.3s-0.1-1.6,0-2.4c0.1-0.7,0.2-1.4,0.3-1.9c0.1-0.2,0.1-0.4,0.2-0.6C26,77.4,26.1,77.3,26.1,77.3z"/>
				</g>
			</g>
		</g>
		<g>
			<g>
				<g>
					<path class="st1" d="M38.3,90.6L38.3,90.6c-0.2,0-0.3,0-0.5,0c-0.3,0-0.8,0-1.2,0.2c-0.5,0.1-1,0.3-1.6,0.6
						c-0.5,0.3-1.1,0.7-1.5,1.2c-0.5,0.5-0.9,1-1.3,1.6c-0.4,0.6-0.7,1.2-0.9,1.8c-0.1,0.4-0.2,0.6-0.2,0.9C31,97.3,31,97.4,31,97.6
						s0,0.4-0.1,0.5c0,0.1,0,0.2,0,0.2H31c0.1,0,0.2,0,0.4-0.1c0.2,0,0.3-0.1,0.5-0.1c0.2-0.1,0.4-0.1,0.7-0.3
						c0.5-0.2,1-0.5,1.5-0.9s1-0.8,1.4-1.3c0.5-0.5,0.9-1,1.2-1.6c0.4-0.5,0.7-1.1,0.9-1.6s0.4-1,0.5-1.4
						C38.2,90.8,38.2,90.7,38.3,90.6C38.3,90.8,38.3,90.6,38.3,90.6z"/>
				</g>
			</g>
			<g>
				<g>
					<path class="st1" d="M23.2,87.8h0.1c0.1,0,0.2,0.1,0.4,0.1c0.3,0.1,0.7,0.4,1.1,0.7c0.4,0.3,0.8,0.8,1.2,1.3s0.8,1.1,1.1,1.8
						c0.3,0.7,0.6,1.4,0.9,2.1c0.2,0.7,0.4,1.4,0.6,2.1c0.1,0.3,0.1,0.6,0.2,0.9c0,0.3,0.1,0.5,0.1,0.8c0,0.2,0,0.4,0,0.5
						s0,0.2,0,0.2h-0.1c-0.1,0-0.2,0-0.4-0.1c-0.2,0-0.3-0.1-0.5-0.2c-0.4,0.1-0.6,0-0.8-0.1c-0.5-0.3-0.9-0.6-1.4-1.1
						s-0.9-1.1-1.3-1.7c-0.4-0.7-0.7-1.4-0.9-2.2c-0.2-0.8-0.4-1.6-0.4-2.4c-0.1-0.7-0.1-1.4,0-1.9c0-0.2,0-0.5,0.1-0.6
						C23.1,87.8,23.2,87.8,23.2,87.8z"/>
				</g>
			</g>
		</g>
		<g>
			<g>
				<g>
					<path class="st1" d="M37.5,98.6L37.5,98.6c-0.2,0-0.3,0-0.5,0.1c-0.3,0.1-0.7,0.2-1.2,0.4c-0.5,0.2-1,0.5-1.4,0.9
						c-0.5,0.4-0.9,0.9-1.3,1.4c-0.4,0.6-0.7,1.2-1,1.8c-0.3,0.7-0.4,1.3-0.5,2c0,0.3-0.1,0.6-0.1,0.9s0,0.5,0,0.7s0,0.4,0,0.5
						s0,0.2,0,0.2h0.1c0.1,0,0.2-0.1,0.4-0.1c0.2-0.1,0.3-0.1,0.5-0.2s0.4-0.2,0.6-0.4c0.4-0.3,0.9-0.7,1.3-1.1
						c0.4-0.4,0.8-1,1.2-1.5c0.4-0.6,0.7-1.2,0.9-1.8c0.3-0.6,0.5-1.2,0.6-1.7c0.2-0.5,0.2-1.1,0.3-1.4c0-0.2,0-0.3,0-0.4
						C37.5,98.6,37.5,98.6,37.5,98.6z"/>
				</g>
			</g>
			<g>
				<g>
					<path class="st1" d="M22.1,98.3h0.1c0.1,0,0.2,0,0.4,0.1c0.3,0.1,0.7,0.2,1.2,0.5s1,0.6,1.4,1.1c0.5,0.4,1,1,1.4,1.6
						c0.5,0.6,0.9,1.2,1.3,1.9c0.4,0.7,0.7,1.3,0.9,2c0.1,0.3,0.2,0.6,0.3,0.9s0.2,0.5,0.2,0.7c0.1,0.2,0.1,0.4,0.1,0.5s0,0.2,0,0.2
						h-0.1c-0.1,0-0.2,0-0.4,0c-0.2,0-0.4,0-0.6-0.1c-0.2,0-0.4-0.1-0.7-0.2c-0.5-0.2-1-0.4-1.6-0.8c-0.4-0.4-0.9-0.9-1.4-1.5
						s-0.9-1.3-1.3-2s-0.6-1.5-0.8-2.2c-0.2-0.7-0.3-1.4-0.3-1.9c0-0.2,0-0.5,0-0.6C22.1,98.4,22.1,98.3,22.1,98.3z"/>
				</g>
			</g>
		</g>
		<g>
			<g>
				<g>
					<path class="st1" d="M38.1,106.6L38.1,106.6c-0.2,0-0.3,0.1-0.5,0.1c-0.3,0.1-0.7,0.3-1.1,0.6c-0.4,0.3-0.9,0.7-1.2,1.1
						c-0.4,0.5-0.8,1-1,1.7c-0.3,0.6-0.5,1.3-0.7,2c-0.1,0.7-0.2,1.4-0.2,2c0,0.3,0,0.6,0.1,0.9c0,0.3,0.1,0.5,0.1,0.7
						s0.1,0.4,0.1,0.5s0.1,0.2,0.1,0.2s0,0,0.1-0.1c0.1,0,0.2-0.1,0.3-0.2s0.3-0.2,0.5-0.3c0.2-0.1,0.3-0.3,0.5-0.5
						c0.4-0.4,0.7-0.8,1.1-1.3c0.3-0.5,0.6-1.1,0.9-1.7s0.5-1.3,0.6-1.9c0.2-0.6,0.3-1.3,0.3-1.8c0.1-0.6,0.1-1.1,0-1.5
						C38.1,106.8,38.1,106.7,38.1,106.6L38.1,106.6z"/>
				</g>
			</g>
			<g>
				<g>
					<path class="st1" d="M22.9,109.1H23c0.1,0,0.2,0,0.4,0c0.3,0,0.8,0.1,1.3,0.3s1,0.4,1.6,0.8s1.1,0.8,1.7,1.3
						c0.5,0.5,1.1,1.1,1.5,1.7c0.5,0.6,0.9,1.2,1.2,1.8c0.2,0.3,0.3,0.6,0.5,0.8c0.1,0.3,0.3,0.5,0.3,0.7c0.1,0.2,0.2,0.4,0.2,0.5
						s0.1,0.2,0.1,0.2s0,0-0.1,0s-0.2,0.1-0.4,0.1c-0.2,0-0.4,0-0.6,0s-0.5,0-0.7-0.1c-0.5-0.1-1.1-0.3-1.7-0.6
						c-0.6-0.3-1.2-0.7-1.8-1.2s-1.1-1.1-1.6-1.7c-0.5-0.7-0.9-1.4-1.2-2c-0.3-0.7-0.5-1.3-0.6-1.8c-0.1-0.2-0.1-0.4-0.1-0.6
						C22.9,109.1,22.9,109.1,22.9,109.1z"/>
				</g>
			</g>
		</g>
		<g>
			<g>
				<g>
					<path class="st1" d="M40.1,114.3L40.1,114.3c-0.2,0.1-0.3,0.2-0.4,0.3c-0.3,0.2-0.6,0.4-1,0.8s-0.7,0.8-1,1.3s-0.6,1.2-0.7,1.8
						c-0.2,0.7-0.3,1.4-0.3,2.1s0.1,1.4,0.2,2.1c0.1,0.3,0.1,0.6,0.2,0.9s0.2,0.5,0.3,0.7s0.2,0.4,0.2,0.5c0.1,0.1,0.1,0.2,0.1,0.2
						s0,0,0.1-0.1s0.2-0.1,0.3-0.2s0.3-0.2,0.4-0.4c0.1-0.2,0.3-0.3,0.4-0.6c0.3-0.4,0.6-0.9,0.8-1.5s0.4-1.2,0.6-1.9
						c0.1-0.7,0.2-1.3,0.3-2c0-0.7,0-1.3,0-1.9s-0.1-1.1-0.2-1.5c0-0.2-0.1-0.3-0.1-0.4C40.1,114.3,40.1,114.3,40.1,114.3z"/>
				</g>
			</g>
			<g>
				<g>
					<path class="st1" d="M25.5,119.4c0,0,0,0,0.1,0s0.2,0,0.4-0.1c0.3,0,0.8,0,1.3,0.1s1.1,0.3,1.7,0.5c0.6,0.3,1.2,0.6,1.9,1
						c0.6,0.4,1.2,0.9,1.8,1.4c0.6,0.5,1.1,1,1.5,1.6c0.2,0.3,0.4,0.5,0.6,0.7s0.3,0.4,0.5,0.6c0.1,0.2,0.2,0.4,0.3,0.5
						s0.1,0.2,0.1,0.2s0,0-0.1,0.1c-0.1,0-0.2,0.1-0.4,0.1s-0.3,0.1-0.6,0.1c-0.2,0-0.5,0.1-0.7,0.1c-0.5,0-1.1-0.1-1.8-0.3
						c-0.6-0.2-1.3-0.5-2-0.9s-1.3-0.9-1.9-1.5s-1.1-1.2-1.5-1.8c-0.4-0.6-0.8-1.2-1-1.7C25.6,119.9,25.5,119.7,25.5,119.4
						C25.5,119.5,25.5,119.4,25.5,119.4z"/>
				</g>
			</g>
		</g>
		<g>
			<g>
				<g>
					<path class="st1" d="M43.4,121.7C43.4,121.7,43.4,121.7,43.4,121.7c-0.2,0.2-0.3,0.2-0.4,0.3c-0.2,0.2-0.6,0.5-0.8,0.9
						c-0.3,0.4-0.6,0.9-0.8,1.5s-0.3,1.2-0.4,1.9c0,0.7,0,1.4,0.1,2.1s0.3,1.4,0.6,2c0.1,0.3,0.3,0.6,0.4,0.8
						c0.1,0.3,0.3,0.5,0.4,0.7c0.1,0.2,0.2,0.3,0.3,0.4c0.1,0.1,0.1,0.2,0.1,0.2s0,0,0.1-0.1s0.2-0.2,0.2-0.3
						c0.1-0.1,0.2-0.3,0.3-0.5s0.2-0.4,0.3-0.6c0.2-0.5,0.4-1,0.5-1.6s0.2-1.3,0.2-2s0-1.4-0.1-2c-0.1-0.7-0.2-1.3-0.4-1.9
						s-0.3-1.1-0.5-1.4C43.4,121.8,43.4,121.7,43.4,121.7C43.4,121.8,43.4,121.7,43.4,121.7z"/>
				</g>
			</g>
			<g>
				<g>
					<path class="st1" d="M30,129.4c0,0,0,0,0.1-0.1c0.1,0,0.2-0.1,0.4-0.1c0.3-0.1,0.8-0.2,1.3-0.2s1.1,0.1,1.8,0.2
						c0.7,0.1,1.3,0.4,2,0.7s1.4,0.7,2,1.1c0.7,0.4,1.3,0.8,1.8,1.3c0.3,0.2,0.5,0.4,0.8,0.6c0.2,0.2,0.4,0.4,0.6,0.6
						c0.2,0.2,0.3,0.3,0.4,0.4c0.1,0.1,0.1,0.2,0.1,0.2s0,0-0.1,0.1c-0.1,0-0.2,0.1-0.3,0.2c-0.1,0.1-0.3,0.1-0.5,0.2
						s-0.4,0.1-0.7,0.2c-0.5,0.1-1.1,0.1-1.8,0.1c-0.7-0.1-1.4-0.3-2.1-0.5c-0.7-0.3-1.5-0.7-2.2-1.1c-0.7-0.5-1.3-1-1.9-1.5
						c-0.5-0.5-1-1.1-1.3-1.5c-0.1-0.4-0.2-0.6-0.3-0.7C30,129.4,30,129.4,30,129.4z"/>
				</g>
			</g>
		</g>
		<g>
			<g>
				<g>
					<path class="st1" d="M48.1,128.4L48.1,128.4c-0.2,0.2-0.3,0.3-0.4,0.4c-0.2,0.3-0.4,0.6-0.6,1.1s-0.4,1-0.5,1.6s-0.1,1.3,0,2
						s0.3,1.4,0.6,2.1c0.3,0.7,0.6,1.3,1,1.9c0.2,0.3,0.4,0.5,0.6,0.8c0.2,0.2,0.4,0.4,0.5,0.6c0.2,0.2,0.3,0.3,0.4,0.4
						c0.1,0.1,0.2,0.1,0.2,0.1s0,0,0.1-0.1c0-0.1,0.1-0.2,0.2-0.3c0.1-0.1,0.1-0.3,0.2-0.5c0.1-0.2,0.1-0.4,0.2-0.7
						c0.1-0.5,0.2-1.1,0.2-1.7c0-0.6-0.1-1.3-0.2-2c-0.1-0.7-0.3-1.4-0.5-2s-0.5-1.3-0.8-1.8s-0.5-1-0.8-1.3
						c-0.1-0.2-0.2-0.3-0.3-0.4C48.2,128.4,48.1,128.4,48.1,128.4z"/>
				</g>
			</g>
			<g>
				<g>
					<path class="st1" d="M36.3,138.4c0,0,0,0,0.1-0.1c0.1,0,0.2-0.1,0.3-0.2c0.3-0.1,0.7-0.3,1.2-0.4c0.5-0.1,1.1-0.1,1.8-0.1
						s1.4,0.2,2.2,0.3c0.8,0.2,1.5,0.4,2.3,0.7c0.7,0.3,1.5,0.6,2.1,1c0.3,0.2,0.6,0.3,0.9,0.5c0.3,0.2,0.5,0.3,0.7,0.5
						c0.2,0.1,0.4,0.3,0.5,0.3c0.1,0.1,0.2,0.1,0.2,0.1s0,0-0.1,0.1s-0.2,0.2-0.3,0.2c-0.1,0.1-0.3,0.2-0.5,0.3s-0.4,0.2-0.7,0.3
						c-0.5,0.2-1.1,0.3-1.8,0.4c-0.7,0-1.5,0-2.2-0.2c-0.8-0.2-1.6-0.4-2.4-0.7c-0.8-0.3-1.5-0.8-2.2-1.2c-0.6-0.4-1.2-0.9-1.6-1.3
						c-0.2-0.2-0.3-0.3-0.4-0.4C36.4,138.4,36.3,138.4,36.3,138.4z"/>
				</g>
			</g>
		</g>
		<g>
			<g>
				<g>
					<path class="st1" d="M54.2,134.4L54.2,134.4c-0.1,0.2-0.2,0.3-0.3,0.4c-0.1,0.3-0.3,0.7-0.4,1.2s-0.2,1.1-0.1,1.7
						c0,0.6,0.2,1.3,0.4,2s0.6,1.4,1,2s0.9,1.2,1.5,1.7c0.3,0.3,0.5,0.5,0.8,0.7c0.2,0.2,0.5,0.4,0.7,0.5s0.4,0.2,0.5,0.3
						s0.2,0.1,0.2,0.1s0,0,0.1-0.1c0-0.1,0.1-0.2,0.1-0.4s0.1-0.3,0.1-0.6c0-0.2,0-0.5,0-0.7c0-0.5-0.1-1.1-0.2-1.8
						c-0.1-0.6-0.4-1.3-0.7-2s-0.6-1.3-1-1.9c-0.4-0.6-0.8-1.2-1.2-1.7s-0.8-0.9-1.1-1.2c-0.1-0.1-0.3-0.3-0.4-0.3
						C54.3,134.4,54.2,134.4,54.2,134.4z"/>
				</g>
			</g>
			<g>
				<g>
					<path class="st1" d="M44.5,146.4c0,0,0,0,0.1-0.1s0.2-0.2,0.3-0.2c0.3-0.2,0.7-0.4,1.2-0.6c0.5-0.2,1.1-0.3,1.8-0.4
						s1.5-0.1,2.3,0s1.6,0.2,2.4,0.3c0.8,0.2,1.6,0.4,2.3,0.6c0.4,0.1,0.7,0.2,1,0.4c0.3,0.1,0.6,0.2,0.8,0.3s0.4,0.2,0.6,0.3
						c0.1,0.1,0.2,0.1,0.2,0.1s0,0-0.1,0.1s-0.1,0.2-0.2,0.3c-0.1,0.1-0.3,0.3-0.4,0.4c-0.2,0.1-0.4,0.3-0.6,0.4
						c-0.5,0.3-1.1,0.5-1.7,0.7c-0.7,0.2-1.5,0.2-2.3,0.2s-1.7-0.1-2.6-0.3c-0.9-0.2-1.7-0.5-2.4-0.8s-1.4-0.7-1.8-1
						c-0.2-0.1-0.4-0.3-0.5-0.4C44.5,146.4,44.5,146.4,44.5,146.4z"/>
				</g>
			</g>
		</g>
	</g>
	<g>
		<g>
			<path class="st0" d="M99.9,146.6c-25.7,0-46.7-20.9-46.7-46.7c0-25.7,20.9-46.7,46.7-46.7s46.7,20.9,46.7,46.7
				S125.7,146.6,99.9,146.6z"/>
		</g>
	</g>
	<g>
		<g>
			<path class="st2" d="M99.9,146.6c-25.7,0-46.7-20.9-46.7-46.7c0-25.7,20.9-46.7,46.7-46.7s46.7,20.9,46.7,46.7
				S125.7,146.6,99.9,146.6z M99.9,54C74.6,54,54,74.6,54,99.9s20.6,45.9,45.9,45.9s45.9-20.6,45.9-45.9
				C145.9,74.6,125.2,54,99.9,54z"/>
		</g>
	</g>
	<g>
		<g>
			<path class="st1" d="M100.5,153.1l-0.1-5c0.3,0,0.6,0,1,0l0.1,5C101.2,153.1,100.8,153.1,100.5,153.1z M98.4,153.1
				c-0.4,0-0.7,0-1.1,0l0.2-5c0.3,0,0.6,0,0.9,0V153.1z M103.6,153l-0.3-5c0.3,0,0.6,0,0.9-0.1l0.4,5C104.3,152.9,104,153,103.6,153
				z M95.3,152.9c-0.4,0-0.7-0.1-1-0.1l0.5-5c0.3,0,0.6,0.1,0.9,0.1L95.3,152.9z M106.8,152.8l-0.6-5c0.3,0,0.6-0.1,0.9-0.1l0.7,4.9
				C107.5,152.6,107.1,152.6,106.8,152.8z M92.1,152.5c-0.3-0.1-0.7-0.1-1-0.2l0.8-4.9c0.3,0.1,0.6,0.1,0.9,0.1L92.1,152.5z
				 M109.9,152.3l-0.9-4.9c0.3-0.1,0.6-0.1,0.9-0.2l1,4.9C110.6,152,110.2,152.1,109.9,152.3z M89,152c-0.3-0.1-0.7-0.1-1-0.2
				l1.1-4.9c0.3,0.1,0.6,0.1,0.9,0.2L89,152z M113,151.5l-1.2-4.8c0.3-0.1,0.6-0.2,0.9-0.2l1.3,4.8
				C113.6,151.4,113.3,151.4,113,151.5z M86,151.4c-0.3-0.1-0.7-0.2-1-0.3l1.4-4.8c0.3,0.1,0.6,0.2,0.9,0.3L86,151.4z M116,150.6
				l-1.5-4.8c0.3-0.1,0.6-0.2,0.9-0.3l1.6,4.7C116.7,150.4,116.3,150.5,116,150.6z M83,150.4c-0.3-0.1-0.7-0.2-1-0.3l1.7-4.7
				c0.3,0.1,0.6,0.2,0.9,0.3L83,150.4z M119,149.6l-1.8-4.7c0.3-0.1,0.6-0.2,0.9-0.3l1.9,4.6C119.6,149.4,119.3,149.5,119,149.6z
				 M80,149.3c-0.3-0.1-0.6-0.3-1-0.4l2-4.6c0.3,0.1,0.6,0.2,0.9,0.4L80,149.3z M121.9,148.4l-2.1-4.6c0.3-0.1,0.6-0.3,0.9-0.4
				l2.2,4.5C122.5,148.1,122.2,148.3,121.9,148.4z M77.1,148c-0.3-0.2-0.6-0.3-0.9-0.5l2.2-4.5c0.3,0.1,0.6,0.3,0.9,0.4L77.1,148z
				 M124.7,147l-2.3-4.4c0.3-0.1,0.6-0.3,0.8-0.5l2.4,4.4C125.3,146.8,125,146.9,124.7,147z M74.3,146.5c-0.3-0.2-0.6-0.3-0.9-0.5
				l2.5-4.3c0.3,0.2,0.6,0.3,0.8,0.5L74.3,146.5z M127.4,145.4l-2.6-4.3c0.3-0.2,0.5-0.3,0.8-0.5l2.7,4.2
				C128,145.1,127.7,145.4,127.4,145.4z M71.6,144.9c-0.3-0.2-0.6-0.4-0.9-0.6l2.8-4.2c0.3,0.2,0.5,0.3,0.8,0.5L71.6,144.9z
				 M130.1,143.8l-2.8-4.1c0.3-0.2,0.5-0.4,0.8-0.5l2.9,4.1C130.6,143.4,130.3,143.5,130.1,143.8z M69,143.3
				c-0.3-0.2-0.6-0.4-0.8-0.6l3-4c0.3,0.2,0.5,0.4,0.8,0.6L69,143.3z M132.6,141.9l-3.1-3.9c0.3-0.2,0.5-0.4,0.7-0.6l3.2,3.9
				C133.1,141.4,132.9,141.8,132.6,141.9z M66.5,141.3c-0.3-0.2-0.5-0.4-0.8-0.7l3.2-3.8c0.2,0.2,0.5,0.4,0.7,0.6L66.5,141.3z
				 M135,139.9l-3.3-3.8c0.2-0.2,0.5-0.4,0.7-0.6l3.4,3.7C135.5,139.4,135.3,139.6,135,139.9z M64.1,139.3c-0.3-0.2-0.5-0.5-0.8-0.7
				l3.4-3.6c0.2,0.2,0.5,0.4,0.7,0.6L64.1,139.3z M137.3,137.8l-3.5-3.5c0.2-0.2,0.4-0.4,0.7-0.7l3.6,3.5
				C137.8,137.3,137.6,137.5,137.3,137.8z M61.8,137c-0.2-0.3-0.5-0.5-0.7-0.8l3.7-3.4c0.2,0.2,0.4,0.5,0.7,0.7L61.8,137z
				 M139.5,135.4l-3.7-3.3c0.2-0.2,0.4-0.5,0.6-0.7l3.8,3.3C140,134.9,139.7,135.3,139.5,135.4z M59.7,134.8
				c-0.2-0.3-0.5-0.5-0.7-0.8l3.8-3.2c0.2,0.2,0.4,0.5,0.6,0.7L59.7,134.8z M141.5,133l-3.9-3.1c0.2-0.2,0.4-0.5,0.6-0.7l4,3
				C142,132.5,141.7,132.9,141.5,133z M57.7,132.3c-0.2-0.3-0.4-0.6-0.6-0.8l4-3c0.2,0.3,0.4,0.5,0.6,0.8L57.7,132.3z M143.4,130.5
				l-4.1-2.9c0.2-0.3,0.4-0.5,0.5-0.8l4.1,2.8C143.8,129.9,143.6,130.3,143.4,130.5z M55.9,129.8c-0.2-0.3-0.4-0.6-0.6-0.9l4.2-2.7
				c0.2,0.3,0.3,0.5,0.5,0.8L55.9,129.8z M145.1,127.9l-4.3-2.6c0.2-0.3,0.3-0.5,0.5-0.8l4.3,2.5
				C145.5,127.3,145.3,127.7,145.1,127.9z M54.2,127c-0.2-0.3-0.4-0.6-0.5-0.9l4.4-2.5c0.2,0.3,0.3,0.5,0.5,0.8L54.2,127z
				 M146.7,125.3l-4.4-2.4c0.2-0.3,0.3-0.6,0.4-0.8l4.4,2.3C147.1,124.5,146.9,124.9,146.7,125.3z M52.7,124.3
				c-0.2-0.3-0.3-0.6-0.5-0.9l4.5-2.2c0.1,0.3,0.3,0.6,0.4,0.8L52.7,124.3z M148.1,122.3l-4.5-2.1c0.1-0.3,0.3-0.6,0.4-0.9l4.6,2
				C148.4,121.8,148.3,122,148.1,122.3z M51.3,121.5c-0.1-0.3-0.3-0.6-0.4-1l4.6-1.9c0.1,0.3,0.2,0.6,0.4,0.9L51.3,121.5z
				 M149.4,119.4l-4.6-1.8c0.1-0.3,0.2-0.6,0.3-0.9l4.7,1.7C149.6,118.8,149.5,119.2,149.4,119.4z M50.1,118.5
				c-0.1-0.3-0.2-0.7-0.4-1l4.7-1.7c0.1,0.3,0.2,0.6,0.3,0.9L50.1,118.5z M150.5,116.5l-4.8-1.6c0.1-0.3,0.2-0.6,0.3-0.9l4.8,1.5
				C150.7,115.8,150.6,116.2,150.5,116.5z M49.1,115.7c-0.1-0.3-0.2-0.7-0.3-1l4.8-1.4c0.1,0.3,0.2,0.6,0.3,0.9L49.1,115.7z
				 M151.4,113.4l-4.8-1.3c0.1-0.3,0.2-0.6,0.2-0.9l4.9,1.2C151.5,112.8,151.4,113.2,151.4,113.4z M48.3,112.5
				c-0.1-0.3-0.2-0.7-0.2-1l4.9-1.1c0.1,0.3,0.1,0.6,0.2,0.9L48.3,112.5z M152.1,110.4l-4.9-1c0.1-0.3,0.1-0.6,0.2-0.9l4.9,0.9
				C152.2,109.8,152.1,110.1,152.1,110.4z M47.6,109.4c-0.1-0.3-0.1-0.7-0.2-1l4.9-0.8c0,0.3,0.1,0.6,0.2,0.9L47.6,109.4z
				 M152.6,107.3l-5-0.7c0-0.3,0.1-0.6,0.1-0.9l5,0.6C152.7,106.6,152.6,106.9,152.6,107.3z M47.2,106.3c0-0.3-0.1-0.7-0.1-1l5-0.5
				c0,0.3,0.1,0.6,0.1,0.9L47.2,106.3z M152.9,104.1l-5-0.4c0-0.3,0-0.6,0.1-0.9l5,0.3C153,103.4,152.9,103.8,152.9,104.1z
				 M46.9,103.3c0-0.3,0-0.7-0.1-1l5-0.2c0,0.3,0,0.6,0,1L46.9,103.3z M153.1,101.1l-5-0.1c0-0.3,0-0.6,0-1v-0.2h5v0.2
				C153.1,100.3,153.1,100.6,153.1,101.1z M48.1,100.1h-1.4c0-0.4,0-0.7,0-1l5,0.1c0,0.3,0,0.6,0,0.9H48.1z M148,97.9
				c0-0.3,0-0.6,0-1l5-0.3c0,0.3,0,0.7,0.1,1L148,97.9z M51.8,97.3l-5-0.3c0-0.3,0-0.7,0.1-1l5,0.4C51.9,96.6,51.9,96.9,51.8,97.3z
				 M147.8,95.1c0-0.3-0.1-0.6-0.1-0.9l5-0.6c0,0.3,0.1,0.7,0.1,1L147.8,95.1z M52.1,94.3l-5-0.5c0-0.3,0.1-0.7,0.1-1l5,0.7
				C52.2,93.8,52.1,94.1,52.1,94.3z M147.5,92.3c-0.1-0.3-0.1-0.6-0.2-0.9l4.9-0.9c0.1,0.3,0.1,0.7,0.2,1L147.5,92.3z M52.5,91.6
				l-4.9-0.9c0.1-0.3,0.1-0.7,0.2-1l4.9,1C52.6,90.9,52.6,91.3,52.5,91.6z M146.9,89.4c-0.1-0.3-0.1-0.6-0.2-0.9l4.9-1.2
				c0.1,0.3,0.2,0.7,0.2,1L146.9,89.4z M53.1,88.8l-4.9-1.2c0.1-0.3,0.2-0.7,0.3-1l4.8,1.3C53.2,88.1,53.2,88.4,53.1,88.8z
				 M146.2,86.6c-0.1-0.3-0.2-0.6-0.3-0.9l4.8-1.5c0.1,0.3,0.2,0.7,0.3,1L146.2,86.6z M53.8,86.1L49,84.6c0.1-0.3,0.2-0.7,0.3-1
				l4.8,1.5C54,85.4,53.9,85.8,53.8,86.1z M145.3,83.9c-0.1-0.3-0.2-0.6-0.3-0.9l4.7-1.8c0.1,0.3,0.2,0.7,0.4,1L145.3,83.9z
				 M54.7,83.3l-4.6-1.8c0.1-0.3,0.2-0.7,0.4-1l4.7,1.8C55,82.8,54.9,83.1,54.7,83.3z M144.3,81.3c-0.1-0.3-0.2-0.6-0.4-0.9l4.6-2
				c0.1,0.3,0.3,0.6,0.4,1L144.3,81.3z M55.8,80.6l-4.6-2c0.1-0.3,0.3-0.6,0.4-1l4.5,2.1C56.1,80.1,55.9,80.3,55.8,80.6z
				 M143.1,78.8c-0.1-0.3-0.3-0.6-0.4-0.8l4.4-2.3c0.2,0.3,0.3,0.6,0.5,0.9L143.1,78.8z M57,78.1l-4.4-2.2c0.2-0.3,0.3-0.6,0.5-0.9
				l4.4,2.4C57.3,77.6,57.2,77.8,57,78.1z M141.8,76.3c-0.2-0.3-0.3-0.5-0.5-0.8l4.3-2.6c0.2,0.3,0.4,0.6,0.5,0.9L141.8,76.3z
				 M58.4,75.6l-4.3-2.5c0.2-0.3,0.4-0.6,0.5-0.9l4.3,2.6C58.7,75.1,58.6,75.3,58.4,75.6z M140.3,73.8c-0.2-0.3-0.3-0.5-0.5-0.8
				l4.1-2.8c0.2,0.3,0.4,0.6,0.6,0.9L140.3,73.8z M59.9,73.1l-4.1-2.8c0.2-0.3,0.4-0.6,0.6-0.9l4.1,2.9
				C60.3,72.6,60.1,72.8,59.9,73.1z M138.7,71.4c-0.2-0.3-0.4-0.5-0.6-0.8l4-3c0.2,0.3,0.4,0.6,0.6,0.8L138.7,71.4z M61.6,70.8l-4-3
				c0.2-0.3,0.4-0.6,0.6-0.8l3.9,3.1C62,70.3,61.8,70.6,61.6,70.8z M136.9,69.1c-0.2-0.2-0.4-0.5-0.6-0.7l3.8-3.3
				c0.2,0.3,0.5,0.5,0.7,0.8L136.9,69.1z M63.4,68.6l-3.8-3.3c0.2-0.3,0.5-0.5,0.7-0.8l3.7,3.3C63.8,68.1,63.6,68.3,63.4,68.6z
				 M135,67.1c-0.2-0.2-0.4-0.5-0.7-0.7l3.6-3.5c0.2,0.3,0.5,0.5,0.7,0.8L135,67.1z M65.3,66.6L61.7,63c0.2-0.3,0.5-0.5,0.7-0.7
				l3.5,3.5C65.8,66.1,65.5,66.3,65.3,66.6z M133,65.1c-0.2-0.2-0.5-0.4-0.7-0.6l3.4-3.7c0.3,0.2,0.5,0.5,0.8,0.7L133,65.1z
				 M67.4,64.6L64,60.8c0.3-0.2,0.5-0.5,0.8-0.7l3.3,3.7C67.8,64.1,67.6,64.3,67.4,64.6z M130.9,63.1c-0.2-0.2-0.5-0.4-0.7-0.6
				l3.1-3.9c0.3,0.2,0.5,0.4,0.8,0.7L130.9,63.1z M69.5,62.6l-3.2-3.9c0.3-0.2,0.5-0.4,0.8-0.7l3.1,3.9C70,62.3,69.8,62.4,69.5,62.6
				z M128.7,61.3c-0.3-0.2-0.5-0.4-0.8-0.6l2.9-4.1c0.3,0.2,0.6,0.4,0.8,0.6L128.7,61.3z M71.8,60.9l-2.9-4.1
				c0.3-0.2,0.6-0.4,0.9-0.6l2.8,4.1C72.3,60.5,72,60.8,71.8,60.9z M126.3,59.8c-0.3-0.2-0.5-0.3-0.8-0.5l2.7-4.2
				c0.3,0.2,0.6,0.4,0.9,0.6L126.3,59.8z M74.1,59.3l-2.7-4.2c0.3-0.2,0.6-0.4,0.9-0.6l2.6,4.3C74.7,58.9,74.4,59.1,74.1,59.3z
				 M123.9,58.3c-0.3-0.2-0.6-0.3-0.8-0.5l2.4-4.4c0.3,0.2,0.6,0.3,0.9,0.5L123.9,58.3z M76.6,57.8l-2.4-4.4
				c0.3-0.2,0.6-0.3,0.9-0.5l2.3,4.4C77.1,57.5,76.9,57.8,76.6,57.8z M121.4,56.8c-0.3-0.1-0.6-0.3-0.9-0.4l2.1-4.5
				c0.3,0.2,0.6,0.3,1,0.5L121.4,56.8z M79.1,56.5L76.9,52c0.3-0.1,0.6-0.3,0.9-0.4l2.1,4.5C79.7,56.3,79.4,56.4,79.1,56.5z
				 M118.8,55.6c-0.3-0.1-0.6-0.2-0.9-0.4l1.9-4.6c0.3,0.1,0.6,0.3,1,0.4L118.8,55.6z M81.7,55.4l-1.9-4.6c0.3-0.1,0.6-0.3,1-0.4
				l1.8,4.7C82.3,55.1,82,55.3,81.7,55.4z M116.1,54.6c-0.3-0.1-0.6-0.2-0.9-0.3l1.6-4.7c0.3,0.1,0.7,0.2,1,0.3L116.1,54.6z
				 M84.4,54.4l-1.6-4.7c0.3-0.1,0.7-0.2,1-0.3l1.5,4.8C85,54.3,84.7,54.3,84.4,54.4z M113.4,53.8c-0.3-0.1-0.6-0.2-0.9-0.3l1.3-4.8
				c0.3,0.1,0.7,0.2,1,0.3L113.4,53.8z M87.1,53.5l-1.3-4.8c0.3-0.1,0.7-0.2,1-0.3l1.2,4.8C87.7,53.4,87.4,53.4,87.1,53.5z
				 M110.6,53c-0.3-0.1-0.6-0.1-0.9-0.2l1-4.9c0.3,0.1,0.7,0.1,1,0.2L110.6,53z M89.9,52.8l-1-4.9c0.3-0.1,0.7-0.1,1-0.2l0.9,4.9
				C90.5,52.8,90.2,52.8,89.9,52.8z M107.8,52.4c-0.3-0.1-0.6-0.1-0.9-0.1l0.7-4.9c0.3,0.1,0.7,0.1,1,0.2L107.8,52.4z M92.7,52.3
				L92,47.4c0.3-0.1,0.7-0.1,1-0.1l0.7,5C93.3,52.3,93,52.3,92.7,52.3z M105,52.1c-0.3,0-0.6-0.1-0.9-0.1l0.4-5c0.3,0,0.7,0.1,1,0.1
				L105,52.1z M95.5,52L95,47c0.3,0,0.7-0.1,1-0.1l0.4,5C96.2,51.9,95.8,52,95.5,52z M102.2,51.8c-0.3,0-0.6,0-1,0l0.1-5
				c0.4,0,0.7,0,1,0L102.2,51.8z M98.4,51.8l-0.2-5c0.3,0,0.7,0,1.1,0l0.1,5C99,51.8,98.7,51.8,98.4,51.8z"/>
		</g>
	</g>
	<g>
		<g>
			<polygon class="st2" points="99.9,118.5 102,122.8 106.6,123.4 103.3,126.7 104,131.3 99.9,129 95.8,131.3 96.6,126.7 
				93.3,123.4 97.9,122.8 			"/>
		</g>
		<g>
			<g>
				<polygon class="st2" points="111,127.5 112.3,130.1 115.1,130.5 113.1,132.5 113.5,135.4 111,133.9 108.5,135.4 109,132.5 
					106.9,130.5 109.7,130.1 				"/>
			</g>
			<g>
				<polygon class="st2" points="88.8,127.5 90.1,130.1 92.9,130.5 90.9,132.5 91.4,135.4 88.8,133.9 86.3,135.4 86.8,132.5 
					84.8,130.5 87.6,130.1 				"/>
			</g>
		</g>
	</g>
	<g>
		<g>
			<g>
				<path class="st3" d="M76.4,81.8C76.4,81.8,76.3,81.8,76.4,81.8c-0.1,0.1-0.2,0.1-0.3,0.1s-0.2,0-0.3-0.1
					c-0.1-0.1-0.2-0.2-0.4-0.2c-0.2,0-0.3-0.2-0.5-0.2c-0.2-0.1-0.5-0.1-0.8-0.1s-0.5,0-0.7,0.1s-0.4,0.2-0.5,0.3
					c-0.1,0.1-0.3,0.3-0.3,0.5c-0.1,0.2-0.1,0.4-0.1,0.6c0,0.3,0.1,0.5,0.2,0.6c0.1,0.2,0.3,0.3,0.5,0.4s0.4,0.2,0.7,0.3
					s0.5,0.2,0.8,0.3c0.3,0.1,0.6,0.2,0.8,0.3s0.5,0.3,0.7,0.5s0.4,0.4,0.5,0.7c0.1,0.3,0.2,0.6,0.2,1s-0.1,0.8-0.2,1.1
					c-0.1,0.3-0.3,0.7-0.6,0.9c-0.3,0.3-0.6,0.5-1,0.6c-0.4,0.2-0.8,0.2-1.3,0.2c-0.6,0-1.2-0.1-1.6-0.3c-0.4-0.2-0.9-0.5-1.3-0.9
					l0.4-0.6l0.1-0.1c0,0,0.1,0,0.2,0s0.2,0,0.3,0.1s0.3,0.2,0.4,0.3c0.2,0.1,0.4,0.2,0.6,0.3s0.6,0.1,0.9,0.1s0.6,0,0.8-0.1
					c0.2-0.1,0.4-0.2,0.6-0.3c0.2-0.1,0.3-0.3,0.4-0.5s0.1-0.4,0.1-0.7s-0.1-0.5-0.2-0.7S75.2,86,75,85.8c-0.2-0.1-0.4-0.2-0.7-0.3
					c-0.3-0.1-0.5-0.2-0.8-0.3c-0.3-0.1-0.6-0.2-0.8-0.3c-0.2-0.1-0.5-0.3-0.7-0.5s-0.4-0.4-0.5-0.7c-0.1-0.3-0.2-0.6-0.2-1
					c0-0.3,0.1-0.6,0.2-1s0.3-0.6,0.6-0.8c0.2-0.2,0.5-0.4,0.9-0.6c0.4-0.1,0.8-0.2,1.2-0.2c0.5,0,1,0.1,1.4,0.2
					c0.4,0.2,0.8,0.4,1.1,0.7L76.4,81.8z"/>
			</g>
			<g>
				<path class="st3" d="M87,87.8c0.1,0,0.1,0,0.2,0.1l0.5,0.5c-0.4,0.4-0.8,0.8-1.4,1c-0.5,0.2-1.2,0.4-2,0.4
					c-0.7,0-1.3-0.1-1.8-0.3c-0.5-0.2-1-0.6-1.4-1s-0.7-0.9-0.9-1.5c-0.2-0.6-0.3-1.2-0.3-1.9c0-0.7,0.1-1.3,0.3-1.9
					c0.2-0.6,0.5-1.1,1-1.5c0.4-0.4,0.9-0.7,1.5-1c0.6-0.2,1.2-0.3,1.9-0.3c0.7,0,1.3,0.1,1.8,0.3c0.5,0.2,0.9,0.5,1.3,0.9l-0.4,0.6
					l-0.1,0.1c0,0-0.1,0-0.2,0s-0.1,0-0.2-0.1c-0.1,0-0.1-0.1-0.2-0.2s-0.2-0.1-0.3-0.2c-0.1-0.1-0.3-0.1-0.4-0.2s-0.3-0.1-0.6-0.2
					c-0.2,0-0.5-0.1-0.7-0.1c-0.5,0-1,0.1-1.4,0.3c-0.4,0.2-0.8,0.4-1.1,0.7c-0.3,0.3-0.5,0.7-0.7,1.2s-0.3,1-0.3,1.5
					c0,0.6,0.1,1.1,0.3,1.6s0.4,0.8,0.7,1.2c0.3,0.3,0.6,0.6,1,0.7c0.4,0.2,0.8,0.2,1.3,0.2c0.3,0,0.5,0,0.7,0s0.4-0.1,0.6-0.2
					s0.4-0.2,0.5-0.3c0.2-0.1,0.3-0.2,0.5-0.4C86.9,87.8,87,87.8,87,87.8z"/>
			</g>
			<g>
				<path class="st3" d="M92.7,85.8v3.9h-1.3v-9.3h2.7c0.6,0,1.1,0.1,1.5,0.2s0.8,0.3,1.1,0.5c0.3,0.2,0.5,0.5,0.6,0.8
					s0.2,0.7,0.2,1.1c0,0.3-0.1,0.6-0.2,0.9s-0.3,0.5-0.5,0.8s-0.4,0.4-0.7,0.6c-0.3,0.2-0.6,0.3-1,0.4c0.2,0.1,0.3,0.2,0.4,0.4
					l2.7,3.7h-1.1c-0.2,0-0.4-0.1-0.5-0.3l-2.4-3.3c0-0.2-0.1-0.3-0.1-0.3c-0.1,0-0.2-0.1-0.4-0.1C93.7,85.8,92.7,85.8,92.7,85.8z
					 M92.7,84.8H94c0.4,0,0.7,0,1-0.1s0.5-0.2,0.7-0.4s0.3-0.4,0.4-0.6s0.1-0.5,0.1-0.7c0-0.6-0.2-1-0.5-1.3
					c-0.4-0.3-0.9-0.4-1.6-0.4h-1.4V84.8z"/>
			</g>
			<g>
				<path class="st3" d="M107.4,80.3v1h-4.5v3.1h3.6v1h-3.6v3.2h4.5v1h-5.7v-9.3C101.7,80.3,107.4,80.3,107.4,80.3z"/>
			</g>
			<g>
				<path class="st3" d="M116.9,80.3v1h-4.5v3.1h3.6v1h-3.6v3.2h4.5v1h-5.7v-9.3C111.2,80.3,116.9,80.3,116.9,80.3z"/>
			</g>
			<g>
				<path class="st3" d="M121.6,80.3c0.1,0,0.1,0.1,0.2,0.2l5.4,7c0-0.1,0-0.2,0-0.3s0-0.2,0-0.3v-6.6h1.1v9.3h-0.6
					c-0.1,0-0.2,0-0.3-0.1s-0.1-0.1-0.2-0.2l-5.4-7c0,0.1,0,0.2,0,0.3s0,0.2,0,0.3v6.6h-1.1v-9.3h0.7
					C121.4,80.3,121.5,80.3,121.6,80.3z"/>
			</g>
			<g>
				<path class="st3" d="M71.3,96.8C71.3,96.9,71.2,96.9,71.3,96.8c-0.1,0.1-0.2,0.1-0.3,0.1s-0.2,0-0.3-0.1
					c-0.1-0.1-0.2-0.2-0.4-0.2c-0.2,0-0.3-0.2-0.5-0.2c-0.2-0.1-0.5-0.1-0.8-0.1s-0.5,0-0.7,0.1s-0.4,0.2-0.5,0.3
					c-0.1,0.1-0.3,0.3-0.3,0.5c-0.1,0.2-0.1,0.4-0.1,0.6c0,0.3,0.1,0.5,0.2,0.6c0.1,0.2,0.3,0.3,0.5,0.4s0.4,0.2,0.7,0.3
					s0.5,0.2,0.8,0.3c0.3,0.1,0.6,0.2,0.8,0.3s0.5,0.3,0.7,0.5s0.4,0.4,0.5,0.7c0.1,0.3,0.2,0.6,0.2,1s-0.1,0.8-0.2,1.1
					c-0.1,0.4-0.3,0.7-0.6,0.9c-0.3,0.3-0.6,0.5-1,0.6c-0.4,0.2-0.8,0.2-1.3,0.2c-0.6,0-1.2-0.1-1.6-0.3c-0.4-0.2-0.9-0.5-1.3-0.9
					l0.4-0.6l0.1-0.1c0,0,0.1,0,0.2,0s0.2,0,0.3,0.1c0.1,0.1,0.3,0.2,0.4,0.3c0.2,0.1,0.4,0.2,0.6,0.3c0.2,0.1,0.6,0.1,0.9,0.1
					s0.6,0,0.8-0.1c0.2-0.1,0.4-0.2,0.6-0.3s0.3-0.3,0.4-0.5s0.1-0.4,0.1-0.7c0-0.3-0.1-0.5-0.2-0.7s-0.3-0.3-0.5-0.5
					c-0.2-0.1-0.4-0.2-0.7-0.3c-0.3-0.1-0.5-0.2-0.8-0.3c-0.3-0.1-0.6-0.2-0.8-0.3c-0.2-0.1-0.5-0.3-0.7-0.5s-0.4-0.4-0.5-0.7
					c-0.1-0.3-0.2-0.6-0.2-1c0-0.3,0.1-0.6,0.2-1c0.1-0.3,0.3-0.6,0.6-0.8c0.2-0.2,0.5-0.4,0.9-0.6c0.4-0.1,0.8-0.2,1.2-0.2
					c0.5,0,1,0.1,1.4,0.2c0.4,0.2,0.8,0.4,1.1,0.7L71.3,96.8z"/>
			</g>
			<g>
				<path class="st3" d="M83,104.6h-1.3v-4.2h-5v4.2h-1.3v-9.3h1.3v4.2h5v-4.2H83V104.6z"/>
			</g>
			<g>
				<path class="st3" d="M94.8,104.6h-1c-0.1,0-0.2,0-0.3-0.1c-0.1-0.1-0.1-0.1-0.2-0.2l-0.9-2.2h-4.2l-0.9,2.2
					c0,0.1-0.1,0.1-0.2,0.2s-0.2,0.1-0.3,0.1h-1l3.7-9.3h1.6L94.8,104.6z M88.7,101.1h3.5l-1.5-3.8c-0.1-0.2-0.2-0.5-0.3-0.9
					c0,0.2-0.1,0.3-0.1,0.5c0,0.1-0.1,0.3-0.1,0.4L88.7,101.1z"/>
			</g>
			<g>
				<path class="st3" d="M99.4,100.8v3.9h-1.3v-9.3h2.6c0.6,0,1.1,0.1,1.5,0.2s0.8,0.3,1.1,0.5c0.3,0.2,0.5,0.5,0.6,0.8
					s0.2,0.7,0.2,1.1c0,0.3-0.1,0.6-0.2,0.9s-0.3,0.5-0.5,0.8s-0.4,0.4-0.7,0.6c-0.3,0.2-0.6,0.3-1,0.4c0.2,0.1,0.3,0.2,0.4,0.4
					l2.7,3.7h-1.1c-0.2,0-0.4-0.1-0.5-0.3l-2.4-3.3c-0.1-0.1-0.2-0.2-0.2-0.2c-0.1,0-0.2-0.1-0.4-0.1L99.4,100.8
					C99.4,100.9,99.4,100.8,99.4,100.8z M99.4,99.8h1.3c0.4,0,0.7,0,1-0.1s0.5-0.2,0.7-0.4s0.3-0.4,0.4-0.6s0.1-0.5,0.1-0.7
					c0-0.6-0.2-1-0.5-1.3s-0.9-0.4-1.6-0.4h-1.4V99.8z"/>
			</g>
			<g>
				<path class="st3" d="M109.8,104.6h-1.3v-9.3h1.3V104.6z"/>
			</g>
			<g>
				<path class="st3" d="M115.1,95.3c0.1,0,0.1,0.1,0.2,0.2l5.4,7c0-0.1,0-0.2,0-0.3s0-0.2,0-0.3v-6.6h1.1v9.3h-0.7
					c-0.1,0-0.2,0-0.3-0.1c-0.1,0-0.1-0.1-0.2-0.2l-5.4-7c0,0.1,0,0.2,0,0.3s0,0.2,0,0.3v6.6h-1.1v-9.3h0.7
					C115,95.3,115.1,95.3,115.1,95.3z"/>
			</g>
			<g>
				<path class="st3" d="M130.2,103.8c0.3,0,0.5,0,0.7,0s0.4-0.1,0.6-0.1c0.2,0,0.4-0.1,0.5-0.2c0.2-0.1,0.3-0.1,0.5-0.2v-2.1h-1.4
					c-0.1,0-0.1,0-0.2-0.1s-0.1-0.1-0.1-0.2v-0.7h2.9v3.6c-0.2,0.2-0.5,0.3-0.7,0.4c-0.3,0.1-0.5,0.2-0.8,0.3
					c-0.3,0.1-0.6,0.1-0.9,0.2c-0.3,0-0.7,0.1-1.1,0.1c-0.7,0-1.3-0.1-1.9-0.3c-0.6-0.2-1-0.6-1.5-1c-0.4-0.4-0.7-0.9-1-1.5
					c-0.2-0.6-0.3-1.2-0.3-1.9c0-0.7,0.1-1.4,0.3-1.9c0.2-0.6,0.5-1.1,1-1.5c0.4-0.4,0.9-0.7,1.5-1c0.6-0.2,1.2-0.3,2-0.3
					c0.4,0,0.7,0,1,0.1s0.6,0.1,0.9,0.2c0.3,0.1,0.5,0.2,0.8,0.4c0.2,0.1,0.4,0.3,0.6,0.5l-0.4,0.6c-0.1,0.1-0.2,0.2-0.3,0.2
					s-0.1,0-0.2-0.1s-0.2-0.1-0.4-0.2c-0.1-0.1-0.3-0.2-0.5-0.3c-0.2-0.1-0.4-0.1-0.7-0.2s-0.6-0.1-0.9-0.1c-0.5,0-1,0.1-1.4,0.3
					c-0.4,0.2-0.8,0.4-1.1,0.7c-0.3,0.3-0.5,0.7-0.7,1.2s-0.2,1-0.2,1.5c0,0.6,0.1,1.1,0.3,1.6c0.2,0.5,0.4,0.9,0.7,1.2
					c0.3,0.3,0.7,0.6,1.1,0.7C129.3,103.8,129.7,103.8,130.2,103.8z"/>
			</g>
		</g>
	</g>
	<g>
		<path class="st3" d="M129,73.4H70.9c-0.4,0-0.6-0.3-0.6-0.6s0.3-0.6,0.6-0.6H129c0.4,0,0.7,0.3,0.7,0.6S129.4,73.4,129,73.4z"/>
	</g>
	<g>
		<path class="st3" d="M129,113.2H70.9c-0.4,0-0.6-0.3-0.6-0.7s0.3-0.7,0.6-0.7H129c0.4,0,0.7,0.3,0.7,0.7S129.4,113.2,129,113.2z"
			/>
	</g>
</g>
</svg>
