<?xml version="1.0" encoding="utf-8"?>
<!-- Generator: Adobe Illustrator 21.0.2, SVG Export Plug-In . SVG Version: 6.00 Build 0)  -->
<svg version="1.1" id="Layer_1" xmlns="http://www.w3.org/2000/svg" xmlns:xlink="http://www.w3.org/1999/xlink" x="0px" y="0px"
	 viewBox="0 0 133.3 53.7" style="enable-background:new 0 0 133.3 53.7;" xml:space="preserve">
<style type="text/css">
	.st0{fill:#F7F7F7;}
	.st1{fill:#575656;}
	.st2{fill:#FFFFFF;}
	.st3{fill:#F9B51B;}
</style>
<g>
	<g>
		<g>
			<polygon class="st0" points="37.9,51.1 25.3,51.1 27.4,41.3 35.8,41.3 			"/>
			<path class="st1" d="M37.9,51.7H25.3c-0.2,0-0.4-0.1-0.5-0.2c-0.1-0.2-0.2-0.4-0.1-0.5l2.1-9.7c0.1-0.3,0.3-0.5,0.6-0.5h8.4
				c0.3,0,0.6,0.2,0.6,0.5l2.1,9.7c0,0.2,0,0.4-0.1,0.5C38.3,51.6,38.1,51.7,37.9,51.7z M26.1,50.4h11L35.3,42h-7.3L26.1,50.4z"/>
		</g>
		<g>
			<path class="st2" d="M57.3,44.8H5.9c-2.9,0-5.2-2.3-5.2-5.2V5.9C0.7,3,3,0.7,5.9,0.7h51.5c2.9,0,5.2,2.3,5.2,5.2v33.7
				C62.6,42.5,60.2,44.8,57.3,44.8z"/>
			<path class="st1" d="M57.3,45.5H5.9c-3.2,0-5.9-2.6-5.9-5.9V5.9C0,2.6,2.6,0,5.9,0h51.5c3.2,0,5.9,2.6,5.9,5.9v33.7
				C63.2,42.8,60.6,45.5,57.3,45.5z M5.9,1.3c-2.5,0-4.6,2-4.6,4.6v33.7c0,2.5,2,4.6,4.6,4.6h51.5c2.5,0,4.6-2,4.6-4.6V5.9
				c0-2.5-2-4.6-4.6-4.6H5.9z"/>
		</g>
		<g>
			<path class="st0" d="M62.6,35.6v4c0,2.9-2.3,5.2-5.2,5.2H5.9c-2.9,0-5.2-2.3-5.2-5.2v-4"/>
			<path class="st1" d="M57.3,45.5H5.9c-3.2,0-5.9-2.6-5.9-5.9v-4C0,35.2,0.3,35,0.7,35s0.7,0.3,0.7,0.7v4c0,2.5,2,4.6,4.6,4.6h51.5
				c2.5,0,4.6-2,4.6-4.6v-4c0-0.4,0.3-0.7,0.7-0.7c0.4,0,0.7,0.3,0.7,0.7v4C63.2,42.8,60.6,45.5,57.3,45.5z"/>
		</g>
		<g>
			<path class="st1" d="M62.6,36.3H0.7C0.3,36.3,0,36,0,35.6C0,35.2,0.3,35,0.7,35h61.9c0.4,0,0.7,0.3,0.7,0.7
				C63.2,36,62.9,36.3,62.6,36.3z"/>
		</g>
		<g>
			<path class="st0" d="M39.7,53H23.5c-0.7,0-1.2-0.5-1.2-1.2v0c0-0.7,0.5-1.2,1.2-1.2h16.2c0.7,0,1.2,0.5,1.2,1.2v0
				C40.9,52.5,40.4,53,39.7,53z"/>
			<path class="st1" d="M39.7,53.7H23.5c-1,0-1.9-0.8-1.9-1.9s0.8-1.9,1.9-1.9h16.2c1,0,1.9,0.8,1.9,1.9S40.7,53.7,39.7,53.7z
				 M23.5,51.2c-0.3,0-0.6,0.3-0.6,0.6c0,0.3,0.3,0.6,0.6,0.6h16.2c0.3,0,0.6-0.3,0.6-0.6c0-0.3-0.3-0.6-0.6-0.6H23.5z"/>
		</g>
		<g>
			<circle class="st1" cx="31.6" cy="39.3" r="0.9"/>
		</g>
	</g>
	<g>
		<g>
			<rect x="8.2" y="6.7" class="st0" width="44.3" height="5.7"/>
		</g>
		<g>
			<rect x="26.9" y="16.1" class="st0" width="25.7" height="1.7"/>
		</g>
		<g>
			<rect x="26.9" y="20.2" class="st0" width="25.7" height="1.7"/>
		</g>
		<g>
			<rect x="26.9" y="24.2" class="st0" width="25.7" height="1.7"/>
		</g>
		<g>
			<rect x="26.9" y="28.6" class="st0" width="25.7" height="1.7"/>
		</g>
		<g>
			<g>
				<rect x="8.2" y="15.9" class="st0" width="16.6" height="13.9"/>
			</g>
		</g>
	</g>
</g>
<g>
	<g>
		<g>
			<polygon class="st0" points="107.9,51.1 95.4,51.1 97.5,41.3 105.9,41.3 			"/>
			<path class="st1" d="M107.9,51.7H95.4c-0.2,0-0.4-0.1-0.5-0.2c-0.1-0.2-0.2-0.4-0.1-0.5l2.1-9.7c0.1-0.3,0.3-0.5,0.6-0.5h8.4
				c0.3,0,0.6,0.2,0.6,0.5l2.1,9.7c0,0.2,0,0.4-0.1,0.5C108.3,51.6,108.1,51.7,107.9,51.7z M96.2,50.4h11l-1.8-8.4H98L96.2,50.4z"/>
		</g>
		<g>
			<path class="st2" d="M127.4,44.8H75.9c-2.9,0-5.2-2.3-5.2-5.2V5.9c0-2.9,2.3-5.2,5.2-5.2h51.5c2.9,0,5.2,2.3,5.2,5.2v33.7
				C132.6,42.5,130.3,44.8,127.4,44.8z"/>
			<path class="st1" d="M127.4,45.5H75.9c-3.2,0-5.9-2.6-5.9-5.9V5.9C70,2.6,72.7,0,75.9,0h51.5c3.2,0,5.9,2.6,5.9,5.9v33.7
				C133.3,42.8,130.6,45.5,127.4,45.5z M75.9,1.3c-2.5,0-4.6,2-4.6,4.6v33.7c0,2.5,2,4.6,4.6,4.6h51.5c2.5,0,4.6-2,4.6-4.6V5.9
				c0-2.5-2-4.6-4.6-4.6H75.9z"/>
		</g>
		<g>
			<path class="st0" d="M132.6,35.6v4c0,2.9-2.3,5.2-5.2,5.2H75.9c-2.9,0-5.2-2.3-5.2-5.2v-4"/>
			<path class="st1" d="M127.4,45.5H75.9c-3.2,0-5.9-2.6-5.9-5.9v-4c0-0.4,0.3-0.7,0.7-0.7c0.4,0,0.7,0.3,0.7,0.7v4
				c0,2.5,2,4.6,4.6,4.6h51.5c2.5,0,4.6-2,4.6-4.6v-4c0-0.4,0.3-0.7,0.7-0.7c0.4,0,0.7,0.3,0.7,0.7v4
				C133.3,42.8,130.6,45.5,127.4,45.5z"/>
		</g>
		<g>
			<path class="st1" d="M132.6,36.3H70.7c-0.4,0-0.7-0.3-0.7-0.7c0-0.4,0.3-0.7,0.7-0.7h61.9c0.4,0,0.7,0.3,0.7,0.7
				C133.3,36,133,36.3,132.6,36.3z"/>
		</g>
		<g>
			<path class="st0" d="M109.7,53H93.6c-0.7,0-1.2-0.5-1.2-1.2v0c0-0.7,0.5-1.2,1.2-1.2h16.2c0.7,0,1.2,0.5,1.2,1.2v0
				C111,52.5,110.4,53,109.7,53z"/>
			<path class="st1" d="M109.7,53.7H93.6c-1,0-1.9-0.8-1.9-1.9s0.8-1.9,1.9-1.9h16.2c1,0,1.9,0.8,1.9,1.9S110.8,53.7,109.7,53.7z
				 M93.6,51.2c-0.3,0-0.6,0.3-0.6,0.6c0,0.3,0.3,0.6,0.6,0.6h16.2c0.3,0,0.6-0.3,0.6-0.6c0-0.3-0.3-0.6-0.6-0.6H93.6z"/>
		</g>
		<g>
			<circle class="st1" cx="101.7" cy="39.3" r="0.9"/>
		</g>
	</g>
	<g>
		<g>
			<rect x="78.2" y="6.7" class="st0" width="44.3" height="5.7"/>
		</g>
		<g>
			<rect x="96.9" y="16.1" class="st0" width="25.7" height="1.7"/>
		</g>
		<g>
			<rect x="96.9" y="20.2" class="st0" width="25.7" height="1.7"/>
		</g>
		<g>
			<rect x="96.9" y="24.2" class="st0" width="25.7" height="1.7"/>
		</g>
		<g>
			<rect x="96.9" y="28.6" class="st0" width="25.7" height="1.7"/>
		</g>
		<g>
			<g>
				<rect x="78.2" y="15.9" class="st0" width="16.6" height="13.9"/>
			</g>
		</g>
	</g>
</g>
<g>
	<path class="st3" d="M78,13.5C78,20.3,72.6,37,65.8,37c-6.7,0-12.2-16.7-12.2-23.4S78,6.8,78,13.5z"/>
</g>
<path class="st2" d="M71.1,17.9v-4.1c0-0.9-0.8-1.7-1.7-1.7h-7.2c-0.9,0-1.7,0.8-1.7,1.7v4.1h0c-0.6,0-1,0.5-1,1v8.6
	c0,0.6,0.5,1,1,1h10.5c0.6,0,1-0.5,1-1V19C72.2,18.4,71.7,18,71.1,17.9z M62,13.8c0-0.1,0.1-0.2,0.2-0.2h7.2c0.1,0,0.2,0.1,0.2,0.2
	v4.1H62V13.8z M67.3,26.6h-3L65,23c-0.5-0.3-0.8-0.8-0.8-1.4c0-0.9,0.7-1.6,1.6-1.6c0.9,0,1.6,0.7,1.6,1.6c0,0.6-0.3,1.1-0.8,1.4
	L67.3,26.6z"/>
</svg>
