<?xml version="1.0" encoding="utf-8"?>
<!-- Generator: Adobe Illustrator 21.0.2, SVG Export Plug-In . SVG Version: 6.00 Build 0)  -->
<svg version="1.1" id="Layer_1" xmlns="http://www.w3.org/2000/svg" xmlns:xlink="http://www.w3.org/1999/xlink" x="0px" y="0px"
	 viewBox="0 0 69.4 69.4" style="enable-background:new 0 0 69.4 69.4;" xml:space="preserve">
<style type="text/css">
	.st0{fill:none;stroke:#F9B51B;stroke-width:1.3622;stroke-linecap:round;stroke-linejoin:round;stroke-miterlimit:10;}
	.st1{fill:#575656;}
</style>
<g>
	<circle class="st0" cx="34.5" cy="34.7" r="33.4"/>
</g>
<g>
	<path class="st1" d="M21.7,28.8h0.1l5.6,2.2l-0.1-0.1l-0.1-0.1l-2.3-3.8l0.6-0.4l3.3,5.5l-0.4,0.3h-0.1h-0.1L22.6,30l0.1,0.1
		l0.1,0.1l2.4,4l-0.6,0.4l-3.3-5.5L21.7,28.8C21.5,28.8,21.7,28.8,21.7,28.8z"/>
	<path class="st1" d="M35.2,24.3c0.3,0.4,0.4,0.8,0.5,1.3c0.1,0.4,0.1,0.8,0,1.3c-0.1,0.4-0.3,0.8-0.5,1.2s-0.6,0.6-1,0.9
		s-0.8,0.4-1.3,0.5c-0.5,0.1-0.8,0-1.2,0c-0.4-0.1-0.8-0.3-1.2-0.5c-0.4-0.3-0.6-0.6-0.9-1c-0.3-0.4-0.4-0.8-0.5-1.3
		c-0.1-0.5-0.1-0.8,0-1.3c0.1-0.4,0.3-0.8,0.5-1.2c0.3-0.4,0.5-0.6,1-0.9c0.4-0.3,0.8-0.4,1.3-0.5c0.4-0.1,0.8,0,1.2,0
		s0.8,0.3,1.2,0.5C34.7,23.6,35,23.8,35.2,24.3z M34.5,24.7c-0.3-0.4-0.4-0.6-0.6-0.8c-0.3-0.3-0.5-0.4-0.8-0.4
		c-0.3-0.1-0.5-0.1-0.9,0c-0.3,0-0.6,0.1-0.9,0.4c-0.3,0.1-0.5,0.4-0.8,0.6c-0.1,0.3-0.3,0.5-0.4,0.8c0,0.3,0,0.6,0,0.9
		c0.1,0.4,0.3,0.6,0.4,1c0.3,0.4,0.4,0.6,0.6,0.8c0.3,0.3,0.5,0.4,0.8,0.4c0.3,0.1,0.5,0.1,0.9,0c0.3,0,0.6-0.1,0.9-0.4
		c0.3-0.1,0.5-0.4,0.8-0.6c0.1-0.3,0.3-0.5,0.4-0.8c0-0.3,0-0.6,0-0.9C34.9,25.5,34.7,25.1,34.5,24.7z"/>
	<path class="st1" d="M3.9,62.1l-0.8,0.5l-3.3-5.5l0.8-0.5L3.9,62.1z"/>
	<path class="st1" d="M4.1,54.4h0.1l5.6,2.2l-0.1-0.1l-0.1-0.1l-2.3-3.8L8,52.1l3.3,5.5l-0.4,0.3h-0.1h-0.1l-5.8-2.3L5,55.7l0.1,0.1
		l2.4,4L7,60.2l-3.3-5.5L4,54.4C4,54.4,4,54.4,4.1,54.4z"/>
	<path class="st1" d="M14.3,49.4v0.1c0,0,0,0.1-0.1,0.1H14c-0.1,0-0.1,0-0.3,0c-0.1,0-0.3,0-0.4,0c-0.1,0-0.3,0.1-0.5,0.3
		c-0.1,0.1-0.3,0.3-0.4,0.4c-0.1,0.1-0.1,0.3-0.3,0.4c0,0.1,0,0.3,0,0.4s0,0.3,0.1,0.4c0.1,0.1,0.3,0.3,0.4,0.3
		c0.1,0,0.3,0.1,0.5,0.1c0.1,0,0.4,0,0.5-0.1c0.1,0,0.4-0.1,0.6-0.1c0.3,0,0.4-0.1,0.6-0.1c0.3,0,0.4,0,0.6,0c0.3,0,0.4,0.1,0.5,0.3
		c0.1,0.1,0.4,0.3,0.5,0.5s0.3,0.5,0.3,0.8c0,0.3,0,0.5,0,0.8c0,0.3-0.1,0.5-0.4,0.8c-0.1,0.3-0.4,0.4-0.6,0.6
		c-0.4,0.3-0.8,0.4-1.2,0.4s-0.8,0-1-0.1v-0.5v-0.1c0,0,0-0.1,0.1-0.1c0,0,0.1,0,0.3,0s0.3,0,0.4,0c0.1,0,0.3,0,0.5,0
		c0.1,0,0.4-0.1,0.6-0.3c0.1-0.1,0.3-0.3,0.4-0.4c0.1-0.1,0.1-0.3,0.3-0.4c0-0.1,0-0.3,0-0.5c0-0.1-0.1-0.3-0.1-0.5
		c-0.1-0.1-0.3-0.3-0.4-0.4c-0.1,0-0.3-0.1-0.5-0.1c-0.1,0-0.4,0-0.5,0.1c-0.1,0-0.4,0.1-0.5,0.1c-0.3,0-0.4,0.1-0.6,0.1
		c-0.3,0-0.4,0-0.6,0c-0.1,0-0.4-0.1-0.5-0.3c-0.1-0.1-0.4-0.3-0.5-0.5c-0.1-0.3-0.3-0.4-0.3-0.6c0-0.3,0-0.5,0-0.6
		c0-0.3,0.1-0.4,0.4-0.6c0.1-0.3,0.4-0.4,0.6-0.5c0.3-0.1,0.6-0.3,0.9-0.4c0.3,0,0.6,0,0.9,0L14.3,49.4z"/>
	<path class="st1" d="M20.3,44.6l0.4,0.6l-1.8,1l2.9,4.9L21,51.6l-2.9-4.9l-1.8,1.2l-0.4-0.6L20.3,44.6z"/>
	<path class="st1" d="M29.9,46.2l-0.5,0.4c-0.1,0-0.1,0-0.3,0c0,0-0.1,0-0.1-0.1l-1.3-1L25.3,47l0.3,1.7v0.1l-0.1,0.1l-0.5,0.4
		l-1.2-6.8l0.8-0.5L29.9,46.2z M25,46.3l2-1.3l-2.2-1.7c-0.1-0.1-0.3-0.3-0.5-0.4c0,0.1,0.1,0.3,0.1,0.4s0,0.3,0,0.3L25,46.3z"/>
	<path class="st1" d="M32.4,43.8l2.4-1.4l0.4,0.6l-3.1,1.9l-3.3-5.5l0.8-0.5L32.4,43.8z"/>
	<path class="st1" d="M37.9,40.5l2.4-1.4l0.4,0.6l-3.1,1.9l-3.3-5.5l0.8-0.5L37.9,40.5z"/>
	<path class="st1" d="M47.5,35.6L47,36c-0.1,0-0.1,0-0.3,0c0,0-0.1,0-0.1-0.1l-1.3-1l-2.6,1.5l0.3,1.7v0.1l-0.1,0.1l-0.5,0.4
		l-1.2-6.8l0.8-0.5L47.5,35.6z M42.7,35.7l2-1.3l-2.2-1.7c-0.1-0.1-0.3-0.3-0.5-0.4c0,0.1,0.1,0.3,0.1,0.4c0,0.1,0,0.3,0,0.3
		L42.7,35.7z"/>
	<path class="st1" d="M49.7,26.8l0.4,0.6l-1.8,1l2.9,4.9l-0.8,0.5l-2.9-4.9l-1.8,1l-0.4-0.6L49.7,26.8z"/>
	<path class="st1" d="M56.2,30.3l-0.8,0.5l-3.3-5.5l0.8-0.5L56.2,30.3z"/>
	<path class="st1" d="M62.6,22.7c0.3,0.4,0.4,0.8,0.5,1.3s0.1,0.8,0,1.3c-0.1,0.4-0.3,0.8-0.5,1.2s-0.5,0.6-1,0.9
		c-0.4,0.3-0.8,0.4-1.3,0.5c-0.5,0.1-0.8,0-1.2,0c-0.4-0.1-0.8-0.3-1.2-0.5c-0.4-0.3-0.6-0.6-0.9-1c-0.3-0.4-0.4-0.8-0.5-1.3
		c-0.1-0.4-0.1-0.8,0-1.3s0.3-0.8,0.5-1.2s0.5-0.6,1-0.9c0.4-0.3,0.8-0.4,1.3-0.5c0.4-0.1,0.8,0,1.2,0s0.8,0.3,1.2,0.5
		C62.1,21.9,62.4,22.3,62.6,22.7z M61.9,23.1c-0.3-0.4-0.4-0.6-0.6-0.8c-0.3-0.3-0.5-0.4-0.8-0.4c-0.3-0.1-0.5-0.1-0.9,0
		c-0.3,0-0.6,0.1-0.9,0.4c-0.3,0.1-0.5,0.4-0.8,0.6c-0.1,0.3-0.3,0.5-0.4,0.8c0,0.3,0,0.6,0,0.9c0.1,0.4,0.3,0.6,0.4,1
		c0.3,0.4,0.4,0.6,0.6,0.8c0.3,0.3,0.5,0.4,0.8,0.4c0.3,0.1,0.5,0.1,0.9,0c0.3,0,0.6-0.1,0.9-0.4c0.3-0.1,0.5-0.4,0.8-0.6
		c0.1-0.3,0.3-0.5,0.4-0.8c0-0.3,0-0.6,0-0.9C62.3,23.8,62.1,23.4,61.9,23.1z"/>
	<path class="st1" d="M64,18.1h0.1l5.6,2.2l-0.1-0.1L69.5,20l-2.3-3.8l0.6-0.4l3.3,5.5l-0.4,0.3h-0.1h-0.1l-5.6-2.2l0.1,0.1l0.1,0.1
		l2.4,4l-0.8,0.3l-3.3-5.5l0.4-0.3H64z"/>
</g>
<g>
	<line class="st0" x1="10.9" y1="11.1" x2="58.2" y2="58.4"/>
</g>
</svg>
