<?xml version="1.0" encoding="utf-8"?>
<!-- Generator: Adobe Illustrator 21.0.2, SVG Export Plug-In . SVG Version: 6.00 Build 0)  -->
<svg version="1.1" id="Layer_1" xmlns="http://www.w3.org/2000/svg" xmlns:xlink="http://www.w3.org/1999/xlink" x="0px" y="0px"
	 viewBox="0 0 69.4 69.4" style="enable-background:new 0 0 69.4 69.4;" xml:space="preserve">
<style type="text/css">
	.st0{fill:none;stroke:#F9B51B;stroke-width:1.3622;stroke-linecap:round;stroke-linejoin:round;stroke-miterlimit:10;}
	.st1{enable-background:new    ;}
	.st2{fill:#575656;}
</style>
<g>
	<circle class="st0" cx="34.7" cy="34.7" r="33.4"/>
</g>
<g class="st1">
	<path class="st2" d="M11.4,45.4c0,0,0.1,0,0.2,0l5.7,2.2c0-0.1-0.1-0.1-0.1-0.2c0-0.1-0.1-0.1-0.1-0.2l-2.4-3.9l0.7-0.4l3.3,5.5
		l-0.4,0.2c-0.1,0-0.1,0.1-0.2,0.1c-0.1,0-0.1,0-0.2,0l-5.7-2.2c0,0.1,0.1,0.1,0.1,0.2c0,0.1,0.1,0.1,0.1,0.2l2.4,3.9l-0.7,0.4
		l-3.3-5.5l0.4-0.2C11.3,45.4,11.4,45.4,11.4,45.4z"/>
	<path class="st2" d="M24.5,41.2c0.2,0.4,0.4,0.8,0.5,1.3c0.1,0.4,0.1,0.8,0,1.2c-0.1,0.4-0.3,0.8-0.5,1.1s-0.6,0.6-1,0.9
		c-0.4,0.2-0.8,0.4-1.2,0.5c-0.4,0.1-0.8,0-1.2-0.1c-0.4-0.1-0.8-0.3-1.1-0.6c-0.3-0.3-0.6-0.6-0.9-1c-0.3-0.4-0.4-0.8-0.5-1.3
		s-0.1-0.8,0-1.2c0.1-0.4,0.3-0.8,0.5-1.1c0.2-0.3,0.6-0.6,1-0.9c0.4-0.2,0.8-0.4,1.2-0.5c0.4-0.1,0.8,0,1.2,0.1
		c0.4,0.1,0.8,0.3,1.1,0.6C24,40.4,24.3,40.8,24.5,41.2z M23.7,41.7c-0.2-0.3-0.4-0.6-0.7-0.8c-0.3-0.2-0.5-0.4-0.8-0.4
		c-0.3-0.1-0.6-0.1-0.9-0.1c-0.3,0-0.6,0.2-0.9,0.3c-0.3,0.2-0.5,0.4-0.7,0.6c-0.2,0.2-0.3,0.5-0.4,0.8c-0.1,0.3-0.1,0.6,0,0.9
		c0.1,0.3,0.2,0.7,0.4,1c0.2,0.3,0.4,0.6,0.7,0.8c0.3,0.2,0.5,0.4,0.8,0.4c0.3,0.1,0.6,0.1,0.9,0.1c0.3,0,0.6-0.2,0.9-0.3
		c0.3-0.2,0.5-0.4,0.7-0.6c0.2-0.2,0.3-0.5,0.4-0.8c0.1-0.3,0-0.6,0-0.9C24.1,42.3,23.9,42,23.7,41.7z"/>
	<path class="st2" d="M30.8,34.8c0,0.1,0,0.1,0,0.1c0,0,0,0.1-0.1,0.1c0,0-0.1,0-0.2,0c-0.1,0-0.2,0-0.3,0c-0.1,0-0.3,0-0.4,0
		c-0.1,0-0.3,0.1-0.5,0.2c-0.2,0.1-0.3,0.2-0.4,0.3c-0.1,0.1-0.2,0.2-0.2,0.4c0,0.1-0.1,0.3,0,0.4c0,0.1,0.1,0.3,0.1,0.4
		c0.1,0.2,0.2,0.3,0.3,0.3c0.1,0.1,0.3,0.1,0.5,0.1c0.2,0,0.3,0,0.5-0.1c0.2,0,0.4-0.1,0.6-0.1c0.2,0,0.4-0.1,0.6-0.1
		c0.2,0,0.4,0,0.6,0c0.2,0,0.4,0.1,0.5,0.2c0.2,0.1,0.3,0.3,0.5,0.5c0.1,0.2,0.2,0.5,0.3,0.8c0,0.3,0,0.5,0,0.8
		c-0.1,0.3-0.2,0.5-0.4,0.7c-0.2,0.2-0.4,0.4-0.7,0.6c-0.4,0.2-0.7,0.3-1.1,0.4c-0.4,0-0.7,0-1.1-0.1v-0.5c0,0,0-0.1,0-0.1
		c0,0,0-0.1,0.1-0.1c0.1,0,0.1,0,0.2,0c0.1,0,0.2,0,0.4,0c0.1,0,0.3,0,0.5,0c0.2,0,0.4-0.1,0.6-0.2c0.2-0.1,0.3-0.2,0.4-0.4
		c0.1-0.1,0.2-0.3,0.2-0.4c0-0.1,0.1-0.3,0-0.4c0-0.2-0.1-0.3-0.2-0.5c-0.1-0.2-0.2-0.3-0.4-0.3c-0.1-0.1-0.3-0.1-0.5-0.1
		c-0.2,0-0.3,0-0.5,0.1c-0.2,0-0.4,0.1-0.6,0.1c-0.2,0-0.4,0.1-0.6,0.1c-0.2,0-0.4,0-0.6,0c-0.2,0-0.4-0.1-0.5-0.2
		c-0.2-0.1-0.3-0.3-0.5-0.5c-0.1-0.2-0.2-0.4-0.2-0.6c0-0.2,0-0.5,0-0.7c0.1-0.2,0.2-0.4,0.3-0.7c0.2-0.2,0.4-0.4,0.6-0.6
		c0.3-0.2,0.6-0.3,0.9-0.4c0.3-0.1,0.6-0.1,0.9,0L30.8,34.8z"/>
	<path class="st2" d="M36,30.4l0.4,0.6l-2.6,1.6l1.1,1.8l2.1-1.3l0.4,0.6L35.2,35l1.1,1.9l2.6-1.6l0.4,0.6L36,38l-3.3-5.5L36,30.4z"
		/>
	<path class="st2" d="M41.9,26.9l0.4,0.6l-1.8,1.1l3,4.9l-0.7,0.5l-3-4.9L38,30.1l-0.4-0.6L41.9,26.9z"/>
	<path class="st2" d="M48.9,29.3c0.2-0.1,0.4-0.3,0.5-0.5c0.1-0.2,0.2-0.4,0.3-0.6c0-0.2,0-0.4,0-0.7s-0.1-0.5-0.3-0.7l-2-3.3
		l0.7-0.4l2,3.3c0.2,0.3,0.3,0.6,0.4,1c0.1,0.3,0.1,0.7,0,1c-0.1,0.3-0.2,0.6-0.4,0.9c-0.2,0.3-0.5,0.5-0.8,0.7
		c-0.3,0.2-0.7,0.3-1,0.4c-0.3,0.1-0.7,0-1,0c-0.3-0.1-0.6-0.2-0.9-0.4c-0.3-0.2-0.5-0.5-0.7-0.8l-2-3.3l0.7-0.4l2,3.3
		c0.1,0.2,0.3,0.4,0.5,0.6c0.2,0.2,0.4,0.3,0.6,0.3c0.2,0.1,0.4,0.1,0.7,0C48.4,29.6,48.7,29.5,48.9,29.3z"/>
	<path class="st2" d="M53.4,24.6l1.2,2.1l-0.7,0.4l-3.3-5.5l1.6-1c0.3-0.2,0.7-0.4,1-0.4c0.3-0.1,0.6-0.1,0.8,0
		c0.3,0,0.5,0.1,0.7,0.3c0.2,0.2,0.4,0.4,0.5,0.6c0.2,0.3,0.3,0.5,0.3,0.8c0,0.3,0,0.5-0.1,0.8c-0.1,0.3-0.2,0.5-0.4,0.7
		c-0.2,0.2-0.5,0.5-0.8,0.7L53.4,24.6z M53,24l0.9-0.5c0.2-0.1,0.4-0.3,0.5-0.4c0.1-0.2,0.2-0.3,0.3-0.5c0-0.2,0.1-0.3,0-0.5
		c0-0.2-0.1-0.3-0.2-0.5c-0.2-0.3-0.5-0.6-0.8-0.6c-0.3-0.1-0.7,0-1.2,0.3l-0.9,0.5L53,24z"/>
</g>
<g>
	<line class="st0" x1="11.1" y1="11.1" x2="58.4" y2="58.4"/>
</g>
</svg>
