<?xml version="1.0" encoding="utf-8"?>
<!-- Generator: Adobe Illustrator 21.0.2, SVG Export Plug-In . SVG Version: 6.00 Build 0)  -->
<svg version="1.1" id="Layer_1" xmlns="http://www.w3.org/2000/svg" xmlns:xlink="http://www.w3.org/1999/xlink" x="0px" y="0px"
	 viewBox="0 0 200 200" style="enable-background:new 0 0 200 200;" xml:space="preserve">
<style type="text/css">
	.st0{fill:#FFFFFF;}
	.st1{fill:#F7F7F7;}
	.st2{fill:#575656;}
	.st3{fill:#B0B0B0;}
	.st4{fill:#F9B51B;}
</style>
<g>
	<g>
		<g>
			<circle class="st0" cx="100" cy="100" r="100"/>
		</g>
	</g>
	<g>
		<g>
			<g>
				<path class="st1" d="M163.8,102.4c-5.7-0.3-5.8-2.2-5.8-2.2l-3.1,1l-3.1-1c0,0-0.1,1.9-5.8,2.2c-4.2,0.3-4.2,13-4.2,13h13h0.3
					h13C168,115.5,168,102.7,163.8,102.4z"/>
				<path class="st2" d="M168,116.3h-26.4c-0.5,0-0.8-0.4-0.8-0.8c0-2.3,0.2-13.6,5-13.9c4.5-0.2,5.1-1.5,5.1-1.5
					c0-0.3,0.1-0.4,0.4-0.6c0.2-0.1,0.5-0.1,0.7-0.1l2.9,0.9l2.9-0.9c0.2-0.1,0.5,0,0.7,0.1c0.2,0.1,0.3,0.4,0.4,0.6l0,0
					c0,0,0.7,1.2,5,1.4l0,0c4.8,0.3,5,11.6,5,13.9C168.8,116,168.4,116.3,168,116.3z M142.5,114.6h24.6c-0.1-4.9-1.2-11.2-3.4-11.4
					c-4-0.2-5.6-1.2-6.2-2l-2.4,0.7c-0.2,0-0.3,0-0.5,0l-2.5-0.6c-0.6,0.8-2.2,1.8-6.2,2C143.6,103.4,142.6,109.7,142.5,114.6z"/>
			</g>
			<g>
				<ellipse class="st0" cx="154.9" cy="99.7" rx="3.5" ry="4.1"/>
				<path class="st2" d="M154.9,104.6c-2.4,0-4.4-2.2-4.4-4.9c0-2.7,2-4.9,4.4-4.9c2.4,0,4.4,2.2,4.4,4.9
					C159.3,102.4,157.3,104.6,154.9,104.6z M154.9,96.5c-1.5,0-2.7,1.4-2.7,3.2c0,1.8,1.2,3.2,2.7,3.2s2.7-1.4,2.7-3.2
					C157.6,97.9,156.4,96.5,154.9,96.5z"/>
			</g>
			<g>
				<path class="st2" d="M155.9,96.7h-2.3c-3.3,0-6-2.7-6-6v-2.2c0-3.3,2.7-6,6-6h2.2c3.3,0,6,2.7,6,6v2.2
					C161.7,94.1,159.1,96.7,155.9,96.7z"/>
			</g>
			<g>
				<path class="st0" d="M161.4,92.2L161.4,92.2c0-0.1,0-0.3,0-0.4c0-4.9-2.9-5.8-6.7-5.8c-3.8,0-6.6,0.9-6.6,5.8c0,0.1,0,0.3,0,0.4
					c-0.3,0.1-0.5,0.4-0.5,0.7v1.2c0,0.4,0.3,0.7,0.7,0.7c0.1,0,0.1,0,0.1,0c0.8,3.5,3.3,6.3,6.4,6.3c3.1,0,5.4-2.9,6.4-6.4
					c0.1,0,0.3,0.1,0.4,0.1c0.4,0,0.7-0.3,0.7-0.7v-1.2C162.1,92.5,161.8,92.2,161.4,92.2z"/>
				<path class="st2" d="M154.8,101.9c-3.2,0-6-2.5-7.1-6.3c-0.6-0.2-1-0.8-1-1.4v-1.3c0-0.5,0.2-0.8,0.5-1.1c0-5.9,4-6.7,7.5-6.7
					s7.4,0.7,7.5,6.5c0.3,0.2,0.6,0.6,0.8,1c0,0.1,0,0.2,0,0.3v1.2c0,0.8-0.6,1.4-1.3,1.5C160.5,99.5,157.9,101.9,154.8,101.9z
					 M148.4,94c0.4,0,0.7,0.3,0.8,0.7c0.8,3.3,3,5.6,5.6,5.6c3,0,4.9-3.1,5.6-5.8c0.1-0.4,0.4-0.6,0.8-0.6c0.1,0,0.2,0,0.2,0v-0.8
					l0,0c-0.5,0-0.8-0.4-0.8-0.8v-0.4c0-4.2-2.1-5-5.8-5c-3.7,0-5.8,0.8-5.8,5v0.4c0,0.3-0.2,0.6-0.5,0.8h-0.1
					C148.4,93.1,148.4,94,148.4,94z"/>
			</g>
			<g>
				<path class="st2" d="M148.1,89.2c0,0,3.3-5,8,0c4.5,4.8,5.7,2.6,5.7,2.6l-0.7-4.8l-4.8-2.9c0,0-5.4-0.1-6.1,0s-2.6,4.5-2.6,4.5
					L148.1,89.2z"/>
			</g>
		</g>
		<g>
			<g>
				<path class="st1" d="M163.8,146.9c-5.7-0.3-5.8-2.2-5.8-2.2l-3.1,1l-3.1-1c0,0-0.1,1.9-5.8,2.2c-4.2,0.3-4.2,13-4.2,13h13h0.3
					h13C168,159.8,168,147,163.8,146.9z"/>
				<path class="st2" d="M168,160.8h-26.4c-0.5,0-0.8-0.4-0.8-0.8c0-2.3,0.2-13.6,5-13.9c4.5-0.2,5.1-1.5,5.1-1.5
					c0-0.3,0.1-0.4,0.4-0.6c0.2-0.1,0.5-0.1,0.7-0.1l2.9,0.9l2.9-0.9c0.2-0.1,0.5,0,0.7,0.1c0.2,0.1,0.3,0.4,0.4,0.6l0,0
					c0,0,0.7,1.2,5,1.4c4.8,0.2,5,11.6,5,13.9C168.8,160.4,168.4,160.8,168,160.8z M142.5,159.1h24.6c-0.1-4.9-1.2-11.3-3.4-11.4
					l0,0c-4-0.2-5.6-1.2-6.2-2l-2.4,0.7c-0.2,0-0.3,0-0.5,0l-2.5-0.7c-0.6,0.8-2.2,1.8-6.2,2C143.6,147.9,142.6,154.2,142.5,159.1z"
					/>
			</g>
			<g>
				<ellipse class="st0" cx="154.9" cy="144.2" rx="3.5" ry="4.1"/>
				<path class="st2" d="M154.9,149.1c-2.4,0-4.4-2.2-4.4-4.9s2-4.9,4.4-4.9c2.4,0,4.4,2.2,4.4,4.9S157.3,149.1,154.9,149.1z
					 M154.9,140.9c-1.5,0-2.7,1.4-2.7,3.2c0,1.8,1.2,3.2,2.7,3.2s2.7-1.4,2.7-3.2C157.6,142.3,156.4,140.9,154.9,140.9z"/>
			</g>
			<g>
				<path class="st2" d="M155.9,141.2h-2.3c-3.3,0-6-2.7-6-6V133c0-3.3,2.7-6,6-6h2.2c3.3,0,6,2.7,6,6v2.2
					C161.7,138.5,159.1,141.2,155.9,141.2z"/>
			</g>
			<g>
				<path class="st0" d="M161.4,136.7L161.4,136.7c0-0.1,0-0.3,0-0.4c0-4.9-2.9-5.8-6.7-5.8c-3.8,0-6.7,1-6.7,5.8c0,0.1,0,0.3,0,0.4
					c-0.3,0.1-0.5,0.4-0.5,0.7v1.2c0,0.4,0.3,0.7,0.7,0.7c0.1,0,0.1,0,0.1,0c0.8,3.5,3.3,6.3,6.4,6.3c3.1,0,5.4-2.9,6.4-6.4
					c0.1,0,0.3,0.1,0.4,0.1c0.4,0,0.7-0.3,0.7-0.7v-1.2C162.1,137,161.8,136.7,161.4,136.7z"/>
				<path class="st2" d="M154.8,146.4c-3.2,0-6-2.5-7.1-6.3c-0.6-0.2-1-0.8-1-1.4v-1.2c0-0.5,0.2-0.8,0.5-1.1c0-5.9,4-6.7,7.5-6.7
					s7.4,0.7,7.5,6.5c0.3,0.2,0.6,0.6,0.8,1c0,0.1,0,0.2,0,0.3v1.2c0,0.8-0.6,1.4-1.3,1.5C160.5,144,157.9,146.4,154.8,146.4z
					 M148.4,138.4c0.4,0,0.7,0.3,0.8,0.7c0.8,3.3,3,5.6,5.6,5.6c3,0,4.9-3.1,5.6-5.8c0.1-0.4,0.4-0.6,0.8-0.6c0.1,0,0.2,0,0.2,0
					v-0.8l0,0c-0.5,0-0.8-0.4-0.8-0.8v-0.4c0-4.2-2.1-5-5.8-5c-3.7,0-5.8,0.8-5.8,5v0.4c0,0.3-0.2,0.6-0.5,0.8h-0.1
					C148.4,137.5,148.4,138.4,148.4,138.4z"/>
			</g>
			<g>
				<path class="st2" d="M148.1,133.6c0,0,3.3-5,8,0c4.5,4.8,5.7,2.6,5.7,2.6l-0.7-4.8l-4.8-2.9c0,0-5.4-0.1-6.1,0
					c-0.7,0.1-2.6,4.5-2.6,4.5L148.1,133.6z"/>
			</g>
		</g>
		<g>
			<g>
				<g>
					<g>
						<path class="st3" d="M117.9,62h-0.7c-0.5,0-0.8-0.4-0.8-0.8c0-0.4,0.4-0.8,0.8-0.8h0.7c0.5,0,0.8,0.4,0.8,0.8
							C118.7,61.6,118.4,62,117.9,62z"/>
					</g>
					<g>
						<path class="st3" d="M145,62h-1.4c-0.5,0-0.8-0.4-0.8-0.8c0-0.4,0.4-0.8,0.8-0.8h1.4c0.5,0,0.8,0.4,0.8,0.8
							C145.8,61.6,145.4,62,145,62z M139.5,62h-1.4c-0.5,0-0.8-0.4-0.8-0.8c0-0.4,0.4-0.8,0.8-0.8h1.4c0.5,0,0.8,0.4,0.8,0.8
							C140.3,61.6,140,62,139.5,62z M134.1,62h-1.4c-0.5,0-0.8-0.4-0.8-0.8c0-0.4,0.4-0.8,0.8-0.8h1.4c0.5,0,0.8,0.4,0.8,0.8
							C134.9,61.6,134.6,62,134.1,62z M128.7,62h-1.4c-0.5,0-0.8-0.4-0.8-0.8c0-0.4,0.4-0.8,0.8-0.8h1.4c0.5,0,0.8,0.4,0.8,0.8
							C129.5,61.6,129.1,62,128.7,62z M123.2,62h-1.4c-0.5,0-0.8-0.4-0.8-0.8c0-0.4,0.4-0.8,0.8-0.8h1.4c0.5,0,0.8,0.4,0.8,0.8
							C124,61.6,123.7,62,123.2,62z"/>
					</g>
					<g>
						<path class="st3" d="M149.8,62h-0.7c-0.5,0-0.8-0.4-0.8-0.8c0-0.4,0.4-0.8,0.8-0.8h0.7c0.5,0,0.8,0.4,0.8,0.8
							C150.6,61.6,150.2,62,149.8,62z"/>
					</g>
				</g>
			</g>
			<g>
				<g>
					<g>
						<path class="st3" d="M68.9,62h-0.7c-0.5,0-0.8-0.4-0.8-0.8c0-0.4,0.4-0.8,0.8-0.8h0.7c0.5,0,0.8,0.4,0.8,0.8
							C69.7,61.6,69.3,62,68.9,62z"/>
					</g>
					<g>
						<path class="st3" d="M89.5,62h-1.3c-0.5,0-0.8-0.4-0.8-0.8c0-0.4,0.4-0.8,0.8-0.8h1.3c0.5,0,0.8,0.4,0.8,0.8
							C90.3,61.6,90,62,89.5,62z M84.3,62H83c-0.5,0-0.8-0.4-0.8-0.8c0-0.4,0.4-0.8,0.8-0.8h1.3c0.5,0,0.8,0.4,0.8,0.8
							C85.1,61.6,84.8,62,84.3,62z M79.2,62h-1.3c-0.5,0-0.8-0.4-0.8-0.8c0-0.4,0.4-0.8,0.8-0.8h1.3c0.5,0,0.8,0.4,0.8,0.8
							C80,61.6,79.6,62,79.2,62z M74,62h-1.3c-0.5,0-0.8-0.4-0.8-0.8c0-0.4,0.4-0.8,0.8-0.8H74c0.5,0,0.8,0.4,0.8,0.8
							C74.8,61.6,74.4,62,74,62z"/>
					</g>
					<g>
						<path class="st3" d="M94.2,62h-0.7c-0.5,0-0.8-0.4-0.8-0.8c0-0.4,0.4-0.8,0.8-0.8h0.7c0.5,0,0.8,0.4,0.8,0.8
							C95,61.6,94.6,62,94.2,62z"/>
					</g>
				</g>
			</g>
			<g>
				<g>
					<circle class="st0" cx="106.4" cy="61.1" r="8.2"/>
					<path class="st4" d="M106.4,70.1c-5,0-9-4-9-9s4-9,9-9s9,4,9,9S111.4,70.1,106.4,70.1z M106.4,53.8c-4,0-7.3,3.3-7.3,7.3
						s3.3,7.3,7.3,7.3s7.3-3.3,7.3-7.3S110.4,53.8,106.4,53.8z"/>
				</g>
				<g>
					<g>
						<path class="st2" d="M106.4,65.5c-0.5,0-0.8-0.4-0.8-0.8v-7.1c0-0.5,0.4-0.8,0.8-0.8c0.4,0,0.8,0.4,0.8,0.8v7.1
							C107.2,65.1,106.9,65.5,106.4,65.5z"/>
					</g>
					<g>
						<path class="st2" d="M109.8,62h-6.9c-0.5,0-0.8-0.4-0.8-0.8c0-0.4,0.4-0.8,0.8-0.8h6.9c0.5,0,0.8,0.4,0.8,0.8
							C110.6,61.6,110.3,62,109.8,62z"/>
					</g>
				</g>
			</g>
		</g>
		<g>
			<g>
				<g>
					<g>
						<path class="st3" d="M117.9,150.9h-0.7c-0.5,0-0.8-0.4-0.8-0.8c0-0.4,0.4-0.8,0.8-0.8h0.7c0.5,0,0.8,0.4,0.8,0.8
							C118.7,150.5,118.4,150.9,117.9,150.9z"/>
					</g>
					<g>
						<path class="st3" d="M134.1,150.9h-1.4c-0.5,0-0.8-0.4-0.8-0.8c0-0.4,0.4-0.8,0.8-0.8h1.4c0.5,0,0.8,0.4,0.8,0.8
							C134.9,150.5,134.6,150.9,134.1,150.9z M128.7,150.9h-1.4c-0.5,0-0.8-0.4-0.8-0.8c0-0.4,0.4-0.8,0.8-0.8h1.4
							c0.5,0,0.8,0.4,0.8,0.8C129.5,150.5,129.1,150.9,128.7,150.9z M123.2,150.9h-1.4c-0.5,0-0.8-0.4-0.8-0.8
							c0-0.4,0.4-0.8,0.8-0.8h1.4c0.5,0,0.8,0.4,0.8,0.8C124,150.5,123.7,150.9,123.2,150.9z"/>
					</g>
					<g>
						<path class="st3" d="M138.9,150.9h-0.7c-0.5,0-0.8-0.4-0.8-0.8c0-0.4,0.4-0.8,0.8-0.8h0.7c0.5,0,0.8,0.4,0.8,0.8
							C139.7,150.5,139.3,150.9,138.9,150.9z"/>
					</g>
				</g>
			</g>
			<g>
				<g>
					<g>
						<path class="st3" d="M68.9,150.9h-0.7c-0.5,0-0.8-0.4-0.8-0.8c0-0.4,0.4-0.8,0.8-0.8h0.7c0.5,0,0.8,0.4,0.8,0.8
							C69.7,150.5,69.3,150.9,68.9,150.9z"/>
					</g>
					<g>
						<path class="st3" d="M89.5,150.9h-1.3c-0.5,0-0.8-0.4-0.8-0.8c0-0.4,0.4-0.8,0.8-0.8h1.3c0.5,0,0.8,0.4,0.8,0.8
							C90.3,150.5,90,150.9,89.5,150.9z M84.3,150.9H83c-0.5,0-0.8-0.4-0.8-0.8c0-0.4,0.4-0.8,0.8-0.8h1.3c0.5,0,0.8,0.4,0.8,0.8
							C85.1,150.5,84.8,150.9,84.3,150.9z M79.2,150.9h-1.3c-0.5,0-0.8-0.4-0.8-0.8c0-0.4,0.4-0.8,0.8-0.8h1.3
							c0.5,0,0.8,0.4,0.8,0.8C80,150.5,79.6,150.9,79.2,150.9z M74,150.9h-1.3c-0.5,0-0.8-0.4-0.8-0.8c0-0.4,0.4-0.8,0.8-0.8H74
							c0.5,0,0.8,0.4,0.8,0.8C74.8,150.5,74.4,150.9,74,150.9z"/>
					</g>
					<g>
						<path class="st3" d="M94.2,150.9h-0.7c-0.5,0-0.8-0.4-0.8-0.8c0-0.4,0.4-0.8,0.8-0.8h0.7c0.5,0,0.8,0.4,0.8,0.8
							C95,150.5,94.6,150.9,94.2,150.9z"/>
					</g>
				</g>
			</g>
			<g>
				<g>
					<circle class="st0" cx="106.4" cy="150" r="8.2"/>
					<path class="st4" d="M106.4,159c-5,0-9-4-9-9s4-9,9-9s9,4,9,9S111.4,159,106.4,159z M106.4,142.7c-4,0-7.3,3.3-7.3,7.3
						s3.3,7.3,7.3,7.3s7.3-3.3,7.3-7.3S110.4,142.7,106.4,142.7z"/>
				</g>
				<g>
					<g>
						<path class="st2" d="M106.4,154.4c-0.5,0-0.8-0.4-0.8-0.8v-6.9c0-0.5,0.4-0.8,0.8-0.8c0.4,0,0.8,0.4,0.8,0.8v6.9
							C107.2,154,106.9,154.4,106.4,154.4z"/>
					</g>
					<g>
						<path class="st2" d="M109.8,150.9h-6.9c-0.5,0-0.8-0.4-0.8-0.8c0-0.4,0.4-0.8,0.8-0.8h6.9c0.5,0,0.8,0.4,0.8,0.8
							C110.6,150.5,110.3,150.9,109.8,150.9z"/>
					</g>
				</g>
			</g>
		</g>
		<g>
			<g>
				<g>
					<g>
						<path class="st3" d="M117.9,106.4h-0.7c-0.5,0-0.8-0.4-0.8-0.8c0-0.4,0.4-0.8,0.8-0.8h0.7c0.5,0,0.8,0.4,0.8,0.8
							C118.7,106,118.4,106.4,117.9,106.4z"/>
					</g>
					<g>
						<path class="st3" d="M134.1,106.4h-1.4c-0.5,0-0.8-0.4-0.8-0.8c0-0.4,0.4-0.8,0.8-0.8h1.4c0.5,0,0.8,0.4,0.8,0.8
							C134.9,106,134.6,106.4,134.1,106.4z M128.7,106.4h-1.4c-0.5,0-0.8-0.4-0.8-0.8c0-0.4,0.4-0.8,0.8-0.8h1.4
							c0.5,0,0.8,0.4,0.8,0.8C129.5,106,129.1,106.4,128.7,106.4z M123.2,106.4h-1.4c-0.5,0-0.8-0.4-0.8-0.8c0-0.4,0.4-0.8,0.8-0.8
							h1.4c0.5,0,0.8,0.4,0.8,0.8C124,106,123.7,106.4,123.2,106.4z"/>
					</g>
					<g>
						<path class="st3" d="M138.9,106.4h-0.7c-0.5,0-0.8-0.4-0.8-0.8c0-0.4,0.4-0.8,0.8-0.8h0.7c0.5,0,0.8,0.4,0.8,0.8
							C139.7,106,139.3,106.4,138.9,106.4z"/>
					</g>
				</g>
			</g>
			<g>
				<g>
					<g>
						<path class="st3" d="M54.7,106.4h-0.6c-0.5,0-0.8-0.4-0.8-0.8c0-0.4,0.4-0.8,0.8-0.8h0.7c0.5,0,0.8,0.4,0.8,0.8
							C55.6,106,55.2,106.4,54.7,106.4z"/>
					</g>
					<g>
						<path class="st3" d="M89.2,106.4h-1.4c-0.5,0-0.8-0.4-0.8-0.8c0-0.4,0.4-0.8,0.8-0.8h1.4c0.5,0,0.8,0.4,0.8,0.8
							C90,106,89.6,106.4,89.2,106.4z M83.4,106.4H82c-0.5,0-0.8-0.4-0.8-0.8c0-0.4,0.4-0.8,0.8-0.8h1.4c0.5,0,0.8,0.4,0.8,0.8
							C84.2,106,83.9,106.4,83.4,106.4z M77.7,106.4h-1.4c-0.5,0-0.8-0.4-0.8-0.8c0-0.4,0.4-0.8,0.8-0.8h1.4c0.5,0,0.8,0.4,0.8,0.8
							C78.5,106,78.2,106.4,77.7,106.4z M72,106.4h-1.5c-0.5,0-0.8-0.4-0.8-0.8c0-0.4,0.4-0.8,0.8-0.8h1.4c0.5,0,0.8,0.4,0.8,0.8
							C72.7,106,72.4,106.4,72,106.4z M66.2,106.4h-1.4c-0.5,0-0.8-0.4-0.8-0.8c0-0.4,0.4-0.8,0.8-0.8h1.4c0.5,0,0.8,0.4,0.8,0.8
							C67,106,66.7,106.4,66.2,106.4z M60.5,106.4h-1.4c-0.5,0-0.8-0.4-0.8-0.8c0-0.4,0.4-0.8,0.8-0.8h1.4c0.5,0,0.8,0.4,0.8,0.8
							C61.3,106,61,106.4,60.5,106.4z"/>
					</g>
					<g>
						<path class="st3" d="M94.2,106.4h-0.7c-0.5,0-0.8-0.4-0.8-0.8c0-0.4,0.4-0.8,0.8-0.8h0.7c0.5,0,0.8,0.4,0.8,0.8
							C95,106,94.6,106.4,94.2,106.4z"/>
					</g>
				</g>
			</g>
			<g>
				<g>
					<circle class="st0" cx="106.4" cy="105.6" r="8.2"/>
					<path class="st4" d="M106.4,114.6c-5,0-9-4-9-9s4-9,9-9s9,4,9,9S111.4,114.6,106.4,114.6z M106.4,98.3c-4,0-7.3,3.3-7.3,7.3
						c0,4,3.3,7.3,7.3,7.3s7.3-3.3,7.3-7.3S110.4,98.3,106.4,98.3z"/>
				</g>
				<g>
					<g>
						<path class="st2" d="M106.4,109.9c-0.5,0-0.8-0.4-0.8-0.8V102c0-0.5,0.4-0.8,0.8-0.8c0.4,0,0.8,0.4,0.8,0.8v7.1
							C107.2,109.6,106.9,109.9,106.4,109.9z"/>
					</g>
					<g>
						<path class="st2" d="M109.8,106.4h-6.9c-0.5,0-0.8-0.4-0.8-0.8c0-0.4,0.4-0.8,0.8-0.8h6.9c0.5,0,0.8,0.4,0.8,0.8
							C110.6,106,110.3,106.4,109.8,106.4z"/>
					</g>
				</g>
			</g>
		</g>
		<g>
			<g>
				<path class="st1" d="M163.8,58c-5.7-0.3-5.8-2.2-5.8-2.2l-3.1,1l-3.3-1c0,0-0.1,1.9-5.8,2.2c-4.2,0.3-4.2,13-4.2,13h13h0.4h13
					C168,70.9,168,58.1,163.8,58z"/>
				<path class="st2" d="M168,71.9h-26.5c-0.5,0-0.8-0.4-0.8-0.8c0-2.3,0.2-13.6,5-13.9c4.5-0.2,5.1-1.5,5.1-1.5
					c0-0.3,0.1-0.4,0.4-0.6s0.5-0.1,0.7-0.1l3,0.9l2.9-0.9c0.2-0.1,0.5,0,0.7,0.1c0.2,0.1,0.3,0.4,0.4,0.6l0,0c0,0,0.7,1.2,5,1.4
					c4.8,0.2,5,11.6,5,13.9C168.8,71.5,168.4,71.9,168,71.9z M142.3,70.2h24.8c-0.1-4.9-1.2-11.3-3.4-11.4l0,0c-4-0.2-5.6-1.2-6.2-2
					l-2.4,0.7c-0.2,0-0.3,0-0.5,0l-2.6-0.8c-0.6,0.8-2.2,1.8-6.2,2C143.5,59,142.4,65.3,142.3,70.2z"/>
			</g>
			<g>
				<ellipse class="st0" cx="154.9" cy="55.3" rx="3.5" ry="4.1"/>
				<path class="st2" d="M154.9,60.2c-2.4,0-4.4-2.2-4.4-4.9c0-2.7,2-4.9,4.4-4.9c2.4,0,4.4,2.2,4.4,4.9
					C159.3,58,157.3,60.2,154.9,60.2z M154.9,52c-1.5,0-2.7,1.4-2.7,3.2s1.2,3.2,2.7,3.2s2.7-1.4,2.7-3.2S156.4,52,154.9,52z"/>
			</g>
			<g>
				<path class="st2" d="M155.9,52.3h-2.3c-3.3,0-6-2.7-6-6v-2.2c0-3.3,2.7-6,6-6h2.2c3.4,0,6,2.7,6,6v2.2
					C161.7,49.6,159.1,52.3,155.9,52.3z"/>
			</g>
			<g>
				<path class="st0" d="M161.4,47.8L161.4,47.8c0-0.1,0-0.3,0-0.4c0-4.9-2.9-5.8-6.7-5.8c-3.8,0-6.7,1-6.7,5.8c0,0.1,0,0.3,0,0.4
					c-0.3,0.1-0.5,0.4-0.5,0.7v1.2c-0.1,0.4,0.1,0.7,0.5,0.7c0.1,0,0.1,0,0.1,0c0.8,3.5,3.3,6.3,6.4,6.3c3.1,0,5.4-2.9,6.4-6.4
					c0.1,0.1,0.3,0.1,0.4,0.1c0.4,0,0.7-0.3,0.7-0.7v-1.2C162.1,48.1,161.8,47.8,161.4,47.8z"/>
				<path class="st2" d="M154.6,57.5c-3.2,0-6-2.5-7.1-6.3c-0.3-0.1-0.5-0.3-0.6-0.5c-0.2-0.3-0.3-0.7-0.2-1.1v-1.1
					c0-0.5,0.2-0.8,0.5-1.1c0-5.9,4-6.7,7.5-6.7s7.4,0.7,7.5,6.5c0.4,0.3,0.7,0.7,0.7,1.3v1.2c0,0.8-0.6,1.4-1.3,1.5
					C160.4,55.1,157.7,57.5,154.6,57.5z M148.4,49.5c0.3,0.1,0.6,0.3,0.7,0.6c0.8,3.3,3,5.6,5.6,5.6c3,0,4.9-3.1,5.6-5.8
					c0.1-0.3,0.3-0.5,0.6-0.6c0.2,0,0.3,0,0.5,0v-0.8c-0.4-0.1-0.7-0.4-0.7-0.8v-0.4c0-4.2-2.1-5-5.8-5s-5.8,0.8-5.8,5v0.4
					c0,0.3-0.2,0.6-0.5,0.8h-0.1v1H148.4z M161.4,48.6L161.4,48.6L161.4,48.6z"/>
			</g>
			<g>
				<path class="st2" d="M148.1,44.7c0,0,3.3-5,8,0c4.5,4.8,5.6,2.6,5.6,2.6l-0.7-4.8l-4.8-2.9c0,0-5.4-0.1-6.1,0
					c-0.7,0.1-2.6,4.5-2.6,4.5L148.1,44.7z"/>
			</g>
		</g>
		<g>
			<path class="st4" d="M54.4,154.7c-3.4,0-6.7-1.3-9.9-3.8l-0.1-0.1c0,0-0.1,0-0.1-0.1l-0.3-0.3l-0.1-0.1
				c-20.7-28.5-12-77.6-3-89.8c8.3-11.1,19-6.4,22.1-4.6c1,0.4,1.5,1.4,1.3,2.5l-3.7,22.4c-0.2,1-1,1.8-1.9,2l-10.9,3
				c-0.3,0.1-0.4,0.2-0.5,0.5c-3.6,13.9-1.3,29.8-0.5,34.3c0.1,0.3,0.2,0.5,0.5,0.6l10.5,4.4c0.5,0.2,1.2,0.6,1.5,1.7l5,21.4
				c0.2,0.9-0.1,1.9-0.9,2.5C60.7,153.6,57.6,154.7,54.4,154.7z M45.5,149.5L45.5,149.5c3.3,2.6,9.7,6,17.2,0.5
				c0.3-0.2,0.3-0.6,0.2-0.7l-5-21.4c-0.1-0.4-0.2-0.4-0.3-0.5h-0.1l-10.7-4.5c-0.8-0.4-1.2-1-1.4-1.8c-0.8-4.7-3.1-20.8,0.5-35.1
				c0.2-0.8,0.8-1.5,1.7-1.7l10.9-3c0.2-0.1,0.5-0.3,0.6-0.7l3.7-22.4l0,0c0-0.2,0.1-0.5-0.3-0.7h-0.1c-3.6-2-12.7-5.7-20,4.1
				c-8.8,11.9-17.2,59.8,3,87.7L45.5,149.5z"/>
		</g>
	</g>
</g>
</svg>
