<?xml version="1.0" encoding="utf-8"?>
<!-- Generator: Adobe Illustrator 21.0.2, SVG Export Plug-In . SVG Version: 6.00 Build 0)  -->
<svg version="1.1" id="Layer_1" xmlns="http://www.w3.org/2000/svg" xmlns:xlink="http://www.w3.org/1999/xlink" x="0px" y="0px"
	 viewBox="0 0 200 200" style="enable-background:new 0 0 200 200;" xml:space="preserve">
<style type="text/css">
	.st0{fill:#FFFFFF;}
	.st1{fill:#F7F7F7;}
	.st2{fill:#575656;}
	.st3{fill:#F9B51B;}
	.st4{fill:none;}
	.st5{fill:#F7F7F7;stroke:#575656;stroke-width:1.6506;stroke-linecap:round;stroke-linejoin:round;stroke-miterlimit:10;}
</style>
<circle class="st0" cx="100" cy="100" r="100"/>
<g>
	<g>
		<g>
			<polygon class="st1" points="112.7,146.5 88.3,146.5 92.3,127.6 108.6,127.6 			"/>
			<path class="st2" d="M112.7,147.3H88.3c-0.2,0-0.5-0.1-0.6-0.3s-0.2-0.4-0.2-0.7l4-18.9c0.1-0.4,0.4-0.7,0.8-0.7h16.3
				c0.4,0,0.7,0.3,0.8,0.7l4.1,18.9c0.1,0.2,0,0.5-0.2,0.7C113.2,147.2,113,147.3,112.7,147.3z M89.3,145.7h22.4l-3.7-17.2H93
				L89.3,145.7z"/>
		</g>
	</g>
	<g>
		<path class="st0" d="M150.5,134.4h-100c-5.6,0-10.1-4.6-10.1-10.1V58.7c0-5.6,4.6-10.1,10.1-10.1h100c5.6,0,10.1,4.6,10.1,10.1
			v65.5C160.6,129.8,156,134.4,150.5,134.4z"/>
		<path class="st2" d="M150.5,135.2h-100c-6,0-10.9-4.9-10.9-10.9V58.7c0-6,4.9-10.9,10.9-10.9h100c6,0,10.9,4.9,10.9,10.9v65.5
			C161.4,130.3,156.5,135.2,150.5,135.2z M50.5,49.4c-5.1,0-9.3,4.2-9.3,9.3v65.6c0,5.1,4.2,9.3,9.3,9.3h100c5,0,9.3-4.3,9.3-9.4
			V58.7c0-5.1-4.2-9.3-9.3-9.3H50.5z"/>
	</g>
	<g>
		<path class="st1" d="M40.3,115.7v8.5c0,5.6,4.6,10.1,10.1,10.1h100c5.6,0,10.1-4.6,10.1-10.1v-8.5
			C160.5,115.7,40.3,115.7,40.3,115.7z"/>
		<path class="st2" d="M150.4,135.1h-100c-6,0-10.9-4.9-10.9-10.9v-8.5c0-0.5,0.4-0.8,0.8-0.8h120.2c0.5,0,0.8,0.4,0.8,0.8v8.5
			C161.3,130.2,156.4,135.1,150.4,135.1z M41.1,116.5v7.7c0,5.1,4.2,9.3,9.3,9.3h100c5.1,0,9.3-4.2,9.3-9.3v-7.7H41.1z"/>
	</g>
	<g>
		<g>
			<path class="st1" d="M116.2,150.2H84.8c-1.3,0-2.4-1.1-2.4-2.4l0,0c0-1.3,1.1-2.4,2.4-2.4h31.4c1.3,0,2.4,1.1,2.4,2.4l0,0
				C118.5,149.2,117.5,150.2,116.2,150.2z"/>
			<path class="st2" d="M116.2,151H84.8c-1.7,0-3.2-1.5-3.2-3.2s1.5-3.2,3.2-3.2h31.4c1.7,0,3.2,1.5,3.2,3.2
				C119.3,149.7,117.9,151,116.2,151z M84.8,146.2c-0.8,0-1.6,0.7-1.6,1.6s0.7,1.6,1.6,1.6h31.4c0.9,0,1.5-0.7,1.6-1.6
				c0-0.8-0.7-1.5-1.6-1.5H84.8z"/>
		</g>
	</g>
	<g>
		<g>
			<circle class="st2" cx="100.5" cy="123.6" r="1.8"/>
		</g>
	</g>
	<g>
		<g>
			<path class="st1" d="M114.8,87c-9-0.4-9.3-3.4-9.3-3.4l-5,1.4l-5-1.4c0,0-0.3,2.9-9.3,3.4c-6.7,0.3-6.7,20.7-6.7,20.7h20.8h0.5
				h20.8C121.5,107.7,121.5,87.4,114.8,87z"/>
			<path class="st2" d="M121.6,108.5H79.5c-0.5,0-0.8-0.4-0.8-0.8c0-2.2,0.2-21.2,7.5-21.5c7.9-0.4,8.5-2.7,8.5-2.7
				c0-0.2,0.2-0.4,0.4-0.6c0.2-0.1,0.4-0.2,0.7-0.1l4.8,1.3l4.8-1.3c0.2-0.1,0.5,0,0.7,0.1s0.3,0.4,0.4,0.6l0,0c0,0,0.7,2.3,8.5,2.7
				c0,0,0,0,0,0c4.5,0.3,7,7.3,7.5,20.8c0,0.3,0,0.5,0,0.5c0,0,0,0.1,0,0.2C122.4,108.2,122.1,108.5,121.6,108.5z M80.3,106.9h40.4
				c-0.5-11.9-2.7-18.8-6-19.1c-6.8-0.3-9-2.1-9.7-3.2l-4.3,1.2c-0.1,0-0.3,0-0.4,0L96,84.6c-0.7,1.1-3,2.9-9.7,3.2
				C82.1,88,80.4,99.3,80.3,106.9z"/>
		</g>
		<g>
			<ellipse class="st0" cx="100.8" cy="82.7" rx="5.5" ry="6.6"/>
			<path class="st2" d="M100.8,90.1c-3.5,0-6.3-3.3-6.3-7.4s2.8-7.4,6.3-7.4c3.5,0,6.3,3.3,6.3,7.4S104.3,90.1,100.8,90.1z
				 M100.8,76.9c-2.6,0-4.7,2.6-4.7,5.8s2.1,5.8,4.7,5.8s4.7-2.6,4.7-5.8S103.4,76.9,100.8,76.9z"/>
		</g>
		<g>
			<path class="st2" d="M102.2,78h-3.5c-5.2,0-9.5-4.3-9.5-9.5V65c0-5.2,4.3-9.5,9.5-9.5h3.5c5.2,0,9.5,4.3,9.5,9.5v3.5
				C111.7,73.8,107.4,78,102.2,78z"/>
		</g>
		<g>
			<polygon class="st0" points="105.6,107.9 100.8,112.7 96,107.9 100.8,91.9 			"/>
			<path class="st3" d="M100.8,113.5c-0.2,0-0.4-0.1-0.6-0.2l-4.8-4.8c-0.2-0.2-0.3-0.5-0.2-0.8l4.8-16c0.1-0.3,0.4-0.6,0.8-0.6
				s0.7,0.2,0.8,0.6l4.8,16c0.1,0.3,0,0.6-0.2,0.8l-4.8,4.8C101.2,113.4,101,113.5,100.8,113.5z M96.9,107.7l3.9,3.9l3.9-3.9
				l-3.9-12.9L96.9,107.7z"/>
		</g>
		<g>
			<path class="st0" d="M111.1,70.8L111.1,70.8c0-0.2,0-0.4,0-0.6c0-7.7-4.5-9.3-10.7-9.3s-10.6,1.6-10.6,9.3c0,0.2,0,0.4,0,0.6
				c-0.5,0.1-0.9,0.6-0.9,1.1v1.9c0,0.6,0.5,1.2,1.2,1.2c0.1,0,0.2,0,0.3-0.1c1.4,5.6,5.2,10,10.1,10c4.9,0,8.7-4.4,10.1-10.1
				c0.2,0.1,0.4,0.2,0.6,0.2c0.6,0,1.2-0.5,1.2-1.2V72C112.3,71.3,111.8,70.8,111.1,70.8z"/>
			<path class="st2" d="M100.5,85.7c-4.8,0-9-3.9-10.7-9.9c-1-0.2-1.7-1-1.7-2v-1.9c0-0.7,0.4-1.3,0.9-1.6v-0.1
				c0-8.9,5.8-10.1,11.4-10.1c5.7,0,11.5,1.2,11.5,10.1c0.7,0.3,1.2,0.9,1.3,1.7c0,0,0,0.1,0,0.1v1.8c0,1.1-0.9,2-2,2
				C109.4,81.9,105.3,85.7,100.5,85.7z M90.4,74.1c0.1,0,0.1,0,0.2,0c0.3,0.1,0.5,0.3,0.6,0.6c1.4,5.6,5.1,9.4,9.3,9.4
				c4.2,0,7.9-3.7,9.3-9.5c0.1-0.2,0.2-0.4,0.5-0.6c0.2-0.1,0.5-0.1,0.7,0c0.1,0,0.2,0.1,0.3,0.1c0.1,0,0.3-0.1,0.3-0.4v-1.7
				c0-0.2-0.1-0.4-0.5-0.4c-0.5,0-0.8-0.4-0.8-0.8v-0.6c0-7-3.9-8.5-9.9-8.5c-6,0-9.8,1.4-9.8,8.5v0.6c0,0.4-0.3,0.7-0.7,0.8
				c-0.1,0-0.2,0.2-0.2,0.3v1.9c0,0.1,0.1,0.3,0.3,0.4C90.1,74.1,90.3,74.1,90.4,74.1z M89.8,74.3C89.8,74.3,89.8,74.3,89.8,74.3
				C89.8,74.3,89.8,74.3,89.8,74.3z"/>
		</g>
		<g>
			<path class="st2" d="M89.9,66c0,0,5.1-8.1,12.8,0c7.2,7.6,9,4,9,4l-1.1-7.6l-7.5-4.5c0,0-8.6-0.3-9.8,0S89.2,65,89.2,65L89.9,66z
				"/>
		</g>
	</g>
	<g>
		<line class="st4" x1="39.1" y1="116.5" x2="159.3" y2="116.5"/>
	</g>
	<g>
		<path class="st5" d="M160.6,116.5"/>
	</g>
	<g>
		<path class="st5" d="M41.6,116.5"/>
	</g>
	<g>
		<g>
			<path class="st1" d="M151,120.8c-13.3-0.7-13.8-5-13.8-5l-7.4,2.1l-7.4-2.1c0,0-0.4,4.4-13.8,5c-10,0.5-9.9,30.6-9.9,30.6h30.7
				h0.7h30.7C160.9,151.4,160.9,121.3,151,120.8z"/>
			<path class="st2" d="M160.8,152.2H98.7c-0.5,0-0.8-0.4-0.8-0.8c0-1.3,0-30.9,10.7-31.4c12.1-0.5,13-4.2,13-4.3
				c0-0.2,0.2-0.5,0.4-0.6c0.2-0.1,0.5-0.2,0.7-0.1l7.2,2l7.2-2c0.2-0.1,0.5,0,0.7,0.1c0.2,0.1,0.3,0.4,0.4,0.6c0,0,0.9,3.6,13,4.3
				c10.9,0.6,10.6,30.9,10.6,31.2C161.6,152.1,161,152.2,160.8,152.2z M99.5,150.6H160c0-4-0.7-21.4-5.8-27.2
				c-1-1.1-2.1-1.7-3.3-1.8h0c-10.4-0.5-13.4-3.3-14.3-4.8l-6.7,1.9c-0.1,0-0.3,0-0.5,0l-6.7-1.9c-0.8,1.5-3.7,4.3-14.3,4.8
				C101.3,122,99.6,141.9,99.5,150.6z"/>
		</g>
		<g>
			<path class="st2" d="M132.4,107.5h-5.2c-7.7,0-14.1-6.3-14.1-14.1v-5.2c0-7.7,6.3-14.1,14.1-14.1h5.2c7.7,0,14.1,6.3,14.1,14.1
				v5.2C146.4,101.2,140.1,107.5,132.4,107.5z"/>
		</g>
		<g>
			<path class="st0" d="M145.6,96.8L145.6,96.8c0-0.3,0-0.6,0-0.9c0-11.4-6.6-13.7-15.8-13.7S114,84.5,114,95.9c0,0.3,0,0.6,0,1
				c-0.8,0.2-1.3,0.9-1.3,1.7v2.8c0,0.9,0.8,1.7,1.7,1.7c0.2,0,0.3,0,0.5-0.1c1.3,5.1,3.9,9.5,7.3,12.1c0.3,5,3.8,5.2,8.1,5.2
				c4.5,0,8.2-0.5,8.2-5.9c0-0.1,0-0.2,0-0.2c2.9-2.7,5.1-6.8,6.3-11.3c0.2,0.1,0.5,0.2,0.8,0.2c0.9,0,1.7-0.8,1.7-1.7v-2.8
				C147.3,97.6,146.5,96.8,145.6,96.8z"/>
			<path class="st2" d="M130.3,121.1c-3.7,0-8.4,0-8.9-5.6c-3.2-2.6-5.7-6.7-7.1-11.6c-1.3-0.1-2.4-1.2-2.4-2.5v-2.8
				c0-1,0.5-1.8,1.3-2.3v-0.4c0-12.8,8.4-14.5,16.6-14.5s16.6,1.7,16.6,14.5v0.2c1,0.4,1.7,1.4,1.7,2.5v2.8c0,1.3-1.2,2.5-2.5,2.5
				c-0.1,0-0.2,0-0.2,0c-1.3,4.3-3.4,8.1-6,10.6C139.3,120.6,134.8,121.1,130.3,121.1z M114.9,102.2c0.1,0,0.2,0,0.3,0.1
				c0.2,0.1,0.4,0.3,0.5,0.5c1.3,5,3.8,9.2,7,11.6c0.2,0.1,0.3,0.4,0.3,0.6c0.2,4,2.5,4.4,7.3,4.4c5,0,7.4-0.8,7.4-5.1v-0.2
				c0-0.2,0.1-0.4,0.3-0.6c2.7-2.5,4.9-6.4,6.1-10.9c0.1-0.2,0.2-0.4,0.5-0.5c0.2-0.1,0.5-0.1,0.7,0c0.1,0.1,0.3,0.1,0.4,0.1
				c0.4,0,0.9-0.4,0.9-0.9v-2.8c0-0.6-0.5-1-0.9-1c-0.5,0-0.8-0.4-0.8-0.8v-0.9c0-10.7-6-12.9-15-12.9s-15,2.2-15,12.9v1
				c0,0.4-0.3,0.7-0.6,0.8c-0.4,0.1-0.7,0.5-0.7,0.9v2.8c0,0.4,0.4,0.9,0.9,0.9c0,0,0.1,0,0.1,0
				C114.6,102.2,114.8,102.2,114.9,102.2z"/>
		</g>
		<g>
			<path class="st2" d="M145.6,95.9c0-11.4-6.6-13.7-15.8-13.7S114,84.5,114,95.9c0,0.3,0,0.6,0,1l0.8,6.1c2.1,8.3,7.7,6.6,14.9,6.6
				c7.3,0,12.9,1.6,15-6.8l0.8-6l0,0C145.6,96.5,145.6,96.2,145.6,95.9z"/>
		</g>
		<g>
			<path class="st2" d="M114.2,89.6c0,0,7.6-12,18.9,0c10.6,11.2,13.3,6,13.3,6l-1.7-11.2l-11-6.6c0,0-12.8-0.4-14.5,0
				c-1.7,0.4-6,10.5-6,10.5L114.2,89.6z"/>
		</g>
	</g>
</g>
</svg>
