<?xml version="1.0" encoding="utf-8"?>
<!-- Generator: Adobe Illustrator 21.0.2, SVG Export Plug-In . SVG Version: 6.00 Build 0)  -->
<svg version="1.1" id="Layer_1" xmlns="http://www.w3.org/2000/svg" xmlns:xlink="http://www.w3.org/1999/xlink" x="0px" y="0px"
	 viewBox="0 0 200 200" style="enable-background:new 0 0 200 200;" xml:space="preserve">
<style type="text/css">
	.st0{fill:#FFFFFF;}
	.st1{fill:#575656;}
	.st2{fill:#F7F7F7;}
	.st3{fill:#A5A5A5;}
	.st4{fill:#F9B51B;}
</style>
<g>
	<circle class="st0" cx="100" cy="100" r="100"/>
</g>
<g>
	<g>
		<g>
			<path class="st0" d="M156.4,149.8H43.1c-3,0-5.4-2.5-5.4-5.4V57c0-3,2.5-5.4,5.4-5.4h113.3c3,0,5.4,2.5,5.4,5.4v87.4
				C161.9,147.4,159.4,149.8,156.4,149.8z"/>
			<path class="st1" d="M156.4,150.8H43.1c-3.5,0-6.4-2.9-6.4-6.4V57c0-3.5,2.9-6.4,6.4-6.4h113.3c3.5,0,6.4,2.9,6.4,6.4v87.4
				c0.1,1.6-0.6,3.2-1.7,4.4C159.9,150.1,158.2,150.8,156.4,150.8z M43.1,52.6c-2.4,0-4.4,2-4.4,4.4v87.4c0,2.4,2,4.4,4.4,4.4h113.3
				c1.2,0,2.4-0.5,3.2-1.4c0.8-0.8,1.2-1.9,1.2-3l0-87.4c0-2.4-2-4.4-4.4-4.4H43.1z"/>
		</g>
		<g>
			<path class="st2" d="M37.7,63.2V57c0-3,2.5-5.4,5.4-5.4h113.3c3,0,5.4,2.5,5.4,5.4v6.2"/>
			<path class="st1" d="M161.8,64.2c-0.6,0-1-0.4-1-1V57c0-2.4-2-4.4-4.4-4.4H43.1c-2.4,0-4.4,2-4.4,4.4v6.2c0,0.6-0.4,1-1,1
				s-1-0.4-1-1V57c0-3.5,2.9-6.4,6.4-6.4h113.3c3.5,0,6.4,2.9,6.4,6.4v6.2C162.8,63.8,162.4,64.2,161.8,64.2z"/>
		</g>
		<g>
			<path class="st1" d="M161.9,65.1H37.7c-0.6,0-1-0.4-1-1s0.4-1,1-1h124.2c0.6,0,1,0.4,1,1S162.5,65.1,161.9,65.1z"/>
		</g>
		<g>
			<circle class="st3" cx="46" cy="58.3" r="1.9"/>
		</g>
		<g>
			<circle class="st3" cx="53" cy="58.3" r="1.9"/>
		</g>
		<g>
			<circle class="st3" cx="59.9" cy="58.3" r="1.9"/>
		</g>
	</g>
	<g>
		<g>
			<g>
				<path class="st0" d="M113.9,138.2c-1.4-0.2-2.1-1.2-2-2.5l0.3-2.7c0.1-0.8-0.4-1.4-1.1-1.5c-0.6-0.2-1.2-0.7-1.8-1l-0.3-0.2
					c-0.2-0.2-0.5-0.3-0.8-0.3c-0.5,0-0.8,0.3-1,0.4l-1.9,1.5c-0.4,0.3-0.9,0.5-1.4,0.5c-0.4,0-1.2-0.1-1.8-0.9l-2.2-2.8
					c-0.3-0.4-0.5-1-0.4-1.6s0.4-1.2,0.8-1.6l1.9-1.5c0.3-0.3,0.4-0.6,0.5-0.8c0.2-0.3,0.2-0.6,0.1-1c-0.2-0.5-0.4-1.1-0.5-1.6
					c-0.1-0.4-0.2-0.8-0.3-1.2c0-0.1-0.1-0.2-0.2-0.3l-0.3-0.4c-0.2-0.2-0.4-0.3-0.7-0.4l-2.7-0.3c-0.7-0.1-1.2-0.4-1.6-0.8
					c-0.4-0.5-0.5-1-0.4-1.7l0.5-3.9l14.8,7.6c0.3,0.7,0.6,1.3,1.1,1.9c1.5,1.9,3.7,3,6.1,3c1.7,0,3.4-0.6,4.8-1.7
					c1.7-1.3,2.7-3.1,3-5.2s-0.3-4.1-1.6-5.8c-1.5-1.9-3.7-3-6.1-3c-0.2,0-0.3,0-0.5,0l-15.4-7.9c0.1-0.3,0.3-0.5,0.6-0.8l2.8-2.2
					c0.4-0.3,0.9-0.5,1.4-0.5c0.4,0,1.2,0.1,1.8,0.9l1.5,1.9c0.3,0.3,0.6,0.4,0.8,0.5c0.2,0.1,0.4,0.2,0.5,0.2s0.2,0,0.3-0.1
					c0.4-0.1,0.9-0.3,1.3-0.4c0.5-0.1,1.1-0.3,1.5-0.4c0.1,0,0.2-0.1,0.3-0.2l0.4-0.3c0.2-0.2,0.3-0.4,0.4-0.7l0.3-2.7
					c0.1-1,1.4-2,2.6-2l3.7,0.5c0.7,0.1,1.2,0.4,1.6,0.8c0.4,0.5,0.5,1,0.4,1.7l-0.3,2.7c0,0.4,0,0.7,0.3,1s0.6,0.5,0.8,0.5
					c0.6,0.2,1.2,0.7,1.8,1l0.3,0.2c0.2,0.2,0.5,0.3,0.8,0.3c0.5,0,0.8-0.3,1-0.4l1.9-1.5c0.4-0.3,0.9-0.5,1.4-0.5
					c0.4,0,1.2,0.1,1.8,0.9l2.2,2.8c0.3,0.4,0.5,1,0.4,1.6s-0.4,1.2-0.8,1.6l-1.9,1.5c-0.3,0.3-0.4,0.6-0.5,0.8
					c-0.2,0.3-0.2,0.6-0.1,1c0.2,0.5,0.4,1.1,0.5,1.6c0.1,0.4,0.2,0.8,0.3,1.2c0,0.1,0.1,0.2,0.2,0.3l0.3,0.4
					c0.2,0.2,0.4,0.3,0.7,0.4l2.7,0.3c1.4,0.2,2.1,1.2,2,2.5l-0.5,3.8c-0.1,1-1.4,2-2.6,2l-2.6-0.3c-0.2,0-0.3,0-0.4,0
					c-0.5,0-1,0.2-1.2,1.1c-0.2,0.6-0.6,1.2-1,1.8l-0.2,0.3c-0.2,0.2-0.3,0.4-0.3,0.7c-0.1,0.5,0.2,0.9,0.4,1.2l1.5,1.9
					c0.8,1,0.7,2.3-0.2,3l-2.8,2.2c-0.4,0.3-0.9,0.5-1.4,0.5c-0.4,0-1.2-0.1-1.8-0.9l-1.7-2.1c-0.2-0.2-0.5-0.4-0.8-0.4
					c-0.1,0-0.3,0-0.4,0.1c-0.9,0.4-2,0.6-3.2,0.9c-0.2,0-0.3,0.1-0.4,0.2l-0.4,0.3c-0.2,0.2-0.3,0.4-0.4,0.7l-0.3,2.7
					c-0.1,1-1.4,2-2.6,2L113.9,138.2z"/>
			</g>
			<g>
				<path class="st4" d="M119.4,95l3.7,0.5c0.3,0,0.7,0.1,0.9,0.4c0.2,0.3,0.2,0.7,0.2,1l-0.3,2.7c-0.1,0.6,0.1,1.3,0.5,1.8
					s0.9,0.7,1.3,0.8c0.5,0.2,1,0.6,1.5,0.9c0.1,0.1,0.2,0.1,0.3,0.2c0.4,0.3,0.9,0.5,1.4,0.5c0.8,0,1.4-0.4,1.6-0.6l1.9-1.5
					c0.2-0.2,0.5-0.2,0.8-0.2c0.2,0,0.7,0.1,1,0.5l2.2,2.8c0.2,0.2,0.3,0.6,0.2,0.9c0,0.2-0.1,0.6-0.5,0.9l-1.9,1.5
					c-0.4,0.3-0.7,0.7-0.8,1.2c-0.3,0.5-0.3,1.2-0.1,1.7c0.2,0.4,0.3,0.9,0.4,1.4c0.1,0.4,0.2,0.8,0.3,1.3c0.1,0.2,0.2,0.4,0.3,0.6
					l0.3,0.4c0.3,0.4,0.8,0.7,1.3,0.8l2.7,0.3c0.3,0,0.7,0.1,0.9,0.4s0.2,0.7,0.2,1l-0.5,3.8c-0.1,0.4-0.8,1-1.6,1.1l-2.5-0.3
					c-0.2,0-0.4,0-0.5,0c-0.3,0-1.8,0.1-2.1,1.8c-0.2,0.5-0.6,1-0.9,1.5c-0.1,0.1-0.1,0.2-0.2,0.3c-0.5,0.6-0.7,1.4-0.4,2.2
					c0.1,0.4,0.4,0.7,0.5,0.9l1.5,1.9c0.2,0.3,0.4,0.7,0.3,1c0,0.2-0.1,0.4-0.3,0.6l-2.8,2.2c-0.2,0.2-0.5,0.2-0.8,0.2
					c-0.2,0-0.7-0.1-1-0.5l-1.7-2.1c-0.4-0.5-1-0.8-1.6-0.8c-0.3,0-0.5,0.1-0.8,0.2c-0.8,0.4-1.9,0.6-3,0.8
					c-0.3,0.1-0.6,0.2-0.8,0.4l-0.4,0.3c-0.4,0.3-0.7,0.8-0.8,1.3l-0.3,2.7c-0.1,0.4-0.8,1-1.6,1.1l-3.7-0.5
					c-0.8-0.1-1.2-0.6-1.1-1.4l0.3-2.7c0.2-1.2-0.6-2.3-1.8-2.6c-0.5-0.2-1-0.6-1.5-0.9c-0.1-0.1-0.2-0.1-0.3-0.2
					c-0.4-0.3-0.9-0.5-1.4-0.5c-0.8,0-1.4,0.4-1.6,0.6l-1.9,1.5c-0.2,0.2-0.5,0.2-0.8,0.2c-0.2,0-0.7-0.1-1-0.5l-2.2-2.8
					c-0.3-0.4-0.4-1.3,0.2-1.8l1.9-1.5c0.4-0.3,0.7-0.7,0.8-1.2c0.3-0.5,0.3-1.2,0.1-1.7c-0.2-0.4-0.3-0.9-0.4-1.4
					c-0.1-0.4-0.2-0.8-0.3-1.3c-0.1-0.2-0.2-0.4-0.3-0.6l-0.3-0.4c-0.3-0.4-0.8-0.7-1.3-0.8l-2.7-0.3c-0.3,0-0.7-0.1-0.9-0.4
					c-0.2-0.3-0.2-0.7-0.2-1l0.3-2.5l13.2,6.8c0.3,0.6,0.7,1.3,1.1,1.8c1.7,2.2,4.2,3.4,6.9,3.4c2,0,3.8-0.7,5.4-1.9
					c1.9-1.5,3.1-3.5,3.4-5.9c0.3-2.3-0.4-4.6-1.8-6.5c-1.7-2.2-4.2-3.4-6.9-3.4c-0.1,0-0.2,0-0.3,0l-14-7.2l2.4-1.9
					c0.2-0.2,0.5-0.2,0.8-0.2c0.2,0,0.7,0.1,1,0.5l1.5,1.9c0.3,0.4,0.7,0.7,1.2,0.8c0.3,0.2,0.6,0.2,0.9,0.2c0.2,0,0.4,0,0.7-0.1
					c0.3-0.1,0.8-0.2,1.3-0.4c0.5-0.1,1.1-0.3,1.6-0.5c0.2-0.1,0.4-0.2,0.6-0.3l0.4-0.3c0.4-0.3,0.7-0.8,0.8-1.3l0.3-2.7
					C117.9,95.6,118.7,95,119.4,95 M103.8,123.1L103.8,123.1L103.8,123.1 M119.5,93c-1.7,0-3.4,1.3-3.6,2.8l-0.3,2.7l-0.4,0.3
					c-0.8,0.3-2,0.5-2.8,0.8c-0.2-0.2-0.4,0-0.5-0.3l-1.5-1.9c-0.7-0.8-1.6-1.2-2.6-1.2c-0.7,0-1.4,0.2-2,0.7l-2.8,2.2
					c-0.7,0.5-1.1,1.3-1.2,2.1l16.4,8.4c0.2,0,0.5,0,0.7,0c2,0,4,0.9,5.3,2.6c2.3,3,1.8,7.2-1.2,9.5c-1.3,1-2.7,1.5-4.2,1.5
					c-2,0-4-0.9-5.3-2.7c-0.5-0.6-0.8-1.3-1.1-2l-16-8.3c-0.3,0.4-0.5,0.8-0.6,1.3l-0.5,3.8c-0.2,1.9,0.9,3.4,2.8,3.6l2.7,0.3
					l0.3,0.4c0.3,0.8,0.4,1.8,0.8,2.8c-0.2,0.2,0,0.4-0.3,0.5l-1.9,1.5c-1.5,1.2-1.6,3.3-0.6,4.6l2.2,2.8c0.7,0.8,1.6,1.2,2.6,1.2
					c0.7,0,1.4-0.2,2-0.7l1.9-1.5c0.1-0.1,0.3-0.2,0.4-0.2s0.1,0,0.2,0.1c0.7,0.5,1.6,1.2,2.5,1.5c0,0,0.4,0,0.3,0.4l-0.3,2.7
					c-0.2,1.9,0.9,3.4,2.8,3.6l3.8,0.5l0,0c1.7,0,3.4-1.3,3.6-2.8l0.3-2.7l0.4-0.3c1.2-0.2,2.4-0.5,3.4-0.9l1.7,2.1
					c0.7,0.8,1.6,1.2,2.6,1.2c0.7,0,1.4-0.2,2-0.7l2.8-2.2c1.3-1,1.5-2.9,0.4-4.4l-1.5-1.9c-0.2-0.2-0.3-0.4-0.1-0.6
					c0.5-0.7,1.2-1.6,1.5-2.5c0-0.3,0-0.4,0.2-0.4c0.1,0,0.1,0,0.2,0l2.7,0.3l0,0c1.7,0,3.4-1.3,3.6-2.8l0.5-3.8
					c0.2-1.9-0.9-3.4-2.8-3.6l-2.7-0.3l-0.3-0.4c-0.3-0.8-0.4-1.8-0.8-2.8c0.2-0.2,0-0.4,0.3-0.5l1.9-1.5c1.5-1.2,1.6-3.3,0.6-4.6
					l-2.2-2.8c-0.7-0.8-1.6-1.2-2.6-1.2c-0.7,0-1.4,0.2-2,0.7l-1.9,1.5c-0.1,0.1-0.3,0.2-0.4,0.2c-0.1,0-0.1,0-0.2-0.1
					c-0.7-0.5-1.6-1.2-2.5-1.5c0,0-0.4,0-0.3-0.4l0.3-2.7c0.2-1.9-0.9-3.4-2.8-3.6L119.5,93L119.5,93L119.5,93z"/>
			</g>
		</g>
		<g>
			<g>
				<path class="st2" d="M78.2,122.8c-0.8-0.1-1.4-0.4-1.8-0.9s-0.6-1.2-0.5-2l0.4-2.9c0.1-0.5-0.2-1.1-0.6-1.3
					c-0.2-0.1-0.4-0.2-0.5-0.2c-0.7-0.2-1.4-0.7-2-1.2c-0.1-0.1-0.3-0.2-0.4-0.3c-0.2-0.2-0.5-0.3-0.9-0.3c-0.5,0-0.8,0.3-1.1,0.5
					l-2.1,1.7c-0.4,0.3-1,0.5-1.6,0.5c-0.8,0-1.6-0.4-2-1l-2.4-3.1c-0.4-0.5-0.6-1.2-0.5-1.9c0.1-0.7,0.4-1.3,1-1.8l2.1-1.7
					c0.4-0.3,0.5-0.6,0.5-0.8c0.2-0.3,0.2-0.6,0.1-1c-0.3-0.6-0.4-1.2-0.5-1.7c-0.1-0.4-0.2-0.9-0.3-1.3c0-0.1-0.1-0.2-0.2-0.3
					l-0.4-0.5c-0.2-0.2-0.4-0.3-0.7-0.4l-2.9-0.4c-0.8-0.1-1.4-0.4-1.8-0.9c-0.4-0.5-0.6-1.2-0.5-2l0.5-4.2c0.1-1.2,1.6-2.2,3-2.2
					l2.9,0.4c0.2,0,0.3,0,0.4,0c0.7,0,1.1-0.4,1.2-1.2c0.2-0.7,0.7-1.4,1.1-2c0.1-0.1,0.2-0.3,0.3-0.4c0.2-0.2,0.3-0.4,0.3-0.7
					c0.1-0.6-0.3-1-0.4-1.2L66.2,84c-0.8-1-0.8-2.7,0.5-3.6l3.1-2.4c0.4-0.3,1-0.5,1.6-0.5c0.8,0,1.6,0.4,2,1l1.7,2.1
					c0.3,0.4,0.6,0.5,0.8,0.5c0.2,0.1,0.4,0.2,0.6,0.2c0.1,0,0.2,0,0.3-0.1c0.4-0.1,0.9-0.3,1.5-0.4s1.1-0.3,1.6-0.5
					c0.1,0,0.2-0.1,0.3-0.2l0.5-0.4c0.2-0.2,0.3-0.4,0.4-0.7l0.4-2.9c0.1-1.2,1.6-2.2,3-2.2l4.1,0.5c0.8,0.1,1.4,0.4,1.8,0.9
					s0.6,1.2,0.5,2l-0.4,2.9c0,0.4,0,0.8,0.3,1c0.3,0.3,0.6,0.5,0.8,0.5c0.7,0.2,1.4,0.7,2,1.2c0.1,0.1,0.3,0.2,0.4,0.3
					c0.2,0.2,0.5,0.3,0.9,0.3c0.5,0,0.8-0.3,1.1-0.5l2.1-1.7c0.4-0.3,1-0.5,1.6-0.5c0.8,0,1.6,0.4,2,1l2.4,3.1
					c0.8,1,0.8,2.7-0.5,3.6l-2.1,1.7c-0.4,0.3-0.5,0.6-0.5,0.8c-0.2,0.3-0.2,0.6-0.1,1c0.3,0.6,0.4,1.2,0.5,1.7
					c0.1,0.4,0.2,0.9,0.3,1.3c0,0.1,0.1,0.2,0.2,0.3l0.4,0.5c0.2,0.2,0.4,0.3,0.7,0.4l2.9,0.4c1.5,0.2,2.4,1.4,2.3,2.9l-0.4,3.3
					L91,94.2c-0.2-0.3-0.4-0.6-0.6-0.8c-1.6-2.1-4.1-3.3-6.7-3.3c-1.9,0-3.7,0.6-5.2,1.8c-1.8,1.4-3,3.4-3.2,5.6
					c-0.3,2.2,0.3,4.5,1.8,6.3c1.6,2.1,4.1,3.3,6.7,3.3c1.2,0,2.3-0.3,3.4-0.7l13.7,7c0.7,1.1,0.5,2.5-0.4,3.2l-3.1,2.4
					c-0.4,0.3-1,0.5-1.6,0.5l0,0c-0.8,0-1.6-0.4-2-1l-1.8-2.4c-0.2-0.2-0.5-0.4-0.8-0.4c-0.1,0-0.3,0-0.4,0.1c-1,0.5-2.2,0.7-3.5,1
					c-0.2,0-0.3,0.1-0.4,0.2l-0.5,0.4c-0.2,0.2-0.3,0.4-0.4,0.7l-0.4,2.9c-0.1,1.2-1.6,2.2-3,2.2L78.2,122.8z"/>
			</g>
			<g>
				<path class="st3" d="M84.3,75l4.1,0.5c0.5,0.1,0.9,0.3,1.1,0.6c0.2,0.3,0.3,0.7,0.3,1.2l-0.4,2.9c-0.1,0.7,0.1,1.3,0.5,1.8
					s0.9,0.8,1.3,0.9c0.5,0.2,1.2,0.6,1.7,1c0.1,0.1,0.2,0.2,0.3,0.2c0.4,0.4,0.9,0.6,1.5,0.6c0.8,0,1.4-0.4,1.7-0.7l2.1-1.7
					c0.3-0.2,0.6-0.3,1-0.3c0.3,0,0.8,0.1,1.2,0.6l2.4,3.1c0.5,0.6,0.5,1.7-0.3,2.2l-2.1,1.7c-0.4,0.3-0.7,0.7-0.8,1.2
					c-0.3,0.5-0.3,1.2-0.1,1.8c0.2,0.5,0.3,1,0.5,1.6c0.1,0.5,0.2,0.9,0.4,1.4c0.1,0.2,0.2,0.4,0.3,0.6l0.4,0.5
					c0.3,0.4,0.8,0.7,1.3,0.8l2.9,0.4c0.5,0.1,0.9,0.3,1.1,0.6c0.2,0.3,0.3,0.7,0.3,1.2l-0.2,1.9l-15.3-7.9
					c-0.2-0.2-0.3-0.5-0.5-0.7c-1.8-2.3-4.5-3.7-7.5-3.7c-2.1,0-4.1,0.7-5.8,2c-4.2,3.3-4.9,9.1-1.7,13.3c1.8,2.3,4.5,3.7,7.5,3.7
					c1.1,0,2.3-0.2,3.4-0.6l13,6.7c0.3,0.6,0.2,1.3-0.3,1.6l-3.1,2.4c-0.3,0.2-0.6,0.3-1,0.3c-0.3,0-0.8-0.1-1.2-0.6l-1.8-2.4
					c-0.4-0.5-1-0.8-1.6-0.8c-0.3,0-0.5,0.1-0.8,0.2c-0.9,0.4-2.1,0.6-3.3,0.9c-0.3,0.1-0.6,0.2-0.8,0.4l-0.5,0.4
					c-0.4,0.3-0.7,0.8-0.8,1.3l-0.4,2.9c-0.1,0.5-0.9,1.3-1.9,1.4l-4.1-0.5c-0.5-0.1-0.9-0.3-1.1-0.6c-0.2-0.3-0.3-0.7-0.3-1.2
					l0.4-2.9c0.2-1.4-0.7-2.4-1.8-2.6c-0.5-0.2-1.2-0.6-1.7-1c-0.1-0.1-0.2-0.2-0.3-0.2c-0.4-0.4-0.9-0.6-1.5-0.6
					c-0.8,0-1.4,0.4-1.7,0.7l-2.1,1.7c-0.3,0.2-0.6,0.3-1,0.3c-0.3,0-0.8-0.1-1.2-0.6l-2.4-3.1c-0.4-0.5-0.5-1.6,0.3-2.2l2.1-1.7
					c0.4-0.3,0.7-0.7,0.8-1.2c0.3-0.5,0.3-1.2,0.1-1.8c-0.2-0.5-0.3-1-0.5-1.6c-0.1-0.5-0.2-0.9-0.4-1.4c-0.1-0.2-0.2-0.4-0.3-0.6
					l-0.4-0.5c-0.3-0.4-0.8-0.7-1.3-0.8l-3-0.4c-0.5-0.1-0.9-0.3-1.1-0.6c-0.2-0.3-0.3-0.7-0.3-1.2l0.5-4.2c0.1-0.5,0.9-1.3,1.9-1.4
					l2.8,0.4c0.2,0,0.4,0,0.5,0c0.4,0,1.8-0.1,2.2-1.9c0.2-0.5,0.6-1.1,1-1.7c0.1-0.1,0.2-0.2,0.2-0.3c0.5-0.6,0.7-1.5,0.4-2.2
					c-0.1-0.4-0.4-0.7-0.5-0.9L67,83.5c-0.2-0.3-0.3-0.7-0.3-1.1c0-0.3,0.2-0.7,0.6-1.1l3.1-2.4c0.3-0.2,0.6-0.3,1-0.3
					c0.3,0,0.8,0.1,1.3,0.6l1.7,2.1c0.3,0.4,0.7,0.7,1.2,0.8c0.3,0.2,0.6,0.2,0.9,0.2c0.2,0,0.4,0,0.7-0.1c0.4-0.1,0.9-0.3,1.4-0.4
					c0.6-0.2,1.2-0.3,1.7-0.5c0.2-0.1,0.4-0.2,0.6-0.3l0.5-0.4c0.4-0.3,0.7-0.8,0.8-1.3l0.4-2.9C82.4,75.8,83.3,75,84.3,75
					 M66.8,106.1L66.8,106.1L66.8,106.1 M84.3,73c-1.9,0-3.8,1.5-4,3.1l-0.3,3l-0.5,0.4c-0.9,0.3-2.2,0.6-3.1,0.9
					c-0.2-0.2-0.4-0.1-0.6-0.3L74.1,78c-0.7-0.9-1.8-1.4-2.8-1.4c-0.8,0-1.6,0.3-2.2,0.7L66,79.7c-1.7,1.3-1.7,3.6-0.6,5l1.7,2.1
					c0.2,0.2,0.4,0.5,0.1,0.7c-0.5,0.8-1.3,1.8-1.6,2.8c0,0.3,0,0.4-0.2,0.4c-0.1,0-0.1,0-0.3,0l-2.9-0.4l0,0c-1.9,0-3.8,1.5-4,3.1
					l-0.5,4.2c-0.3,2.1,1,3.8,3.1,4l2.9,0.4l0.4,0.5c0.3,0.9,0.4,2,0.9,3.1c-0.2,0.2-0.1,0.4-0.3,0.6l-2.1,1.7
					c-1.7,1.3-1.7,3.6-0.6,5l2.4,3.1c0.7,0.9,1.8,1.4,2.8,1.4c0.8,0,1.6-0.3,2.2-0.7l2.1-1.7c0.2-0.1,0.3-0.2,0.5-0.2
					c0.1,0,0.1,0,0.2,0.1c0.8,0.5,1.8,1.3,2.8,1.6c0,0,0.4,0.1,0.4,0.5l-0.4,2.9c-0.3,2.1,1,3.8,3.1,4l4.2,0.5l0,0
					c1.9,0,3.8-1.5,4-3.1l0.4-2.9l0.5-0.4c1.3-0.3,2.6-0.5,3.8-1l1.8,2.4c0.7,0.9,1.8,1.4,2.8,1.4c0.8,0,1.6-0.3,2.2-0.7l3.1-2.4
					c1.4-1.1,1.7-3.1,0.5-4.7l-14.3-7.4c-1.1,0.6-2.3,0.8-3.4,0.8c-2.2,0-4.4-1-5.9-2.9c-2.6-3.3-2-7.9,1.3-10.5
					c1.4-1.1,3-1.6,4.6-1.6c2.2,0,4.4,1,5.9,2.9c0.2,0.3,0.4,0.6,0.6,1l18.3,9.4c0.1-0.2,0.1-0.3,0.1-0.5l0.5-4.2
					c0.3-2.1-1-3.8-3.1-4l-2.9-0.4l-0.4-0.5c-0.3-0.9-0.4-2-0.9-3.1c0.2-0.2,0.1-0.4,0.3-0.6l2.1-1.7c1.7-1.3,1.7-3.6,0.6-5
					l-2.4-3.1c-0.7-0.9-1.8-1.4-2.8-1.4c-0.8,0-1.6,0.3-2.2,0.7l-2.1,1.7c-0.2,0.1-0.3,0.2-0.5,0.2c-0.1,0-0.1,0-0.2-0.1
					c-0.8-0.5-1.8-1.3-2.8-1.6c0,0-0.4-0.1-0.4-0.5l0.4-2.9c0.3-2.1-1-3.8-3.1-4L84.3,73C84.4,73,84.3,73,84.3,73L84.3,73z"/>
			</g>
		</g>
		<g>
			<path class="st0" d="M115.7,111.8L88.8,98c0-1.9-1.1-3.8-3-4.7c-1.6-0.8-3.5-0.6-4.9,0.3l3.3,1.6c0.5,0.2,0.7,0.9,0.5,1.4
				l-1.6,3.4c-0.2,0.5-0.9,0.7-1.4,0.5l-3.3-1.6c0.3,1.7,1.3,3.2,2.9,3.9c1.9,0.9,4,0.5,5.5-0.7l26.9,13.8c0,1.9,1.1,3.8,3,4.7
				c1.6,0.8,3.5,0.6,4.9-0.3l-3.3-1.6c-0.5-0.2-0.7-0.9-0.5-1.4l1.6-3.4c0.2-0.5,0.9-0.7,1.4-0.5l3.3,1.6c-0.3-1.7-1.3-3.2-2.9-3.9
				C119.4,110.2,117.2,110.5,115.7,111.8z"/>
			<path class="st1" d="M118.9,122.1c-0.9,0-1.8-0.2-2.6-0.6c-2-0.9-3.3-2.8-3.5-5l-25.8-13.3c-1.8,1.2-4.1,1.4-6,0.4
				c-1.8-0.8-3.1-2.5-3.5-4.6c-0.1-0.4,0.1-0.7,0.4-1c0.3-0.2,0.7-0.3,1-0.1l3.3,1.6c0,0,0.1,0,0.1,0l1.6-3.4c0,0,0-0.1,0-0.1
				l-3.3-1.6c-0.3-0.2-0.5-0.5-0.6-0.8c0-0.4,0.2-0.7,0.5-0.9c1.8-1.1,4-1.3,5.9-0.4c2,0.9,3.3,2.8,3.5,5l25.8,13.2
				c1.8-1.2,4.1-1.4,6.1-0.4c1.8,0.8,3.1,2.5,3.4,4.6c0.1,0.4-0.1,0.7-0.4,1c-0.3,0.2-0.7,0.3-1,0.1l-3.3-1.6c0,0-0.1,0-0.1,0
				l-1.6,3.4c0,0,0,0.1,0,0.1l3.3,1.6c0.3,0.2,0.5,0.5,0.6,0.8c0,0.4-0.2,0.7-0.5,0.9C121.1,121.8,120,122.1,118.9,122.1z
				 M86.8,101.1c0.2,0,0.3,0,0.5,0.1l26.9,13.8c0.3,0.2,0.5,0.5,0.5,0.9c0,1.6,1,3.1,2.4,3.8c0.5,0.3,1.2,0.4,1.8,0.4l-1-0.5
				c-0.4-0.2-0.8-0.6-1-1.2c-0.2-0.5-0.2-1,0-1.5l1.6-3.5c0.2-0.4,0.5-0.8,1-1c0.5-0.2,1.2-0.2,1.7,0l0.8,0.4
				c-0.3-0.4-0.8-0.7-1.2-0.9c-1.5-0.7-3.2-0.5-4.4,0.5c-0.3,0.3-0.8,0.3-1.1,0.1L88.3,98.9c-0.3-0.2-0.5-0.5-0.5-0.9
				c0-1.6-1-3.1-2.4-3.8c-0.5-0.3-1.1-0.4-1.8-0.4l1,0.5c0.4,0.2,0.8,0.6,1,1.2c0.2,0.5,0.2,1,0,1.5l-1.6,3.5
				c-0.4,0.9-1.6,1.4-2.7,1l-0.8-0.4c0.3,0.4,0.8,0.7,1.2,0.9c1.5,0.7,3.2,0.5,4.5-0.6C86.4,101.2,86.6,101.1,86.8,101.1z"/>
		</g>
	</g>
</g>
</svg>
