<?xml version="1.0" encoding="utf-8"?>
<!-- Generator: Adobe Illustrator 21.0.2, SVG Export Plug-In . SVG Version: 6.00 Build 0)  -->
<svg version="1.1" id="Layer_1" xmlns="http://www.w3.org/2000/svg" xmlns:xlink="http://www.w3.org/1999/xlink" x="0px" y="0px"
	 viewBox="0 0 83.6 59.3" style="enable-background:new 0 0 83.6 59.3;" xml:space="preserve">
<style type="text/css">
	.st0{fill:#FFFFFF;}
	.st1{fill:#575656;}
	.st2{fill:#F7F7F7;}
	.st3{fill:#A5A5A5;}
	.st4{fill:#F9B51B;}
	.st5{fill:none;}
</style>
<g>
	<g>
		<g>
			<path class="st0" d="M80.1,52.8H20.2c-1.6,0-2.9-1.3-2.9-2.9V3.5c0-1.6,1.3-2.9,2.9-2.9h59.9c1.6,0,2.9,1.3,2.9,2.9v46.4
				C83,51.5,81.7,52.8,80.1,52.8z"/>
			<path class="st1" d="M80.1,53.4H20.2c-1.9,0-3.5-1.6-3.5-3.5V3.5c0-1.9,1.6-3.5,3.5-3.5h59.9c1.9,0,3.5,1.6,3.5,3.5v46.4
				C83.6,51.8,82,53.4,80.1,53.4z M20.2,1.2c-1.3,0-2.3,1-2.3,2.3v46.4c0,1.3,1,2.3,2.3,2.3h59.9c1.3,0,2.3-1,2.3-2.3V3.5
				c0-1.3-1-2.3-2.3-2.3H20.2z"/>
		</g>
		<g>
			<path class="st2" d="M17.3,6.8V3.5c0-1.6,1.3-2.9,2.9-2.9h59.9c1.6,0,2.9,1.3,2.9,2.9v3.3"/>
			<path class="st1" d="M83,7.4c-0.3,0-0.6-0.3-0.6-0.6V3.5c0-1.3-1-2.3-2.3-2.3H20.2c-1.3,0-2.3,1-2.3,2.3v3.3
				c0,0.3-0.3,0.6-0.6,0.6s-0.6-0.3-0.6-0.6V3.5c0-1.9,1.6-3.5,3.5-3.5h59.9c1.9,0,3.5,1.6,3.5,3.5v3.3C83.6,7.1,83.3,7.4,83,7.4z"
				/>
		</g>
		<g>
			<path class="st1" d="M83,7.8H17.3c-0.3,0-0.6-0.3-0.6-0.6c0-0.3,0.3-0.6,0.6-0.6H83c0.3,0,0.6,0.3,0.6,0.6
				C83.6,7.6,83.3,7.8,83,7.8z"/>
		</g>
		<g>
			<circle class="st3" cx="21.7" cy="4.2" r="1"/>
		</g>
		<g>
			<circle class="st3" cx="25.4" cy="4.2" r="1"/>
		</g>
		<g>
			<circle class="st3" cx="29.1" cy="4.2" r="1"/>
		</g>
	</g>
	<g>
		<g>
			<path class="st4" d="M30.8,39.8c-0.2,0-0.3-0.1-0.5-0.2c-0.2-0.2-0.2-0.6,0.1-0.8l12.8-11c0.2-0.2,0.5-0.2,0.7,0l5.3,3.9l10-9.9
				c0.2-0.2,0.6-0.2,0.8,0l7,6l7.4-10.5c0.2-0.3,0.6-0.3,0.8-0.1c0.3,0.2,0.3,0.6,0.1,0.8l-7.8,11.1c-0.1,0.1-0.2,0.2-0.4,0.2
				s-0.3,0-0.5-0.1l-7.1-6.1l-10,9.8c-0.2,0.2-0.5,0.2-0.8,0.1l-5.4-3.9L30.9,39.8C31.1,39.7,31,39.8,30.8,39.8z"/>
		</g>
		<g>
			<circle class="st0" cx="59.8" cy="22.2" r="1.7"/>
			<path class="st4" d="M59.8,24.4c-1.2,0-2.3-1-2.3-2.3c0-1.2,1-2.3,2.3-2.3c1.2,0,2.3,1,2.3,2.3S61,24.4,59.8,24.4z M59.8,21.1
				c-0.6,0-1.1,0.5-1.1,1.1s0.5,1.1,1.1,1.1s1.1-0.5,1.1-1.1S60.4,21.1,59.8,21.1z"/>
		</g>
		<g>
			<circle class="st0" cx="43.6" cy="28.3" r="1.7"/>
			<path class="st4" d="M43.6,30.5c-1.2,0-2.3-1-2.3-2.3c0-1.2,1-2.3,2.3-2.3c1.2,0,2.3,1,2.3,2.3C45.8,29.5,44.8,30.5,43.6,30.5z
				 M43.6,27.2c-0.6,0-1.1,0.5-1.1,1.1s0.5,1.1,1.1,1.1s1.1-0.5,1.1-1.1C44.6,27.7,44.2,27.2,43.6,27.2z"/>
		</g>
		<g>
			<polygon class="st0" points="73.2,16.5 76.6,18.6 76.7,14.7 			"/>
			<path class="st4" d="M76.6,19.2c-0.1,0-0.2,0-0.3-0.1L72.9,17c-0.2-0.1-0.3-0.3-0.3-0.5s0.1-0.4,0.3-0.5l3.5-1.8
				c0.2-0.1,0.4-0.1,0.6,0c0.2,0.1,0.3,0.3,0.3,0.5v3.9c0,0.2-0.1,0.4-0.3,0.5C76.8,19.2,76.7,19.2,76.6,19.2z M74.4,16.5l1.6,1
				v-1.9L74.4,16.5z"/>
		</g>
	</g>
	<g>
		<g>
			<g>
				<path class="st2" d="M45.3,52.8c0,0,0-16.7-5.5-17c-7.4-0.4-7.7-2.8-7.7-2.8L28,34.2L23.9,33c0,0-0.2,2.4-7.7,2.8
					c-5.5,0.3-5.5,17-5.5,17"/>
				<path class="st1" d="M10.8,53.4c-0.3,0-0.6-0.3-0.6-0.6c0-1.8,0.1-17.3,6.1-17.6c6.6-0.3,7.1-2.3,7.1-2.3c0-0.2,0.1-0.3,0.3-0.4
					c0.1-0.1,0.3-0.1,0.5-0.1l3.9,1.1l3.9-1.1c0.2,0,0.4,0,0.5,0.1s0.2,0.3,0.3,0.4l0,0c0,0,0.5,1.9,7.1,2.2
					c5.9,0.3,6.1,15.8,6.1,17.6c0,0.3-0.3,0.6-0.6,0.6l0,0c-0.3,0-0.6-0.3-0.6-0.6c0-4.5-0.9-16.2-4.9-16.4c-5.6-0.3-7.4-1.8-8-2.7
					l-3.6,1c-0.1,0-0.2,0-0.3,0l-3.6-1c-0.6,0.9-2.3,2.4-8,2.7c-4.1,0.2-4.9,11.9-4.9,16.4C11.4,53.1,11.1,53.4,10.8,53.4L10.8,53.4
					z"/>
			</g>
			<g>
				<ellipse class="st0" cx="28.3" cy="32.3" rx="4.5" ry="5.4"/>
				<path class="st1" d="M28.3,38.3c-2.8,0-5.1-2.7-5.1-6s2.3-6,5.1-6s5.1,2.7,5.1,6S31.2,38.3,28.3,38.3z M28.3,27.5
					c-2.2,0-3.9,2.2-3.9,4.8c0,2.7,1.8,4.8,3.9,4.8c2.2,0,3.9-2.2,3.9-4.8C32.3,29.6,30.5,27.5,28.3,27.5z"/>
			</g>
			<g>
				<path class="st1" d="M29.5,28.4h-2.9c-4.3,0-7.8-3.5-7.8-7.8v-2.9c0-4.3,3.5-7.8,7.8-7.8h2.9c4.3,0,7.8,3.5,7.8,7.8v2.9
					C37.3,24.9,33.7,28.4,29.5,28.4z"/>
			</g>
			<g>
				<polygon class="st0" points="32.3,54.9 28.3,58.4 24.4,54.9 28.3,39.8 				"/>
				<path class="st1" d="M28.3,59c-0.1,0-0.3,0-0.4-0.1L24,55.4c-0.2-0.1-0.2-0.4-0.2-0.6l3.9-15.1c0.1-0.3,0.3-0.4,0.6-0.4
					s0.5,0.2,0.6,0.4l3.9,15.1c0.1,0.2,0,0.5-0.2,0.6l-3.9,3.5C28.6,59,28.5,59,28.3,59z M25,54.7l3.3,2.9l3.3-2.9l-3.3-12.5
					L25,54.7z"/>
			</g>
			<g>
				<path class="st0" d="M36.8,22.5L36.8,22.5c0-0.2,0-0.3,0-0.5c0-6.3-3.7-7.6-8.8-7.6s-8.8,1.3-8.8,7.6c0,0.2,0,0.4,0,0.5
					c-0.4,0.1-0.7,0.5-0.7,0.9V25c0,0.5,0.4,1,1,1c0.1,0,0.2,0,0.3,0c1.2,4.6,4.3,8.2,8.3,8.2s7.2-3.7,8.3-8.3
					c0.1,0.1,0.3,0.1,0.5,0.1c0.5,0,1-0.4,1-1v-1.5C37.7,22.9,37.3,22.5,36.8,22.5z"/>
				<path class="st1" d="M28,34.8c-3.9,0-7.3-3.2-8.7-8.2c-0.8-0.1-1.4-0.7-1.4-1.5v-1.6c0-0.5,0.3-1,0.7-1.3v-0.1
					c0-7.2,4.7-8.2,9.4-8.2c4.6,0,9.4,1,9.4,8.2l0,0c0.6,0.2,1,0.8,1,1.4v1.6c0,0.9-0.7,1.6-1.6,1.6l0,0
					C35.4,31.5,31.9,34.8,28,34.8z M19.7,25.3c0.1,0,0.2,0,0.3,0.1s0.2,0.2,0.3,0.4c1.2,4.6,4.3,7.8,7.7,7.8c3.5,0,6.6-3.2,7.7-7.9
					c0-0.2,0.2-0.3,0.3-0.4c0.2-0.1,0.4-0.1,0.5,0c0.3,0.1,0.5-0.1,0.5-0.3v-1.5c0-0.2-0.2-0.3-0.3-0.4l0,0c-0.2,0-0.3-0.1-0.4-0.2
					c-0.1-0.1-0.2-0.3-0.2-0.4c0-0.2,0-0.3,0-0.5c0-5.8-3.3-7-8.2-7s-8.2,1.2-8.2,7c0,0.2,0,0.3,0,0.5c0,0.3-0.2,0.5-0.5,0.6
					c-0.2,0-0.3,0.2-0.3,0.3V25c0,0.2,0.2,0.4,0.4,0.4h0.1C19.6,25.3,19.7,25.3,19.7,25.3z"/>
			</g>
			<g>
				<path class="st1" d="M19.3,18.5c0,0,4.2-6.7,10.5,0c5.9,6.2,7.4,3.3,7.4,3.3l-1-6.2l-6.1-3.7c0,0-7.1-0.2-8,0
					c-1,0.2-3.3,5.8-3.3,5.8L19.3,18.5z"/>
			</g>
		</g>
		<g>
			<path class="st2" d="M45.1,48.4l0.2,5.6l10.6-19.8l2.6,1L48,57c0,0-5.9,8.2-8.1-10.6"/>
			<path class="st1" d="M45,59.3c-0.2,0-0.4,0-0.7-0.1c-2.5-0.7-4.2-4.9-5.1-12.8c0-0.3,0.2-0.6,0.5-0.7c0.3,0,0.6,0.2,0.7,0.5
				c1.1,9.6,3.1,11.5,4.2,11.8c1.3,0.3,2.5-1.2,2.7-1.4l10.2-21.2l-1.4-0.5L45.8,54.2c-0.1,0.2-0.4,0.4-0.7,0.3
				c-0.3-0.1-0.5-0.3-0.5-0.6l-0.2-5.6c0-0.3,0.2-0.6,0.6-0.6c0.3,0,0.6,0.2,0.6,0.6l0.1,3.4l9.5-17.8c0.1-0.3,0.5-0.4,0.7-0.3
				l2.6,1c0.2,0.1,0.3,0.2,0.3,0.3c0.1,0.2,0.1,0.3,0,0.5L48.3,57.2c0,0,0,0.1-0.1,0.1C48.3,57.4,46.9,59.3,45,59.3z"/>
		</g>
		<g>
			<path class="st0" d="M61,29.2l-2.7-1c-0.5-0.2-1.1,0.1-1.2,0.6L56,31.4L55.6,30c-0.1-0.3-0.4-0.5-0.7-0.4l-0.5,0.2
				c-0.3,0.1-0.5,0.4-0.4,0.7l1.1,3.5c0.1,0.3,3.6,1.4,3.6,1.4c0.5,0.2,1.1-0.1,1.2-0.6l1.8-4.4C61.8,30,61.5,29.4,61,29.2z"/>
			<path class="st1" d="M58.9,36.1c-0.2,0-0.4,0-0.5-0.1c-3.8-1.3-3.9-1.5-4-1.8l-1.1-3.5c-0.1-0.3-0.1-0.6,0.1-0.9
				c0.1-0.3,0.4-0.5,0.7-0.6l0.5-0.2c0.6-0.2,1.2,0.1,1.4,0.6l0.5-1.1c0.3-0.8,1.2-1.2,2-0.9l2.7,1l0,0c0.8,0.3,1.2,1.2,0.9,2
				L60.3,35C60.2,35.7,59.6,36.1,58.9,36.1z M55.5,33.7c0.5,0.2,2,0.8,3.3,1.2c0.2,0.1,0.4,0,0.5-0.2l1.8-4.4c0.1-0.2,0-0.4-0.2-0.5
				l-2.7-1c-0.2-0.1-0.4,0-0.5,0.2l-1.1,2.6C56.5,31.8,56.3,32,56,32s-0.5-0.2-0.5-0.4l-0.4-1.4l-0.5,0.2L55.5,33.7z M55.4,33.6
				L55.4,33.6z"/>
		</g>
	</g>
	<g>
		<g>
			<circle class="st0" cx="10.4" cy="48.9" r="9.8"/>
			<path class="st1" d="M10.4,59.3C4.7,59.3,0,54.6,0,48.9s4.7-10.4,10.4-10.4s10.4,4.7,10.4,10.4C20.8,54.6,16.2,59.3,10.4,59.3z
				 M10.4,39.7c-5.1,0-9.2,4.1-9.2,9.2c0,5.1,4.1,9.2,9.2,9.2s9.2-4.1,9.2-9.2S15.5,39.7,10.4,39.7z"/>
		</g>
		<g>
			<path class="st4" d="M10.5,56.4c-2,0-3.8-0.8-5.2-2.1c-0.3-0.3-0.3-0.7,0-1s0.7-0.3,1,0c1.1,1.1,2.6,1.7,4.2,1.7c3.3,0,6-2.7,6-6
				s-2.7-6-6-6c-0.4,0-0.7-0.3-0.7-0.7s0.3-0.7,0.7-0.7c4.1,0,7.5,3.4,7.5,7.5C18,53,14.6,56.4,10.5,56.4z"/>
		</g>
		<g>
			<path class="st0" d="M12,37.6H8.9c-0.6,0-1.1-0.5-1.1-1.1l0,0c0-0.6,0.5-1.1,1.1-1.1H12c0.6,0,1.1,0.5,1.1,1.1l0,0
				C13.1,37.1,12.6,37.6,12,37.6z"/>
			<path class="st1" d="M12,38.2H8.9c-0.9,0-1.7-0.8-1.7-1.7c0-0.9,0.8-1.7,1.7-1.7H12c0.9,0,1.7,0.8,1.7,1.7
				C13.7,37.4,12.9,38.2,12,38.2z M8.8,35.9c-0.3,0-0.5,0.2-0.5,0.5s0.2,0.5,0.5,0.5h3.1c0.3,0,0.5-0.2,0.5-0.5s-0.2-0.5-0.5-0.5
				H8.8z"/>
		</g>
		<g>
			<path class="st1" d="M20.1,42.7c-0.2,0-0.3-0.1-0.4-0.2l-2.1-2.1c-0.2-0.2-0.2-0.6,0-0.8s0.6-0.2,0.8,0l2.1,2.1
				c0.2,0.2,0.2,0.6,0,0.8C20.4,42.7,20.2,42.7,20.1,42.7z"/>
		</g>
		<g>
			<line class="st5" x1="10.4" y1="48.9" x2="4.6" y2="52.8"/>
			<path class="st1" d="M4.6,53.4c-0.2,0-0.4-0.1-0.5-0.3c-0.2-0.3-0.1-0.6,0.2-0.8l5.8-3.9c0.3-0.2,0.6-0.1,0.8,0.2
				s0.1,0.6-0.2,0.8l-5.8,3.9C4.8,53.4,4.7,53.4,4.6,53.4z"/>
		</g>
		<g>
			<circle class="st0" cx="10.4" cy="48.9" r="1.4"/>
			<path class="st1" d="M10.4,50.8c-1.1,0-2-0.9-2-2s0.9-2,2-2s2,0.9,2,2S11.5,50.8,10.4,50.8z M10.4,48.1c-0.4,0-0.8,0.3-0.8,0.8
				c0,0.4,0.3,0.8,0.8,0.8s0.8-0.3,0.8-0.8C11.2,48.5,10.8,48.1,10.4,48.1z"/>
		</g>
	</g>
</g>
</svg>
