<?xml version="1.0" encoding="utf-8"?>
<!-- Generator: Adobe Illustrator 21.0.2, SVG Export Plug-In . SVG Version: 6.00 Build 0)  -->
<svg version="1.1" id="Warstwa_1" xmlns="http://www.w3.org/2000/svg" xmlns:xlink="http://www.w3.org/1999/xlink" x="0px" y="0px"
	 viewBox="0 0 100 100" style="enable-background:new 0 0 100 100;" xml:space="preserve">
<style type="text/css">
	.st0{fill:#FFFFFF;}
	.st1{fill:#F7F7F7;}
	.st2{fill:#575656;}
	.st3{fill:#F9B51B;}
</style>
<g>
	<circle class="st0" cx="50" cy="50" r="50"/>
</g>
<g>
	<g>
		<g>
			<polygon class="st1" points="21.2,75.6 8.6,75.6 10.7,65.8 19.1,65.8 			"/>
			<path class="st2" d="M21.2,76.1H8.6c-0.2,0-0.3-0.1-0.4-0.2c-0.1-0.1-0.1-0.3-0.1-0.4l2.1-9.8c0-0.2,0.3-0.4,0.5-0.4h8.4
				c0.2,0,0.4,0.2,0.5,0.4l2.1,9.8c0,0.1,0,0.3-0.1,0.4S21.4,76.1,21.2,76.1z M9.2,75.1h11.4l-1.9-8.8h-7.6L9.2,75.1z"/>
		</g>
		<path class="st2" d="M40.7,24.5H7c-0.2,0.3-0.4,0.7-0.6,1h34.3c2.6,0,4.7,2.1,4.7,4.7V64c0,2.6-2.2,4.8-4.7,4.8h-37
			c0.1,0.3,0.3,0.7,0.4,1h36.6c3.1,0,5.7-2.7,5.7-5.8V30.2C46.4,27.1,43.8,24.5,40.7,24.5z"/>
		<path class="st1" d="M3.9,69.3h36.8c2.8,0,5.2-2.3,5.2-5.2v-4H1C1.7,63.3,2.6,66.4,3.9,69.3z"/>
		<path class="st2" d="M45.9,59.6h-45c0.1,0.3,0.1,0.7,0.2,1h44.3v3.5c0,2.6-2.1,4.7-4.7,4.7h-37c0.1,0.3,0.3,0.7,0.4,1h36.6
			c3.1,0,5.7-2.6,5.7-5.7v-4C46.4,59.8,46.2,59.6,45.9,59.6z"/>
		<g>
			<path class="st1" d="M23,75H6.8c0,0-0.1,0-0.1,0c0.5,0.8,1,1.7,1.5,2.5H23c0.6,0,1.2-0.6,1.2-1.3C24.2,75.6,23.7,75,23,75z"/>
			<path class="st2" d="M23,74.5H6.8c-0.1,0-0.2,0-0.4,0c0.2,0.4,0.4,0.7,0.6,1.1H23c0.4,0,0.7,0.4,0.7,0.7c0,0.4-0.4,0.8-0.7,0.8H8
				c0.2,0.3,0.4,0.6,0.6,0.9H23c0.9,0,1.7-0.8,1.7-1.8C24.7,75.4,24,74.5,23,74.5z"/>
		</g>
		<g>
			<circle class="st2" cx="14.9" cy="63.7" r="0.9"/>
		</g>
	</g>
	<g>
		<path class="st1" d="M1.8,36.8h34.1V31H3.7C3,32.9,2.3,34.8,1.8,36.8z"/>
		<g>
			<rect x="10.1" y="40.5" class="st1" width="25.7" height="1.7"/>
		</g>
		<g>
			<rect x="10.1" y="44.6" class="st1" width="25.7" height="1.7"/>
		</g>
		<g>
			<rect x="10.1" y="48.6" class="st1" width="25.7" height="1.7"/>
		</g>
		<g>
			<rect x="10.1" y="53.1" class="st1" width="25.7" height="1.7"/>
		</g>
		<path class="st1" d="M0.2,54.2H8V40.3H0.9C0.3,43.4,0,46.7,0,50C0,51.4,0.1,52.8,0.2,54.2z"/>
	</g>
</g>
<g>
	<g>
		<polygon class="st1" points="91.4,75.6 78.8,75.6 80.9,65.8 89.3,65.8 		"/>
		<path class="st2" d="M91.4,76.1H78.8c-0.2,0-0.3-0.1-0.4-0.2s-0.1-0.3-0.1-0.4l2.1-9.8c0-0.2,0.3-0.4,0.5-0.4h8.4
			c0.2,0,0.4,0.2,0.5,0.4l2.1,9.8c0,0.1,0,0.3-0.1,0.4S91.6,76.1,91.4,76.1z M79.4,75.1h11.4l-1.9-8.8h-7.6L79.4,75.1z"/>
	</g>
	<path class="st1" d="M99,60.1H54.1v4c0,2.8,2.3,5.2,5.2,5.2h36.8C97.4,66.4,98.3,63.3,99,60.1z"/>
	<path class="st2" d="M96.3,68.8h-37c-2.6,0-4.7-2.1-4.7-4.7v-3.5h44.3c0.1-0.3,0.1-0.7,0.2-1H54.6V30.2c0-2.6,2.1-4.7,4.7-4.7h34.3
		c-0.2-0.3-0.4-0.7-0.6-1H59.3c-3.1,0-5.7,2.6-5.7,5.7v29.9v4c0,3.1,2.6,5.7,5.7,5.7h36.6C96.1,69.5,96.2,69.1,96.3,68.8z"/>
	<g>
		<path class="st1" d="M93.2,75.1C93.2,75.1,93.2,75.1,93.2,75.1l-16.2,0c-0.6,0-1.2,0.5-1.2,1.2c0,0.6,0.5,1.2,1.2,1.2h14.8
			C92.3,76.7,92.8,75.9,93.2,75.1z"/>
		<path class="st2" d="M77,74.6c-0.8,0-1.7,0.7-1.7,1.7c0,0.8,0.7,1.7,1.7,1.7h14.4c0.2-0.3,0.4-0.7,0.6-1H77
			c-0.4,0-0.7-0.4-0.7-0.7c0-0.4,0.4-0.7,0.7-0.7h15.9c0.2-0.3,0.4-0.6,0.6-1c-0.1,0-0.2,0-0.3,0H77z"/>
	</g>
	<g>
		<circle class="st2" cx="85.1" cy="63.7" r="0.9"/>
	</g>
</g>
<g>
	<path class="st1" d="M99.1,40.5H80.3v1.7h19.1C99.3,41.6,99.2,41.1,99.1,40.5z"/>
	<path class="st1" d="M99.7,44.6H80.3v1.7h19.5C99.8,45.7,99.8,45.2,99.7,44.6z"/>
	<path class="st1" d="M80.3,50.3H100c0-0.1,0-0.2,0-0.3c0-0.5,0-0.9,0-1.4H80.3V50.3z"/>
	<path class="st1" d="M99.9,53.1H80.3v1.7h19.5C99.8,54.2,99.9,53.7,99.9,53.1z"/>
	<g>
		<g>
			<rect x="61.6" y="40.3" class="st1" width="16.6" height="13.9"/>
		</g>
	</g>
	<path class="st1" d="M96.3,31H61.6v5.8h36.6C97.7,34.8,97,32.9,96.3,31z"/>
</g>
<g>
	<circle class="st3" cx="49.3" cy="47.3" r="12.2"/>
</g>
<g>
	<path class="st0" d="M56.3,45.2c-0.1-0.5-0.3-1-0.6-1.4l0.3-1.9l-1.3-1.3l-1.9,0.3c-0.4-0.2-0.9-0.4-1.4-0.6l-1.1-1.5h-1.9
		l-1.1,1.5c-0.5,0.1-1,0.3-1.4,0.6L44,40.6l-1.3,1.3l0.3,1.9c-0.2,0.4-0.4,0.9-0.6,1.4l-1.5,1.1v1.9l1.5,1.1c0.1,0.5,0.3,1,0.6,1.4
		l-0.3,1.9l1.3,1.3l1.9-0.3c0.4,0.2,0.9,0.4,1.4,0.6l1.1,1.5h1.9l1.1-1.5c0.5-0.1,1-0.3,1.4-0.6l1.9,0.3l1.3-1.3l-0.3-1.9
		c0.2-0.4,0.4-0.9,0.6-1.4l1.5-1.1v-1.9L56.3,45.2z M54.2,47.6c0,2.1-1.7,3.8-3.8,3.8h-2.6c-0.1,0-0.1,0-0.2,0c-2-0.2-3.6-1.9-3.6-4
		c0-2.2,1.8-4,4-4c0.5,0,0.9,0.4,0.9,0.9s-0.4,0.9-0.9,0.9c-1.2,0-2.1,1-2.1,2.1c0,1.2,1,2.1,2.1,2.1h0.3V48c0-0.5,0.4-0.9,0.9-0.9
		s0.9,0.4,0.9,0.9v1.6h0.3c1.1,0,2-0.9,2-2v-3.2c0-0.5,0.4-0.9,0.9-0.9s0.9,0.4,0.9,0.9C54.2,44.4,54.2,47.6,54.2,47.6z"/>
</g>
</svg>
